<svg xmlns="http://www.w3.org/2000/svg" xmlns:xlink="http://www.w3.org/1999/xlink" id="robot-working-while-walking" viewBox="0 0 1400 1000">
  <defs>
    <linearGradient id="linear-gradient" x1="573.75" x2="1043.06" y1="500" y2="500" gradientUnits="userSpaceOnUse">
      <stop offset="0" stop-color="#2e7abc"></stop>
      <stop offset="1" stop-color="#fff" stop-opacity="0"></stop>
    </linearGradient>
    <linearGradient id="linear-gradient-2" x1="164.43" x2="516.96" y1="246.42" y2="246.42" gradientUnits="userSpaceOnUse">
      <stop offset="0" stop-color="#fff"></stop>
      <stop offset=".61" stop-color="#9ab5db" stop-opacity=".46"></stop>
      <stop offset="1" stop-color="#5884c3" stop-opacity=".1"></stop>
    </linearGradient>
    <linearGradient id="linear-gradient-3" x1="164.43" x2="516.96" y1="246.42" y2="246.42" gradientUnits="userSpaceOnUse">
      <stop offset="0" stop-color="#4058a6"></stop>
      <stop offset="1" stop-color="#5884c3" stop-opacity=".1"></stop>
    </linearGradient>
    <linearGradient xlink:href="#linear-gradient-2" id="linear-gradient-4" x1="830.82" x2="1183.36" y1="207.03" y2="207.03"></linearGradient>
    <linearGradient xlink:href="#linear-gradient-3" id="linear-gradient-5" x1="830.82" x2="1183.36" y1="207.03" y2="207.03"></linearGradient>
    <linearGradient id="linear-gradient-6" x1="668.26" x2="726.14" y1="398.66" y2="398.66" gradientUnits="userSpaceOnUse">
      <stop offset="0" stop-color="#4058a6"></stop>
      <stop offset=".25" stop-color="#415aa8" stop-opacity=".97"></stop>
      <stop offset=".49" stop-color="#4562ad" stop-opacity=".89"></stop>
      <stop offset=".72" stop-color="#4c6fb5" stop-opacity=".74"></stop>
      <stop offset=".96" stop-color="#5680c0" stop-opacity=".54"></stop>
      <stop offset="1" stop-color="#5884c3" stop-opacity=".5"></stop>
    </linearGradient>
    <linearGradient id="linear-gradient-7" x1="690.68" x2="734.56" y1="384.01" y2="384.01" gradientUnits="userSpaceOnUse">
      <stop offset="0" stop-color="#f25654"></stop>
      <stop offset=".09" stop-color="#f25a58" stop-opacity=".97"></stop>
      <stop offset=".22" stop-color="#f36765" stop-opacity=".9"></stop>
      <stop offset=".37" stop-color="#f57b79" stop-opacity=".78"></stop>
      <stop offset=".54" stop-color="#f79796" stop-opacity=".62"></stop>
      <stop offset=".72" stop-color="#fabbba" stop-opacity=".4"></stop>
      <stop offset=".9" stop-color="#fde6e6" stop-opacity=".15"></stop>
      <stop offset="1" stop-color="#fff" stop-opacity="0"></stop>
    </linearGradient>
    <linearGradient id="linear-gradient-8" x1="747.88" x2="789.16" y1="378.02" y2="378.02" gradientUnits="userSpaceOnUse">
      <stop offset="0" stop-color="#5884c3"></stop>
      <stop offset=".2" stop-color="#5b86c4" stop-opacity=".98"></stop>
      <stop offset=".34" stop-color="#638cc7" stop-opacity=".94"></stop>
      <stop offset=".47" stop-color="#7196cc" stop-opacity=".85"></stop>
      <stop offset=".59" stop-color="#84a4d3" stop-opacity=".74"></stop>
      <stop offset=".71" stop-color="#9db7dc" stop-opacity=".59"></stop>
      <stop offset=".82" stop-color="#bccee7" stop-opacity=".4"></stop>
      <stop offset=".92" stop-color="#e0e8f4" stop-opacity=".18"></stop>
      <stop offset="1" stop-color="#fff" stop-opacity="0"></stop>
    </linearGradient>
    <linearGradient xlink:href="#linear-gradient-8" id="linear-gradient-9" x1="747.88" x2="773.91" y1="389.3" y2="389.3"></linearGradient>
    <linearGradient xlink:href="#linear-gradient-8" id="linear-gradient-10" x1="747.88" x2="789.16" y1="400.58" y2="400.58"></linearGradient>
    <linearGradient xlink:href="#linear-gradient-6" id="linear-gradient-11" x1="683.67" x2="741.55" y1="384.02" y2="384.02"></linearGradient>
    <linearGradient id="linear-gradient-12" x1="472.07" x2="630.23" y1="281.8" y2="281.8" gradientUnits="userSpaceOnUse">
      <stop offset="0" stop-color="#5884c3"></stop>
      <stop offset=".15" stop-color="#5b86c4" stop-opacity=".98"></stop>
      <stop offset=".29" stop-color="#658ec8" stop-opacity=".92"></stop>
      <stop offset=".43" stop-color="#769ace" stop-opacity=".82"></stop>
      <stop offset=".57" stop-color="#8eacd6" stop-opacity=".68"></stop>
      <stop offset=".72" stop-color="#acc2e1" stop-opacity=".5"></stop>
      <stop offset=".86" stop-color="#d1ddef" stop-opacity=".27"></stop>
      <stop offset=".99" stop-color="#fcfdfe" stop-opacity=".02"></stop>
      <stop offset="1" stop-color="#fff" stop-opacity="0"></stop>
    </linearGradient>
    <linearGradient id="linear-gradient-13" x1="488.47" x2="613.83" y1="316.12" y2="316.12" gradientUnits="userSpaceOnUse">
      <stop offset="0" stop-color="#4058a6"></stop>
      <stop offset="1" stop-color="#5884c3" stop-opacity=".8"></stop>
    </linearGradient>
    <linearGradient xlink:href="#linear-gradient-13" id="linear-gradient-14" x1="523.51" x2="525.51" y1="330.44" y2="330.44"></linearGradient>
    <linearGradient xlink:href="#linear-gradient-13" id="linear-gradient-15" x1="557.11" x2="559.11" y1="330.44" y2="330.44"></linearGradient>
    <linearGradient xlink:href="#linear-gradient-13" id="linear-gradient-16" x1="585.37" x2="587.37" y1="330.44" y2="330.44"></linearGradient>
    <linearGradient xlink:href="#linear-gradient-13" id="linear-gradient-17" x1="521.76" x2="527.25" y1="347.18" y2="347.18"></linearGradient>
    <linearGradient xlink:href="#linear-gradient-13" id="linear-gradient-18" x1="555.36" x2="560.85" y1="338.36" y2="338.36"></linearGradient>
    <linearGradient xlink:href="#linear-gradient-13" id="linear-gradient-19" x1="555.36" x2="560.85" y1="294.98" y2="294.98"></linearGradient>
    <linearGradient xlink:href="#linear-gradient-13" id="linear-gradient-20" x1="583.62" x2="589.11" y1="320.18" y2="320.18"></linearGradient>
    <linearGradient xlink:href="#linear-gradient-13" id="linear-gradient-21" x1="583.62" x2="589.11" y1="359.6" y2="359.6"></linearGradient>
    <linearGradient xlink:href="#linear-gradient-13" id="linear-gradient-22" x1="567.05" x2="619.07" y1="197.03" y2="197.03"></linearGradient>
    <linearGradient xlink:href="#linear-gradient-13" id="linear-gradient-23" x1="567.05" x2="619.07" y1="210.42" y2="210.42"></linearGradient>
    <linearGradient xlink:href="#linear-gradient-13" id="linear-gradient-24" x1="567.05" x2="619.07" y1="223.81" y2="223.81"></linearGradient>
    <linearGradient xlink:href="#linear-gradient-13" id="linear-gradient-25" x1="567.05" x2="619.07" y1="237.21" y2="237.21"></linearGradient>
    <linearGradient xlink:href="#linear-gradient-13" id="linear-gradient-26" x1="567.05" x2="619.07" y1="250.6" y2="250.6"></linearGradient>
    <linearGradient xlink:href="#linear-gradient-6" id="linear-gradient-27" x1="465.57" x2="636.73" y1="281.8" y2="281.8"></linearGradient>
    <linearGradient xlink:href="#linear-gradient-13" id="linear-gradient-28" x1="478.47" x2="622.71" y1="330.4" y2="330.4"></linearGradient>
    <linearGradient id="linear-gradient-29" x1="827.14" x2="1072.46" y1="333.53" y2="448.33" gradientUnits="userSpaceOnUse">
      <stop offset="0" stop-color="#fff" stop-opacity="0"></stop>
      <stop offset=".07" stop-color="#fcdedd" stop-opacity=".2"></stop>
      <stop offset=".16" stop-color="#fabebd" stop-opacity=".38"></stop>
      <stop offset=".24" stop-color="#f8a2a1" stop-opacity=".55"></stop>
      <stop offset=".33" stop-color="#f68a89" stop-opacity=".69"></stop>
      <stop offset=".43" stop-color="#f57776" stop-opacity=".8"></stop>
      <stop offset=".54" stop-color="#f36867" stop-opacity=".89"></stop>
      <stop offset=".65" stop-color="#f35e5c" stop-opacity=".95"></stop>
      <stop offset=".79" stop-color="#f25856" stop-opacity=".99"></stop>
      <stop offset="1" stop-color="#f25654"></stop>
    </linearGradient>
    <linearGradient id="linear-gradient-30" x1="671.54" x2="867.28" y1="230.91" y2="230.91" gradientUnits="userSpaceOnUse">
      <stop offset="0" stop-color="#f2ba34"></stop>
      <stop offset=".13" stop-color="#f2bb37" stop-opacity=".98"></stop>
      <stop offset=".26" stop-color="#f3be41" stop-opacity=".94"></stop>
      <stop offset=".39" stop-color="#f4c452" stop-opacity=".85"></stop>
      <stop offset=".52" stop-color="#f5cc69" stop-opacity=".74"></stop>
      <stop offset=".64" stop-color="#f7d686" stop-opacity=".59"></stop>
      <stop offset=".77" stop-color="#fae2ab" stop-opacity=".41"></stop>
      <stop offset=".89" stop-color="#fcf1d5" stop-opacity=".21"></stop>
      <stop offset="1" stop-color="#fff" stop-opacity="0"></stop>
    </linearGradient>
    <linearGradient xlink:href="#linear-gradient-13" id="linear-gradient-31" x1="723.59" x2="809.42" y1="227.99" y2="227.99"></linearGradient>
    <linearGradient xlink:href="#linear-gradient-13" id="linear-gradient-32" x1="764.51" x2="811.42" y1="206.7" y2="206.7"></linearGradient>
    <linearGradient xlink:href="#linear-gradient-13" id="linear-gradient-33" x1="676.23" x2="687.46" y1="246.15" y2="246.15"></linearGradient>
    <linearGradient xlink:href="#linear-gradient-13" id="linear-gradient-34" x1="676.23" x2="687.46" y1="262.99" y2="262.99"></linearGradient>
    <linearGradient xlink:href="#linear-gradient-13" id="linear-gradient-35" x1="676.23" x2="687.46" y1="279.82" y2="279.82"></linearGradient>
    <linearGradient xlink:href="#linear-gradient-13" id="linear-gradient-36" x1="693.07" x2="718.49" y1="246.15" y2="246.15"></linearGradient>
    <linearGradient xlink:href="#linear-gradient-13" id="linear-gradient-37" x1="683.82" x2="709.24" y1="178.14" y2="178.14"></linearGradient>
    <linearGradient xlink:href="#linear-gradient-13" id="linear-gradient-38" x1="683.82" x2="703.74" y1="185.08" y2="185.08"></linearGradient>
    <linearGradient xlink:href="#linear-gradient-13" id="linear-gradient-39" x1="824.5" x2="849.92" y1="179.17" y2="179.17"></linearGradient>
    <linearGradient xlink:href="#linear-gradient-13" id="linear-gradient-40" x1="824.5" x2="844.42" y1="186.1" y2="186.1"></linearGradient>
    <linearGradient xlink:href="#linear-gradient-13" id="linear-gradient-41" x1="824.5" x2="844.42" y1="172.24" y2="172.24"></linearGradient>
    <linearGradient xlink:href="#linear-gradient-13" id="linear-gradient-42" x1="836.13" x2="861.55" y1="265.85" y2="265.85"></linearGradient>
    <linearGradient xlink:href="#linear-gradient-13" id="linear-gradient-43" x1="836.13" x2="856.05" y1="272.38" y2="272.38"></linearGradient>
    <linearGradient xlink:href="#linear-gradient-13" id="linear-gradient-44" x1="836.13" x2="861.55" y1="278.91" y2="278.91"></linearGradient>
    <linearGradient xlink:href="#linear-gradient-13" id="linear-gradient-45" x1="836.13" x2="856.05" y1="285.43" y2="285.43"></linearGradient>
    <linearGradient xlink:href="#linear-gradient-13" id="linear-gradient-46" x1="693.07" x2="718.49" y1="262.99" y2="262.99"></linearGradient>
    <linearGradient xlink:href="#linear-gradient-13" id="linear-gradient-47" x1="693.07" x2="718.49" y1="279.82" y2="279.82"></linearGradient>
    <linearGradient xlink:href="#linear-gradient-6" id="linear-gradient-48" x1="664.67" x2="870.78" y1="231.01" y2="231.01"></linearGradient>
    <linearGradient id="linear-gradient-49" x1="4872.09" x2="4872.09" y1="-3900.22" y2="-3670.96" gradientTransform="matrix(-.91 .42 .42 .91 6572.48 1841.36)" gradientUnits="userSpaceOnUse">
      <stop offset="0" stop-color="#fff" stop-opacity="0"></stop>
      <stop offset=".13" stop-color="#eaf1f8" stop-opacity=".18"></stop>
      <stop offset=".36" stop-color="#cadced" stop-opacity=".47"></stop>
      <stop offset=".57" stop-color="#b0cbe4" stop-opacity=".7"></stop>
      <stop offset=".76" stop-color="#9dbede" stop-opacity=".86"></stop>
      <stop offset=".9" stop-color="#92b7da" stop-opacity=".96"></stop>
      <stop offset="1" stop-color="#8eb4d9"></stop>
    </linearGradient>
  </defs>
  <g id="Background">
    <polygon points="1120.72 435.2 1008.2 435.2 942.38 369.38 668.75 369.38 602.92 435.2 279.27 435.2 164.43 550.04 164.43 712.45 279.27 827.29 602.92 827.29 668.75 893.12 942.38 893.12 1008.2 827.29 1120.72 827.29 1235.57 712.45 1235.57 550.04 1120.72 435.2" style="fill:#f0f3f8"></polygon>
    <polygon points="566.61 221.41 403.62 221.41 344.93 280.09 344.93 343.09 403.62 401.77 566.61 401.77 625.3 343.09 625.3 280.09 566.61 221.41" style="fill:#f0f3f8"></polygon>
  </g>
  <g id="Smoke">
    <g style="opacity:.47">
      <path d="M609.38,893.12c12.84-14.54,23.87-30.61,31.8-47.94a153.49,153.49,0,0,0,9.44-26.74c.6-2.27,1-4.59,1.54-6.87.28-1.14.44-2.3.63-3.46l.57-3.46a127.64,127.64,0,0,0,1.38-13.88,143.73,143.73,0,0,0-1.49-27.71c-1.29-9.26-3.43-18.51-4.93-28.7a94,94,0,0,1-1.09-16.11,67.83,67.83,0,0,1,.76-8.56,64.11,64.11,0,0,1,2-8.57l.67-2.1c.25-.7.52-1.37.78-2.06s.52-1.38.81-2l.91-2a72.92,72.92,0,0,1,4.12-7.64,58.77,58.77,0,0,1,11.78-13.8,80,80,0,0,1,14.42-9.59c4.66-2.53,9-4.64,13-6.82s7.78-4.39,11.39-6.79a128.81,128.81,0,0,0,10.4-7.76c3.34-2.78,6.56-5.74,9.7-8.83l2.34-2.35,2.29-2.43L735,624.4l2.4-2.61a167.93,167.93,0,0,0,16.47-20.63,106.75,106.75,0,0,0,11.27-21.94c.76-1.87,1.3-3.82,2-5.72l.79-2.83.39-1.41.29-1.36a48.63,48.63,0,0,0,1.31-10.4c.1-3.5-.1-7.44-.42-12s-.73-9.55-1-14.66c-.63-10.22-.83-20.73-.6-31,0-2.59.15-5.13.23-7.7l.3-7.54.69-14.73c.13-2.49.27-5,.43-7.52l.25-3.81.3-3.87c.17-2.56.47-5.27.71-7.9l.48-4.08.25-2,.31-2.11a136.4,136.4,0,0,1,3.65-17.69,99.49,99.49,0,0,1,7.32-18.9,97.23,97.23,0,0,1,5.27-9l1.43-2.18,1.58-2.19c.48-.69,1.16-1.54,1.8-2.33s1.25-1.58,2-2.42,1.49-1.65,2.25-2.45,1.58-1.55,2.39-2.31,1.56-1.4,2.35-2.09,1.61-1.37,2.3-1.89l2.17-1.69c.38-.29.72-.53,1-.76l1-.71,2-1.41,1.8-1.23,1.81-1.23,1.68-1.11,3.31-2.18,6.34-4.09,12.26-7.87c8.09-5.21,16.1-10.42,24.09-15.7l24.07-15.94c3.94-2.64,7.86-5.29,11.64-7.91s7.47-5.23,10.87-7.77,6.52-5,8.91-7.22l.88-.81.75-.76c.56-.52.87-.94,1.31-1.39l2.35-2.45,2.31-2.43c3-3.19,5.75-6.23,8.16-9.2l.93-1.12.87-1.11,1.72-2.2,1.57-2.18.79-1.08.7-1.08a61.63,61.63,0,0,0,8.13-16.2,37,37,0,0,0,1.73-13.69c-.07-.54-.12-1.08-.15-1.61s-.19-1.08-.25-1.61c-.1-1.06-.47-2.16-.65-3.24a58.33,58.33,0,0,0-2.31-6.77,74.27,74.27,0,0,0-3.66-7.21c-1.48-2.46-3.15-5-5-7.49a114.67,114.67,0,0,0-13.55-14.91c-2.58-2.39-5.29-4.72-8-6.9-1.38-1.07-2.76-2.13-4.12-3.09-.67-.48-1.34-.95-2-1.36a9.37,9.37,0,0,0-1.4-.84l59.14-80.64c1.86,1.45,3,2.46,4.35,3.59s2.48,2.18,3.67,3.26c2.36,2.14,4.59,4.3,6.8,6.48,4.39,4.38,8.55,8.89,12.57,13.6a207,207,0,0,1,22,31,182.56,182.56,0,0,1,9,18,160.11,160.11,0,0,1,6.89,19.86,142.76,142.76,0,0,1,4,21.58,129.46,129.46,0,0,1,.17,22.54,124.48,124.48,0,0,1-11.52,42.6,146.81,146.81,0,0,1-21.91,33.36l-1.53,1.8-1.55,1.69-3.1,3.39-3.14,3.2-1.57,1.59-1.57,1.52c-4.2,4.1-8.41,7.81-12.45,11.29l-3,2.54-3,2.49c-1.39,1.14-2.84,2.38-4.18,3.38l-2,1.57-2,1.43c-5.26,3.76-10.12,6.76-14.83,9.54s-9.25,5.31-13.72,7.73-8.88,4.76-13.27,7.07l-26.07,13.5q-13.12,6.75-26.28,13.35l-13,6.5-6.27,3.15-2.95,1.5-1.44.75-1.29.68-1.29.68-1.06.59-1.78,1c-.31.17-.4.24-.58.33s-.39.19-.44.23a1.36,1.36,0,0,1-.3.13,1.56,1.56,0,0,1-.28.16c-.09,0-.25.18-.39.29a3.64,3.64,0,0,0-.51.47l-.66.69-.66.78c-.94,1-1.71,2.13-2.52,3.23a38.82,38.82,0,0,0-4.15,7.76A77.54,77.54,0,0,0,827,449.2l-.38,1.46-.36,1.53-.71,3.09c-.43,2.16-.91,4.24-1.31,6.5l-.62,3.33-.59,3.41c-.4,2.27-.78,4.6-1.15,6.93l-2.22,14.2-1,6.93c-.31,2.26-.69,4.54-.94,6.79-1.19,9-2,17.93-2.41,27.1-.22,4.57-.36,9.32-.53,14.4a162.72,162.72,0,0,1-1.36,17.06A92.64,92.64,0,0,1,809,580l-.74,2.13-.8,2c-.54,1.34-1.07,2.7-1.63,4-1.2,2.58-2.29,5.19-3.62,7.69a146.84,146.84,0,0,1-18.41,27.92,204.91,204.91,0,0,1-22.34,22.58l-2.81,2.46-2.89,2.49-3,2.55-3.08,2.5c-4.15,3.29-8.45,6.45-12.92,9.41a154.56,154.56,0,0,1-13.89,8.18c-4.77,2.48-9.64,4.67-14.4,6.61s-9.36,3.63-13.44,5.3a56.07,56.07,0,0,0-10.47,5.3,29.83,29.83,0,0,0-4.15,3.31,37.31,37.31,0,0,0-3.76,4.11,46.63,46.63,0,0,0-6,9.93c-3.12,6.92-4,15-3.6,24.17s1.5,19,1.83,29A157.35,157.35,0,0,1,667.17,792a138.65,138.65,0,0,1-3.1,14.82l-1,3.64c-.34,1.21-.64,2.42-1.06,3.61-.82,2.37-1.54,4.77-2.43,7.11a161.78,161.78,0,0,1-12.85,26.87A200,200,0,0,1,609.38,893.12Z" style="fill:url(#linear-gradient)"></path>
    </g>
  </g>
  <g id="Cloud">
    <path d="M517,278.73a44.24,44.24,0,0,0-10-12.61c-3.7-3.17-6.19-3.95-22.83-9.95-27.54-9.94-30.35-11.28-34-13.46a176.82,176.82,0,0,1-19.9-14.64c-9.86-8.14-10.07-9.76-14.64-11.71-12.84-5.47-26.86.65-29.27,1.76-8.51,3.88-7.51,6.95-22.25,17-15.29,10.4-19.82,9.45-21.67,8.79-4.67-1.67-4.08-5.74-11.12-10.54a32.1,32.1,0,0,0-14.64-5.27c-2.51-.28-9.06-.68-21.07,4.68-16.49,7.36-16.71,13.73-28.11,17-5.57,1.6-5.69.12-24-.58-19.13-.74-28.69-1.1-38.06,1.75-11.65,3.56-19.62,9.89-26.34,15.22-7,5.57-11.91,9.46-14.72,12.61Z" style="opacity:.51;fill:url(#linear-gradient-2)"></path>
    <path d="M517,278.73a44.24,44.24,0,0,0-10-12.61c-3.7-3.17-6.19-3.95-22.83-9.95-27.54-9.94-30.35-11.28-34-13.46a176.82,176.82,0,0,1-19.9-14.64c-9.86-8.14-10.07-9.76-14.64-11.71-12.84-5.47-26.86.65-29.27,1.76-8.51,3.88-7.51,6.95-22.25,17-15.29,10.4-19.82,9.45-21.67,8.79-4.67-1.67-4.08-5.74-11.12-10.54a32.1,32.1,0,0,0-14.64-5.27c-2.51-.28-9.06-.68-21.07,4.68-16.49,7.36-16.71,13.73-28.11,17-5.57,1.6-5.69.12-24-.58-19.13-.74-28.69-1.1-38.06,1.75-11.65,3.56-19.62,9.89-26.34,15.22-7,5.57-11.91,9.46-14.72,12.61Z" style="opacity:.51;fill:url(#linear-gradient-3)"></path>
  </g>
  <g id="Cloud-2">
    <path d="M1183.36,239.33a44.38,44.38,0,0,0-9.95-12.6c-3.71-3.17-6.2-3.95-22.84-9.95-27.54-9.94-30.35-11.29-34-13.47a174.36,174.36,0,0,1-19.9-14.64c-9.86-8.14-10.07-9.76-14.64-11.71-12.83-5.47-26.86.66-29.27,1.76-8.51,3.89-7.51,7-22.25,17-15.29,10.39-19.82,9.44-21.66,8.78-4.68-1.67-4.09-5.74-11.13-10.54a32.35,32.35,0,0,0-14.64-5.27c-2.51-.27-9.06-.68-21.07,4.69-16.49,7.36-16.71,13.72-28.11,17-5.57,1.59-5.69.11-24-.59-19.13-.73-28.69-1.1-38.06,1.76-11.65,3.55-19.62,9.88-26.34,15.22-7,5.57-11.9,9.45-14.72,12.6Z" style="opacity:.51;fill:url(#linear-gradient-4)"></path>
    <path d="M1183.36,239.33a44.38,44.38,0,0,0-9.95-12.6c-3.71-3.17-6.2-3.95-22.84-9.95-27.54-9.94-30.35-11.29-34-13.47a174.36,174.36,0,0,1-19.9-14.64c-9.86-8.14-10.07-9.76-14.64-11.71-12.83-5.47-26.86.66-29.27,1.76-8.51,3.89-7.51,7-22.25,17-15.29,10.39-19.82,9.44-21.66,8.78-4.68-1.67-4.09-5.74-11.13-10.54a32.35,32.35,0,0,0-14.64-5.27c-2.51-.27-9.06-.68-21.07,4.69-16.49,7.36-16.71,13.72-28.11,17-5.57,1.59-5.69.11-24-.59-19.13-.73-28.69-1.1-38.06,1.76-11.65,3.55-19.62,9.88-26.34,15.22-7,5.57-11.9,9.45-14.72,12.6Z" style="opacity:.51;fill:url(#linear-gradient-5)"></path>
  </g>
  <g id="Tabs">
    <polygon points="722.64 434.89 671.76 434.89 671.76 362.42 687.17 362.42 687.17 420.25 722.64 420.25 722.64 434.89" style="opacity:.47;fill:none;stroke-miterlimit:10;stroke-width:7px;stroke:url(#linear-gradient-6)"></polygon>
    <rect width="43.88" height="65.48" x="690.68" y="351.27" style="opacity:.47;fill:url(#linear-gradient-7)"></rect>
    <rect width="41.28" height="6.72" x="747.88" y="374.66" style="opacity:.68;fill:url(#linear-gradient-8)"></rect>
    <rect width="26.03" height="6.72" x="747.88" y="385.94" style="opacity:.68;fill:url(#linear-gradient-9)"></rect>
    <rect width="41.28" height="6.72" x="747.88" y="397.22" style="opacity:.68;fill:url(#linear-gradient-10)"></rect>
    <path d="M733.12,385.49c0,12.65-9.18,20-20.51,20s-20.51-7.32-20.51-20,9.19-22.92,20.51-22.92S733.12,372.83,733.12,385.49Z" style="fill:#5884c3"></path>
    <path d="M716,384.14a6.16,6.16,0,0,0,2-4.59,5.68,5.68,0,1,0-11.34,0,6.11,6.11,0,0,0,2.16,4.72,10.07,10.07,0,0,0-6.31,9.34v2.12h20.15v-2.12A10.06,10.06,0,0,0,716,384.14Z" style="fill:#fff"></path>
    <g style="opacity:.47">
      <path d="M741.55,423.76H683.67V344.28h57.88Zm-50.88-7h43.88V351.28H690.67Z" style="fill:url(#linear-gradient-11)"></path>
    </g>
  </g>
  <g id="Tabs-2">
    <rect width="158.16" height="220.19" x="472.07" y="171.71" style="opacity:.47;fill:url(#linear-gradient-12)"></rect>
    <rect width="138.24" height="97.26" x="482.03" y="281.8" style="fill:#e7ebf6"></rect>
    <polyline points="489.47 340.44 524.51 307.95 558.11 334.83 586.43 318.99 612.83 291.81" style="fill:none;stroke-linecap:round;stroke-linejoin:round;stroke-width:2px;stroke:url(#linear-gradient-13)"></polyline>
    <line x1="524.51" x2="524.51" y1="281.8" y2="379.07" style="fill:none;stroke-linecap:round;stroke-linejoin:round;stroke-width:2px;stroke:url(#linear-gradient-14)"></line>
    <line x1="558.11" x2="558.11" y1="281.8" y2="379.07" style="fill:none;stroke-linecap:round;stroke-linejoin:round;stroke-width:2px;stroke:url(#linear-gradient-15)"></line>
    <line x1="586.37" x2="586.37" y1="281.8" y2="379.07" style="fill:none;stroke-linecap:round;stroke-linejoin:round;stroke-width:2px;stroke:url(#linear-gradient-16)"></line>
    <circle cx="524.51" cy="347.18" r="2.75" style="fill:url(#linear-gradient-17)"></circle>
    <circle cx="558.11" cy="338.36" r="2.75" style="fill:url(#linear-gradient-18)"></circle>
    <circle cx="558.11" cy="294.98" r="2.75" style="fill:url(#linear-gradient-19)"></circle>
    <circle cx="586.37" cy="320.18" r="2.75" style="fill:url(#linear-gradient-20)"></circle>
    <circle cx="586.37" cy="359.6" r="2.75" style="fill:url(#linear-gradient-21)"></circle>
    <path d="M553.59,226.68c0,20.83-15.11,32.86-33.75,32.86s-33.75-12-33.75-32.86S501.2,189,519.84,189,553.59,205.86,553.59,226.68Z" style="fill:#5884c3"></path>
    <path d="M525.45,224.46a10.11,10.11,0,0,0,3.31-7.54,9.35,9.35,0,1,0-18.67,0,10.11,10.11,0,0,0,3.55,7.76A16.56,16.56,0,0,0,503.26,240v3.49h33.16V240A16.57,16.57,0,0,0,525.45,224.46Z" style="fill:#fff"></path>
    <line x1="567.05" x2="619.07" y1="197.03" y2="197.03" style="fill:none;stroke-miterlimit:10;stroke-width:4px;stroke:url(#linear-gradient-22)"></line>
    <line x1="567.05" x2="619.07" y1="210.42" y2="210.42" style="fill:none;stroke-miterlimit:10;stroke-width:4px;stroke:url(#linear-gradient-23)"></line>
    <line x1="567.05" x2="619.07" y1="223.81" y2="223.81" style="fill:none;stroke-miterlimit:10;stroke-width:4px;stroke:url(#linear-gradient-24)"></line>
    <line x1="567.05" x2="619.07" y1="237.21" y2="237.21" style="fill:none;stroke-miterlimit:10;stroke-width:4px;stroke:url(#linear-gradient-25)"></line>
    <line x1="567.05" x2="619.07" y1="250.6" y2="250.6" style="fill:none;stroke-miterlimit:10;stroke-width:4px;stroke:url(#linear-gradient-26)"></line>
    <rect width="164.16" height="226.19" x="469.07" y="168.71" style="opacity:.47;fill:none;stroke-miterlimit:10;stroke-width:7px;stroke:url(#linear-gradient-27)"></rect>
    <rect width="138.24" height="97.26" x="481.47" y="281.77" style="fill:none;stroke-miterlimit:10;stroke-width:6px;stroke:url(#linear-gradient-28)"></rect>
  </g>
  <g id="Trees">
    <path d="M1017,619.13a213.15,213.15,0,0,0,73.26-2.44c15.86-3.29,64.5-14.08,106.24-56.17,9.48-9.56,59.1-61.58,57.39-135.54-.28-12.15-2.44-71.44-36.63-89.14-15-7.74-24.93-1.78-41.42-12.94-21-14.19-15.86-31.29-33.07-46.9-20.31-18.42-36.54-2.89-80.73-16-42.59-12.62-46.84-32.77-80.46-32.85-6.89,0-34.3-.09-50.06,18.31-11.32,13.22-11.65,30.16-12.21,58.62-.75,37.68,7,46.53-1.22,57.69-11.6,15.73-31.89,4.83-53.58,22-18.79,14.87-23,38.4-24.57,47.32-6.45,36.17,11.6,66.12,24.42,86.7C870,526.82,920.46,605.06,1017,619.13Z" style="fill:#f5ca6e"></path>
    <path d="M946.45,563.27c14.4-20-13.28-45.73-8.51-96.25,1.63-17.27,4.13-43.77,22.25-55.78,28.72-19.06,73.28,13.88,86.08-2.75,7.71-10-2.49-29.71-2.94-30.54-9.38-17.64-24.67-14.95-36.44-30.82-11.37-15.33-14.31-41-3.66-53.12,11.18-12.68,27.88.37,62.27-7.32,14-3.12,26.32-9.52,43.91-20.68-11.79,0-26.45.21-47.4-6-42.59-12.62-46.84-32.77-80.46-32.85-6.89,0-34.3-.09-50.06,18.31-11.32,13.22-11.65,30.16-12.21,58.62-.75,37.68,7,46.53-1.22,57.69-11.6,15.73-31.89,4.83-53.58,22-18.79,14.87-23,38.4-24.57,47.32-6.45,36.17,11.6,66.12,24.42,86.7,3.17,5.09,20.58,32.14,52.43,57.31C926.63,574.17,939.12,573.44,946.45,563.27Z" style="opacity:.47;fill:url(#linear-gradient-29)"></path>
    <path d="M1079.29,592.74l1,.59L1125,505.57l-43.12,66.72,5.27-41-13.44,53.69-2.16,3.35,1.15.67-14.09,56.3q-9.8-41.84-19.38-83.73-.6-2.6-1.18-5.19L1040.22,447l-8.87,79.58q-2.08-9.28-4.14-18.56c-4-17.87-7.86-35.75-11.46-53.7,1.85,18.22,4,36.41,6.21,54.59q2.14,17.76,4.4,35.51l-44.2-38.81,46.06,53.48c.19,1.45.36,2.9.55,4.35q6.88,53.8,14.17,107.58l-5.88,222,8.56-.19v.31l42.85-1.18L1069.3,670.59Z" style="fill:#8eb8e2"></path>
  </g>
  <g id="GrassLand">
    <path d="M177.2,886.16a58.07,58.07,0,0,1,13-16.45c4.84-4.14,8.09-5.16,29.81-13,36-13,39.62-14.73,44.33-17.57,10.62-6.42,21-15,26-19.11,12.86-10.63,13.14-12.75,19.11-15.29,16.75-7.14,35.06.85,38.21,2.29,11.11,5.08,9.8,9.09,29,22.17,20,13.57,25.87,12.33,28.28,11.46,6.1-2.18,5.34-7.49,14.53-13.75a41.89,41.89,0,0,1,19.1-6.88c3.28-.36,11.83-.89,27.52,6.11,21.52,9.61,21.81,17.92,36.68,22.17,7.29,2.08,7.43.15,31.34-.77,25-.95,37.46-1.43,49.68,2.3,15.21,4.64,25.62,12.9,34.4,19.87,9.15,7.27,15.53,12.34,19.2,16.45Z" style="fill:#cfd7ed"></path>
    <path d="M507.08,893.12c14.91-27.44,90.41-49.21,139-53.8,27.92-2.63,57-5.37,92.59,4.24,27.41,7.39,40.91,17.3,68.38,15.13,21.57-1.71,39.86-9.93,51.44-15.13,27.57-12.39,26.62-19.14,47.2-26.63,27-9.83,52-6.63,66-4.84,25.89,3.33,26,9.34,61.73,16.34,22.4,4.39,37,7.25,56.88,4.84a134.27,134.27,0,0,0,52.65-17.55c14.65-8.7,14.26-12.56,36.31-26,12.09-7.38,22.41-12.44,35.09-15.73,11-2.86,16.52-4.28,20-3,13.94,5.06,22.57,62.08,11,122.18Z" style="fill:#cfd7ed"></path>
    <path d="M826,893.12c2.26-2.91,5.27-6.21,8.88-10.18,16.83-18.46,36-25.86,49.29-30.8,13.75-5.13,35.79-13.34,62.83-9.86,14.54,1.87,18,5.51,37,6.78,20.15,1.34,32.08-1.73,38.2-3.7,5-1.62,8.69-3.34,16-6.78,17.06-8,17.67-10.66,27.73-14.78,8.55-3.5,21.93-9,35.72-4.93,5.25,1.54,3.7,2.45,20.33,11.09s20.34,8.84,22.8,8.62c4.64-.4,9.73-3.76,19.71-10.47,8.23-5.53,10.64-7.76,15.4-11.09,9.15-6.39,21.8-15.24,37.58-16.63,5.45-.48,23.77-7.79,27.1,4.93,10.29,39.28,10.94,67.55,7.57,87.8Z" style="fill:#a8b9df"></path>
    <path d="M1214.33,774c-12.68,3.29-23,8.35-35.09,15.73-22,13.46-21.66,17.32-36.31,26a134.27,134.27,0,0,1-52.65,17.55c-19.88,2.41-34.48-.45-56.88-4.84-35.76-7-35.84-13-61.73-16.34-14-1.79-38.91-5-66,4.84-20.58,7.49-19.63,14.24-47.2,26.63-11.58,5.2-29.87,13.42-51.44,15.13-27.47,2.17-41-7.74-68.38-15.13-35.61-9.61-64.67-6.87-92.59-4.24-40.34,3.81-99.21,19.46-126.59,40.35H492.63c14.91-27.43,90.41-49.21,139-53.79,27.92-2.63,57-5.37,92.59,4.24,27.41,7.39,40.91,17.3,68.38,15.12,21.57-1.7,39.86-9.92,51.44-15.12,27.57-12.39,26.62-19.15,47.2-26.63,27-9.84,52-6.64,66-4.84C983.11,802,983.19,808,1019,815c22.4,4.39,37,7.25,56.88,4.84a134.45,134.45,0,0,0,52.65-17.55c14.65-8.71,14.26-12.57,36.31-26,12.09-7.38,22.41-12.45,35.09-15.74,11-2.85,16.52-4.28,20-3s6.74,5.93,9.35,13.12C1225.79,771,1221.11,772.21,1214.33,774Z" style="fill:#a8b9df"></path>
    <path d="M146.1,891.16a57.72,57.72,0,0,1,13-16.45c4.83-4.14,8.08-5.16,29.8-13,36-13,39.62-14.73,44.33-17.57,10.62-6.42,21-15,26-19.11,12.87-10.63,13.14-12.75,19.11-15.29,16.75-7.14,35.06.85,38.21,2.29,11.11,5.08,9.81,9.09,29.05,22.17,19.95,13.57,25.86,12.33,28.28,11.46,6.1-2.18,5.33-7.49,14.52-13.75A41.92,41.92,0,0,1,407.49,825c3.28-.36,11.82-.89,27.51,6.11,21.52,9.61,21.81,17.92,36.69,22.17,7.28,2.08,7.43.15,31.33-.77,25-.95,37.46-1.43,49.68,2.3,15.21,4.64,25.62,12.9,34.4,19.87,9.15,7.27,15.53,12.34,19.2,16.45Z" style="fill:#a8b9df"></path>
  </g>
  <g id="Robot_Leg_Side">
    <path d="M399.36,548.17c-.25-2.08-1.81-1.9-2.05-4s1.32-2.26,1.08-4.33-1.81-1.9-2.05-4,1.32-2.25,1.08-4.33-1.81-1.89-2.05-4,1.32-2.26,1.08-4.33l-20.21,2.07c.25,2.08-1.32,2.26-1.07,4.33s1.8,1.89,2,4-1.32,2.26-1.07,4.33,1.8,1.89,2,4-1.32,2.26-1.07,4.33,1.8,1.89,2.05,4Z" style="fill:#838383"></path>
    <path d="M376.25 525.35h0a23.34 23.34 0 0 0 2.47 1.29 15.86 15.86 0 0 0 2.58.84c.89.18 1.78.36 2.7.49s1.84.32 2.75.43c1.8.31 3.63.25 5.6.71a12.14 12.14 0 0 1 5.08 2.71 21.53 21.53 0 0 0-5.3-1.5 26.72 26.72 0 0 0-2.73-.13c-.95 0-1.92-.12-2.87-.23a31.16 31.16 0 0 1-5.58-1.31 11.4 11.4 0 0 1-2.6-1.33 12 12 0 0 1-2.11-2h0ZM398.15 539.1a26.69 26.69 0 0 0-5.48-2 18.57 18.57 0 0 0-2.84-.3c-1 0-2-.16-3-.3A30.83 30.83 0 0 1 381 535a10.7 10.7 0 0 1-4.81-3.68 15.72 15.72 0 0 0 5.2 2.51c.93.24 1.87.45 2.83.62s1.93.39 2.88.52 1.91.27 2.9.38a14.26 14.26 0 0 1 3 .59 11.34 11.34 0 0 1 2.78 1.34A16.57 16.57 0 0 1 398.15 539.1ZM376.16 538.11a15.77 15.77 0 0 0 5.21 2.25c.92.21 1.85.4 2.8.56s1.88.37 2.82.49 1.88.24 2.85.35a13 13 0 0 1 3 .63 12.83 12.83 0 0 1 5 3.2h0a22.61 22.61 0 0 0-5.34-2 16.53 16.53 0 0 0-2.76-.33c-1-.06-2-.14-2.95-.27a33.83 33.83 0 0 1-5.75-1.44A10.59 10.59 0 0 1 376.16 538.11Z" style="fill:#4e4f50"></path>
    <path d="M340.08,670.52c1.2-1.71-.08-2.61,1.11-4.32s2.49-.81,3.69-2.52-.09-2.62,1.11-4.33,2.49-.8,3.69-2.51-.1-2.61,1.1-4.32,2.49-.81,3.69-2.51L338,638.11c-1.2,1.71-2.49.81-3.69,2.52s.09,2.61-1.11,4.32-2.48.8-3.68,2.51.09,2.61-1.11,4.32-2.49.81-3.69,2.52.09,2.62-1.11,4.33Z" style="fill:#838383"></path>
    <path d="M338 638.11h0a23.07 23.07 0 0 0 1 2.61 15.57 15.57 0 0 0 1.37 2.34c.54.73 1.09 1.46 1.69 2.17s1.16 1.46 1.77 2.14c1.14 1.43 2.55 2.61 3.71 4.26a12 12 0 0 1 2 5.4 22.16 22.16 0 0 0-2.95-4.65c-.6-.66-1.26-1.27-2-1.91s-1.35-1.36-2-2.08a30.4 30.4 0 0 1-3.3-4.69 10.4 10.4 0 0 1-1.32-5.59h0ZM345.22 663a27.63 27.63 0 0 0-2.76-5.14 18.05 18.05 0 0 0-1.93-2.11c-.7-.7-1.39-1.46-2-2.23a31.35 31.35 0 0 1-3.36-5 10.63 10.63 0 0 1-1.14-5.95 15.92 15.92 0 0 0 2.21 5.34c.53.79 1.09 1.58 1.7 2.35s1.18 1.57 1.8 2.3 1.25 1.47 1.91 2.21a14.4 14.4 0 0 1 1.87 2.45 11.53 11.53 0 0 1 1.18 2.85A17.67 17.67 0 0 1 345.22 663ZM329.46 647.58a15.88 15.88 0 0 0 2.39 5.15c.55.76 1.11 1.53 1.72 2.28s1.16 1.52 1.78 2.24 1.24 1.43 1.89 2.15a13 13 0 0 1 1.8 2.45 12.86 12.86 0 0 1 1.61 5.72h0a22.69 22.69 0 0 0-2.64-5.06 16.31 16.31 0 0 0-1.84-2.08c-.68-.69-1.37-1.41-2-2.17a33.59 33.59 0 0 1-3.34-4.9A10.52 10.52 0 0 1 329.46 647.58Z" style="fill:#4e4f50"></path>
    <path d="M280.11,754.54c1.2-1.71-.09-2.61,1.11-4.32s2.49-.81,3.69-2.52-.09-2.62,1.11-4.33,2.49-.8,3.68-2.51-.09-2.61,1.11-4.32,2.49-.81,3.69-2.51L278,722.13c-1.2,1.71-2.49.81-3.69,2.52s.09,2.61-1.11,4.32-2.48.8-3.68,2.51.09,2.62-1.11,4.32-2.49.81-3.69,2.52.09,2.62-1.11,4.33Z" style="fill:#838383"></path>
    <path d="M278 722.13h0a25.19 25.19 0 0 0 1 2.61 15.57 15.57 0 0 0 1.37 2.34c.54.73 1.09 1.46 1.69 2.17s1.16 1.46 1.76 2.14c1.14 1.43 2.55 2.61 3.72 4.26a12.14 12.14 0 0 1 2 5.4 21.8 21.8 0 0 0-3-4.65 27.22 27.22 0 0 0-1.95-1.91c-.68-.65-1.35-1.36-2-2.08a30.4 30.4 0 0 1-3.3-4.69 11.2 11.2 0 0 1-1.06-2.73 11.55 11.55 0 0 1-.26-2.86h0ZM285.24 747a27 27 0 0 0-2.75-5.14 18.05 18.05 0 0 0-1.93-2.11c-.7-.7-1.39-1.46-2.05-2.23a31.29 31.29 0 0 1-3.35-5 10.72 10.72 0 0 1-1.15-6 15.73 15.73 0 0 0 2.22 5.34c.53.79 1.09 1.58 1.7 2.35s1.18 1.57 1.8 2.3 1.25 1.47 1.91 2.21a14.4 14.4 0 0 1 1.87 2.45 11.93 11.93 0 0 1 1.18 2.85A16.7 16.7 0 0 1 285.24 747ZM269.49 731.6a15.68 15.68 0 0 0 2.39 5.15c.54.76 1.11 1.53 1.71 2.28s1.17 1.52 1.79 2.24 1.23 1.43 1.89 2.15a13.46 13.46 0 0 1 1.8 2.45 12.72 12.72 0 0 1 1.6 5.72h0a23.12 23.12 0 0 0-2.64-5.06 16.31 16.31 0 0 0-1.84-2.08c-.68-.69-1.37-1.41-2-2.17a33.59 33.59 0 0 1-3.34-4.9A10.52 10.52 0 0 1 269.49 731.6Z" style="fill:#4e4f50"></path>
    <path d="m407.8 545.74 7.88 8.82a6.46 6.46 0 0 1 1 7.34l-51.89 99.72c-1.29 2.47-3.93 3.35-6.09 2L313.63 636a6.11 6.11 0 0 1-2.34-6.67l19.56-77.86ZM294.19 744.17l-25.36-27.78a6.47 6.47 0 0 1-.31-8L314.21 648a4.15 4.15 0 0 1 6.61-.38l25.36 27.78a6.47 6.47 0 0 1 .31 8L300.8 743.79A4.15 4.15 0 0 1 294.19 744.17ZM234.64 826.48 209.27 798.7a6.46 6.46 0 0 1-.31-8l45.7-60.46a4.14 4.14 0 0 1 6.6-.37l25.37 27.78a6.46 6.46 0 0 1 .31 7.95l-45.7 60.46A4.14 4.14 0 0 1 234.64 826.48Z" style="fill:#96c952"></path>
    <path d="M215,782.82l-9.14,12.09,32.29,35.36,25.36-33.56-.44-.57C250.25,780.09,231.23,775.58,215,782.82Z" style="fill:#57b747"></path>
    <path d="M347.37 550.24c2.29 8.47 4.3 17 6.25 25.6.92 4.31 1.89 8.58 2.75 12.94a52.42 52.42 0 0 1 .55 13.91c-.08 1.15-.23 2.29-.39 3.43s-.34 2.27-.57 3.39l-.34 1.68-.42 1.64c-.27 1.1-.55 2.2-.89 3.27a81 81 0 0 1-4.8 12.34 99.93 99.93 0 0 1-13.78 21.13 249.32 249.32 0 0 0 11-22.91 90.34 90.34 0 0 0 6.55-24.46l.16-1.59.07-1.58c.07-1.06.07-2.12.09-3.18s-.05-2.12-.08-3.18l-.12-1.58a15.19 15.19 0 0 0-.19-1.51l-2.1-13.05C349.77 567.8 348.43 559.06 347.37 550.24ZM343.37 687.47c-5.52 4.4-11.19 8.47-17 12.3s-11.6 7.52-17.62 10.86a68.87 68.87 0 0 1-9.37 4.47 56 56 0 0 1-9.87 2.5 55 55 0 0 1-19.91-.34h0a109.92 109.92 0 0 0 19.4-3.12 75.68 75.68 0 0 0 9.3-3.1 96.38 96.38 0 0 0 8.89-4.5c5.93-3.29 11.88-6.67 17.88-9.9S337.14 690.22 343.37 687.47Z" style="fill:#787878"></path>
    <polygon points="400.34 593.28 386.29 583.01 367.96 619.32 381.6 629.3 400.34 593.28" style="fill:#4e4f50"></polygon>
    <polygon points="282.58 689.82 290.07 698.02 313.83 666.59 306.34 658.39 282.58 689.82" style="fill:#57b747"></polygon>
    <polygon points="266.04 783.27 270.19 787.81 290.09 761.49 285.94 756.94 266.04 783.27" style="fill:#57b747"></polygon>
    <path d="M204.47,796.06h0c21.3-15.33,48.89-7,61.62,18.68l2,4.11c12.73,25.64,5.78,58.85-15.52,74.18Z" style="fill:#96c952"></path>
    <path d="M416.67,561.9a6.46,6.46,0,0,0-1-7.34l-7.88-8.82L336.71,551a6.33,6.33,0,0,0-1.63,7.21l4.33,10.59h0L371.85,648Z" style="fill:#57b747"></path>
    <path d="M353.62,575.84c-1.95-8.57-4-17.13-6.25-25.6,1.06,8.82,2.4,17.56,3.75,26.29l2.1,13.05a15.19,15.19,0,0,1,.19,1.51l.12,1.58c0,1.06.1,2.12.08,3.18s0,2.12-.09,3.18l-.07,1.58-.16,1.59c0,.12,0,.25-.05.38l2.76,6.73c.21-1,.4-2.11.53-3.19s.31-2.28.39-3.43a52.42,52.42,0,0,0-.55-13.91C355.51,584.42,354.54,580.15,353.62,575.84Z" style="fill:#30302f"></path>
    <path d="M450.31,690.94c-.72-2-2.2-1.42-2.91-3.38s.76-2.51,0-4.47-2.2-1.42-2.92-3.38.76-2.5,0-4.46-2.19-1.42-2.91-3.38.76-2.5,0-4.46l-19.16,6.72c.71,2-.76,2.5,0,4.46s2.2,1.42,2.92,3.38-.76,2.5,0,4.45,2.19,1.42,2.91,3.38-.76,2.51,0,4.47,2.2,1.42,2.92,3.38Z" style="fill:#838383"></path>
    <path d="M422.53 674.12h0a25.05 25.05 0 0 0 2.71.69 16.36 16.36 0 0 0 2.7.2c.91 0 1.82 0 2.75-.14s1.86-.12 2.76-.23c1.83-.11 3.6-.6 5.62-.61a12 12 0 0 1 5.56 1.46 21.33 21.33 0 0 0-5.5-.23c-.88.11-1.76.3-2.69.51s-1.88.33-2.84.44a31.32 31.32 0 0 1-5.73 0 11.56 11.56 0 0 1-2.84-.69 11.19 11.19 0 0 1-2.5-1.43h0ZM447 682.4a26.7 26.7 0 0 0-5.8-.67 18.94 18.94 0 0 0-2.83.37c-1 .18-2 .32-3 .41a31.43 31.43 0 0 1-6-.13 10.69 10.69 0 0 1-5.54-2.46 16 16 0 0 0 5.65 1.24c1 0 1.92 0 2.9-.06s2-.07 2.92-.16 1.92-.18 2.9-.31a14.29 14.29 0 0 1 3.08-.13 11.8 11.8 0 0 1 3 .66A16.54 16.54 0 0 1 447 682.4ZM425.41 686.55a15.88 15.88 0 0 0 5.59 1c.94 0 1.89 0 2.86-.1s1.91-.09 2.85-.19 1.88-.2 2.85-.32a12.53 12.53 0 0 1 8.65 1.87h0a22.72 22.72 0 0 0-5.66-.73 16.57 16.57 0 0 0-2.77.32c-.95.17-1.94.32-2.93.42a33.57 33.57 0 0 1-5.93-.06A10.5 10.5 0 0 1 425.41 686.55Z" style="fill:#4e4f50"></path>
    <path d="M480.1,798.21c-.71-2-2.19-1.42-2.91-3.38s.76-2.5,0-4.47S475,789,474.31,787s.76-2.5.05-4.45-2.2-1.42-2.92-3.38.76-2.5,0-4.46l-19.16,6.71c.72,2-.76,2.5,0,4.46s2.19,1.42,2.91,3.38-.76,2.5,0,4.46,2.19,1.42,2.91,3.38-.76,2.5,0,4.46,2.2,1.42,2.92,3.39Z" style="fill:#838383"></path>
    <path d="M452.32 781.4h0a23.43 23.43 0 0 0 2.71.69 15.36 15.36 0 0 0 2.7.21c.91 0 1.82-.06 2.75-.15s1.86-.12 2.76-.22c1.83-.12 3.6-.61 5.62-.61a12.08 12.08 0 0 1 5.57 1.45 21.88 21.88 0 0 0-5.51-.23c-.88.11-1.76.3-2.68.51s-1.89.34-2.84.44a30.56 30.56 0 0 1-5.74 0 11.56 11.56 0 0 1-2.84-.69 11 11 0 0 1-2.5-1.43ZM476.82 789.67A28 28 0 0 0 471 789a19.11 19.11 0 0 0-2.83.37c-1 .18-2 .32-3 .41a31.42 31.42 0 0 1-6.05-.12 10.7 10.7 0 0 1-5.54-2.47 15.84 15.84 0 0 0 5.65 1.24c1 0 1.92 0 2.9-.06s2-.07 2.92-.16 1.92-.18 2.9-.31a15 15 0 0 1 3.09-.12 11.31 11.31 0 0 1 3 .65A17.91 17.91 0 0 1 476.82 789.67ZM455.21 793.82a15.58 15.58 0 0 0 5.58 1c.95 0 1.9 0 2.86-.11s1.91-.09 2.86-.18 1.87-.2 2.85-.33a13.29 13.29 0 0 1 3-.08 12.78 12.78 0 0 1 5.61 2h0a22.72 22.72 0 0 0-5.66-.73 16.6 16.6 0 0 0-2.77.33c-.94.16-1.94.32-2.92.41a32.64 32.64 0 0 1-5.93-.05A10.48 10.48 0 0 1 455.21 793.82Z" style="fill:#4e4f50"></path>
    <path d="m455.9 669.9-48.52 17.16c-2.18.77-4.51-.45-5.51-2.91L350.29 558.24c-1.47-3.6.56-7.84 3.88-8.11l80.91-6.63c2.35-.19 4.45 1.74 4.91 4.51L459.17 663.4C459.64 666.26 458.23 669.08 455.9 669.9ZM478.71 773.79l-32.82 12c-2.47.9-5.08-.79-5.83-3.76l-19.67-78.23c-.75-3 .65-6.12 3.12-7l32.82-12c2.47-.9 5.09.78 5.83 3.76l19.67 78.23C482.58 769.74 481.18 772.89 478.71 773.79ZM506.86 877.55l-32.82 12c-2.48.9-5.09-.78-5.83-3.76l-19.67-78.23c-.75-3 .65-6.12 3.12-7l32.82-12c2.47-.9 5.08.78 5.83 3.75L510 870.53C510.73 873.51 509.33 876.65 506.86 877.55Z" style="fill:#96c952"></path>
    <path d="M465.63,875.5l3.93,15.64,41.77-15.22-10.91-43.43-.64.18C481.78,837.62,468.81,855,465.63,875.5Z" style="fill:#57b747"></path>
    <path d="M354.62 568.82h0A91.34 91.34 0 0 0 366 581.66c1 .94 2.06 1.88 3.12 2.71s2.17 1.66 3.29 2.47l6.68 4.94c4.47 3.27 8.86 6.69 13.28 10.06l13.18 10.44 6.54 5.31a39.53 39.53 0 0 1 5.9 6.79c.9 1.25 1.68 2.59 2.48 3.91s1.51 2.72 2.14 4.15a68.44 68.44 0 0 1 3.43 8.77c3.86 12 5.08 24.86 5.17 37.44-1.63-12.43-3.68-24.82-7.87-36.09a62.9 62.9 0 0 0-8-15.39 38.24 38.24 0 0 0-5.48-6.12l-6.51-5.15-12.9-10.51c-4.3-3.57-8.65-7.07-12.92-10.68-2.15-1.81-4.31-3.57-6.44-5.41-1.06-.93-2.13-1.85-3.19-2.83s-2.07-2.05-3.05-3.13a74.44 74.44 0 0 1-10.17-14.51h0ZM463.51 693.89c.31 8 .3 15.9.07 23.83s-.58 15.84-1.29 23.78a110.81 110.81 0 0 1-1.62 12A91.37 91.37 0 0 1 457.39 765a84.14 84.14 0 0 1-10.46 20.41h0a176.8 176.8 0 0 0 7.73-21.66c1-3.69 1.92-7.44 2.56-11.19s1-7.6 1.35-11.5c.69-7.81 1.34-15.69 2.11-23.55S462.27 701.73 463.51 693.89Z" style="fill:#787878"></path>
    <polygon points="446.02 584.33 429.95 588.47 437.34 630.02 452.95 626 446.02 584.33" style="fill:#57b747"></polygon>
    <polygon points="434 757.9 443.69 754.37 433.46 713.71 423.78 717.24 434 757.9" style="fill:#57b747"></polygon>
    <polygon points="492.15 822.94 497.52 820.98 488.96 786.91 483.59 788.87 492.15 822.94" style="fill:#57b747"></polygon>
    <path d="M469.69,893.12h0c0-29.87,20.12-54.09,44.93-54.09h4c24.81,0,44.93,24.22,44.93,54.09Z" style="fill:#96c952"></path>
  </g>
  <g id="Robot_Head_Side">
    <path d="M393,404.88c-.06-2.09-1.63-2-1.69-4.13s1.51-2.13,1.45-4.22-1.63-2-1.69-4.13,1.51-2.13,1.45-4.22-1.64-2-1.7-4.12,1.52-2.14,1.45-4.22l-20.3.3c.06,2.09-1.51,2.13-1.45,4.22s1.63,2,1.69,4.12-1.51,2.14-1.45,4.22,1.63,2,1.7,4.13-1.52,2.13-1.46,4.22,1.64,2.05,1.7,4.13Z" style="fill:#838383"></path>
    <path d="M372 380.14h0c5.89 5 15.13 2.61 20.54 8.3-6.5-3.71-15.86-1.42-20.54-8.3ZM392.57 395.74c-6.52-4.54-16.68-2.21-21.24-9.7C377.31 391.76 387.21 389.24 392.57 395.74ZM370.76 392.84c6 5.26 15.84 2.8 20.92 9.35h0C385.35 397.57 375.46 399.91 370.76 392.84Z" style="fill:#4e4f50"></path>
    <path d="M419.14,380.16c-93.33-4.94-78.42,25.29-79.32-68.49a8,8,0,0,1,8-8c93.33,4.95,78.42-25.28,79.32,68.5A8,8,0,0,1,419.14,380.16Z" style="fill:#57b747"></path>
    <path d="M434.42,325.32c.06-4-4.36-4.19-7.3-3.94v29.86c2.94.24,7.36,0,7.29-3.94Z" style="fill:#96c952"></path>
    <rect width="4.72" height="57.73" x="380.75" y="284.19" style="fill:#4e4f50" transform="rotate(-.74 380.488 311.398)"></rect>
    <path d="M396.8 284.21H369.17a3 3 0 0 1-3-3c-.28-2 .73-4.21 3-4.19H396.8C400.88 277 400.89 284.26 396.8 284.21ZM398.56 343c-1.45 19.71-31.44 17.64-30.16-2.09C369.85 321.15 399.84 323.23 398.56 343Z" style="fill:#96c952"></path>
  </g>
  <g id="Tabs-3">
    <rect width="195.74" height="132.24" x="671.54" y="164.79" style="opacity:.47;fill:url(#linear-gradient-30)"></rect>
    <path d="M766.51,185.08A42.92,42.92,0,1,0,809.42,228,42.92,42.92,0,0,0,766.51,185.08Zm0,66.68A23.77,23.77,0,1,1,790.28,228,23.76,23.76,0,0,1,766.51,251.76Z" style="fill:url(#linear-gradient-31)"></path>
    <path d="M790.26,228.32a23.75,23.75,0,0,1-23.75,23.44v19.15a42.91,42.91,0,0,0,42.9-42.59Z" style="fill:#a4b5dd"></path>
    <path d="M790.28,228c0,.11,0,.22,0,.33h19.15c0-.11,0-.22,0-.33a42.92,42.92,0,0,0-42.91-42.91v19.14A23.77,23.77,0,0,1,790.28,228Z" style="fill:none;stroke-miterlimit:10;stroke-width:4px;stroke:url(#linear-gradient-32)"></path>
    <rect width="11.22" height="11.22" x="676.23" y="240.54" style="fill:url(#linear-gradient-33)"></rect>
    <rect width="11.22" height="11.22" x="676.23" y="257.37" style="fill:url(#linear-gradient-34)"></rect>
    <rect width="11.22" height="11.22" x="676.23" y="274.21" style="fill:url(#linear-gradient-35)"></rect>
    <line x1="693.07" x2="718.49" y1="246.15" y2="246.15" style="fill:none;stroke-miterlimit:10;stroke-width:4px;stroke:url(#linear-gradient-36)"></line>
    <line x1="683.82" x2="709.24" y1="178.14" y2="178.14" style="fill:none;stroke-miterlimit:10;stroke-width:4px;stroke:url(#linear-gradient-37)"></line>
    <line x1="683.82" x2="703.74" y1="185.08" y2="185.08" style="fill:none;stroke-miterlimit:10;stroke-width:4px;stroke:url(#linear-gradient-38)"></line>
    <line x1="824.5" x2="849.92" y1="179.17" y2="179.17" style="fill:none;stroke-miterlimit:10;stroke-width:4px;stroke:url(#linear-gradient-39)"></line>
    <line x1="824.5" x2="844.42" y1="186.1" y2="186.1" style="fill:none;stroke-miterlimit:10;stroke-width:4px;stroke:url(#linear-gradient-40)"></line>
    <line x1="824.5" x2="844.42" y1="172.24" y2="172.24" style="fill:none;stroke-miterlimit:10;stroke-width:4px;stroke:url(#linear-gradient-41)"></line>
    <line x1="836.13" x2="861.55" y1="265.85" y2="265.85" style="fill:none;stroke-miterlimit:10;stroke-width:4px;stroke:url(#linear-gradient-42)"></line>
    <line x1="836.13" x2="856.05" y1="272.38" y2="272.38" style="fill:none;stroke-miterlimit:10;stroke-width:4px;stroke:url(#linear-gradient-43)"></line>
    <line x1="836.13" x2="861.55" y1="278.91" y2="278.91" style="fill:none;stroke-miterlimit:10;stroke-width:4px;stroke:url(#linear-gradient-44)"></line>
    <line x1="836.13" x2="856.05" y1="285.43" y2="285.43" style="fill:none;stroke-miterlimit:10;stroke-width:4px;stroke:url(#linear-gradient-45)"></line>
    <line x1="693.07" x2="718.49" y1="262.99" y2="262.99" style="fill:none;stroke-miterlimit:10;stroke-width:4px;stroke:url(#linear-gradient-46)"></line>
    <line x1="693.07" x2="718.49" y1="279.82" y2="279.82" style="fill:none;stroke-miterlimit:10;stroke-width:4px;stroke:url(#linear-gradient-47)"></line>
    <line x1="713.53" x2="729.05" y1="187.14" y2="196.21" style="fill:none;stroke-miterlimit:10;stroke-width:4px;stroke:#a4b5dd"></line>
    <line x1="803.81" x2="819" y1="195.97" y2="188.05" style="fill:none;stroke-miterlimit:10;stroke-width:4px;stroke:#a4b5dd"></line>
    <line x1="811.4" x2="830.82" y1="244.44" y2="260.52" style="fill:none;stroke-miterlimit:10;stroke-width:4px;stroke:#a4b5dd"></line>
    <polygon points="757.98 164.79 720.35 297.03 688.09 297.03 725.72 164.79 757.98 164.79" style="fill:#fff;opacity:.43"></polygon>
    <polygon points="820.84 164.79 783.21 297.03 735.65 297.03 773.28 164.79 820.84 164.79" style="fill:#fff;opacity:.43"></polygon>
    <rect width="199.12" height="139.36" x="668.17" y="161.33" style="opacity:.47;fill:none;stroke-miterlimit:10;stroke-width:7px;stroke:url(#linear-gradient-48)"></rect>
  </g>
  <g id="Robot_Body_side">
    <g id="Robot_Body_Side_10">
      <g id="Robot_Body_Side_10-2">
        <path d="M452.58,452.43c10.07,8.17,6,13.15,16.11,21.32s14.11,3.2,24.18,11.37,6,13.15,16.11,21.32,14.11,3.2,24.18,11.38l62.28-28.53c-.17-13-2.55-14.32-2.71-27.29s8.55-14.58,8.39-27.55-6.56-12.89-6.73-25.86,6.24-13,6.08-26Z" style="fill:url(#linear-gradient-49)"></path>
        <rect width="71.28" height="9.24" x="530.07" y="503.06" rx="2" style="fill:#336297" transform="rotate(-25.08 565.81 507.75)"></rect>
        <path d="M340.42,449.14c30-21.77,41.86-18.38,46.39-16,.68.36,6.72,3.69,7.39,9.2,1,8.42-11.21,16-18.35,20.89a237.58,237.58,0,0,0-81.91,100.12c-4.12,8.09-7.43,14.91-14,16.52-7.18,1.77-16.35-3.23-20.37-9.19C243.48,546.85,295.15,482,340.42,449.14Z" style="fill:#c23e56"></path>
        <path d="M274.22 580a23.51 23.51 0 0 1-14.62-9.32 16.52 16.52 0 0 1-2.17-4.7 10.72 10.72 0 0 0-1.82 3 10.94 10.94 0 0 0 18.61 11ZM359.91 491.12c-1.43 4.57-3.08 9.26-4.9 14l-1.69-.37a9.19 9.19 0 0 1-7-10.9l6.18-28.24a9.18 9.18 0 0 1 10.89-7l2.5.55C366 466.5 364.43 476.72 359.91 491.12ZM319.64 518.41q3.45-4.75 7-9.13l-7-5.68a4.09 4.09 0 0 0-5.74.59l-8.55 10.5a4.09 4.09 0 0 0 .59 5.73l7.86 6.4Q316.56 522.65 319.64 518.41Z" style="fill:#4e4f50"></path>
        <rect width="34.57" height="37.84" x="369.64" y="512.15" style="fill:#4e4f50"></rect>
        <path d="M380,487.13c1.43,4.57,3.07,9.26,4.89,14l1.69-.36a9.19,9.19,0,0,0,7-10.89l-6.16-28.25a9.18,9.18,0,0,0-10.88-7l-2.5.55C374,462.49,375.52,472.72,380,487.13Z" style="fill:#4e4f50"></path>
        <path d="M344.38,517.76a6.1,6.1,0,0,1-6.18-6L337.11,408a6.1,6.1,0,0,1,6-6.17l72.32-.92a6.1,6.1,0,0,1,6.18,6c19,54.4,23.43,105.65,14.51,110.69C433.11,519.35,344.38,517.76,344.38,517.76Z" style="fill:#ee465e"></path>
        <rect width="4.57" height="3.43" x="352.02" y="401.7" style="fill:#c23e56" transform="rotate(-1.42 352.954 401.854)"></rect>
        <polygon points="352.06 415.88 351.98 408.45 356.55 408.34 356.64 415.77 352.06 415.88" style="fill:#c23e56"></polygon>
        <polygon points="352.06 426.7 351.98 419.27 356.55 419.16 356.64 426.59 352.06 426.7" style="fill:#c23e56"></polygon>
        <path d="M354.15,507.55l-.17-7,4.57-.11.18,7Zm-.34-14.06-.18-7,4.57-.11.18,7Zm-.35-14.06-.18-7,4.58-.11.17,7Zm-.35-14.06-.17-7,4.57-.12.17,7Zm-.35-14.06-.17-7,4.57-.12.17,7Zm-.35-14.07-.17-7,4.57-.11.18,7Z" style="fill:#c23e56"></path>
        <rect width="4.57" height="3.43" x="354.37" y="514.53" style="fill:#c23e56" transform="rotate(-1.42 355.593 514.472)"></rect>
        <path d="M395.12,480.6c-28.31-23.92-27.86-36.25-26.59-41.22.19-.76,2-7.41,7.16-9.38,7.93-3,18.25,7.05,24.67,12.83a237.76,237.76,0,0,0,116.79,55.6c8.85,2.06,16.27,3.65,19.39,9.61,3.44,6.55.77,16.65-4,22C513.17,551.38,437.85,516.7,395.12,480.6Z" style="fill:#ec5f7a"></path>
        <path d="M538 513.6A23.51 23.51 0 0 1 532.49 530a16.84 16.84 0 0 1-4 3.24A10.94 10.94 0 1 0 538 513.6ZM395.12 480.6c3.66 3.09 7.56 6.17 11.65 9.21l1.23-1.22a9.18 9.18 0 0 0 .06-12.94l-20.35-20.53a9.17 9.17 0 0 0-12.94-.06l-1.81 1.8C376.83 463 383.59 470.86 395.12 480.6ZM467.35 484.22c-3.63-1.47-7.13-3-10.53-4.59L453 487.77a4.08 4.08 0 0 0 1.94 5.42l12.25 5.8a4.09 4.09 0 0 0 5.42-1.95l4.34-9.16Q472.21 486.2 467.35 484.22Z" style="fill:#4e4f50"></path>
      </g>
    </g>
  </g>
</svg>
