<svg xmlns="http://www.w3.org/2000/svg" xml:space="preserve" id="boy-is-selecting-food-to-order-online" x="0" y="0" style="enable-background:new 0 0 850 850" version="1.1" viewBox="0 0 850 850">
  <g>
    <g>
      <g>
        <path d="M447.7,302.5c4.7-13.1,17.1-21.9,30.9-21.1c8,0.5,17,2.6,26.1,8.1c28.1,17,91.1,72.6,85.8,154.3
				c-5.2,78.6-5.4,138.3-103.7,134.2c-11.8-0.5-23.7-0.7-35.5-0.8c-43.9-0.3-139-3-184.2-19.2c-38.3-13.7-27.6-42.5-14.9-61.4
				c18.6-27.6,21.8-62.9,7.5-93c-0.7-1.4-1.3-2.8-2.1-4.2c-23.2-45.1,38.4-89.8,104.1-71.5C414.7,332.6,440.5,322.6,447.7,302.5z" style="fill:#f4f4f4"></path>
      </g>
      <g>
        <path d="M606.3,290.5c-2.2-2.7-13.8-4.4-17-4c-3.1,0.4-8.6-6.4-11.7-8s-4.8,3.3-8.6,5.2c-3.8,2-8-7.2-15.7-11.1
				c-7.7-3.9-13,17.9-13,17.9H606.3z" style="fill:#f4f4f4"></path>
      </g>
      <g>
        <path d="M385.7,290.5c-2.2-2.7-13.8-4.4-17-4c-3.1,0.4-8.6-6.4-11.7-8c-3.1-1.6-4.8,3.3-8.6,5.2
				c-3.8,2-8-7.2-15.7-11.1c-7.7-3.9-13,17.9-13,17.9H385.7z" style="fill:#f4f4f4"></path>
      </g>
      <g>
        <path d="M523.4,350.8c-2.2-2.7-13.8-4.4-17-4c-3.1,0.4-8.6-6.4-11.7-8s-4.8,3.3-8.6,5.2c-3.8,2-8-7.2-15.7-11.1
				s-13,17.9-13,17.9H523.4z" style="fill:#fff"></path>
      </g>
      <g>
        <path d="M292,371.5c0,0,10.9-16.8,21.3-12.8s24,12.9,32.7,10.7s18.4-9.1,24.1-7.4c5.7,1.7,15.6,9.5,15.6,9.5h-94.3" style="fill:#fff"></path>
      </g>
    </g>
    <g>
      <g>
        <g>
          <ellipse cx="239.3" cy="599.5" rx="46.3" ry="5.3" style="fill:#f4f4f4"></ellipse>
        </g>
        <g>
          <g>
            <g>
              <path d="M229.9,367.1C229.8,367.1,229.8,367.1,229.9,367.1c-0.2,0-0.3-0.2-0.3-0.3c0-0.1,0-0.2,0.1-0.4
							c0-0.2,0.2-0.3,0.4-0.2c0.2,0,0.3,0.2,0.2,0.4l0,0.2c0,0.1,0,0.2,0,0.3C230.1,367,230,367.1,229.9,367.1z" style="fill:#3e414e"></path>
            </g>
            <g>
              <path d="M216.6,374.2c0,0,8,1.1,8.4-2c0.4-3.1-1.6-7.8,2.5-10.6c3.4-2.4,2.8,2.8,2.5,4.6c0.3-1.5,1.2-5.3,3.1-7.6
							c0,0,3-0.7,5.6-2.1c1.9-1.1,3.7-2.6,3.8-4.5c0.3-4.5-9.2-8.8-14-8c-4.8,0.8-11.5,4.7-11.5,4.7s-5.7-2.1-7.1,0.4
							C208.3,351.5,207,371.6,216.6,374.2z" style="fill:#3c4150"></path>
            </g>
            <g>
              <path d="M216.6,374.2v11.6h13.3v-9.5c11,3.8,9.4-7.9,9.4-7.9s0.6,0,1.5-0.5c0.9-0.5-2.2-5.8-2.2-5.8v-5.6
							c-2.6,1.4-5.6,2.1-5.6,2.1c-1.8,2.3-2.8,6.1-3.1,7.6c0.3-1.9,0.9-7-2.5-4.6c-4.1,2.8-2.1,7.5-2.5,10.6
							C224.6,375.3,216.6,374.2,216.6,374.2z" style="fill:#fff"></path>
              <path d="M229.9,386.1h-13.3c-0.2,0-0.3-0.1-0.3-0.3v-11.6c0-0.1,0-0.2,0.1-0.2c0.1-0.1,0.2-0.1,0.2-0.1
							c0.1,0,5.5,0.7,7.5-0.7c0.4-0.3,0.6-0.6,0.6-1c0.1-0.8,0-1.8,0-2.8c-0.2-2.8-0.5-5.9,2.7-8c1-0.7,1.8-0.8,2.3-0.5
							c0.6,0.4,0.8,1.2,0.9,2.1c0.5-1.6,1.3-3.3,2.3-4.6c0-0.1,0.1-0.1,0.2-0.1c0,0,3-0.7,5.5-2.1c0.1-0.1,0.2,0,0.3,0
							c0.1,0.1,0.1,0.2,0.1,0.3v5.5c0.5,0.9,2.7,4.7,2.3,5.8c-0.1,0.2-0.2,0.3-0.3,0.4c-0.6,0.3-1,0.4-1.3,0.4
							c0.1,1.2,0.3,5.5-2.2,7.6c-1.6,1.3-4,1.5-7.2,0.5v9C230.2,386,230.1,386.1,229.9,386.1z M216.9,385.5h12.7v-9.2
							c0-0.1,0-0.2,0.1-0.2c0.1-0.1,0.2-0.1,0.3,0c3.1,1.1,5.5,1,7-0.3c2.7-2.2,2-7.3,2-7.3c0-0.1,0-0.2,0.1-0.2
							c0.1-0.1,0.1-0.1,0.2-0.1c0,0,0.5,0,1.4-0.4c0.2-0.4-0.9-2.9-2.3-5.4c0,0,0-0.1,0-0.2V357c-2.2,1.1-4.6,1.7-5.1,1.9
							c-1.7,2.3-2.6,5.9-3,7.4c0,0.2-0.2,0.3-0.4,0.2c-0.2,0-0.3-0.2-0.2-0.3c0.4-2.5,0.3-4.4-0.3-4.8c-0.4-0.3-1.1,0.1-1.7,0.5
							c-2.8,2-2.6,4.8-2.4,7.5c0.1,1,0.2,2,0,2.9c-0.1,0.6-0.4,1-0.8,1.4c-1.9,1.4-6.3,1-7.6,0.9V385.5z" style="fill:#3e414e"></path>
            </g>
            <g>
              <path d="M227.9,375.5c0.7,0.3,1.4,0.6,2,0.8" style="fill:#fff"></path>
              <path d="M229.9,376.6C229.9,376.6,229.9,376.6,229.9,376.6c-0.8-0.2-1.4-0.5-2.1-0.8c-0.2-0.1-0.2-0.2-0.2-0.4
							c0.1-0.2,0.2-0.2,0.4-0.2c0.7,0.3,1.3,0.6,2,0.8c0.2,0.1,0.2,0.2,0.2,0.4C230.2,376.5,230.1,376.6,229.9,376.6z" style="fill:#3e414e"></path>
            </g>
            <g>
              <path d="M234.5,360.2c-0.1,0-0.1,0-0.2,0c-0.1-0.1-0.2-0.3-0.1-0.4c0.6-1,3.1-0.7,3.6-0.6c0.2,0,0.3,0.2,0.3,0.3
							c0,0.2-0.2,0.3-0.3,0.3c-1.1-0.2-2.7-0.1-3,0.3C234.7,360.2,234.6,360.2,234.5,360.2z" style="fill:#3e414e"></path>
            </g>
            <g>
              <path d="M237.7,372.3c-0.6,0-1.4-0.1-2-0.6c-0.1-0.1-0.2-0.3-0.1-0.4c0.1-0.1,0.3-0.2,0.4-0.1
							c1.2,0.9,3.1,0.2,3.1,0.2c0.2-0.1,0.3,0,0.4,0.2s0,0.3-0.2,0.4C239.3,372,238.6,372.3,237.7,372.3z" style="fill:#3e414e"></path>
            </g>
            <g>
              <circle cx="236.1" cy="362.2" r=".8" style="fill:#3c4150"></circle>
            </g>
            <g>
              <path d="M251.3,399.9l0.8,61.7c0,1.9-1.3,3.6-3.2,4c-7.3,1.5-25.8,4.5-43.4-0.1c-1.4-0.4-2.4-1.7-2.4-3.2
							l1.1-57.4" style="fill:#fff"></path>
              <path d="M226,468.2c-6.5,0-13.7-0.6-20.7-2.4c-1.6-0.4-2.7-1.8-2.6-3.5l1.1-57.4c0-0.2,0.1-0.3,0.3-0.3
							c0.2,0,0.3,0.1,0.3,0.3l-1.1,57.4c0,1.4,0.9,2.6,2.2,2.9c17.6,4.5,36.2,1.6,43.3,0.1c1.8-0.4,3-1.9,3-3.7l-0.8-61.7
							c0-0.2,0.1-0.3,0.3-0.3c0,0,0,0,0,0c0.2,0,0.3,0.1,0.3,0.3l0.8,61.7c0,2.1-1.4,3.9-3.5,4.3C244.5,466.8,236,468.2,226,468.2z" style="fill:#3e414e"></path>
            </g>
            <g>
              <path d="M290.5,376.7c0,0,2.8-15.7,5.5-16.3c2.7-0.6,0.5,6.8,0.5,6.8s8.5-14.9,11.3-13.3c2.7,1.6-7.9,14-7.9,14
							s3.8-5,5.5-4c1.7,0.9-2.4,5.1-2.4,5.1s3.4-3.8,4.5-2.3c1,1.5-3.1,4.6-3.1,4.6s3.4-2.8,4.6-1.6c1.2,1.2-7.5,11.6-12.6,12.6
							L290.5,376.7z" style="fill:#fff"></path>
              <path d="M296.2,382.4c-0.1,0-0.1,0-0.2-0.1l-5.8-5.4c-0.1-0.1-0.1-0.2-0.1-0.3c0.3-1.6,2.9-15.9,5.7-16.6
							c0.6-0.1,1,0.1,1.2,0.3c0.8,0.8,0.5,3.1,0.1,4.9c2.1-3.5,6.9-11,9.6-11.7c0.4-0.1,0.7-0.1,1,0.1c0.3,0.2,0.5,0.5,0.6,0.9
							c0.3,1.9-2.6,6.2-5.1,9.4c0.8-0.5,1.5-0.7,2.1-0.4c0.3,0.2,0.5,0.4,0.6,0.8c0.1,0.6-0.3,1.4-0.7,2.1c0.5-0.3,1.1-0.5,1.5-0.5
							c0.3,0,0.6,0.2,0.8,0.5c0.6,0.8,0,1.9-0.9,2.9c0.9-0.4,1.8-0.5,2.4,0c0.2,0.2,0.3,0.6,0.1,1.1
							C308.3,373.3,300.9,381.5,296.2,382.4C296.3,382.4,296.3,382.4,296.2,382.4z M290.8,376.6l5.5,5.2c4.4-1,11.5-8.8,12.3-11.6
							c0.1-0.3,0.1-0.4,0-0.4c-0.8-0.7-2.9,0.7-4,1.4c-0.1,0.1-0.2,0.2-0.3,0.2c-0.1,0.1-0.3,0.1-0.4-0.1c-0.1-0.1-0.1-0.3,0-0.4
							c0.1,0,0.2-0.1,0.3-0.2c1.5-1.2,3.3-3.1,2.7-3.9c-0.1-0.1-0.2-0.2-0.4-0.2c-0.9-0.1-2.4,1.3-3.3,2.2c-0.2,0.2-0.3,0.3-0.4,0.4
							c-0.1,0.1-0.3,0.1-0.4,0c-0.1-0.1-0.1-0.3,0-0.4c0.1-0.1,0.2-0.2,0.4-0.4c1.1-1.2,2.5-3,2.4-3.9c0-0.2-0.1-0.3-0.2-0.3
							c-0.8-0.4-2.5,1-3.9,2.5c-0.7,0.8-1.1,1.3-1.2,1.4c-0.1,0.1-0.3,0.1-0.4,0c-0.1-0.1-0.1-0.3-0.1-0.4c0.1-0.2,0.6-0.8,1.2-1.5
							c2.8-3.5,7.4-9.6,7.1-11.6c0-0.2-0.1-0.4-0.3-0.4c-0.2-0.1-0.3-0.1-0.6,0c-3.2,0.9-10.2,13.1-10.3,13.2
							c-0.1,0.1-0.2,0.2-0.4,0.1c-0.1-0.1-0.2-0.2-0.2-0.4c0.6-2,1.3-5.5,0.5-6.3c-0.1-0.1-0.3-0.2-0.6-0.1
							C294.2,361.1,291.9,370.6,290.8,376.6z" style="fill:#3e414e"></path>
            </g>
            <g>
              <g>
                <rect width="10.4" height="9" x="205.7" y="584.2" style="fill:#fff"></rect>
                <path d="M216.1,593.6h-10.4c-0.2,0-0.3-0.1-0.3-0.3v-9c0-0.2,0.1-0.3,0.3-0.3h10.4c0.2,0,0.3,0.1,0.3,0.3v9
								C216.4,593.4,216.3,593.6,216.1,593.6z M206,593h9.7v-8.4H206V593z" style="fill:#3e414e"></path>
              </g>
              <g>
                <path d="M226.2,601.8c-3.8-0.1-10.1-2.8-12.3-2.5c-1.4,0.2-5.9,0.3-8.8,0.3c-1.5,0-2.7-1.2-2.6-2.6
								c0-0.8,0.1-1.7,0.1-2.7c0.1-1.6,0.4-3.3,0.8-4.7c0.2-0.6,0.4-1.1,0.7-1.5c0.4-0.6,1.2-0.8,1.8-0.4c1.6,1.2,5,3.5,6.9,2.6
								c1.2-0.6,1.9-1.8,2.3-2.9c0.3-0.9,1.4-1.1,2.1-0.5c2.1,2.1,5.8,5.4,8.6,6.1c4.3,1,9,2.6,9.2,4.9
								C235.3,600.3,230,601.9,226.2,601.8z" style="fill:#fff"></path>
                <path d="M226.7,602.1c-0.2,0-0.3,0-0.5,0c-1.9-0.1-4.6-0.8-6.9-1.4c-2.2-0.6-4.4-1.2-5.4-1.1
								c-1.1,0.1-4,0.2-8.8,0.3c-0.8,0-1.5-0.3-2.1-0.9c-0.6-0.6-0.8-1.3-0.8-2.1c0-1,0.1-1.9,0.1-2.7c0.2-1.9,0.4-3.5,0.8-4.7
								c0.2-0.7,0.4-1.2,0.7-1.6c0.2-0.4,0.6-0.6,1-0.7c0.4-0.1,0.9,0,1.2,0.3c1.4,1.1,4.8,3.4,6.6,2.6c1.2-0.6,1.8-1.8,2.1-2.8
								c0.2-0.5,0.6-0.9,1.1-1c0.5-0.1,1.1,0,1.5,0.4c1.9,2,5.6,5.4,8.5,6.1c6.2,1.5,9.3,3.2,9.5,5.2c0.1,0.6-0.2,1.1-0.6,1.6
								C233.2,601.2,229.5,602.1,226.7,602.1z M214.3,599c1.2,0,3.1,0.5,5.2,1.1c2.3,0.6,4.9,1.3,6.7,1.4c0,0,0,0,0,0
								c3.1,0.1,6.8-0.9,8.1-2.3c0.4-0.4,0.5-0.8,0.5-1.1c-0.1-1.1-1.7-2.9-9-4.6c-3-0.7-6.8-4.2-8.8-6.2c-0.2-0.2-0.6-0.3-0.9-0.3
								c-0.3,0.1-0.6,0.3-0.7,0.6c-0.5,1.5-1.4,2.6-2.5,3.1c-2,0.9-5.4-1.3-7.2-2.7c-0.2-0.2-0.5-0.2-0.8-0.2
								c-0.3,0.1-0.5,0.2-0.6,0.4c-0.2,0.4-0.4,0.9-0.6,1.5c-0.4,1.2-0.6,2.7-0.8,4.6c-0.1,0.8-0.1,1.7-0.1,2.7
								c0,0.6,0.2,1.2,0.7,1.6c0.4,0.4,1,0.7,1.6,0.7c0,0,0,0,0,0c1.8,0,7.1-0.1,8.7-0.3C214,599,214.1,599,214.3,599z" style="fill:#3e414e"></path>
              </g>
              <g>
                <path d="M226.2,598.3C226.2,598.3,226.1,598.2,226.2,598.3l-19-2.6c-0.2,0-0.3-0.2-0.3-0.3
								c0-0.2,0.2-0.3,0.3-0.3l19,2.6c0.2,0,0.3,0.2,0.3,0.3C226.5,598.1,226.3,598.3,226.2,598.3z" style="fill:#3e414e"></path>
              </g>
              <g>
                <path d="M230.7,601.3c-3.1-3.5-0.7-6.2-0.1-6.8" style="fill:#fff"></path>
                <path d="M230.7,601.6c-0.1,0-0.2,0-0.2-0.1c-3.3-3.8-0.7-6.7-0.1-7.2c0.1-0.1,0.3-0.1,0.4,0
								c0.1,0.1,0.1,0.3,0,0.4c-0.7,0.7-2.7,3.1,0.1,6.4c0.1,0.1,0.1,0.3,0,0.4C230.8,601.6,230.7,601.6,230.7,601.6z" style="fill:#3e414e"></path>
              </g>
              <g>
                <path d="M205.5,592c0,1.3-1.1,2.4-2.4,2.4c-0.1,0-0.3,0-0.4,0c0.1-1.6,0.4-3.3,0.8-4.7
								C204.6,589.9,205.5,590.8,205.5,592z" style="fill:#3c4150"></path>
              </g>
            </g>
            <g>
              <g>
                <rect width="10.4" height="9" x="254.5" y="584.2" style="fill:#fff"></rect>
                <path d="M264.8,593.6h-10.4c-0.2,0-0.3-0.1-0.3-0.3v-9c0-0.2,0.1-0.3,0.3-0.3h10.4c0.2,0,0.3,0.1,0.3,0.3v9
								C265.1,593.4,265,593.6,264.8,593.6z M254.8,593h9.7v-8.4h-9.7V593z" style="fill:#3e414e"></path>
              </g>
              <g>
                <path d="M275,601.8c-3.8-0.1-10.1-2.8-12.3-2.5c-1.4,0.2-5.9,0.3-8.8,0.3c-1.5,0-2.7-1.2-2.6-2.6
								c0-0.8,0.1-1.7,0.1-2.7c0.1-1.6,0.4-3.3,0.8-4.7c0.2-0.6,0.4-1.1,0.7-1.5c0.4-0.6,1.2-0.8,1.8-0.4c1.6,1.2,5,3.5,6.9,2.6
								c1.2-0.6,1.9-1.8,2.3-2.9c0.3-0.9,1.4-1.1,2.1-0.5c2.1,2.1,5.8,5.4,8.6,6.1c4.3,1,9,2.6,9.2,4.9
								C284.1,600.3,278.8,601.9,275,601.8z" style="fill:#fff"></path>
                <path d="M275.4,602.1c-0.2,0-0.3,0-0.5,0c-1.9-0.1-4.6-0.8-6.9-1.4c-2.2-0.6-4.4-1.2-5.4-1.1
								c-1.1,0.1-4,0.2-8.8,0.3c-0.8,0-1.5-0.3-2.1-0.9c-0.6-0.6-0.8-1.3-0.8-2.1c0-1,0.1-1.9,0.1-2.7c0.2-1.9,0.4-3.5,0.8-4.7
								c0.2-0.7,0.4-1.2,0.7-1.6c0.2-0.4,0.6-0.6,1-0.7c0.4-0.1,0.9,0,1.2,0.3c1.4,1.1,4.8,3.4,6.6,2.6c1.2-0.6,1.8-1.8,2.1-2.8
								c0.2-0.5,0.6-0.9,1.1-1c0.5-0.1,1.1,0,1.5,0.4c1.9,2,5.6,5.4,8.5,6.1c6.2,1.5,9.3,3.2,9.5,5.2c0.1,0.6-0.2,1.1-0.6,1.6
								C282,601.2,278.2,602.1,275.4,602.1z M263,599c1.2,0,3.1,0.5,5.2,1.1c2.3,0.6,4.9,1.3,6.7,1.4c0,0,0,0,0,0
								c3.1,0.1,6.8-0.9,8.1-2.3c0.4-0.4,0.5-0.8,0.5-1.1c-0.1-1.1-1.7-2.9-9-4.6c-3-0.7-6.8-4.2-8.8-6.2c-0.2-0.2-0.6-0.3-0.9-0.3
								c-0.3,0.1-0.6,0.3-0.7,0.6c-0.5,1.5-1.4,2.6-2.5,3.1c-2,0.9-5.4-1.3-7.2-2.7c-0.2-0.2-0.5-0.2-0.8-0.2
								c-0.3,0.1-0.5,0.2-0.6,0.4c-0.2,0.4-0.4,0.9-0.6,1.5c-0.4,1.2-0.6,2.7-0.8,4.6c-0.1,0.8-0.1,1.7-0.1,2.7
								c0,0.6,0.2,1.2,0.7,1.6c0.4,0.4,1,0.7,1.6,0.7c0,0,0,0,0,0c1.8,0,7.1-0.1,8.7-0.3C262.7,599,262.9,599,263,599z" style="fill:#3e414e"></path>
              </g>
              <g>
                <path d="M274.9,598.3C274.9,598.3,274.9,598.2,274.9,598.3l-19-2.6c-0.2,0-0.3-0.2-0.3-0.3
								c0-0.2,0.2-0.3,0.3-0.3l19,2.6c0.2,0,0.3,0.2,0.3,0.3C275.2,598.1,275.1,598.3,274.9,598.3z" style="fill:#3e414e"></path>
              </g>
              <g>
                <path d="M279.4,601.3c-3.1-3.5-0.7-6.2-0.1-6.8" style="fill:#fff"></path>
                <path d="M279.4,601.6c-0.1,0-0.2,0-0.2-0.1c-3.3-3.8-0.7-6.7-0.1-7.2c0.1-0.1,0.3-0.1,0.4,0
								c0.1,0.1,0.1,0.3,0,0.4c-0.7,0.7-2.7,3.1,0.1,6.4c0.1,0.1,0.1,0.3,0,0.4C279.5,601.6,279.5,601.6,279.4,601.6z" style="fill:#3e414e"></path>
              </g>
              <g>
                <path d="M254.2,592c0,1.3-1.1,2.4-2.4,2.4c-0.1,0-0.3,0-0.4,0c0.1-1.6,0.4-3.3,0.8-4.7
								C253.4,589.9,254.2,590.8,254.2,592z" style="fill:#3c4150"></path>
              </g>
            </g>
            <g>
              <path d="M203.9,418.7l-2.5,14.4l2.3,3.5l-0.8,25.9c0,0-14-20.8-14.8-29.4c-0.8-8.6,6-40.8,10.3-45.5
							c4.3-4.7,23.7-5.6,23.7-5.6s10.5-0.2,14,1c3.5,1.2,34.6,10.1,34.6,10.1l19.4-18.9l8.4,7.6c0,0-17.3,28.6-23.7,29.2
							c-6.4,0.6-31.5-8.9-31.5-8.9" style="fill:#fff"></path>
              <path d="M202.9,462.8c-0.1,0-0.2,0-0.3-0.1c-0.6-0.9-14-21-14.8-29.5c-0.8-8.5,6.1-41,10.4-45.7
							c4.3-4.7,23.1-5.7,23.9-5.7c0.4,0,10.6-0.2,14.1,1c3.3,1.1,31.9,9.3,34.4,10.1L290,374c0.1-0.1,0.3-0.1,0.4,0l8.4,7.6
							c0.1,0.1,0.1,0.3,0.1,0.4c-0.7,1.2-17.5,28.7-23.9,29.3c-6.4,0.6-30.6-8.6-31.7-9c-0.2-0.1-0.2-0.2-0.2-0.4s0.2-0.2,0.4-0.2
							c0.3,0.1,25.1,9.5,31.4,8.9c5.9-0.5,21.8-26.2,23.4-28.8l-8-7.2L271,393.3c-0.1,0.1-0.2,0.1-0.3,0.1
							c-0.3-0.1-31.2-9-34.6-10.1c-3.4-1.1-13.8-1-13.9-1c-0.2,0-19.4,1-23.5,5.5c-4.2,4.6-11,36.8-10.2,45.3
							c0.7,7.4,11.7,24.5,14.2,28.4l0.7-24.8l-2.3-3.4c0-0.1-0.1-0.1,0-0.2l2.5-14.4c0-0.2,0.2-0.3,0.4-0.2c0.2,0,0.3,0.2,0.2,0.4
							l-2.5,14.3l2.3,3.4c0,0.1,0.1,0.1,0.1,0.2l-0.8,25.9C203.2,462.6,203.1,462.7,202.9,462.8C203,462.8,202.9,462.8,202.9,462.8z
							" style="fill:#3e414e"></path>
            </g>
            <g>
              <g>
                <path d="M204.8,584.2h12.3l0.1-0.6l0.1-0.3l0.1-0.6c0.1-0.6,0.3-1.3,0.4-2.2c0.1-0.6,0.2-1.2,0.4-1.8l0.1-0.4
								l0.2-0.8l0.4-2c2.9-14.9,8.5-44.5,8.7-52.7c0.3-11.1,0-38.8,0-38.8s3.5,42.6,11.3,49.2c0,0,4.8,44.2,15.8,51h10.7
								c0,0-4.7-53.5-8.4-66.7l-7.1-52.2c0,0-16.6,4.2-34.8,2c-1.8-0.2-3.6-0.5-5.4-0.9c0,0,0,0,0,0c-1.5-0.3-2.9-0.6-4.4-1
								c-0.3-0.1-0.5-0.1-0.5-0.1s-1.1,53.7,2.1,62C206.9,527.4,201.4,582.9,204.8,584.2z" style="fill:#9ec9ef"></path>
              </g>
              <g>
                <path d="M265.3,584.5h-10.7c-0.1,0-0.1,0-0.2,0c-10.9-6.7-15.6-48-16-51.1c-5.9-5.2-9.3-30.3-10.6-42.6
								c0.1,8.9,0.1,24.4-0.1,32c-0.2,8-5.5,36.5-8.7,52.7l-1,5.1c-0.1,0.6-0.2,1.2-0.3,1.7l-0.4,2c0,0.1-0.2,0.2-0.3,0.2h-12.3
								c0,0-0.1,0-0.1,0c-3.4-1.4,0.9-47.7,1.9-57.1c-3.1-8.5-2.1-59.9-2.1-62c0-0.1,0-0.2,0.1-0.2c0.1-0.1,0.2-0.1,0.3,0
								c0,0,0.2,0,0.5,0.1c1.4,0.4,2.8,0.7,4.3,1c0,0,0,0,0.1,0c1.7,0.3,3.5,0.6,5.3,0.8c18,2.2,34.5-1.9,34.7-2c0.1,0,0.2,0,0.2,0
								c0.1,0,0.1,0.1,0.1,0.2l7.1,52.2c3.6,13.1,8.3,66.2,8.4,66.7c0,0.1,0,0.2-0.1,0.2C265.5,584.5,265.4,584.5,265.3,584.5z
								 M254.7,583.9H265c-0.4-4.5-4.8-53.8-8.3-66.3l-7.1-51.9c-2.4,0.6-17.9,4-34.6,1.9c-1.9-0.2-3.7-0.5-5.4-0.9c0,0,0,0,0,0v0
								c-1.5-0.3-3-0.6-4.4-1c0,0-0.1,0-0.1,0c-0.1,4.8-0.9,53.7,2.1,61.5c0,0,0,0.1,0,0.1c-2.1,21.2-4.5,55.2-2.3,56.6h12l0.3-1.8
								c0.1-0.5,0.2-1,0.3-1.7l1-5.1c3.2-16.2,8.5-44.7,8.7-52.6c0.3-10.9,0-38.5,0-38.7c0-0.2,0.1-0.3,0.3-0.3
								c0.2,0,0.3,0.1,0.3,0.3c0,0.4,3.6,42.6,11.2,49c0.1,0,0.1,0.1,0.1,0.2C239.1,533.7,243.9,577.1,254.7,583.9z" style="fill:#3e414e"></path>
              </g>
            </g>
            <g>
              <path d="M196.6,390.9c0,0,5.3,8.4,3,15.2c-2.3,6.8-7.4,21.4-5.4,26.4s9.1,17,9.1,17l-0.4,12.9
							c0,0-10.1-15.6-12.3-21.5s-3.2-8.1-2.6-12.7c0.6-4.6,2.9-17,3.2-18.9C192.1,403.8,196.6,390.9,196.6,390.9z" style="fill:#f4f4f4"></path>
            </g>
            <g>
              <path d="M202.9,462.8c-0.1,0-0.2-0.1-0.3-0.1c-0.4-0.6-10.2-15.7-12.3-21.5l-0.6-1.6c-1.7-4.7-2.6-7-2-11.2
							c0.4-2.9,1.5-9.1,2.3-13.6c0.4-2.6,0.8-4.6,0.9-5.2c0.9-5.7,5.3-18.5,5.3-18.7c0.1-0.2,0.2-0.2,0.4-0.2
							c0.2,0.1,0.2,0.2,0.2,0.4c0,0.1-4.5,12.9-5.3,18.6c-0.1,0.7-0.5,2.7-0.9,5.3c-0.8,4.5-1.9,10.7-2.3,13.6
							c-0.6,4,0.2,6.2,2,10.9l0.6,1.6c1.8,5,9.6,17.3,11.7,20.6l0.4-11.9c0-0.2,0.1-0.3,0.3-0.3c0,0,0,0,0,0c0.2,0,0.3,0.1,0.3,0.3
							l-0.4,12.9C203.2,462.6,203.1,462.7,202.9,462.8C203,462.8,202.9,462.8,202.9,462.8z" style="fill:#3e414e"></path>
            </g>
            <g>
              <path d="M204.8,584.2h12.3l0.1-0.6l0.1-0.3l0.1-0.6l0.4-2.2l0.4-1.8l0.1-0.4l0.2-0.8l0.4-2c0,0-7.2-12.2-5.9-13.2
							c1.3-0.9,2.2-33.3,3.9-39.9c1.7-6.6-1.4-15.8-4.3-21c-2.8-5.2-0.9-18.5,1.3-22.6c2.1-3.9,3.6-11.1,1.2-11.5
							c-0.1,0-0.1,0-0.2,0c-1.1,0-3.2-0.4-5.2-0.8c0,0,0,0,0,0c-1.8-0.4-3.5-0.8-4.4-1c-0.3-0.1-0.5-0.1-0.5-0.1s-1.1,53.7,2.1,62
							C206.9,527.4,201.4,582.9,204.8,584.2z" style="fill:#77b6e5"></path>
            </g>
            <g>
              <path d="M239.9,467.1c0,0,6-0.8,10-1.7l7.1,52.2c0,0,1.9,9.4,2.2,11.5c0.3,2.1,2.8,22.1,2.8,22.1l3.3,33.1h-10.7
							c0,0-5.6-3.6-8.7-15.1s-1.2-18.1-1.5-24.5c-0.3-6.4-2.1-11.7,1.3-17.8c3.4-6.1,2.6-5.4-1.1-13.6c-3.7-8.2-9.6-29.4-8.7-32.4
							C236.7,477.8,239.9,467.1,239.9,467.1z" style="fill:#77b6e5"></path>
            </g>
            <g>
              <path d="M265.3,584.5h-10.7c-0.1,0-0.1,0-0.2,0c-10.9-6.7-15.6-48-16-51.1c-5.9-5.2-9.3-30.3-10.6-42.6
							c0.1,8.9,0.1,24.4-0.1,32c-0.2,8-5.5,36.5-8.7,52.7l-1,5.1c-0.1,0.6-0.2,1.2-0.3,1.7l-0.4,2c0,0.1-0.2,0.2-0.3,0.2h-12.3
							c0,0-0.1,0-0.1,0c-3.4-1.4,0.9-47.7,1.9-57.1c-3.1-8.5-2.1-59.9-2.1-62c0-0.1,0-0.2,0.1-0.2c0.1-0.1,0.2-0.1,0.3,0
							c0,0,0.2,0,0.5,0.1c1.4,0.4,2.8,0.7,4.3,1c0,0,0,0,0.1,0c1.7,0.3,3.5,0.6,5.3,0.8c18,2.2,34.5-1.9,34.7-2c0.1,0,0.2,0,0.2,0
							c0.1,0,0.1,0.1,0.1,0.2l7.1,52.2c3.6,13.1,8.3,66.2,8.4,66.7c0,0.1,0,0.2-0.1,0.2C265.5,584.5,265.4,584.5,265.3,584.5z
							 M254.7,583.9H265c-0.4-4.5-4.8-53.8-8.3-66.3l-7.1-51.9c-2.4,0.6-17.9,4-34.6,1.9c-1.9-0.2-3.7-0.5-5.4-0.9c0,0,0,0,0,0v0
							c-1.5-0.3-3-0.6-4.4-1c0,0-0.1,0-0.1,0c-0.1,4.8-0.9,53.7,2.1,61.5c0,0,0,0.1,0,0.1c-2.1,21.2-4.5,55.2-2.3,56.6h12l0.3-1.8
							c0.1-0.5,0.2-1,0.3-1.7l1-5.1c3.2-16.2,8.5-44.7,8.7-52.6c0.3-10.9,0-38.5,0-38.7c0-0.2,0.1-0.3,0.3-0.3
							c0.2,0,0.3,0.1,0.3,0.3c0,0.4,3.6,42.6,11.2,49c0.1,0,0.1,0.1,0.1,0.2C239.1,533.7,243.9,577.1,254.7,583.9z" style="fill:#3e414e"></path>
            </g>
          </g>
          <g>
            <path d="M251.8,443.1l0.2,18.4c0,0,0,3.4-3,4c0,0-21.6,5.7-43.7,0c-1.4-0.4-2.4-1.7-2.4-3.2l0.1-6
						c0,0,9.5,1.9,22.9-1.6S251.8,443.1,251.8,443.1z" style="fill:#f4f4f4"></path>
          </g>
          <g>
            <path d="M226.5,468.3c-6.5,0-13.9-0.6-21.2-2.5c-1.6-0.4-2.7-1.9-2.6-3.5l0.1-6c0-0.2,0.2-0.3,0.3-0.3
						c0.2,0,0.3,0.1,0.3,0.3l-0.1,6c0,1.4,0.9,2.6,2.2,2.9c21.8,5.6,43.3,0.1,43.5,0c2.8-0.5,2.8-3.7,2.8-3.7l-0.2-18.4
						c0-0.2,0.1-0.3,0.3-0.3c0.2,0,0.3,0.1,0.3,0.3l0.2,18.4c0,0,0,3.7-3.3,4.3C249,465.9,239.4,468.3,226.5,468.3z" style="fill:#3e414e"></path>
          </g>
        </g>
      </g>
      <g>
        <g>
          <path d="M643.6,245.2H340.7c-6.2,0-11.2,5-11.2,11.2v190.4c0,6.2,5,11.2,11.2,11.2h30.5v47.8L433,458h210.6
					c6.2,0,11.2-5,11.2-11.2V256.4C654.8,250.2,649.8,245.2,643.6,245.2z" style="fill:#fff"></path>
          <path d="M371.2,506.2c0,0-0.1,0-0.1,0c-0.1-0.1-0.2-0.2-0.2-0.3v-47.5h-30.2c-6.4,0-11.5-5.2-11.5-11.5V256.4
					c0-6.4,5.2-11.5,11.5-11.5h302.9c6.4,0,11.5,5.2,11.5,11.5v190.4c0,6.4-5.2,11.5-11.5,11.5H433.1l-61.8,47.8
					C371.3,506.2,371.3,506.2,371.2,506.2z M340.7,245.5c-6,0-10.9,4.9-10.9,10.9v190.4c0,6,4.9,10.9,10.9,10.9h30.5
					c0.2,0,0.3,0.1,0.3,0.3v47.2l61.3-47.5c0.1,0,0.1-0.1,0.2-0.1h210.6c6,0,10.9-4.9,10.9-10.9V256.4c0-6-4.9-10.9-10.9-10.9H340.7
					z" style="fill:#3e414e"></path>
        </g>
        <g>
          <path d="M654.8,276.9H329.4v-22.5c0-5.1,4.1-9.2,9.2-9.2h307c5.1,0,9.2,4.1,9.2,9.2V276.9z" style="fill:#e1e4e1"></path>
          <path d="M654.8,277.2H329.4c-0.2,0-0.3-0.1-0.3-0.3v-22.5c0-5.2,4.3-9.5,9.5-9.5h307c5.2,0,9.5,4.3,9.5,9.5v22.5
					C655.1,277.1,655,277.2,654.8,277.2z M329.7,276.6h324.8v-22.2c0-4.9-4-8.9-8.9-8.9h-307c-4.9,0-8.9,4-8.9,8.9V276.6z" style="fill:#3e414e"></path>
        </g>
        <g>
          <circle cx="349.7" cy="261" r="6.2" style="fill:#fff"></circle>
          <path d="M349.7,267.6c-3.6,0-6.5-2.9-6.5-6.5s2.9-6.5,6.5-6.5s6.5,2.9,6.5,6.5S353.3,267.6,349.7,267.6z
					 M349.7,255.1c-3.3,0-5.9,2.7-5.9,5.9c0,3.3,2.7,5.9,5.9,5.9s5.9-2.7,5.9-5.9C355.6,257.8,352.9,255.1,349.7,255.1z" style="fill:#3e414e"></path>
        </g>
        <g>
          <circle cx="392.7" cy="261" r="6.2" style="fill:#fff"></circle>
          <path d="M392.7,267.6c-3.6,0-6.5-2.9-6.5-6.5s2.9-6.5,6.5-6.5s6.5,2.9,6.5,6.5S396.3,267.6,392.7,267.6z
					 M392.7,255.1c-3.3,0-5.9,2.7-5.9,5.9c0,3.3,2.7,5.9,5.9,5.9s5.9-2.7,5.9-5.9C398.7,257.8,396,255.1,392.7,255.1z" style="fill:#3e414e"></path>
        </g>
        <g>
          <circle cx="371.2" cy="261" r="6.2" style="fill:#fff"></circle>
          <path d="M371.2,267.6c-3.6,0-6.5-2.9-6.5-6.5s2.9-6.5,6.5-6.5s6.5,2.9,6.5,6.5S374.8,267.6,371.2,267.6z
					 M371.2,255.1c-3.3,0-5.9,2.7-5.9,5.9c0,3.3,2.7,5.9,5.9,5.9s5.9-2.7,5.9-5.9C377.1,257.8,374.5,255.1,371.2,255.1z" style="fill:#3e414e"></path>
        </g>
        <g>
          <circle cx="422" cy="261" r="7.5" style="fill:#fff"></circle>
          <path d="M422,268.9c-4.3,0-7.8-3.5-7.8-7.8s3.5-7.8,7.8-7.8s7.8,3.5,7.8,7.8S426.3,268.9,422,268.9z M422,253.8
					c-4,0-7.2,3.2-7.2,7.2c0,4,3.2,7.2,7.2,7.2s7.2-3.2,7.2-7.2C429.2,257.1,426,253.8,422,253.8z" style="fill:#3e414e"></path>
        </g>
        <g>
          <circle cx="449.3" cy="261" r="7.5" style="fill:#fff"></circle>
          <path d="M449.3,268.9c-4.3,0-7.8-3.5-7.8-7.8s3.5-7.8,7.8-7.8s7.8,3.5,7.8,7.8S453.6,268.9,449.3,268.9z
					 M449.3,253.8c-4,0-7.2,3.2-7.2,7.2c0,4,3.2,7.2,7.2,7.2s7.2-3.2,7.2-7.2C456.5,257.1,453.3,253.8,449.3,253.8z" style="fill:#3e414e"></path>
        </g>
        <g>
          <path d="M630.5,268.6h-145c-3.8,0-6.9-3.1-6.9-6.9v0c0-3.8,3.1-6.9,6.9-6.9h145c3.8,0,6.9,3.1,6.9,6.9v0
					C637.4,265.5,634.3,268.6,630.5,268.6z" style="fill:#fff"></path>
          <path d="M630.5,268.9h-145c-4,0-7.2-3.2-7.2-7.2s3.2-7.2,7.2-7.2h145c4,0,7.2,3.2,7.2,7.2S634.5,268.9,630.5,268.9z
					 M485.5,255.1c-3.6,0-6.6,3-6.6,6.6s3,6.6,6.6,6.6h145c3.6,0,6.6-3,6.6-6.6s-3-6.6-6.6-6.6H485.5z" style="fill:#3e414e"></path>
        </g>
        <g>
          <g>
            <path d="M450.4,263.8c-0.1,0-0.2,0-0.2-0.1c-0.1-0.1-0.1-0.3,0-0.4l2.2-2.2l-2.2-2.2c-0.1-0.1-0.1-0.3,0-0.4
						c0.1-0.1,0.3-0.1,0.4,0l2.5,2.5c0.1,0.1,0.1,0.1,0.1,0.2s0,0.2-0.1,0.2l-2.5,2.5C450.5,263.8,450.4,263.8,450.4,263.8z" style="fill:#3e414e"></path>
          </g>
          <g>
            <path d="M452.8,261.3h-7c-0.2,0-0.3-0.1-0.3-0.3s0.1-0.3,0.3-0.3h7c0.2,0,0.3,0.1,0.3,0.3S453,261.3,452.8,261.3z" style="fill:#3e414e"></path>
          </g>
        </g>
        <g>
          <g>
            <path d="M420.9,263.8c-0.1,0-0.2,0-0.2-0.1l-2.5-2.5c-0.1-0.1-0.1-0.1-0.1-0.2s0-0.2,0.1-0.2l2.5-2.5
						c0.1-0.1,0.3-0.1,0.4,0c0.1,0.1,0.1,0.3,0,0.4l-2.2,2.2l2.2,2.2c0.1,0.1,0.1,0.3,0,0.4C421.1,263.8,421,263.8,420.9,263.8z" style="fill:#3e414e"></path>
          </g>
          <g>
            <path d="M425.5,261.3h-7c-0.2,0-0.3-0.1-0.3-0.3s0.1-0.3,0.3-0.3h7c0.2,0,0.3,0.1,0.3,0.3S425.7,261.3,425.5,261.3
						z" style="fill:#3e414e"></path>
          </g>
        </g>
        <g>
          <g>
            <path d="M626.3,264.7c-2.1,0-3.8-1.7-3.8-3.8s1.7-3.8,3.8-3.8s3.8,1.7,3.8,3.8S628.3,264.7,626.3,264.7z
						 M626.3,257.7c-1.7,0-3.2,1.4-3.2,3.2s1.4,3.2,3.2,3.2s3.2-1.4,3.2-3.2S628,257.7,626.3,257.7z" style="fill:#3e414e"></path>
          </g>
          <g>
            <path d="M620.8,266.9c-0.1,0-0.2,0-0.2-0.1c-0.1-0.1-0.1-0.3,0-0.4l3.1-3.1c0.1-0.1,0.3-0.1,0.4,0
						c0.1,0.1,0.1,0.3,0,0.4l-3.1,3.1C620.9,266.8,620.9,266.9,620.8,266.9z" style="fill:#3e414e"></path>
          </g>
        </g>
      </g>
      <g>
        <g>
          <path d="M516.9,332.3h9.5c7.2,0,13.1-5.8,13.1-13.1s-5.8-13.1-13.1-13.1H412c-7.2,0-13.1,5.8-13.1,13.1
					s5.8,13.1,13.1,13.1H516.9" style="fill:#fff"></path>
          <path d="M526.3,332.6H412c-7.4,0-13.4-6-13.4-13.4c0-7.4,6-13.4,13.4-13.4h114.3c7.4,0,13.4,6,13.4,13.4
					C539.7,326.6,533.7,332.6,526.3,332.6z M412,306.5c-7,0-12.8,5.7-12.8,12.8S405,332,412,332h114.3c7,0,12.8-5.7,12.8-12.8
					s-5.7-12.8-12.8-12.8H412z" style="fill:#3e414e"></path>
        </g>
        <g>
          <path d="M526.3,328.4H513c-0.2,0-0.3-0.1-0.3-0.3v-17.7c0-0.2,0.1-0.3,0.3-0.3h13.4c5,0,9.2,4.1,9.2,9.2
					S531.4,328.4,526.3,328.4z M513.3,327.8h13.1c4.7,0,8.6-3.8,8.6-8.6c0-4.7-3.8-8.6-8.6-8.6h-13.1V327.8z" style="fill:#3e414e"></path>
        </g>
        <g>
          <g>
            <path d="M513,310.4v17.7H412c-4.9,0-8.9-4-8.9-8.9c0-4.9,4-8.9,8.9-8.9H513z" style="fill:#9ec9ef"></path>
          </g>
          <g>
            <path d="M513,328.4H412c-5,0-9.2-4.1-9.2-9.2s4.1-9.2,9.2-9.2H513c0.2,0,0.3,0.1,0.3,0.3v17.7
						C513.3,328.3,513.1,328.4,513,328.4z M412,310.7c-4.7,0-8.6,3.8-8.6,8.6c0,4.7,3.8,8.6,8.6,8.6h100.6v-17.1H412z" style="fill:#3e414e"></path>
          </g>
        </g>
        <g>
          <path d="M525.7,321.8c-2.2,0-3.9-1.8-3.9-3.9s1.8-3.9,3.9-3.9c2.2,0,3.9,1.8,3.9,3.9S527.9,321.8,525.7,321.8z
					 M525.7,314.6c-1.8,0-3.3,1.5-3.3,3.3s1.5,3.3,3.3,3.3c1.8,0,3.3-1.5,3.3-3.3S527.5,314.6,525.7,314.6z" style="fill:#3e414e"></path>
        </g>
        <g>
          <path d="M519.8,324.1c-0.1,0-0.2,0-0.2-0.1c-0.1-0.1-0.1-0.3,0-0.4l3.4-3.4c0.1-0.1,0.3-0.1,0.4,0
					c0.1,0.1,0.1,0.3,0,0.4l-3.4,3.4C520,324.1,519.9,324.1,519.8,324.1z" style="fill:#3e414e"></path>
        </g>
      </g>
      <g>
        <path d="M652.3,359.8h-49.7c-5.4,0-9.8-4.4-9.8-9.8v-49.7c0-5.4,4.4-9.8,9.8-9.8h49.7c5.4,0,9.8,4.4,9.8,9.8v49.7
				C662.1,355.4,657.7,359.8,652.3,359.8z" style="fill:#fff"></path>
        <path d="M652.3,360.1h-49.7c-5.6,0-10.1-4.5-10.1-10.1v-49.7c0-5.6,4.5-10.1,10.1-10.1h49.7
				c5.6,0,10.1,4.5,10.1,10.1v49.7C662.4,355.5,657.9,360.1,652.3,360.1z M602.6,290.7c-5.2,0-9.5,4.3-9.5,9.5v49.7
				c0,5.2,4.3,9.5,9.5,9.5h49.7c5.2,0,9.5-4.3,9.5-9.5v-49.7c0-5.2-4.3-9.5-9.5-9.5H602.6z" style="fill:#3e414e"></path>
      </g>
      <g>
        <g>
          <g>
            <path d="M627.4,342.7c0,0-13.6-18.7-13.6-26.2s6.1-13.6,13.6-13.6S641,309,641,316.5S627.4,342.7,627.4,342.7z" style="fill:#f08680"></path>
            <path d="M627.4,343c-0.1,0-0.2,0-0.2-0.1c-0.6-0.8-13.6-18.9-13.6-26.4c0-7.6,6.2-13.9,13.9-13.9
						s13.9,6.2,13.9,13.9c0,7.5-13.1,25.6-13.6,26.4C627.6,343,627.5,343,627.4,343z M627.4,303.2c-7.3,0-13.3,6-13.3,13.3
						c0,6.7,11.4,23.1,13.3,25.7c1.8-2.6,13.3-18.9,13.3-25.7C640.7,309.2,634.8,303.2,627.4,303.2z" style="fill:#3e414e"></path>
          </g>
          <g>
            <circle cx="627.4" cy="316.5" r="8.3" style="fill:#fff"></circle>
          </g>
        </g>
        <g>
          <ellipse cx="627.4" cy="345.3" rx="7.1" ry="2" style="fill:#9ec9ef"></ellipse>
        </g>
      </g>
      <g>
        <path d="M400.7,399.9h-32.2c-3.4,0-6.1-2.7-6.1-6.1v-32.2c0-3.4,2.7-6.1,6.1-6.1h32.2c3.4,0,6.1,2.7,6.1,6.1v32.2
				C406.8,397.1,404.1,399.9,400.7,399.9z" style="fill:#fff"></path>
        <path d="M400.7,400.2h-32.2c-3.5,0-6.4-2.9-6.4-6.4v-32.2c0-3.5,2.9-6.4,6.4-6.4h32.2c3.5,0,6.4,2.9,6.4,6.4v32.2
				C407.1,397.3,404.2,400.2,400.7,400.2z M368.5,355.8c-3.2,0-5.8,2.6-5.8,5.8v32.2c0,3.2,2.6,5.8,5.8,5.8h32.2
				c3.2,0,5.8-2.6,5.8-5.8v-32.2c0-3.2-2.6-5.8-5.8-5.8H368.5z" style="fill:#3e414e"></path>
      </g>
      <g>
        <path d="M404.6,417.2h-36.1c-1.2,0-2.2-1-2.2-2.2l0,0c0-1.2,1-2.2,2.2-2.2h36.1c1.2,0,2.2,1,2.2,2.2l0,0
				C406.8,416.2,405.8,417.2,404.6,417.2z" style="fill:#e1e4e1"></path>
        <path d="M404.6,417.5h-36.1c-1.4,0-2.5-1.1-2.5-2.5s1.1-2.5,2.5-2.5h36.1c1.4,0,2.5,1.1,2.5,2.5
				S406,417.5,404.6,417.5z M368.5,413c-1.1,0-1.9,0.9-1.9,1.9s0.9,1.9,1.9,1.9h36.1c1.1,0,1.9-0.9,1.9-1.9s-0.9-1.9-1.9-1.9H368.5z
				" style="fill:#3e414e"></path>
      </g>
      <g>
        <path d="M393.7,428.2h-25.2c-1.2,0-2.2-1-2.2-2.2v0c0-1.2,1-2.2,2.2-2.2h25.2c1.2,0,2.2,1,2.2,2.2v0
				C395.9,427.2,394.9,428.2,393.7,428.2z" style="fill:#e1e4e1"></path>
        <path d="M393.7,428.5h-25.2c-1.4,0-2.5-1.1-2.5-2.5s1.1-2.5,2.5-2.5h25.2c1.4,0,2.5,1.1,2.5,2.5
				S395.1,428.5,393.7,428.5z M368.5,424.1c-1.1,0-1.9,0.9-1.9,1.9s0.9,1.9,1.9,1.9h25.2c1.1,0,1.9-0.9,1.9-1.9s-0.9-1.9-1.9-1.9
				H368.5z" style="fill:#3e414e"></path>
      </g>
      <g>
        <path d="M489.9,399.9h-32.2c-3.4,0-6.1-2.7-6.1-6.1v-32.2c0-3.4,2.7-6.1,6.1-6.1h32.2c3.4,0,6.1,2.7,6.1,6.1v32.2
				C496,397.1,493.2,399.9,489.9,399.9z" style="fill:#fff"></path>
        <path d="M489.9,400.2h-32.2c-3.5,0-6.4-2.9-6.4-6.4v-32.2c0-3.5,2.9-6.4,6.4-6.4h32.2c3.5,0,6.4,2.9,6.4,6.4v32.2
				C496.3,397.3,493.4,400.2,489.9,400.2z M457.7,355.8c-3.2,0-5.8,2.6-5.8,5.8v32.2c0,3.2,2.6,5.8,5.8,5.8h32.2
				c3.2,0,5.8-2.6,5.8-5.8v-32.2c0-3.2-2.6-5.8-5.8-5.8H457.7z" style="fill:#3e414e"></path>
      </g>
      <g>
        <path d="M493.7,417.2h-36.1c-1.2,0-2.2-1-2.2-2.2l0,0c0-1.2,1-2.2,2.2-2.2h36.1c1.2,0,2.2,1,2.2,2.2l0,0
				C496,416.2,495,417.2,493.7,417.2z" style="fill:#e1e4e1"></path>
        <path d="M493.7,417.5h-36.1c-1.4,0-2.5-1.1-2.5-2.5s1.1-2.5,2.5-2.5h36.1c1.4,0,2.5,1.1,2.5,2.5
				S495.1,417.5,493.7,417.5z M457.6,413c-1.1,0-1.9,0.9-1.9,1.9s0.9,1.9,1.9,1.9h36.1c1.1,0,1.9-0.9,1.9-1.9s-0.9-1.9-1.9-1.9
				H457.6z" style="fill:#3e414e"></path>
      </g>
      <g>
        <path d="M482.9,428.2h-25.2c-1.2,0-2.2-1-2.2-2.2v0c0-1.2,1-2.2,2.2-2.2h25.2c1.2,0,2.2,1,2.2,2.2v0
				C485.1,427.2,484.1,428.2,482.9,428.2z" style="fill:#e1e4e1"></path>
        <path d="M482.9,428.5h-25.2c-1.4,0-2.5-1.1-2.5-2.5s1.1-2.5,2.5-2.5h25.2c1.4,0,2.5,1.1,2.5,2.5
				S484.3,428.5,482.9,428.5z M457.6,424.1c-1.1,0-1.9,0.9-1.9,1.9s0.9,1.9,1.9,1.9h25.2c1.1,0,1.9-0.9,1.9-1.9s-0.9-1.9-1.9-1.9
				H457.6z" style="fill:#3e414e"></path>
      </g>
      <g>
        <path d="M579,399.9h-32.2c-3.4,0-6.1-2.7-6.1-6.1v-32.2c0-3.4,2.7-6.1,6.1-6.1H579c3.4,0,6.1,2.7,6.1,6.1v32.2
				C585.1,397.1,582.4,399.9,579,399.9z" style="fill:#fff"></path>
        <path d="M579,400.2h-32.2c-3.5,0-6.4-2.9-6.4-6.4v-32.2c0-3.5,2.9-6.4,6.4-6.4H579c3.5,0,6.4,2.9,6.4,6.4v32.2
				C585.4,397.3,582.5,400.2,579,400.2z M546.8,355.8c-3.2,0-5.8,2.6-5.8,5.8v32.2c0,3.2,2.6,5.8,5.8,5.8H579c3.2,0,5.8-2.6,5.8-5.8
				v-32.2c0-3.2-2.6-5.8-5.8-5.8H546.8z" style="fill:#3e414e"></path>
      </g>
      <g>
        <path d="M582.9,417.2h-36.1c-1.2,0-2.2-1-2.2-2.2l0,0c0-1.2,1-2.2,2.2-2.2h36.1c1.2,0,2.2,1,2.2,2.2l0,0
				C585.1,416.2,584.1,417.2,582.9,417.2z" style="fill:#e1e4e1"></path>
        <path d="M582.9,417.5h-36.1c-1.4,0-2.5-1.1-2.5-2.5s1.1-2.5,2.5-2.5h36.1c1.4,0,2.5,1.1,2.5,2.5
				S584.3,417.5,582.9,417.5z M546.8,413c-1.1,0-1.9,0.9-1.9,1.9s0.9,1.9,1.9,1.9h36.1c1.1,0,1.9-0.9,1.9-1.9s-0.9-1.9-1.9-1.9
				H546.8z" style="fill:#3e414e"></path>
      </g>
      <g>
        <path d="M572,428.2h-25.2c-1.2,0-2.2-1-2.2-2.2v0c0-1.2,1-2.2,2.2-2.2H572c1.2,0,2.2,1,2.2,2.2v0
				C574.2,427.2,573.2,428.2,572,428.2z" style="fill:#e1e4e1"></path>
        <path d="M572,428.5h-25.2c-1.4,0-2.5-1.1-2.5-2.5s1.1-2.5,2.5-2.5H572c1.4,0,2.5,1.1,2.5,2.5S573.4,428.5,572,428.5z
				 M546.8,424.1c-1.1,0-1.9,0.9-1.9,1.9s0.9,1.9,1.9,1.9H572c1.1,0,1.9-0.9,1.9-1.9s-0.9-1.9-1.9-1.9H546.8z" style="fill:#3e414e"></path>
      </g>
      <g>
        <g>
          <path d="M569,368.7l2.2,3.9v20c0,1.2-1,2.2-2.2,2.2h-12c-1.2,0-2.2-1-2.2-2.2v-20l2.4-3.9H569z" style="fill:#fff"></path>
          <path d="M568.9,395.2h-12c-1.4,0-2.5-1.1-2.5-2.5v-20c0-0.1,0-0.1,0-0.2l2.4-3.9c0.1-0.1,0.2-0.1,0.3-0.1H569
					c0.1,0,0.2,0.1,0.3,0.2l2.2,3.9c0,0,0,0.1,0,0.1v20C571.5,394,570.3,395.2,568.9,395.2z M555,372.7v20c0,1.1,0.9,1.9,1.9,1.9h12
					c1.1,0,1.9-0.9,1.9-1.9v-20l-2.1-3.7h-11.5L555,372.7z" style="fill:#3e414e"></path>
        </g>
        <g>
          <path d="M571.2,372.9h-16.5c-0.2,0-0.3-0.1-0.3-0.3s0.1-0.3,0.3-0.3h16.5c0.2,0,0.3,0.1,0.3,0.3
					S571.3,372.9,571.2,372.9z" style="fill:#3e414e"></path>
        </g>
        <g>
          <g>
            <path d="M569,368.7h-12.1c-1,0-1.9-0.8-1.9-1.9v0c0-1,0.8-1.9,1.9-1.9H569c1,0,1.9,0.8,1.9,1.9v0
						C570.8,367.9,570,368.7,569,368.7z" style="fill:#9ec9ef"></path>
          </g>
          <g>
            <path d="M569,369h-12.1c-1.2,0-2.2-1-2.2-2.2s1-2.2,2.2-2.2H569c1.2,0,2.2,1,2.2,2.2S570.2,369,569,369z
						 M556.9,365.3c-0.9,0-1.6,0.7-1.6,1.6s0.7,1.6,1.6,1.6H569c0.9,0,1.6-0.7,1.6-1.6s-0.7-1.6-1.6-1.6H556.9z" style="fill:#3e414e"></path>
          </g>
        </g>
        <g>
          <path d="M556.9,366.5H569c0.8,0,1.4,0.5,1.7,1.1c0.1-0.2,0.2-0.5,0.2-0.7c0-1-0.8-1.9-1.9-1.9h-12.1
					c-1,0-1.9,0.8-1.9,1.9c0,0.3,0.1,0.5,0.2,0.7C555.5,366.9,556.1,366.5,556.9,366.5z" style="fill:#77b6e5"></path>
        </g>
        <g>
          <path d="M562.9,365.3c-0.1,0-0.1,0-0.2,0c-0.1-0.1-0.2-0.3-0.1-0.4l1.5-2.6c0-0.1,0.1-0.1,0.1-0.1l3.7-1.9
					c0.1-0.1,0.3,0,0.4,0.1c0.1,0.1,0,0.3-0.1,0.4l-3.7,1.8l-1.5,2.5C563.1,365.2,563,365.3,562.9,365.3z" style="fill:#3e414e"></path>
        </g>
        <g>
          <path d="M571.2,384.4l-2.5,1.8c-1.6,1.2-3.8,1.2-5.4,0l0,0c-1.6-1.1-3.6-1.2-5.2-0.1l-3.3,2.1v-4.5l3.3-2.1
					c1.6-1,3.7-1,5.2,0.1l0,0c1.6,1.2,3.8,1.1,5.4,0l2.5-1.8V384.4z" style="fill:#f08680"></path>
          <path d="M554.7,388.5c-0.1,0-0.1,0-0.1,0c-0.1-0.1-0.2-0.2-0.2-0.3v-4.5c0-0.1,0.1-0.2,0.1-0.3l3.3-2.1
					c1.7-1.1,3.9-1,5.6,0.1c1.5,1.1,3.6,1.1,5.1,0l2.5-1.8c0.1-0.1,0.2-0.1,0.3,0c0.1,0.1,0.2,0.2,0.2,0.3v4.5c0,0.1,0,0.2-0.1,0.2
					l-2.5,1.8c-1.7,1.2-4.1,1.2-5.8,0c-1.5-1-3.4-1.1-4.9-0.1l-3.3,2.1C554.8,388.4,554.8,388.5,554.7,388.5z M555,383.8v3.8
					l2.8-1.8c1.7-1.1,3.9-1,5.6,0.1c1.5,1.1,3.6,1.1,5.1,0l2.4-1.7v-3.7l-2,1.5c-1.7,1.2-4.1,1.2-5.8,0c-1.5-1-3.4-1.1-4.9-0.1
					L555,383.8z M571.2,384.4L571.2,384.4L571.2,384.4z" style="fill:#3e414e"></path>
        </g>
        <g>
          <path d="M569,369h-12.1c-1.2,0-2.2-1-2.2-2.2s1-2.2,2.2-2.2H569c1.2,0,2.2,1,2.2,2.2S570.2,369,569,369z
					 M556.9,365.3c-0.9,0-1.6,0.7-1.6,1.6s0.7,1.6,1.6,1.6H569c0.9,0,1.6-0.7,1.6-1.6s-0.7-1.6-1.6-1.6H556.9z" style="fill:#3e414e"></path>
        </g>
      </g>
      <g>
        <g>
          <g>
            <polygon points="463.7 369.3 463.7 372.4 468.5 396.8 472.1 396.8 477.3 396.8 482.1 372.4 482.1 369.3" style="fill:#9ec9ef"></polygon>
          </g>
          <g>
            <path d="M477.3,397.1h-8.8c-0.1,0-0.3-0.1-0.3-0.2l-4.8-24.5l0-3.1c0-0.2,0.1-0.3,0.3-0.3h18.4
						c0.2,0,0.3,0.1,0.3,0.3v3.1l-4.8,24.5C477.6,397,477.4,397.1,477.3,397.1z M468.8,396.5h8.3l4.8-24.2l0-2.7H464v2.8
						L468.8,396.5z" style="fill:#3e414e"></path>
          </g>
        </g>
        <g>
          <polygon points="480.7 369.3 480.7 372.4 475.9 396.8 477.3 396.8 482.1 372.4 482.1 369.3" style="fill:#77b6e5"></polygon>
        </g>
        <g>
          <path d="M478.1,364.9l-1-1l5.6-5.1c0.3-0.3,0.7-0.2,1,0l0,0c0.3,0.3,0.2,0.7,0,1L478.1,364.9z" style="fill:#f08680"></path>
          <path d="M478.1,365.2C478.1,365.2,478.1,365.2,478.1,365.2c-0.1,0-0.2,0-0.2-0.1l-1-1c-0.1-0.1-0.1-0.3,0-0.4
					l5.6-5.1c0.4-0.4,1-0.4,1.4,0.1c0.4,0.4,0.4,1-0.1,1.4l-5.6,5.1C478.2,365.2,478.1,365.2,478.1,365.2z M477.5,363.9l0.5,0.6
					l5.3-4.9c0.2-0.2,0.2-0.4,0-0.6c-0.2-0.2-0.4-0.2-0.6,0L477.5,363.9z" style="fill:#3e414e"></path>
        </g>
        <g>
          <path d="M479.3,386.5l-1.7,0.9c-0.6,0.3-1.2,0.4-1.8,0.4c-0.9,0-1.7-0.3-2.4-0.9c-1.3-1-3.1-1.1-4.5-0.2l-2.1,1.4
					l-0.7-3.7l2.8-1.8c1.4-0.9,3.2-0.8,4.5,0.2l0,0c1.2,1,2.8,1.1,4.2,0.4l2.6-1.3L479.3,386.5z" style="fill:#e1e4e1"></path>
          <path d="M466.8,388.4c0,0-0.1,0-0.1,0c-0.1,0-0.2-0.1-0.2-0.2l-0.7-3.7c0-0.1,0-0.2,0.1-0.3l2.8-1.8
					c1.5-1,3.5-0.9,4.9,0.3c1.1,0.9,2.6,1,3.9,0.4l2.6-1.3c0.1-0.1,0.2,0,0.3,0c0.1,0.1,0.1,0.2,0.1,0.3l-0.9,4.6
					c0,0.1-0.1,0.2-0.2,0.2l-1.7,0.9c-1.5,0.7-3.2,0.6-4.5-0.5c-1.2-1-2.9-1-4.2-0.2l-2.1,1.4C466.9,388.4,466.9,388.4,466.8,388.4z
					 M466.4,384.6l0.6,3l1.7-1.1c1.5-1,3.5-0.9,4.9,0.3c1.1,0.9,2.6,1,3.9,0.4l1.6-0.8l0.8-3.9l-2,1.1c-1.5,0.7-3.2,0.6-4.5-0.5
					c-1.2-1-2.9-1-4.2-0.2L466.4,384.6z M479.3,386.5L479.3,386.5L479.3,386.5z" style="fill:#3e414e"></path>
        </g>
        <g>
          <polygon points="464.6 369.3 466.3 366 468.4 365.6 469.1 363.2 470.8 363.2 476.2 361.5 477.4 364 479.5 364 479.5 365.9 480.4 366.7 481.2 369.3" style="fill:#fff"></polygon>
          <path d="M481.2,369.6h-16.6c-0.1,0-0.2-0.1-0.3-0.1c-0.1-0.1-0.1-0.2,0-0.3l1.7-3.3c0-0.1,0.1-0.1,0.2-0.2l2-0.4
					l0.7-2.3c0-0.1,0.2-0.2,0.3-0.2h1.6l5.4-1.6c0.1,0,0.3,0,0.4,0.2l1.1,2.3h1.9c0.2,0,0.3,0.1,0.3,0.3v1.8l0.7,0.7
					c0,0,0.1,0.1,0.1,0.1l0.8,2.6c0,0.1,0,0.2,0,0.3C481.4,369.6,481.3,369.6,481.2,369.6z M465.1,369h15.7l-0.7-2.1l-0.8-0.7
					c-0.1-0.1-0.1-0.1-0.1-0.2v-1.6h-1.8c-0.1,0-0.2-0.1-0.3-0.2l-1.1-2.2l-5.2,1.6c0,0-0.1,0-0.1,0h-1.4l-0.7,2.3
					c0,0.1-0.1,0.2-0.2,0.2l-2,0.4L465.1,369z" style="fill:#3e414e"></path>
        </g>
        <g>
          <path d="M477.3,397.1h-8.8c-0.1,0-0.3-0.1-0.3-0.2l-4.8-24.5l0-3.1c0-0.2,0.1-0.3,0.3-0.3h18.4
					c0.2,0,0.3,0.1,0.3,0.3v3.1l-4.8,24.5C477.6,397,477.4,397.1,477.3,397.1z M468.8,396.5h8.3l4.8-24.2l0-2.7H464v2.8L468.8,396.5
					z" style="fill:#3e414e"></path>
        </g>
      </g>
      <g>
        <g>
          <path d="M399.3,379.3c-0.8,7.4-7.1,13.2-14.7,13.2c-7.6,0-13.9-5.8-14.7-13.2l0.6,0.2c0.7,0.2,1.2,0.6,1.6,1.2
					l2,2.9c0.7,1,1.8,1.6,3,1.6h0.9c0.2,0,0.3,0,0.5,0c0.6,0.1,1.2,0.4,1.6,0.9c1,1.3,2.5,1.9,4.4,1.9c1.9,0,3.4-0.6,4.4-1.9
					c0.4-0.5,1-0.8,1.6-0.9c0.2,0,0.3,0,0.5,0h0.9c1.2,0,2.3-0.6,3-1.6l2-2.9c0.4-0.6,1-1,1.6-1.2L399.3,379.3z" style="fill:#f08680"></path>
          <path d="M384.6,392.8c-7.7,0-14.2-5.8-15-13.4c0-0.1,0-0.2,0.1-0.3c0.1-0.1,0.2-0.1,0.3-0.1l0.6,0.2
					c0.7,0.2,1.4,0.7,1.8,1.3l2,2.9c0.6,0.9,1.7,1.4,2.8,1.4h0.9c0.2,0,0.3,0,0.5,0c0.7,0.1,1.4,0.5,1.8,1c0.9,1.2,2.3,1.8,4.2,1.8
					c1.9,0,3.2-0.6,4.2-1.8c0.4-0.6,1.1-0.9,1.8-1c0.2,0,0.3,0,0.5,0h0.9c1.1,0,2.1-0.5,2.8-1.4l2-2.9c0.4-0.6,1.1-1.1,1.8-1.3
					l0.6-0.2c0.1,0,0.2,0,0.3,0.1c0.1,0.1,0.1,0.2,0.1,0.3C398.8,387,392.3,392.8,384.6,392.8z M370.3,379.7
					c1,7.1,7.1,12.5,14.3,12.5c7.3,0,13.3-5.3,14.3-12.5l-0.2,0c-0.6,0.2-1.1,0.5-1.5,1l-2,2.9c-0.8,1.1-2,1.7-3.3,1.7h-0.9
					c-0.2,0-0.3,0-0.4,0c-0.5,0.1-1.1,0.4-1.4,0.8c-1,1.4-2.6,2.1-4.6,2.1s-3.6-0.7-4.6-2.1c-0.3-0.4-0.8-0.7-1.4-0.8
					c-0.1,0-0.3,0-0.4,0h-0.9c-1.3,0-2.5-0.6-3.3-1.7l-2-2.9c-0.4-0.5-0.9-0.9-1.5-1L370.3,379.7z" style="fill:#3e414e"></path>
        </g>
        <g>
          <g>
            <path d="M399.4,377.7c0,0.5,0,1.1-0.1,1.6l-0.6,0.2c-0.7,0.2-1.2,0.6-1.6,1.2l-2,2.9c-0.7,1-1.8,1.6-3,1.6h-0.9
						c-0.2,0-0.3,0-0.5,0c-0.6,0.1-1.2,0.4-1.6,0.9c-1,1.3-2.5,1.9-4.4,1.9c-1.9,0-3.4-0.6-4.4-1.9c-0.4-0.5-1-0.8-1.6-0.9
						c-0.2,0-0.3,0-0.5,0h-0.9c-1.2,0-2.3-0.6-3-1.6l-2-2.9c-0.4-0.6-1-1-1.6-1.2l-0.6-0.2c-0.1-0.5-0.1-1.1-0.1-1.6
						c0-8.2,6.6-14.8,14.8-14.8C392.8,362.9,399.4,369.5,399.4,377.7z" style="fill:#9ec9ef"></path>
          </g>
          <g>
            <path d="M384.6,388.2c-2,0-3.6-0.7-4.6-2.1c-0.3-0.4-0.8-0.7-1.4-0.8c-0.1,0-0.3,0-0.4,0h-0.9
						c-1.3,0-2.5-0.6-3.3-1.7l-2-2.9c-0.4-0.5-0.9-0.9-1.5-1l-0.6-0.2c-0.1,0-0.2-0.1-0.2-0.3c-0.1-0.5-0.1-1.1-0.1-1.6
						c0-8.3,6.8-15.1,15.1-15.1c8.3,0,15.1,6.8,15.1,15.1c0,0.6,0,1.1-0.1,1.6c0,0.1-0.1,0.2-0.2,0.3l-0.6,0.2
						c-0.6,0.2-1.1,0.5-1.5,1l-2,2.9c-0.8,1.1-2,1.7-3.3,1.7h-0.9c-0.2,0-0.3,0-0.4,0c-0.5,0.1-1.1,0.4-1.4,0.8
						C388.2,387.5,386.7,388.2,384.6,388.2z M370.2,379.1l0.4,0.1c0.7,0.2,1.4,0.7,1.8,1.3l2,2.9c0.6,0.9,1.7,1.4,2.8,1.4h0.9
						c0.2,0,0.3,0,0.5,0c0.7,0.1,1.4,0.5,1.8,1c0.9,1.2,2.3,1.8,4.2,1.8c1.9,0,3.2-0.6,4.2-1.8c0.4-0.6,1.1-0.9,1.8-1
						c0.2,0,0.3,0,0.5,0h0.9c1.1,0,2.1-0.5,2.8-1.4l2-2.9c0.4-0.6,1.1-1.1,1.8-1.3l0.4-0.1c0-0.5,0.1-0.9,0.1-1.4
						c0-8-6.5-14.5-14.5-14.5c-8,0-14.5,6.5-14.5,14.5C370.1,378.1,370.2,378.6,370.2,379.1z M399.3,379.3L399.3,379.3L399.3,379.3z
						" style="fill:#3e414e"></path>
          </g>
        </g>
        <g>
          <circle cx="384.6" cy="377.7" r="5.8" style="fill:#fff"></circle>
          <path d="M384.6,383.8c-3.4,0-6.1-2.7-6.1-6.1s2.7-6.1,6.1-6.1c3.4,0,6.1,2.7,6.1,6.1S388,383.8,384.6,383.8z
					 M384.6,372.2c-3,0-5.5,2.5-5.5,5.5s2.5,5.5,5.5,5.5c3,0,5.5-2.5,5.5-5.5S387.6,372.2,384.6,372.2z" style="fill:#3e414e"></path>
        </g>
        <g>
          <path d="M380.8,367.4c-0.1,0-0.2,0-0.2-0.1l-0.6-0.6c-0.1-0.1-0.1-0.3,0-0.4c0.1-0.1,0.3-0.1,0.4,0l0.6,0.6
					c0.1,0.1,0.1,0.3,0,0.4C380.9,367.3,380.8,367.4,380.8,367.4z" style="fill:#f4f4f4"></path>
        </g>
        <g>
          <path d="M384.3,369.6c-0.1,0-0.2,0-0.2-0.1l-0.6-0.6c-0.1-0.1-0.1-0.3,0-0.4c0.1-0.1,0.3-0.1,0.4,0l0.6,0.6
					c0.1,0.1,0.1,0.3,0,0.4C384.5,369.6,384.4,369.6,384.3,369.6z" style="fill:#f4f4f4"></path>
        </g>
        <g>
          <path d="M380.4,371.2c-0.1,0-0.2,0-0.2-0.1l-0.6-0.6c-0.1-0.1-0.1-0.3,0-0.4c0.1-0.1,0.3-0.1,0.4,0l0.6,0.6
					c0.1,0.1,0.1,0.3,0,0.4C380.6,371.2,380.5,371.2,380.4,371.2z" style="fill:#f4f4f4"></path>
        </g>
        <g>
          <path d="M377.4,373.8c-0.1,0-0.2,0-0.2-0.1l-0.6-0.6c-0.1-0.1-0.1-0.3,0-0.4c0.1-0.1,0.3-0.1,0.4,0l0.6,0.6
					c0.1,0.1,0.1,0.3,0,0.4C377.5,373.8,377.5,373.8,377.4,373.8z" style="fill:#f4f4f4"></path>
        </g>
        <g>
          <path d="M376.6,377.7c-0.1,0-0.2,0-0.2-0.1l-0.6-0.6c-0.1-0.1-0.1-0.3,0-0.4c0.1-0.1,0.3-0.1,0.4,0l0.6,0.6
					c0.1,0.1,0.1,0.3,0,0.4C376.7,377.6,376.7,377.7,376.6,377.7z" style="fill:#f4f4f4"></path>
        </g>
        <g>
          <path d="M376.3,380.9c-0.1,0-0.2,0-0.2-0.1l-0.6-0.6c-0.1-0.1-0.1-0.3,0-0.4c0.1-0.1,0.3-0.1,0.4,0l0.6,0.6
					c0.1,0.1,0.1,0.3,0,0.4C376.4,380.8,376.3,380.9,376.3,380.9z" style="fill:#f4f4f4"></path>
        </g>
        <g>
          <path d="M373.4,377.7c-0.1,0-0.2,0-0.2-0.1l-0.6-0.6c-0.1-0.1-0.1-0.3,0-0.4c0.1-0.1,0.3-0.1,0.4,0l0.6,0.6
					c0.1,0.1,0.1,0.3,0,0.4C373.5,377.6,373.4,377.7,373.4,377.7z" style="fill:#f4f4f4"></path>
        </g>
        <g>
          <path d="M376.4,370.3c-0.1,0-0.2,0-0.2-0.1l-0.6-0.6c-0.1-0.1-0.1-0.3,0-0.4c0.1-0.1,0.3-0.1,0.4,0l0.6,0.6
					c0.1,0.1,0.1,0.3,0,0.4C376.6,370.2,376.5,370.3,376.4,370.3z" style="fill:#f4f4f4"></path>
        </g>
        <g>
          <path d="M373.8,373.8c-0.1,0-0.2,0-0.2-0.1l-0.6-0.6c-0.1-0.1-0.1-0.3,0-0.4c0.1-0.1,0.3-0.1,0.4,0l0.6,0.6
					c0.1,0.1,0.1,0.3,0,0.4C374,373.8,373.9,373.8,373.8,373.8z" style="fill:#f4f4f4"></path>
        </g>
        <g>
          <path d="M383.7,366.2c-0.1,0-0.2,0-0.2-0.1c-0.1-0.1-0.1-0.3,0-0.4l0.6-0.6c0.1-0.1,0.3-0.1,0.4,0
					c0.1,0.1,0.1,0.3,0,0.4l-0.6,0.6C383.8,366.2,383.7,366.2,383.7,366.2z" style="fill:#f4f4f4"></path>
        </g>
        <g>
          <path d="M388.5,367.4c-0.1,0-0.2,0-0.2-0.1c-0.1-0.1-0.1-0.3,0-0.4l0.6-0.6c0.1-0.1,0.3-0.1,0.4,0
					c0.1,0.1,0.1,0.3,0,0.4l-0.6,0.6C388.6,367.3,388.6,367.4,388.5,367.4z" style="fill:#f4f4f4"></path>
        </g>
        <g>
          <path d="M388.8,371.2c-0.1,0-0.2,0-0.2-0.1c-0.1-0.1-0.1-0.3,0-0.4l0.6-0.6c0.1-0.1,0.3-0.1,0.4,0
					c0.1,0.1,0.1,0.3,0,0.4l-0.6,0.6C389,371.2,388.9,371.2,388.8,371.2z" style="fill:#f4f4f4"></path>
        </g>
        <g>
          <path d="M391.9,373.8c-0.1,0-0.2,0-0.2-0.1c-0.1-0.1-0.1-0.3,0-0.4l0.6-0.6c0.1-0.1,0.3-0.1,0.4,0
					c0.1,0.1,0.1,0.3,0,0.4l-0.6,0.6C392,373.8,391.9,373.8,391.9,373.8z" style="fill:#f4f4f4"></path>
        </g>
        <g>
          <path d="M392.7,377.7c-0.1,0-0.2,0-0.2-0.1c-0.1-0.1-0.1-0.3,0-0.4l0.6-0.6c0.1-0.1,0.3-0.1,0.4,0
					c0.1,0.1,0.1,0.3,0,0.4l-0.6,0.6C392.8,377.6,392.7,377.7,392.7,377.7z" style="fill:#f4f4f4"></path>
        </g>
        <g>
          <path d="M393,380.9c-0.1,0-0.2,0-0.2-0.1c-0.1-0.1-0.1-0.3,0-0.4l0.6-0.6c0.1-0.1,0.3-0.1,0.4,0
					c0.1,0.1,0.1,0.3,0,0.4l-0.6,0.6C393.1,380.8,393.1,380.9,393,380.9z" style="fill:#f4f4f4"></path>
        </g>
        <g>
          <path d="M395.9,377.7c-0.1,0-0.2,0-0.2-0.1c-0.1-0.1-0.1-0.3,0-0.4l0.6-0.6c0.1-0.1,0.3-0.1,0.4,0
					c0.1,0.1,0.1,0.3,0,0.4l-0.6,0.6C396,377.6,395.9,377.7,395.9,377.7z" style="fill:#f4f4f4"></path>
        </g>
        <g>
          <path d="M392.8,370.3c-0.1,0-0.2,0-0.2-0.1c-0.1-0.1-0.1-0.3,0-0.4l0.6-0.6c0.1-0.1,0.3-0.1,0.4,0
					c0.1,0.1,0.1,0.3,0,0.4l-0.6,0.6C393,370.2,392.9,370.3,392.8,370.3z" style="fill:#f4f4f4"></path>
        </g>
        <g>
          <path d="M395.4,373.8c-0.1,0-0.2,0-0.2-0.1c-0.1-0.1-0.1-0.3,0-0.4l0.6-0.6c0.1-0.1,0.3-0.1,0.4,0
					c0.1,0.1,0.1,0.3,0,0.4l-0.6,0.6C395.6,373.8,395.5,373.8,395.4,373.8z" style="fill:#f4f4f4"></path>
        </g>
      </g>
      <g>
        <g>
          <path d="M494.9,367.4c-4.9-4.9-4.9-12.9,0-17.8c4.9-4.9,12.9-4.9,17.8,0c4.9,4.9,4.9,12.9,0,17.8
					C507.8,372.3,499.8,372.3,494.9,367.4z" style="fill:#fff"></path>
          <path d="M503.8,371.4c-3.3,0-6.6-1.3-9.1-3.8l0,0c-5-5-5-13.2,0-18.2c2.4-2.4,5.7-3.8,9.1-3.8
					c3.4,0,6.7,1.3,9.1,3.8c5,5,5,13.2,0,18.2C510.4,370.1,507.1,371.4,503.8,371.4z M495.1,367.2c4.8,4.8,12.6,4.8,17.3,0
					c4.8-4.8,4.8-12.6,0-17.3c-2.3-2.3-5.4-3.6-8.7-3.6c-3.3,0-6.4,1.3-8.7,3.6C490.4,354.6,490.4,362.4,495.1,367.2L495.1,367.2z" style="fill:#3e414e"></path>
        </g>
        <g>
          <circle cx="503.8" cy="358.5" r="9.7" style="fill:#9ec9ef"></circle>
        </g>
        <g>
          <g>
            <path d="M504.9,364.1l0-4.5l4.6,0c0.3,0,0.6-0.1,0.8-0.3c0.2-0.2,0.3-0.5,0.3-0.8c0-0.4-0.2-0.7-0.5-0.9
						c-0.2-0.1-0.5-0.2-0.7-0.2l-4.5,0l0-4.6c0-0.3-0.1-0.6-0.3-0.8c-0.2-0.2-0.5-0.3-0.8-0.3c-0.4,0-0.7,0.2-0.9,0.5
						c-0.2,0.2-0.2,0.5-0.2,0.7l0,4.5l-4.6,0c-0.3,0-0.6,0.1-0.8,0.3c-0.2,0.2-0.3,0.5-0.3,0.8c0,0.4,0.2,0.7,0.5,0.9
						c0.2,0.1,0.5,0.2,0.7,0.2l4.5,0l0,4.6c0,0.3,0.1,0.6,0.3,0.8c0.2,0.2,0.5,0.3,0.8,0.3c0.4,0,0.7-0.2,0.9-0.5
						C504.9,364.6,504.9,364.4,504.9,364.1z" style="fill:#fff"></path>
            <path d="M503.8,365.6c-0.4,0-0.7-0.1-1-0.4c-0.3-0.3-0.4-0.6-0.4-1v-4.3h-4.2c-0.3,0-0.7-0.1-0.9-0.3
						c-0.4-0.3-0.6-0.7-0.6-1.2c0-0.4,0.1-0.7,0.4-1c0.3-0.3,0.6-0.4,1-0.4h4.3v-4.2c0-0.3,0.1-0.7,0.3-0.9c0.5-0.7,1.6-0.8,2.2-0.2
						c0.3,0.3,0.4,0.6,0.4,1v4.3h4.2c0.3,0,0.7,0.1,0.9,0.3c0.4,0.3,0.6,0.7,0.6,1.2c0,0.4-0.1,0.7-0.4,1c-0.3,0.3-0.6,0.4-1,0.4
						h-4.3v4.2c0,0.3-0.1,0.7-0.3,0.9C504.7,365.4,504.3,365.6,503.8,365.6z M498.1,357.7c-0.2,0-0.4,0.1-0.6,0.2s-0.2,0.4-0.2,0.6
						c0,0.3,0.1,0.5,0.3,0.7c0.2,0.1,0.4,0.2,0.5,0.2h4.5c0.2,0,0.3,0.1,0.3,0.3v4.6c0,0.2,0.1,0.4,0.2,0.6c0.3,0.3,1,0.3,1.2-0.1
						c0.1-0.2,0.2-0.4,0.2-0.5v-4.5c0-0.2,0.1-0.3,0.3-0.3h4.6c0.2,0,0.4-0.1,0.6-0.2c0.2-0.2,0.2-0.4,0.2-0.6
						c0-0.3-0.1-0.5-0.3-0.7c-0.2-0.1-0.4-0.2-0.5-0.2h-4.5c-0.2,0-0.3-0.1-0.3-0.3v-4.6c0-0.2-0.1-0.4-0.2-0.6
						c-0.3-0.3-1-0.3-1.2,0.1c-0.1,0.2-0.2,0.4-0.2,0.5v4.5c0,0.2-0.1,0.3-0.3,0.3H498.1z" style="fill:#3e414e"></path>
          </g>
        </g>
      </g>
      <g>
        <ellipse cx="452.1" cy="600.3" rx="73.1" ry="4.5" style="fill:#f4f4f4"></ellipse>
      </g>
      <g>
        <g>
          <g>
            <g>
              <path d="M427.1,523.4c0.1,4.2-6.5,4.2-6.4,0C420.6,519.2,427.1,519.3,427.1,523.4z" style="fill:#fcfbf8"></path>
            </g>
          </g>
        </g>
        <g>
          <g>
            <g>
              <path d="M420.6,525.1c0,4.2-6.5,4.2-6.4,0C414.1,520.9,420.7,520.9,420.6,525.1z" style="fill:#f08680"></path>
              <path d="M417.4,528.5c-0.7,0-1.4-0.2-1.9-0.5c-1-0.6-1.6-1.7-1.6-2.9c0-1.3,0.5-2.3,1.6-2.9
							c1.2-0.7,2.7-0.7,3.9,0c1,0.6,1.6,1.6,1.6,2.9c0,1.3-0.6,2.3-1.6,2.9C418.8,528.4,418.1,528.5,417.4,528.5z M417.4,522.3
							c-0.6,0-1.1,0.1-1.6,0.4c-0.8,0.5-1.3,1.3-1.3,2.4c0,1.1,0.4,1.9,1.3,2.4c1,0.6,2.3,0.6,3.3,0c0.8-0.5,1.3-1.3,1.3-2.4
							c0,0,0,0,0,0c0-1.1-0.4-1.9-1.3-2.4C418.6,522.4,418,522.3,417.4,522.3z" style="fill:#3e414e"></path>
            </g>
          </g>
        </g>
        <g>
          <g>
            <g>
              <path d="M456.7,525.2c0.1,4.2-6.5,4.2-6.4,0C450.2,521,456.8,521,456.7,525.2z" style="fill:#f08680"></path>
              <path d="M453.5,528.6c-0.7,0-1.4-0.2-1.9-0.5c-1-0.6-1.6-1.6-1.6-2.9c0-1.3,0.6-2.3,1.6-2.9
							c1.2-0.7,2.7-0.7,3.9,0c1,0.6,1.6,1.7,1.6,2.9c0,1.3-0.5,2.3-1.6,2.9C454.8,528.4,454.2,528.6,453.5,528.6z M453.5,522.3
							c-0.6,0-1.1,0.1-1.6,0.4c-0.8,0.5-1.3,1.3-1.3,2.4c0,1.1,0.4,1.9,1.3,2.4c1,0.6,2.3,0.6,3.3,0c0.8-0.5,1.3-1.3,1.3-2.4
							c0,0,0,0,0,0c0-1.1-0.4-1.9-1.3-2.4C454.6,522.5,454.1,522.3,453.5,522.3z" style="fill:#3e414e"></path>
            </g>
          </g>
        </g>
        <g>
          <path d="M453.5,525.4c-0.1,0-0.3-0.1-0.3-0.2c-6.1-31.4-12.2-47.3-18.3-47.3c0,0-0.1,0-0.1,0
					c-10.3,0.3-17,46.8-17.1,47.3c0,0.2-0.2,0.3-0.3,0.3c-0.2,0-0.3-0.2-0.3-0.3c0.3-1.9,6.9-47.6,17.7-47.8c0,0,0.1,0,0.1,0
					c6.4,0,12.7,16.1,18.9,47.8C453.8,525.2,453.7,525.4,453.5,525.4C453.5,525.4,453.5,525.4,453.5,525.4z" style="fill:#3e414e"></path>
        </g>
        <g>
          <g>
            <g>
              <path d="M415.7,523.4c0.1,4.2-6.5,4.2-6.4,0C409.2,519.2,415.8,519.3,415.7,523.4z" style="fill:#fcfbf8"></path>
            </g>
          </g>
        </g>
        <g>
          <polygon points="467.2 599.7 387.4 599.7 391 515.5 462.5 515.5" style="fill:#fff"></polygon>
          <path d="M467.2,600h-79.8c-0.1,0-0.2,0-0.2-0.1s-0.1-0.1-0.1-0.2l3.6-84.2c0-0.2,0.1-0.3,0.3-0.3h71.4
					c0.2,0,0.3,0.1,0.3,0.3l4.8,84.2c0,0.1,0,0.2-0.1,0.2S467.3,600,467.2,600z M387.8,599.4h79.2l-4.7-83.6h-70.9L387.8,599.4z" style="fill:#3e414e"></path>
        </g>
        <g>
          <g>
            <g>
              <path d="M409.3,525.1c0,4.2-6.5,4.2-6.4,0C402.8,520.9,409.4,520.9,409.3,525.1z" style="fill:#f08680"></path>
              <path d="M406.1,528.5c-0.7,0-1.4-0.2-1.9-0.5c-1-0.6-1.6-1.7-1.6-2.9c0-1.3,0.5-2.3,1.6-2.9
							c1.2-0.7,2.7-0.7,3.9,0c1,0.6,1.6,1.6,1.6,2.9c0,1.3-0.6,2.3-1.6,2.9C407.4,528.4,406.8,528.5,406.1,528.5z M406.1,522.3
							c-0.6,0-1.1,0.1-1.6,0.4c-0.8,0.5-1.3,1.3-1.3,2.4c0,1.1,0.4,1.9,1.3,2.4c1,0.6,2.3,0.6,3.3,0c0.8-0.5,1.3-1.3,1.3-2.4
							c0,0,0,0,0,0c0-1.1-0.4-1.9-1.3-2.4C407.2,522.4,406.7,522.3,406.1,522.3z" style="fill:#3e414e"></path>
            </g>
          </g>
        </g>
        <g>
          <g>
            <g>
              <path d="M445.4,525.2c0.1,4.2-6.5,4.2-6.4,0C438.9,521,445.4,521,445.4,525.2z" style="fill:#f08680"></path>
              <path d="M442.2,528.6c-0.7,0-1.4-0.2-1.9-0.5c-1-0.6-1.6-1.6-1.6-2.9c0-1.3,0.6-2.3,1.6-2.9
							c1.2-0.7,2.7-0.7,3.9,0c1,0.6,1.6,1.7,1.6,2.9c0,1.3-0.5,2.3-1.6,2.9C443.5,528.4,442.8,528.6,442.2,528.6z M442.1,522.3
							c-0.6,0-1.1,0.1-1.6,0.4c-0.8,0.5-1.3,1.3-1.3,2.4c0,1.1,0.4,1.9,1.3,2.4c1,0.6,2.3,0.6,3.3,0c0.8-0.5,1.3-1.3,1.3-2.4
							c0,0,0,0,0,0c0-1.1-0.4-1.9-1.3-2.4C443.3,522.5,442.7,522.3,442.1,522.3z" style="fill:#3e414e"></path>
            </g>
          </g>
        </g>
        <g>
          <path d="M442.1,525.4c-0.1,0-0.3-0.1-0.3-0.2c-6.1-31.4-12.2-47.3-18.3-47.3c0,0-0.1,0-0.1,0
					c-10.3,0.3-17,46.8-17.1,47.3c0,0.2-0.2,0.3-0.3,0.3c-0.2,0-0.3-0.2-0.3-0.3c0.3-1.9,6.9-47.6,17.7-47.8c0,0,0.1,0,0.1,0
					c6.4,0,12.7,16.1,18.9,47.8C442.5,525.2,442.4,525.4,442.1,525.4C442.2,525.4,442.2,525.4,442.1,525.4z" style="fill:#3e414e"></path>
        </g>
      </g>
      <g>
        <g>
          <g>
            <g>
              <path d="M487.2,539.7c0,3.3-5.1,3.3-5.1,0C482.1,536.4,487.3,536.4,487.2,539.7z" style="fill:#fcfbf8"></path>
            </g>
          </g>
        </g>
        <g>
          <g>
            <g>
              <path d="M482.2,541c0,3.3-5.1,3.3-5.1,0C477,537.7,482.2,537.8,482.2,541z" style="fill:#f08680"></path>
              <path d="M479.6,543.8c-0.5,0-1.1-0.1-1.6-0.4c-0.8-0.5-1.3-1.3-1.3-2.4c0-1,0.4-1.9,1.3-2.3
							c0.9-0.5,2.2-0.5,3.1,0c0.8,0.5,1.3,1.3,1.3,2.4c0,1-0.4,1.9-1.3,2.4C480.7,543.7,480.2,543.8,479.6,543.8z M479.6,538.9
							c-0.4,0-0.9,0.1-1.2,0.3c-0.6,0.4-1,1-1,1.8c0,0.8,0.3,1.5,1,1.8c0.7,0.4,1.8,0.4,2.5,0c0.6-0.4,1-1,1-1.8c0,0,0,0,0,0
							c0-0.8-0.3-1.5-1-1.8C480.5,539,480.1,538.9,479.6,538.9z" style="fill:#3e414e"></path>
            </g>
          </g>
        </g>
        <g>
          <g>
            <g>
              <path d="M510.5,541.1c0,3.3-5.1,3.3-5.1,0C505.4,537.8,510.6,537.8,510.5,541.1z" style="fill:#f08680"></path>
              <path d="M508,543.8c-0.5,0-1.1-0.1-1.6-0.4c-0.8-0.5-1.3-1.3-1.3-2.4c0-1,0.4-1.9,1.3-2.4c0.9-0.5,2.2-0.5,3.1,0
							c0.8,0.5,1.3,1.3,1.3,2.4c0,1-0.4,1.9-1.3,2.4C509.1,543.7,508.5,543.8,508,543.8z M508,538.9c-0.4,0-0.9,0.1-1.2,0.3
							c-0.6,0.4-1,1-1,1.8c0,0.8,0.3,1.5,1,1.8c0.7,0.4,1.8,0.4,2.5,0c0.6-0.4,1-1,1-1.8c0,0,0,0,0,0c0-0.8-0.3-1.5-1-1.8
							C508.9,539,508.4,538.9,508,538.9z" style="fill:#3e414e"></path>
            </g>
          </g>
        </g>
        <g>
          <path d="M508,541.3c-0.1,0-0.3-0.1-0.3-0.2c-5.9-30.7-11.1-37.2-14.3-37.2c0,0,0,0-0.1,0
					c-8,0.2-13.3,36.8-13.4,37.1c0,0.2-0.2,0.3-0.3,0.3c-0.2,0-0.3-0.2-0.3-0.3c0.2-1.5,5.5-37.4,14-37.7c0,0,0.1,0,0.1,0
					c5.1,0,10,12.3,14.9,37.6C508.3,541.1,508.2,541.3,508,541.3C508,541.3,508,541.3,508,541.3z" style="fill:#3e414e"></path>
        </g>
        <g>
          <g>
            <g>
              <path d="M478.3,539.7c0,3.3-5.1,3.3-5.1,0C473.2,536.4,478.4,536.4,478.3,539.7z" style="fill:#fcfbf8"></path>
            </g>
          </g>
        </g>
        <g>
          <g>
            <polygon points="518.8 599.7 456 599.7 458.9 533.5 515 533.5" style="fill:#9ec9ef"></polygon>
          </g>
          <g>
            <path d="M518.8,600H456c-0.1,0-0.2,0-0.2-0.1s-0.1-0.1-0.1-0.2l2.8-66.2c0-0.2,0.1-0.3,0.3-0.3H515
						c0.2,0,0.3,0.1,0.3,0.3l3.8,66.2c0,0.1,0,0.2-0.1,0.2S518.9,600,518.8,600z M456.4,599.4h62.1l-3.7-65.6h-55.6L456.4,599.4z" style="fill:#3e414e"></path>
          </g>
        </g>
        <g>
          <g>
            <g>
              <path d="M473.2,541c0,3.3-5.1,3.3-5.1,0C468.1,537.7,473.3,537.8,473.2,541z" style="fill:#f08680"></path>
              <path d="M470.7,543.8c-0.5,0-1.1-0.1-1.6-0.4c-0.8-0.5-1.3-1.3-1.3-2.4c0-1,0.4-1.9,1.3-2.3
							c0.9-0.5,2.2-0.5,3.1,0c0.8,0.5,1.3,1.3,1.3,2.4c0,1-0.4,1.9-1.3,2.4C471.8,543.7,471.3,543.8,470.7,543.8z M470.7,538.9
							c-0.4,0-0.9,0.1-1.2,0.3c-0.6,0.4-1,1-1,1.8c0,0.8,0.3,1.5,1,1.8c0.7,0.4,1.8,0.4,2.5,0c0.6-0.4,1-1,1-1.8c0,0,0,0,0,0
							c0-0.8-0.3-1.5-1-1.8C471.6,539,471.1,538.9,470.7,538.9z" style="fill:#3e414e"></path>
            </g>
          </g>
        </g>
        <g>
          <g>
            <g>
              <path d="M501.6,541.1c0,3.3-5.1,3.3-5.1,0C496.5,537.8,501.7,537.8,501.6,541.1z" style="fill:#f08680"></path>
              <path d="M499.1,543.8c-0.5,0-1.1-0.1-1.6-0.4c-0.8-0.5-1.3-1.3-1.3-2.4c0-1,0.4-1.9,1.3-2.4
							c0.9-0.5,2.2-0.5,3.1,0c0.8,0.5,1.3,1.3,1.3,2.4c0,1-0.4,1.9-1.3,2.4C500.2,543.7,499.6,543.8,499.1,543.8z M499.1,538.9
							c-0.4,0-0.9,0.1-1.2,0.3c-0.6,0.4-1,1-1,1.8c0,0.8,0.3,1.5,1,1.8c0.7,0.4,1.8,0.4,2.5,0c0.6-0.4,1-1,1-1.8c0,0,0,0,0,0
							c0-0.8-0.3-1.5-1-1.8C499.9,539,499.5,538.9,499.1,538.9z" style="fill:#3e414e"></path>
            </g>
          </g>
        </g>
        <g>
          <path d="M499.1,541.3c-0.1,0-0.3-0.1-0.3-0.2c-5.9-30.7-11.1-37.2-14.3-37.2c0,0,0,0-0.1,0
					c-8,0.2-13.3,36.8-13.4,37.1c0,0.2-0.2,0.3-0.3,0.3c-0.2,0-0.3-0.2-0.3-0.3c0.2-1.5,5.5-37.4,14-37.7c0,0,0.1,0,0.1,0
					c5.1,0,10,12.3,14.9,37.6C499.4,541.1,499.3,541.3,499.1,541.3C499.1,541.3,499.1,541.3,499.1,541.3z" style="fill:#3e414e"></path>
        </g>
      </g>
      <g>
        <g>
          <ellipse cx="617.8" cy="596.8" rx="32.6" ry="5.2" style="fill:#f4f4f4"></ellipse>
        </g>
        <g>
          <g>
            <g>
              <g>
                <path d="M648.3,582.1v8c0,4.4-13.1,8-29.2,8c-16.1,0-29.2-3.6-29.2-8v-8" style="fill:#9ec9ef"></path>
              </g>
              <g>
                <path d="M619.2,598.5c-16.5,0-29.5-3.7-29.5-8.3v-8c0-0.2,0.1-0.3,0.3-0.3s0.3,0.1,0.3,0.3v8
								c0,4.2,13.2,7.7,28.9,7.7c15.6,0,28.9-3.5,28.9-7.7v-8c0-0.2,0.1-0.3,0.3-0.3s0.3,0.1,0.3,0.3v8
								C648.6,594.8,635.7,598.5,619.2,598.5z" style="fill:#3e414e"></path>
              </g>
            </g>
            <g>
              <ellipse cx="619.2" cy="582.1" rx="29.2" ry="8" style="fill:#fff"></ellipse>
              <path d="M619.2,590.4c-16.5,0-29.5-3.7-29.5-8.3s12.9-8.3,29.5-8.3s29.5,3.7,29.5,8.3S635.7,590.4,619.2,590.4z
							 M619.2,574.4c-15.6,0-28.9,3.5-28.9,7.7s13.2,7.7,28.9,7.7c15.6,0,28.9-3.5,28.9-7.7S634.8,574.4,619.2,574.4z" style="fill:#3e414e"></path>
            </g>
            <g>
              <path d="M619.2,587.2c-10.9,0-22.2-1.9-22.2-5.1s11.3-5.1,22.2-5.1s22.2,1.9,22.2,5.1S630.1,587.2,619.2,587.2z
							 M619.2,577.6c-12.9,0-21.6,2.3-21.6,4.5s8.7,4.5,21.6,4.5s21.6-2.3,21.6-4.5S632.1,577.6,619.2,577.6z" style="fill:#3e414e"></path>
            </g>
            <g>
              <path d="M645.4,592.3c-0.1,0-0.3-0.1-0.3-0.2l-1.1-3.9c0-0.2,0-0.3,0.2-0.4c0.2,0,0.3,0,0.4,0.2l1.1,3.9
							C645.8,592,645.7,592.2,645.4,592.3C645.5,592.3,645.5,592.3,645.4,592.3z" style="fill:#3e414e"></path>
            </g>
            <g>
              <path d="M640.1,593.9c-0.1,0-0.3-0.1-0.3-0.2l-0.9-4c0-0.2,0.1-0.3,0.2-0.4c0.2,0,0.3,0.1,0.4,0.2l0.9,4
							C640.4,593.7,640.3,593.9,640.1,593.9C640.1,593.9,640.1,593.9,640.1,593.9z" style="fill:#3e414e"></path>
            </g>
            <g>
              <path d="M634.7,595c-0.1,0-0.3-0.1-0.3-0.3l-0.7-4c0-0.2,0.1-0.3,0.2-0.3c0.2,0,0.3,0.1,0.3,0.2l0.7,4
							C635.1,594.8,634.9,594.9,634.7,595C634.8,595,634.7,595,634.7,595z" style="fill:#3e414e"></path>
            </g>
            <g>
              <path d="M629.3,595.7c-0.2,0-0.3-0.1-0.3-0.3l-0.5-4.1c0-0.2,0.1-0.3,0.3-0.3c0.2,0,0.3,0.1,0.3,0.3l0.5,4.1
							C629.6,595.6,629.5,595.7,629.3,595.7C629.3,595.7,629.3,595.7,629.3,595.7z" style="fill:#3e414e"></path>
            </g>
            <g>
              <path d="M623.9,596.2c-0.2,0-0.3-0.1-0.3-0.3l-0.2-4.1c0-0.2,0.1-0.3,0.3-0.3c0.2,0,0.3,0.1,0.3,0.3l0.2,4.1
							C624.2,596,624.1,596.2,623.9,596.2C623.9,596.2,623.9,596.2,623.9,596.2z" style="fill:#3e414e"></path>
            </g>
            <g>
              <path d="M618.4,596.4L618.4,596.4c-0.2,0-0.3-0.1-0.3-0.3l0-4.1c0-0.2,0.1-0.3,0.3-0.3c0,0,0,0,0,0
							c0.2,0,0.3,0.1,0.3,0.3l0,4.1C618.7,596.2,618.6,596.4,618.4,596.4z" style="fill:#3e414e"></path>
            </g>
            <g>
              <path d="M613,596.2C613,596.2,613,596.2,613,596.2c-0.2,0-0.3-0.2-0.3-0.3l0.2-4.1c0-0.2,0.2-0.3,0.3-0.3
							c0.2,0,0.3,0.2,0.3,0.3l-0.2,4.1C613.3,596.1,613.1,596.2,613,596.2z" style="fill:#3e414e"></path>
            </g>
            <g>
              <path d="M607.5,595.8C607.5,595.8,607.5,595.8,607.5,595.8c-0.2,0-0.3-0.2-0.3-0.3l0.5-4.1c0-0.2,0.2-0.3,0.3-0.3
							c0.2,0,0.3,0.2,0.3,0.3l-0.5,4.1C607.8,595.6,607.7,595.8,607.5,595.8z" style="fill:#3e414e"></path>
            </g>
            <g>
              <path d="M602.1,595C602.1,595,602.1,595,602.1,595c-0.2,0-0.3-0.2-0.3-0.4l0.7-4.1c0-0.2,0.2-0.3,0.3-0.2
							c0.2,0,0.3,0.2,0.2,0.3l-0.7,4.1C602.4,594.9,602.3,595,602.1,595z" style="fill:#3e414e"></path>
            </g>
            <g>
              <path d="M596.7,593.9C596.7,593.9,596.7,593.9,596.7,593.9c-0.2,0-0.3-0.2-0.3-0.4l0.9-4c0-0.2,0.2-0.3,0.4-0.2
							c0.2,0,0.3,0.2,0.2,0.4l-0.9,4C597,593.8,596.9,593.9,596.7,593.9z" style="fill:#3e414e"></path>
            </g>
            <g>
              <path d="M592,591.5C592,591.5,591.9,591.5,592,591.5c-0.2-0.1-0.3-0.2-0.3-0.4l1.1-4c0-0.2,0.2-0.3,0.4-0.2
							c0.2,0,0.3,0.2,0.2,0.4l-1.1,4C592.2,591.4,592.1,591.5,592,591.5z" style="fill:#3e414e"></path>
            </g>
          </g>
          <g>
            <g>
              <g>
                <path d="M634.1,570.1v8c0,4.4-13.1,8-29.2,8s-29.2-3.6-29.2-8v-8" style="fill:#9ec9ef"></path>
              </g>
              <g>
                <path d="M604.9,586.4c-16.5,0-29.5-3.7-29.5-8.3v-8c0-0.2,0.1-0.3,0.3-0.3s0.3,0.1,0.3,0.3v8
								c0,4.2,13.2,7.7,28.9,7.7s28.9-3.5,28.9-7.7v-8c0-0.2,0.1-0.3,0.3-0.3s0.3,0.1,0.3,0.3v8
								C634.4,582.8,621.4,586.4,604.9,586.4z" style="fill:#3e414e"></path>
              </g>
            </g>
            <g>
              <ellipse cx="604.9" cy="570.1" rx="29.2" ry="8" style="fill:#fff"></ellipse>
              <path d="M604.9,578.4c-16.5,0-29.5-3.7-29.5-8.3s12.9-8.3,29.5-8.3s29.5,3.7,29.5,8.3S621.4,578.4,604.9,578.4z
							 M604.9,562.4c-15.6,0-28.9,3.5-28.9,7.7s13.2,7.7,28.9,7.7s28.9-3.5,28.9-7.7S620.5,562.4,604.9,562.4z" style="fill:#3e414e"></path>
            </g>
            <g>
              <path d="M604.9,575.2c-10.9,0-22.2-1.9-22.2-5.1s11.3-5.1,22.2-5.1s22.2,1.9,22.2,5.1S615.8,575.2,604.9,575.2z
							 M604.9,565.6c-12.9,0-21.6,2.3-21.6,4.5s8.7,4.5,21.6,4.5s21.6-2.3,21.6-4.5S617.8,565.6,604.9,565.6z" style="fill:#3e414e"></path>
            </g>
            <g>
              <path d="M631.1,580.2c-0.1,0-0.3-0.1-0.3-0.2l-1.1-3.9c0-0.2,0-0.3,0.2-0.4c0.2,0,0.3,0,0.4,0.2l1.1,3.9
							C631.5,580,631.4,580.2,631.1,580.2C631.2,580.2,631.2,580.2,631.1,580.2z" style="fill:#3e414e"></path>
            </g>
            <g>
              <path d="M625.8,581.9c-0.1,0-0.3-0.1-0.3-0.2l-0.9-4c0-0.2,0.1-0.3,0.2-0.4c0.2,0,0.3,0.1,0.4,0.2l0.9,4
							C626.2,581.7,626,581.8,625.8,581.9C625.9,581.9,625.8,581.9,625.8,581.9z" style="fill:#3e414e"></path>
            </g>
            <g>
              <path d="M620.4,582.9c-0.1,0-0.3-0.1-0.3-0.3l-0.7-4c0-0.2,0.1-0.3,0.2-0.3c0.2,0,0.3,0.1,0.3,0.2l0.7,4
							C620.8,582.8,620.7,582.9,620.4,582.9C620.5,582.9,620.5,582.9,620.4,582.9z" style="fill:#3e414e"></path>
            </g>
            <g>
              <path d="M615,583.7c-0.2,0-0.3-0.1-0.3-0.3l-0.5-4.1c0-0.2,0.1-0.3,0.3-0.3c0.2,0,0.3,0.1,0.3,0.3l0.5,4.1
							C615.4,583.5,615.2,583.7,615,583.7C615.1,583.7,615,583.7,615,583.7z" style="fill:#3e414e"></path>
            </g>
            <g>
              <path d="M609.6,584.2c-0.2,0-0.3-0.1-0.3-0.3l-0.2-4.1c0-0.2,0.1-0.3,0.3-0.3c0.2,0,0.3,0.1,0.3,0.3l0.2,4.1
							C609.9,584,609.8,584.2,609.6,584.2C609.6,584.2,609.6,584.2,609.6,584.2z" style="fill:#3e414e"></path>
            </g>
            <g>
              <path d="M604.1,584.3C604.1,584.3,604.1,584.3,604.1,584.3c-0.2,0-0.3-0.1-0.3-0.3l0-4.1c0-0.2,0.1-0.3,0.3-0.3
							l0,0c0.2,0,0.3,0.1,0.3,0.3l0,4.1C604.4,584.2,604.3,584.3,604.1,584.3z" style="fill:#3e414e"></path>
            </g>
            <g>
              <path d="M598.7,584.2C598.7,584.2,598.7,584.2,598.7,584.2c-0.2,0-0.3-0.2-0.3-0.3l0.2-4.1c0-0.2,0.1-0.3,0.3-0.3
							c0.2,0,0.3,0.2,0.3,0.3l-0.2,4.1C599,584.1,598.8,584.2,598.7,584.2z" style="fill:#3e414e"></path>
            </g>
            <g>
              <path d="M593.3,583.7C593.2,583.7,593.2,583.7,593.3,583.7c-0.2,0-0.3-0.2-0.3-0.3l0.5-4.1c0-0.2,0.2-0.3,0.3-0.3
							c0.2,0,0.3,0.2,0.3,0.3l-0.5,4.1C593.5,583.6,593.4,583.7,593.3,583.7z" style="fill:#3e414e"></path>
            </g>
            <g>
              <path d="M587.8,583C587.8,583,587.8,583,587.8,583c-0.2,0-0.3-0.2-0.3-0.4l0.7-4.1c0-0.2,0.2-0.3,0.3-0.2
							c0.2,0,0.3,0.2,0.2,0.3l-0.7,4.1C588.1,582.9,588,583,587.8,583z" style="fill:#3e414e"></path>
            </g>
            <g>
              <path d="M582.5,581.9C582.4,581.9,582.4,581.9,582.5,581.9c-0.2,0-0.3-0.2-0.3-0.4l0.9-4c0-0.2,0.2-0.3,0.4-0.2
							c0.2,0,0.3,0.2,0.2,0.4l-0.9,4C582.7,581.8,582.6,581.9,582.5,581.9z" style="fill:#3e414e"></path>
            </g>
            <g>
              <path d="M577.7,579.5C577.7,579.5,577.6,579.5,577.7,579.5c-0.2-0.1-0.3-0.2-0.3-0.4l1.1-4c0-0.2,0.2-0.3,0.4-0.2
							c0.2,0,0.3,0.2,0.2,0.4l-1.1,4C578,579.4,577.8,579.5,577.7,579.5z" style="fill:#3e414e"></path>
            </g>
          </g>
          <g>
            <g>
              <g>
                <path d="M652.8,560v8c0,4.4-13.1,8-29.2,8c-16.1,0-29.2-3.6-29.2-8v-8" style="fill:#9ec9ef"></path>
              </g>
              <g>
                <path d="M623.7,576.3c-16.5,0-29.5-3.7-29.5-8.3v-8c0-0.2,0.1-0.3,0.3-0.3s0.3,0.1,0.3,0.3v8
								c0,4.2,13.2,7.7,28.9,7.7c15.6,0,28.9-3.5,28.9-7.7v-8c0-0.2,0.1-0.3,0.3-0.3s0.3,0.1,0.3,0.3v8
								C653.1,572.7,640.2,576.3,623.7,576.3z" style="fill:#3e414e"></path>
              </g>
            </g>
            <g>
              <ellipse cx="623.7" cy="560" rx="29.2" ry="8" style="fill:#fff"></ellipse>
              <path d="M623.7,568.3c-16.5,0-29.5-3.7-29.5-8.3s12.9-8.3,29.5-8.3s29.5,3.7,29.5,8.3S640.2,568.3,623.7,568.3z
							 M623.7,552.3c-15.6,0-28.9,3.5-28.9,7.7s13.2,7.7,28.9,7.7c15.6,0,28.9-3.5,28.9-7.7S639.3,552.3,623.7,552.3z" style="fill:#3e414e"></path>
            </g>
            <g>
              <path d="M623.7,565.1c-10.9,0-22.2-1.9-22.2-5.1s11.3-5.1,22.2-5.1s22.2,1.9,22.2,5.1S634.6,565.1,623.7,565.1z
							 M623.7,555.5c-12.9,0-21.6,2.3-21.6,4.5s8.7,4.5,21.6,4.5s21.6-2.3,21.6-4.5S636.6,555.5,623.7,555.5z" style="fill:#3e414e"></path>
            </g>
            <g>
              <path d="M649.9,570.1c-0.1,0-0.3-0.1-0.3-0.2l-1.1-3.9c0-0.2,0-0.3,0.2-0.4c0.2,0,0.3,0,0.4,0.2l1.1,3.9
							C650.2,569.9,650.1,570.1,649.9,570.1C650,570.1,649.9,570.1,649.9,570.1z" style="fill:#3e414e"></path>
            </g>
            <g>
              <path d="M644.6,571.8c-0.1,0-0.3-0.1-0.3-0.2l-0.9-4c0-0.2,0.1-0.3,0.2-0.4c0.2,0,0.3,0.1,0.4,0.2l0.9,4
							C644.9,571.6,644.8,571.7,644.6,571.8C644.6,571.8,644.6,571.8,644.6,571.8z" style="fill:#3e414e"></path>
            </g>
            <g>
              <path d="M639.2,572.9c-0.1,0-0.3-0.1-0.3-0.3l-0.7-4c0-0.2,0.1-0.3,0.2-0.3c0.2,0,0.3,0.1,0.3,0.2l0.7,4
							C639.5,572.7,639.4,572.8,639.2,572.9C639.2,572.9,639.2,572.9,639.2,572.9z" style="fill:#3e414e"></path>
            </g>
            <g>
              <path d="M633.8,573.6c-0.2,0-0.3-0.1-0.3-0.3l-0.5-4.1c0-0.2,0.1-0.3,0.3-0.3c0.2,0,0.3,0.1,0.3,0.3l0.5,4.1
							C634.1,573.4,634,573.6,633.8,573.6C633.8,573.6,633.8,573.6,633.8,573.6z" style="fill:#3e414e"></path>
            </g>
            <g>
              <path d="M628.4,574.1c-0.2,0-0.3-0.1-0.3-0.3l-0.2-4.1c0-0.2,0.1-0.3,0.3-0.3c0.2,0,0.3,0.1,0.3,0.3l0.2,4.1
							C628.7,573.9,628.5,574.1,628.4,574.1C628.4,574.1,628.4,574.1,628.4,574.1z" style="fill:#3e414e"></path>
            </g>
            <g>
              <path d="M622.9,574.2L622.9,574.2c-0.2,0-0.3-0.1-0.3-0.3l0-4.1c0-0.2,0.1-0.3,0.3-0.3c0,0,0,0,0,0
							c0.2,0,0.3,0.1,0.3,0.3l0,4.1C623.2,574.1,623.1,574.2,622.9,574.2z" style="fill:#3e414e"></path>
            </g>
            <g>
              <path d="M617.5,574.1C617.4,574.1,617.4,574.1,617.5,574.1c-0.2,0-0.3-0.2-0.3-0.3l0.2-4.1c0-0.2,0.1-0.3,0.3-0.3
							c0.2,0,0.3,0.2,0.3,0.3l-0.2,4.1C617.7,574,617.6,574.1,617.5,574.1z" style="fill:#3e414e"></path>
            </g>
            <g>
              <path d="M612,573.6C612,573.6,612,573.6,612,573.6c-0.2,0-0.3-0.2-0.3-0.3l0.5-4.1c0-0.2,0.2-0.3,0.3-0.3
							c0.2,0,0.3,0.2,0.3,0.3l-0.5,4.1C612.3,573.5,612.2,573.6,612,573.6z" style="fill:#3e414e"></path>
            </g>
            <g>
              <path d="M606.6,572.9C606.6,572.9,606.6,572.9,606.6,572.9c-0.2,0-0.3-0.2-0.3-0.4l0.7-4.1c0-0.2,0.2-0.3,0.3-0.2
							c0.2,0,0.3,0.2,0.2,0.3l-0.7,4.1C606.9,572.8,606.7,572.9,606.6,572.9z" style="fill:#3e414e"></path>
            </g>
            <g>
              <path d="M601.2,571.8C601.2,571.8,601.2,571.8,601.2,571.8c-0.2,0-0.3-0.2-0.3-0.4l0.9-4c0-0.2,0.2-0.3,0.4-0.2
							c0.2,0,0.3,0.2,0.2,0.4l-0.9,4C601.5,571.7,601.4,571.8,601.2,571.8z" style="fill:#3e414e"></path>
            </g>
            <g>
              <path d="M596.5,569.4C596.4,569.4,596.4,569.4,596.5,569.4c-0.2-0.1-0.3-0.2-0.3-0.4l1.1-4c0-0.2,0.2-0.3,0.4-0.2
							c0.2,0,0.3,0.2,0.2,0.4l-1.1,4C596.7,569.3,596.6,569.4,596.5,569.4z" style="fill:#3e414e"></path>
            </g>
          </g>
        </g>
      </g>
      <g>
        <ellipse cx="487.4" cy="571.7" rx="20.4" ry="6.5" style="fill:#fff"></ellipse>
        <path d="M487.4,578.5c-11.6,0-20.7-3-20.7-6.8s9.1-6.8,20.7-6.8c11.6,0,20.7,3,20.7,6.8S499,578.5,487.4,578.5z
				 M487.4,565.6c-10.9,0-20.1,2.8-20.1,6.2s9.2,6.2,20.1,6.2c10.9,0,20.1-2.8,20.1-6.2S498.3,565.6,487.4,565.6z" style="fill:#3e414e"></path>
      </g>
      <g>
        <g>
          <ellipse cx="427.1" cy="560" rx="20.4" ry="6.5" style="fill:#9ec9ef"></ellipse>
        </g>
        <g>
          <path d="M427.1,566.8c-11.6,0-20.7-3-20.7-6.8s9.1-6.8,20.7-6.8c11.6,0,20.7,3,20.7,6.8S438.7,566.8,427.1,566.8z
					 M427.1,553.8c-10.9,0-20.1,2.8-20.1,6.2s9.2,6.2,20.1,6.2c10.9,0,20.1-2.8,20.1-6.2S438,553.8,427.1,553.8z" style="fill:#3e414e"></path>
        </g>
      </g>
    </g>
  </g>
</svg>
