<svg xmlns="http://www.w3.org/2000/svg" xmlns:xlink="http://www.w3.org/1999/xlink" enable-background="new 0 0 3000 3000" viewBox="0 0 3000 3000" id="businessman-showing-business-chart">
  <switch>
    <g>
      <g>
        <g>
          <g>
            <g opacity=".1">
              <polygon points="1189.06 1784.334 1237.333 1812.387 2242.618 1231.986 2194.345 1203.932"></polygon>
            </g>
            <g opacity=".1">
              <polygon points="1242.8 1861.105 1291.073 1889.159 2296.358 1308.757 2248.085 1280.704"></polygon>
            </g>
            <g>
              <g>
                <g>
                  <polygon fill="#c78f2e" points="603.658 593.697 584.104 582.333 585.424 1464.405 604.979 1475.769"></polygon>
                </g>
                <path fill="#c78f2e" d="M506.579,599.16l151.027-344.962c3.076-7.006,7.962-12.441,12.854-15.265
								c4.001-2.31,8.005-2.872,11.025-1.117l19.554,11.364c-3.02-1.755-7.025-1.193-11.025,1.117
								c-4.891,2.824-9.778,8.26-12.854,15.265L526.133,610.524c-4.474,10.221-2.998,18.722,1.933,21.588l-19.554-11.364
								C503.581,617.883,502.104,609.381,506.579,599.16z"></path>
                <g>
                  <path fill="#ffb83e" d="M690.014,250.296c-4.891,2.824-9.778,8.26-12.854,15.265L526.133,610.524
									c-6.963,15.906,0.487,27.651,12.94,20.461l64.586-37.289l1.321,882.072l174.377-100.677l-1.32-882.072l64.568-37.278
									c12.471-7.2,19.83-27.494,12.799-35.321L702.899,250.702C699.802,247.26,694.905,247.473,690.014,250.296z"></path>
                </g>
              </g>
              <g>
                <defs>
                  <path id="a" d="M690.014,250.296c-4.891,2.824-9.778,8.26-12.854,15.265L526.133,610.524
									c-6.963,15.906,0.487,27.651,12.94,20.461l64.586-37.289l1.321,882.072l174.377-100.677l-1.32-882.072l64.568-37.278
									c12.471-7.2,19.83-27.494,12.799-35.321L702.899,250.702C699.802,247.26,694.905,247.473,690.014,250.296z"></path>
                </defs>
                <clipPath id="b">
                  <use xlink:href="#a" overflow="visible"></use>
                </clipPath>
                <g clip-path="url(#b)">
                  <path fill="#d9d9d9" d="M837.148,416.748c-4.891,2.824-9.777,8.26-12.854,15.265L673.268,776.976
									c-6.964,15.906,0.486,27.651,12.939,20.461l64.586-37.288l1.321,882.072l174.378-100.677l-1.321-882.072l64.568-37.278
									c12.471-7.2,19.83-27.494,12.799-35.321L850.034,417.153C846.936,413.712,842.04,413.924,837.148,416.748z"></path>
                  <g>
                    <path fill="#d9d9d9" d="M1283.921,622.629c35.712-20.618,64.741-4.076,64.858,36.96l0.088,67.69L282.95,1342.687
										l-0.088-67.691c-0.116-41.036,28.724-90.99,64.436-111.608L1283.921,622.629z"></path>
                  </g>
                </g>
              </g>
              <g>
                <g>
                  <polygon fill="#bd539e" points="415.421 1159.789 395.866 1148.425 397.187 1980.304 416.742 1991.667"></polygon>
                </g>
                <path fill="#bd539e" d="M318.342,1165.252l151.027-344.962c3.076-7.006,7.962-12.442,12.854-15.266
								c4.001-2.31,8.005-2.872,11.025-1.117l19.555,11.364c-3.02-1.755-7.025-1.193-11.026,1.117
								c-4.891,2.824-9.777,8.26-12.854,15.266l-151.027,344.962c-4.474,10.22-2.998,18.722,1.933,21.588l-19.555-11.364
								C315.344,1183.975,313.868,1175.473,318.342,1165.252z"></path>
                <g>
                  <path fill="#e063bb" d="M501.777,816.389c-4.891,2.824-9.777,8.26-12.854,15.266l-151.027,344.962
									c-6.963,15.907,0.486,27.651,12.939,20.461l64.585-37.288l1.321,831.878l174.378-100.677l-1.321-831.878l64.568-37.278
									c12.471-7.2,19.83-27.495,12.799-35.322L514.662,816.794C511.565,813.352,506.668,813.565,501.777,816.389z"></path>
                </g>
              </g>
              <g>
                <defs>
                  <path id="c" d="M501.777,816.389c-4.891,2.824-9.777,8.26-12.854,15.266l-151.027,344.962
									c-6.963,15.907,0.486,27.651,12.939,20.461l64.585-37.288l1.321,831.878l174.378-100.677l-1.321-831.878l64.568-37.278
									c12.471-7.2,19.83-27.495,12.799-35.322L514.662,816.794C511.565,813.352,506.668,813.565,501.777,816.389z"></path>
                </defs>
                <clipPath id="d">
                  <use xlink:href="#c" overflow="visible"></use>
                </clipPath>
                <g clip-path="url(#d)">
                  <g>
                    <path fill="#d9d9d9" d="M1191.648,764.5c35.712-20.618,64.741-4.076,64.858,36.96l0.088,67.691L190.677,1484.557
										l-0.088-67.691c-0.116-41.036,28.724-90.99,64.437-111.608L1191.648,764.5z"></path>
                  </g>
                  <path fill="#e6e6e6" d="M473.436,1916.794c1.11-7.269,3.178-20.799,8.718-34.621
									c1.312-3.27,2.775-6.889,4.648-10.973c-0.093-8.408,0.442-14.831,0.745-18.372c0.667-7.797,2.265-18.192,4.469-25.701
									c1.341-4.568,2.883-10.744,4.551-15.202c2.616-6.993,6.137-16.36,9.71-22.916c2.442-4.479,5.54-10.549,8.273-14.857
									c3.849-6.069,9.248-14.006,13.641-19.695c11.624-15.051,23.437-26.02,28.481-30.704
									c25.088-23.295,57.669-41.995,72.71-49.052c11.817-5.544,27.748-12.625,40.02-17.072c23.15-8.387,42.812-12.969,43-13.011
									c15.781-3.562,30.687-6.927,43.523-8.501c6.622-0.812,15.422-2.196,22.075-2.696c31.233-2.348,31.233-2.348,44.474-2.306
									c6.677,0.021,15.584,0.119,22.255,0.397c6.719,0.279,15.659,1.019,22.37,1.458c6.641,0.435,15.431,1.745,22.043,2.508
									c6.77,0.781,15.72,2.416,22.414,3.696c6.495,1.242,15.088,3.234,21.534,4.712c5.253,1.204,24.448,6.226,43.099,13.267
									c6.807,2.57,15.785,6.268,22.422,9.251c5.893,2.649,13.525,6.659,19.322,9.513c6.664,3.615,15.442,8.651,21.801,12.78
									c6.707,4.354,15.587,10.321,21.709,15.467c8.581,7.213,19.709,17.236,27.52,25.276c5.464,5.624,12.007,13.829,16.628,20.163
									c4.917,6.739,10.932,16.156,14.742,23.578c4.375,8.521,9.122,20.418,12.459,29.397c0.243,0.654,5.79,15.852,7.792,39.414
									c2.71,4.701,6.89,12.692,9.511,19.287c4.632,11.655,5.11,13.663,8.225,26.733c1.574,6.603,2.254,15.687,2.803,22.453
									c0.269,3.323,0.297,6.657,0.445,9.986c0.031,0.693,0.072,1.617,0.103,2.31c0.032,0.713,0.074,1.663,0.106,2.376
									c0.109,2.453,0.218,4.905,0.328,7.358c0.033,0.742,0.077,1.733,0.111,2.475c0.033,0.738,0.077,1.721,0.109,2.458
									c0.073,1.63,0.145,3.238,0.215,4.801c0.06,1.362,0.141,3.177,0.202,4.538c0.065,1.454,0.127,2.842,0.185,4.142
									c0.278,6.24,1.017,22.817-2.774,39.253c-1.605,6.958-4.213,16.148-6.717,22.835c-2.419,6.462-6.176,14.916-9.65,20.878
									c-4.172,7.161-10.102,16.516-15.025,23.184c-4.42,5.986-10.931,13.511-16.054,18.907
									c-4.089,4.306-9.657,9.968-14.198,13.795c-8.817,7.429-20.837,17.048-30.27,23.677
									c-6.363,4.472-15.105,10.099-21.943,13.805c-21.174,11.478-29.097,15.773-42.444,21.096
									c-25.185,10.046-27.817,11.097-46.113,16.618c-26.503,7.999-48.66,12.013-48.876,12.052
									c-25.39,4.494-30.673,5.429-50.7,7.401c-6.446,0.635-26.064,2.568-51.597,2.674c-58.512,0.245-101.486-9.034-102.346-9.22
									c-31.076-6.711-32.289-6.973-49.063-12.207c-20.528-6.406-27.608-9.461-46.528-17.625c-6.025-2.6-13.853-6.537-19.617-9.674
									c-6.993-3.805-16.07-9.321-22.877-13.45c-7.205-4.369-16.307-11.04-22.764-16.453c-7.427-6.226-17.224-14.746-23.673-21.98
									c-5-5.609-11.325-13.393-15.867-19.378c-2.481-3.268-5.511-7.845-7.514-11.426c-1.805-3.224-4.424-7.416-5.964-10.774
									c-2.999-6.538-7.006-15.297-9.143-22.166c-1.411-4.535-3.192-10.634-4.04-15.308c-1.2-6.607-2.206-15.521-2.772-22.212
									c-0.049-1.103-0.103-2.315-0.161-3.616c-0.056-1.243-0.13-2.9-0.185-4.142c-0.065-1.454-0.132-2.974-0.203-4.538
									c-0.07-1.564-0.142-3.172-0.214-4.801c-0.073-1.63-0.146-3.281-0.22-4.933c-0.074-1.652-0.147-3.303-0.22-4.933
									c-0.073-1.63-0.145-3.237-0.214-4.801c-0.06-1.361-0.142-3.177-0.203-4.538c-0.065-1.454-0.127-2.843-0.185-4.142
									C472.086,1933.397,472.377,1923.724,473.436,1916.794z"></path>
                </g>
              </g>
              <g>
                <g>
                  <polygon fill="#cf4b3a" points="845.255 829.826 825.701 818.462 827.021 1700.534 846.576 1711.897"></polygon>
                </g>
                <path fill="#cf4b3a" d="M748.175,835.289l151.027-344.962c3.077-7.006,7.962-12.442,12.854-15.265
								c4.001-2.31,8.005-2.872,11.025-1.117l19.554,11.363c-3.02-1.755-7.025-1.193-11.026,1.118
								c-4.891,2.824-9.777,8.26-12.854,15.265L767.73,846.652c-4.474,10.22-2.998,18.722,1.933,21.588l-19.554-11.364
								C745.178,854.011,743.701,845.509,748.175,835.289z"></path>
                <g>
                  <path fill="#ff6554" d="M931.611,486.425c-4.892,2.824-9.778,8.26-12.854,15.266L767.73,846.652
									c-6.963,15.906,0.486,27.651,12.94,20.461l64.586-37.288l1.321,882.072l174.377-100.677l-1.32-882.072l64.568-37.278
									c12.471-7.2,19.83-27.495,12.799-35.322L944.495,486.83C941.398,483.389,936.502,483.601,931.611,486.425z"></path>
                </g>
              </g>
            </g>
            <g>
              <defs>
                <path id="e" d="M931.611,486.425c-4.892,2.824-9.778,8.26-12.854,15.266L767.73,846.652
								c-6.963,15.906,0.486,27.651,12.94,20.461l64.586-37.288l1.321,882.072l174.377-100.677l-1.32-882.072l64.568-37.278
								c12.471-7.2,19.83-27.495,12.799-35.322L944.495,486.83C941.398,483.389,936.502,483.601,931.611,486.425z"></path>
              </defs>
              <clipPath id="f">
                <use xlink:href="#e" overflow="visible"></use>
              </clipPath>
              <g clip-path="url(#f)">
                <path fill="#d9d9d9" d="M1250.669,734.691c35.712-20.618,64.742-4.076,64.858,36.96l0.088,67.691L249.698,1454.747
								l-0.088-67.69c-0.116-41.036,28.724-90.99,64.437-111.608L1250.669,734.691z"></path>
              </g>
            </g>
            <g>
              <g>
                <g>
                  <g>
                    <polygon fill="#bababa" points="2447.804 150 2470.092 166.129 2447.525 355.685 2425.238 339.557"></polygon>
                  </g>
                  <g>
                    <polygon fill="gray" points="2425.238 339.557 2447.525 355.685 2305.082 269.852 2282.794 253.723 2370.087 304.875"></polygon>
                  </g>
                  <g>
                    <polygon fill="#fff" points="2447.804 150 2425.238 339.557 2370.087 304.875 2331.854 282.696 2282.794 253.723"></polygon>
                  </g>
                </g>
                <g>
                  <polygon fill="#fff" points="2102.333 745.147 2064.123 722.942 2331.85 282.685 2370.06 304.89"></polygon>
                </g>
                <g>
                  <path fill="#bababa" d="M2370.06,304.89l21.076,16.737l-267.969,440.575c-0.469-13.915-9.214-20.637-20.834-17.055
									L2370.06,304.89z"></path>
                </g>
                <g>
                  <path fill="#c53e2e" d="M2096.17,747.891c2.12-1.224,4.183-2.133,6.163-2.743c11.62-3.583,20.365,3.14,20.834,17.055
									c0.012,0.358,0.019,0.718,0.02,1.085c0.048,17.083-11.958,37.899-26.842,46.492c-9.51,5.491-17.882,4.643-22.692-1.152
									c-2.709-3.265-4.29-8.099-4.308-14.254c-0.023-8.238,2.757-17.345,7.31-25.529
									C2081.542,760.058,2088.473,752.335,2096.17,747.891z"></path>
                </g>
                <path fill="#ff523e" d="M2077.121 723.807c-3.509-2.039-7.986-2.411-12.998-.866-1.98.611-4.043 1.519-6.163 2.744-7.698 4.444-14.628 12.167-19.515 20.953-4.552 8.184-7.333 17.291-7.309 25.529.017 6.155 1.598 10.99 4.307 14.254 1.029 1.24 2.22 2.252 3.551 3.026l38.21 22.205c-1.331-.773-2.522-1.787-3.551-3.026-2.709-3.265-4.29-8.099-4.308-14.254-.023-8.238 2.757-17.345 7.31-25.529 4.887-8.786 11.818-16.509 19.515-20.953 2.121-1.224 4.184-2.133 6.163-2.743 5.012-1.545 9.489-1.174 12.998.866L2077.121 723.807zM1700.167 1177.566l-38.21-22.205c-2.195-1.276-4.011-3.204-5.342-5.725-1.597-3.025-2.495-6.903-2.508-11.529-.027-9.396 3.599-19.924 9.341-28.925 4.352-6.822 9.919-12.766 16.034-16.675.485-.31.975-.609 1.467-.892l38.21 22.205c-.492.284-.981.582-1.467.892-6.115 3.908-11.682 9.853-16.034 16.674-5.742 9.001-9.368 19.529-9.341 28.925.013 4.626.911 8.504 2.507 11.529C1696.155 1174.361 1697.972 1176.29 1700.167 1177.566z"></path>
                <g>
                  <path fill="#c53e2e" d="M1719.159,1113.82c12.289-7.095,22.677-3.606,25.937,7.465
									c0.684,2.323,1.055,4.979,1.063,7.941c0.048,17.083-11.958,37.879-26.824,46.463c-10.841,6.258-20.211,4.297-24.51-3.848
									c-1.597-3.025-2.494-6.902-2.507-11.529c-0.027-9.397,3.599-19.924,9.341-28.925c4.352-6.822,9.919-12.766,16.034-16.674
									C1718.178,1114.402,1718.667,1114.104,1719.159,1113.82z"></path>
                </g>
                <g>
                  <path fill="#bababa" d="M1843.149,850.433l233.506-81.589c-4.552,8.184-7.333,17.291-7.31,25.529
									c0.017,6.155,1.598,10.989,4.308,14.254l-231.772,81.106c4.072-7.785,6.524-16.292,6.503-24.041
									C1848.364,858.865,1846.422,853.667,1843.149,850.433z"></path>
                </g>
                <polygon fill="#b0b0b0" points="1892.524 833.181 1882.835 875.401 1914.699 864.251 1924.415 822.038"></polygon>
                <g>
                  <polygon fill="#fff" points="1843.149 850.433 1804.939 828.228 2038.445 746.639 2076.655 768.844"></polygon>
                </g>
                <path fill="#ff523e" d="M1802.324,826.223c-4.893-2.843-11.67-2.442-19.151,1.878
								c-14.867,8.583-26.89,29.389-26.842,46.472c0.012,4.032,0.693,7.495,1.922,10.322c1.361,3.129,3.393,5.477,5.932,6.953
								l38.21,22.205c-2.539-1.475-4.571-3.824-5.932-6.953c-1.229-2.827-1.911-6.29-1.922-10.321
								c-0.048-17.083,11.975-37.889,26.842-46.472c7.481-4.319,14.258-4.721,19.151-1.877L1802.324,826.223z"></path>
                <g>
                  <polygon fill="#fff" points="1717.692 1114.712 1679.482 1092.507 1758.254 884.894 1796.464 907.099"></polygon>
                </g>
                <g>
                  <path fill="#bababa" d="M1796.464,907.099c3.986,9.165,13.733,11.635,25.095,5.075
									c1.308-0.755,2.592-1.604,3.849-2.537l-80.312,211.648c-3.26-11.071-13.648-14.561-25.937-7.465
									c-0.492,0.284-0.981,0.582-1.467,0.892L1796.464,907.099z"></path>
                </g>
                <g>
                  <path fill="#c53e2e" d="M1821.384,850.306c8.925-5.153,16.848-4.73,21.765,0.128
									c3.274,3.234,5.216,8.431,5.235,15.259c0.022,7.749-2.431,16.255-6.503,24.041c-4.125,7.888-9.913,15.035-16.473,19.904
									c-1.257,0.933-2.541,1.782-3.849,2.537c-11.362,6.56-21.11,4.089-25.095-5.075c-1.229-2.827-1.911-6.29-1.922-10.321
									C1794.493,879.695,1806.517,858.889,1821.384,850.306z"></path>
                </g>
                <path fill="#bababa" d="M1820.534,850.846c-12.585,7.719-22.975,24.078-25.435,39.239l26.338,30.015l3.97-10.463
								c6.559-4.869,12.348-12.016,16.473-19.904c1.669-3.192,3.048-6.506,4.114-9.839L1820.534,850.846z"></path>
                <g>
                  <path fill="#bababa" d="M1434.371,1219.289l267.287-87.903c-5.742,9.001-9.368,19.529-9.341,28.925
									c0.013,4.626,0.911,8.504,2.507,11.529l-265.857,87.523c5.242-8.68,8.506-18.615,8.48-27.538
									C1437.433,1226.672,1436.323,1222.444,1434.371,1219.289z"></path>
                </g>
                <g>
                  <polygon fill="#fff" points="1434.371 1219.289 1396.161 1197.084 1663.448 1109.181 1701.658 1131.386"></polygon>
                </g>
                <path fill="#ff523e" d="M1391.379,1192.342c-4.892-2.843-11.665-2.444-19.141,1.872
								c-12.696,7.33-23.318,23.588-26.119,38.819c-0.479,2.604-0.73,5.179-0.723,7.673c0.024,8.482,3.019,14.447,7.849,17.254
								l38.21,22.205c-4.829-2.807-7.825-8.773-7.849-17.254c-0.007-2.494,0.244-5.07,0.723-7.673
								c2.801-15.231,13.423-31.489,26.119-38.819c7.477-4.317,14.249-4.715,19.141-1.872L1391.379,1192.342z"></path>
                <g>
                  <path fill="#c53e2e" d="M1410.448,1216.419c10.381-5.993,19.406-4.433,23.923,2.87
									c1.952,3.155,3.062,7.383,3.077,12.536c0.026,8.923-3.238,18.858-8.48,27.538c-4.794,7.937-11.243,14.825-18.344,18.924
									c-4.423,2.553-8.601,3.738-12.29,3.694c-8.711-0.105-14.693-7.069-14.727-19.07c-0.007-2.494,0.244-5.069,0.723-7.673
									C1387.13,1240.007,1397.752,1223.75,1410.448,1216.419z"></path>
                </g>
                <g>
                  <path fill="#bababa" d="M1384.329,1255.238c-0.479,2.604-0.729,5.179-0.723,7.673
									c0.034,12.001,6.016,18.965,14.727,19.07l-195.238,268.886l-18.935-19.824L1384.329,1255.238z"></path>
                </g>
                <g>
                  <polygon fill="gray" points="1203.095 1550.868 1164.885 1528.662 1145.951 1508.838 1184.161 1531.044"></polygon>
                </g>
                <g>
                  <polygon fill="#fff" points="1184.161 1531.044 1145.951 1508.838 1346.119 1233.033 1384.329 1255.238"></polygon>
                </g>
              </g>
              <g>
                <path fill="#ff523e" d="M1910.83,888.456c-2.258-1.312-4.96-1.946-8.053-1.768c-3.015,0.179-6.147,1.113-9.262,2.668
								c-0.606,0.303-1.211,0.628-1.816,0.977c-1.328,0.767-2.649,1.644-3.952,2.619c-8.751,6.549-16.666,17.54-20.544,29.752
								c-1.387,4.359-2.142,8.498-2.32,12.278c-0.423,9.012,2.434,15.995,7.819,19.125l38.21,22.206
								c-5.385-3.13-8.243-10.113-7.819-19.126c0.177-3.78,0.932-7.918,2.32-12.278c3.878-12.212,11.794-23.203,20.544-29.752
								c1.302-0.974,2.623-1.851,3.952-2.618c0.605-0.349,1.209-0.675,1.816-0.977c3.115-1.555,6.247-2.49,9.262-2.668
								c3.093-0.179,5.795,0.455,8.053,1.767L1910.83,888.456z"></path>
                <g>
                  <path fill="#d44331" d="M1929.909,912.539c0.605-0.349,1.209-0.675,1.816-0.977c3.115-1.555,6.247-2.49,9.262-2.668
									c10.386-0.6,16.372,7.969,15.89,20.585c-0.147,3.868-0.903,8.117-2.326,12.599c-4.467,14.018-14.25,26.444-24.506,32.365
									c-3.71,2.142-7.48,3.433-11.085,3.641c-10.462,0.598-16.468-8.106-15.867-20.895c0.178-3.78,0.932-7.918,2.32-12.278
									c3.878-12.212,11.794-23.203,20.544-29.752C1927.26,914.183,1928.581,913.307,1929.909,912.539z"></path>
                </g>
                <g>
                  <polygon fill="#fff" points="1931.725 911.562 1893.515 889.356 1995.285 443.017 2033.495 465.223"></polygon>
                </g>
                <g>
                  <path fill="#b0b0b0" d="M2033.495,465.223l31.013-5.855l-107.631,470.11c0.481-12.616-5.504-21.184-15.89-20.585
									c-3.015,0.178-6.147,1.113-9.262,2.668L2033.495,465.223z"></path>
                </g>
                <g>
                  <polygon fill="#878787" points="1903.093 957.188 1864.883 934.983 1679.267 723.463 1717.477 745.668"></polygon>
                </g>
                <g>
                  <path fill="#d1d1d1" d="M1740.59,703.668l185.368,211.49c-8.751,6.549-16.666,17.54-20.544,29.752
									c-1.388,4.36-2.142,8.498-2.32,12.278l-185.616-211.52c11.025-8.112,20.359-23.063,22.649-37.648
									C1740.361,706.517,1740.515,705.066,1740.59,703.668z"></path>
                </g>
                <path fill="#ff523e" d="M1575.029,915.091c-1.491-0.866-3.183-1.442-5.066-1.684c-2.933-0.375-6.073,0.09-9.261,1.259
								c-1.605,0.589-3.222,1.356-4.833,2.286c-1.423,0.821-2.839,1.769-4.237,2.832c-7.492,5.696-14.423,14.688-18.677,25.169
								c-2.098,5.164-3.331,10.158-3.765,14.727c-0.931,9.801,1.823,17.648,7.659,21.04l38.21,22.205
								c-5.836-3.392-8.59-11.239-7.659-21.039c0.434-4.569,1.667-9.563,3.765-14.727c4.254-10.481,11.185-19.473,18.677-25.169
								c1.398-1.062,2.814-2.01,4.237-2.831c1.611-0.93,3.228-1.697,4.833-2.286c3.188-1.17,6.327-1.634,9.261-1.26
								c1.883,0.243,3.575,0.818,5.066,1.685L1575.029,915.091z"></path>
                <g>
                  <path fill="#d44331" d="M1594.079,939.157c1.611-0.93,3.228-1.697,4.833-2.286c3.188-1.17,6.327-1.634,9.261-1.259
									c8.46,1.089,13.064,8.899,12.902,19.627c-0.081,5.37-1.354,11.47-3.938,17.825c-5.059,12.442-13.88,22.784-22.926,28.007
									c-4.807,2.776-9.677,4.106-14.082,3.539c-9.257-1.192-13.898-10.419-12.729-22.725c0.434-4.569,1.667-9.563,3.765-14.727
									c4.254-10.481,11.185-19.473,18.677-25.169C1591.24,940.926,1592.656,939.978,1594.079,939.157z"></path>
                </g>
                <path fill="#ff523e" d="M1694.556,662.098c-3.641-2.116-8.368-2.452-13.806-0.575
								c-1.793,0.621-3.578,1.453-5.338,2.469c-12.558,7.251-23.778,23.875-26.317,40.069c-0.722,4.603-0.673,8.734,0.032,12.263
								c1.067,5.335,3.637,9.295,7.319,11.435l38.21,22.205c-3.683-2.14-6.252-6.1-7.319-11.435
								c-0.706-3.529-0.755-7.661-0.032-12.264c2.538-16.194,13.759-32.818,26.317-40.069c1.76-1.016,3.545-1.848,5.338-2.469
								c5.438-1.877,10.165-1.54,13.806,0.576L1694.556,662.098z"></path>
                <g>
                  <path fill="#bababa" d="M1687.337,738.53c2.122,10.612,10.191,15.786,21.134,12.009
									c1.632-0.563,3.255-1.301,4.861-2.194l-92.256,206.894c0.161-10.728-4.443-18.538-12.902-19.627
									c-2.934-0.375-6.073,0.089-9.261,1.259L1687.337,738.53z"></path>
                </g>
                <g>
                  <polygon fill="#fff" points="1598.912 936.871 1560.702 914.666 1649.127 716.324 1687.337 738.53"></polygon>
                </g>
                <g>
                  <path fill="#c53e2e" d="M1713.622,686.196c1.76-1.016,3.545-1.848,5.338-2.469
									c13.394-4.622,22.481,4.182,21.63,19.94c-0.075,1.398-0.229,2.85-0.464,4.352c-2.289,14.585-11.624,29.536-22.649,37.648
									c-1.198,0.881-2.415,1.683-3.646,2.393c-0.166,0.096-0.334,0.19-0.5,0.283c-1.605,0.892-3.229,1.631-4.861,2.194
									c-10.943,3.777-19.011-1.397-21.134-12.009c-0.706-3.529-0.755-7.661-0.032-12.264
									C1689.843,710.072,1701.064,693.448,1713.622,686.196z"></path>
                </g>
                <g>
                  <polygon fill="#fff" points="1403.09 844.716 1364.88 822.511 1551.632 919.783 1589.842 941.988"></polygon>
                </g>
                <g>
                  <path fill="#bababa" d="M1403.09,844.716l186.753,97.272c-7.492,5.696-14.423,14.688-18.677,25.169
									c-2.098,5.164-3.331,10.158-3.765,14.727l-175.888-91.506l1.595-16.844c2.34-3.519,4.399-7.369,6.053-11.445
									C1401.672,855.911,1402.946,849.975,1403.09,844.716z"></path>
                </g>
                <g>
                  <polygon fill="#ebebeb" points="1301.679 1514.564 1263.469 1492.358 1322.047 871.042 1360.257 893.247"></polygon>
                </g>
                <g>
                  <path fill="#a8a8a8" d="M1393.108,873.534l-1.595,16.844l-58.223,614.68l-31.61,9.505l58.578-621.316
									c0.614,0.165,1.252,0.293,1.913,0.377c4.404,0.568,9.275-0.763,14.082-3.538
									C1382.332,886.576,1388.31,880.752,1393.108,873.534z"></path>
                </g>
                <g>
                  <path fill="#d44331" d="M1376.118,828.173c4.806-2.775,9.674-4.104,14.078-3.537
									c8.578,1.105,13.193,9.119,12.893,20.08c-0.144,5.259-1.417,11.195-3.929,17.373c-1.655,4.076-3.714,7.926-6.053,11.445
									c-4.798,7.217-10.776,13.042-16.856,16.552c-4.807,2.775-9.677,4.106-14.082,3.538c-0.662-0.084-1.299-0.212-1.913-0.377
									c-11.167-2.994-14.395-18.994-7.069-37.046C1358.248,843.746,1367.071,833.397,1376.118,828.173z"></path>
                </g>
                <path fill="#ff523e" d="M1357.053,804.116c-1.491-0.866-3.183-1.442-5.066-1.684
								c-4.404-0.567-9.272,0.761-14.078,3.537c-9.047,5.224-17.87,15.572-22.93,28.029c-6.58,16.211-4.647,30.767,3.903,35.735
								l38.21,22.205c-8.55-4.969-10.483-19.525-3.903-35.735c5.059-12.456,13.883-22.804,22.93-28.029
								c4.806-2.775,9.674-4.104,14.078-3.537c1.883,0.243,3.575,0.818,5.066,1.685L1357.053,804.116z"></path>
                <g>
                  <g>
                    <g>
                      <rect width="31.862" height="201.157" x="2062.107" y="287.453" fill="#bababa" transform="rotate(-9.53 2078.021 388.153)"></rect>
                    </g>
                    <g>
                      <polygon fill="#fff" points="2045.593 291.491 2079.06 489.845 1932.239 412.691"></polygon>
                    </g>
                  </g>
                </g>
              </g>
            </g>
            <g>
              <polygon points="311.711 2576.36 178.063 2500.325 1278.107 1907.709 1363.899 1955.517" opacity=".1"></polygon>
              <g>
                <g>
                  <path fill="#c5c5c5" d="M298.743,2464.018l-2.671-857.358l-112.447-65.683l2.671,857.358
									c0.058,20.395,7.258,34.749,18.87,41.497l112.447,65.682C306,2498.767,298.801,2484.413,298.743,2464.018z"></path>
                  <g>
                    <path fill="#f2f2f2" d="M296.072,1606.661l1065.916-615.406l2.671,857.358
										c0.116,41.036-28.724,91.025-64.437,111.644l-936.622,540.758c-35.712,20.618-64.741,4.04-64.858-36.996L296.072,1606.661
										L296.072,1606.661z"></path>
                  </g>
                  <g>
                    <path fill="#707070" d="M1297.042,886.603c35.712-20.618,64.741-4.076,64.858,36.96l0.088,67.691L296.072,1606.661
										l-0.088-67.691c-0.117-41.036,28.724-90.989,64.436-111.608L1297.042,886.603z"></path>
                  </g>
                  <g>
                    <path fill="#fe0" d="M408.822,1449.292c4.967-2.868,8.969-0.501,8.985,5.12l0.064,29.956
										c0.016,5.621-3.96,12.507-8.926,15.374l-32.285,18.639c-4.892,2.825-8.968,0.587-8.984-5.033l-0.064-29.956
										c-0.016-5.621,4.035-12.637,8.926-15.461L408.822,1449.292z"></path>
                    <path fill="#ff472e" d="M484.543,1405.518c4.967-2.868,8.968-0.5,8.984,5.12l0.065,29.956
										c0.015,5.621-3.96,12.507-8.927,15.374l-32.209,18.596c-4.967,2.868-8.968,0.587-8.984-5.033l-0.065-29.956
										c-0.015-5.621,3.96-12.594,8.926-15.461L484.543,1405.518z"></path>
                    <path fill="#b585ff" d="M562.693,1360.917c4.892-2.824,8.968-0.501,8.984,5.12l0.065,29.956
										c0.016,5.621-4.035,12.55-8.927,15.374l-32.284,18.639c-4.967,2.868-8.968,0.587-8.984-5.033l-0.065-29.956
										c-0.016-5.621,3.959-12.594,8.926-15.461L562.693,1360.917z"></path>
                  </g>
                  <path fill="#3d3d3d" d="M1230.598,816.411c-11.753-6.831-28.032-5.865-46.003,4.51l-936.622,540.758
									c-35.712,20.618-64.553,70.572-64.436,111.608l0.088,67.691l112.447,65.683l-0.088-67.691
									c-0.116-41.036,28.724-90.989,64.436-111.608l936.623-540.758c17.971-10.376,34.249-11.341,46.003-4.51L1230.598,816.411z"></path>
                </g>
                <g>
                  <path fill="#d9d9d9" d="m492.22 2248.557-108.732 62.776c-1.499.865-2.422 2.465-2.422 4.195l0 0c0 3.729 4.037 6.06 7.266 4.196l108.733-62.777c1.499-.865 2.422-2.464 2.422-4.195l0 0C499.487 2249.023 495.45 2246.693 492.22 2248.557zM408.329 2276.66l109.182-63.046c1.503-.868 2.427-2.473 2.422-4.209l0 0c-.011-3.723-4.042-6.043-7.266-4.182l-109.182 63.046c-1.499.865-2.422 2.465-2.422 4.195l0 0C401.063 2276.194 405.1 2278.525 408.329 2276.66z"></path>
                </g>
                <g>
                  <path fill="#d9d9d9" d="m1258.118 1122.359-108.733 62.777c-1.499.865-2.422 2.464-2.422 4.195l0 0c0 3.729 4.036 6.06 7.266 4.196l108.732-62.777c1.499-.865 2.422-2.464 2.422-4.195l0 0C1265.384 1122.825 1261.347 1120.495 1258.118 1122.359zM1174.226 1150.462l109.182-63.045c1.503-.868 2.427-2.474 2.422-4.209l0 0c-.011-3.723-4.042-6.043-7.266-4.182l-109.182 63.046c-1.499.865-2.422 2.464-2.422 4.195l0 0C1166.96 1149.996 1170.997 1152.327 1174.226 1150.462z"></path>
                </g>
                <g>
                  <path fill="#d9d9d9" d="m1272.53 1877.962-108.733 62.777c-1.499.865-2.422 2.464-2.422 4.195v0c0 3.729 4.037 6.06 7.266 4.195l108.733-62.777c1.499-.865 2.422-2.465 2.422-4.195l0 0C1279.796 1878.428 1275.759 1876.098 1272.53 1877.962zM1188.638 1906.065l109.182-63.045c1.503-.868 2.427-2.474 2.422-4.209l0 0c-.01-3.723-4.042-6.043-7.266-4.182l-109.182 63.046c-1.499.865-2.422 2.464-2.422 4.195l0 0C1181.372 1905.599 1185.409 1907.929 1188.638 1906.065z"></path>
                </g>
                <g>
                  <g>
                    <path fill="#d9d9d9" d="m861.962 1924.041 6.172-4.236c31.358-21.506 60.875-52.684 85.366-90.165l7.289-11.151 99.878 56.882-7.787 12.503c-46.429 74.547-106.35 137.698-168.727 177.82l-21.752 13.99L861.962 1924.041zM969.98 1802.263l6.089-12.026c23.277-45.984 36.032-94.321 35.911-136.103-.18-63.451-29.822-102.865-77.361-102.865-16.216 0-33.833 4.402-52.356 13.08l-20.109 9.422-.432-153.198 7.738-3.959c39.165-20.03 76.985-30.185 112.415-30.185 99.611 0 164.2 80.999 164.557 206.353.221 78.803-24.542 168.848-69.731 253.543l-6.856 12.849L969.98 1802.263zM730.826 2112.369c-99.611 0-164.2-80.999-164.556-206.352-.484-169.366 114.203-376.061 261.098-470.555l21.752-13.993.439 155.65-6.168 4.232c-80.266 55.081-142.933 170.742-142.67 263.311.176 63.451 29.822 102.869 77.365 102.869 16.216 0 33.83-4.402 52.352-13.08l20.11-9.422.432 153.198-7.738 3.959C804.076 2102.214 766.256 2112.369 730.826 2112.369z"></path>
                  </g>
                  <g>
                    <g>
                      <polygon fill="#b88c24" points="917.408 2071.944 878.249 2049.187 877.901 1926.563 917.061 1949.319"></polygon>
                    </g>
                    <path fill="#ffdb82" d="M917.061,1949.319l-39.159-22.757c33.846-23.194,64.726-56.465,89.474-94.389l39.159,22.756
										C981.786,1892.854,950.907,1926.125,917.061,1949.319z"></path>
                    <g>
                      <path fill="#ffc42f" d="M1006.534,1854.93l75.702,43.14c-44.26,71.108-101.599,133.217-164.828,173.873
											l-0.348-122.625C950.907,1926.125,981.786,1892.854,1006.534,1854.93z"></path>
                    </g>
                    <path fill="#2595ba" d="M1018.002,1567.386l-39.159-22.757c29.709,17.265,48.132,53.974,48.28,106.147
										c0.13,46.032-13.985,96.414-37.553,142.956l39.159,22.757c23.567-46.541,37.683-96.923,37.553-142.956
										C1066.133,1621.361,1047.711,1584.651,1018.002,1567.386z"></path>
                    <g>
                      <path fill="#30cbff" d="M915.64,1448.047c142.859-73.07,256.596-2.461,257.068,164.04
											c0.226,79.797-25.585,167.597-68.229,247.514l-75.75-43.112c23.568-46.541,37.684-96.924,37.553-142.956
											c-0.28-98.917-66.252-142.25-150.294-102.862L915.64,1448.047z"></path>
                    </g>
                    <path fill="#8ae1ff" d="M1054.23,1414.935l39.159,22.757c-45.991-26.727-108.443-25.094-177.749,10.355
										l-39.159-22.757C945.787,1389.841,1008.239,1388.208,1054.23,1414.935z"></path>
                    <g>
                      <polygon fill="#2083a3" points="915.987 1570.671 876.828 1547.914 876.481 1425.29 915.64 1448.047"></polygon>
                    </g>
                    <path fill="#d94442" d="M783.497,1970.819l-39.159-22.757c26.619,15.47,62.299,15.329,102.015-3.285l39.159,22.757
										C845.797,1986.148,810.117,1986.288,783.497,1970.819z"></path>
                    <path fill="#ff7c78" d="M708.111,2100.513l-39.159-22.757c-48.808-28.364-79.076-88.67-79.319-174.395
										c-0.472-166.501,112.495-367.998,255.3-459.857l39.159,22.757c-142.805,91.858-255.772,293.355-255.299,459.856
										C629.034,2011.843,659.302,2072.149,708.111,2100.513z"></path>
                    <g>
                      <path fill="#f54f4c" d="M884.092,1466.262l0.348,122.624c-83.991,57.625-149.501,176.869-149.221,275.787
											c0.28,98.917,66.252,142.25,150.294,102.861l0.348,122.625c-142.859,73.07-256.596,2.461-257.068-164.041
											C628.319,1759.616,741.286,1558.12,884.092,1466.262z"></path>
                    </g>
                  </g>
                </g>
                <path fill="#8a8a8a" d="M398.37 2369.879c-1.593 0-3.139-.826-4.001-2.301-1.275-2.219-.52-5.04 1.688-6.314l144.2-83.241 63.461-177.707c.85-2.384 3.47-3.67 5.901-2.785 2.396.849 3.647 3.493 2.786 5.901l-64.594 180.893-147.127 84.941C399.951 2369.678 399.16 2369.879 398.37 2369.879zM1101.041 1398.907c-.625 0-1.251-.118-1.853-.39-2.337-1.027-3.399-3.753-2.372-6.078l73.894-168.124 107.129-61.856c2.218-1.239 5.028-.519 6.314 1.688 1.275 2.219.519 5.04-1.688 6.314l-104.532 60.345-72.667 165.338C1104.511 1397.88 1102.811 1398.907 1101.041 1398.907zM1170.792 2005.803l-101.122-50.561c-2.278-1.145-3.198-3.919-2.065-6.197 1.145-2.289 3.93-3.187 6.196-2.065l96.684 48.342 103.671-59.861c2.219-1.24 5.016-.52 6.314 1.688 1.275 2.219.519 5.04-1.688 6.314L1170.792 2005.803z"></path>
                <g>
                  <g>
                    <path fill="#d9d9d9" d="m557.221 1537.42-118.022 68.14c-1.23.71-1.987 2.022-1.987 3.442v0c0 3.06 3.312 4.972 5.962 3.442l118.022-68.14c1.23-.71 1.987-2.022 1.987-3.442v0C563.183 1537.802 559.87 1535.89 557.221 1537.42zM449.811 1586.092l115.578-66.729c1.233-.712 1.991-2.029 1.987-3.454l0 0c-.009-3.055-3.317-4.958-5.962-3.431l-115.578 66.729c-1.23.71-1.987 2.022-1.987 3.442l0 0C443.849 1585.709 447.161 1587.621 449.811 1586.092z"></path>
                  </g>
                  <g>
                    <path fill="#d9d9d9" d="m557.221 1628.112-118.022 68.14c-1.23.71-1.987 2.022-1.987 3.443l0 0c0 3.06 3.312 4.972 5.962 3.442l118.022-68.14c1.23-.71 1.987-2.022 1.987-3.443l0 0C563.183 1628.495 559.87 1626.582 557.221 1628.112zM449.811 1676.784l115.578-66.729c1.233-.712 1.991-2.03 1.987-3.454l0 0c-.009-3.055-3.317-4.958-5.962-3.431L445.837 1669.9c-1.23.71-1.987 2.022-1.987 3.442v0C443.849 1676.402 447.161 1678.314 449.811 1676.784z"></path>
                  </g>
                  <g>
                    <path fill="#d9d9d9" d="m557.221 1718.804-118.022 68.14c-1.23.71-1.987 2.022-1.987 3.442v0c0 3.059 3.312 4.972 5.962 3.442l118.022-68.14c1.23-.71 1.987-2.022 1.987-3.442l0 0C563.183 1719.187 559.87 1717.274 557.221 1718.804zM449.811 1767.477l115.578-66.729c1.233-.712 1.991-2.03 1.987-3.454l0 0c-.009-3.055-3.317-4.958-5.962-3.431l-115.578 66.729c-1.23.71-1.987 2.022-1.987 3.442l0 0C443.849 1767.094 447.161 1769.006 449.811 1767.477z"></path>
                  </g>
                  <g>
                    <g>
                      <polygon fill="#f54f4c" points="408.152 1582.566 408.313 1639.32 358.93 1667.831 358.77 1611.077"></polygon>
                    </g>
                    <g>
                      <polygon fill="#30cbff" points="408.402 1670.68 408.563 1727.424 359.18 1755.935 359.019 1699.191"></polygon>
                    </g>
                    <g>
                      <polygon fill="#ffc42f" points="408.652 1758.784 408.812 1815.528 359.43 1844.039 359.269 1787.295"></polygon>
                    </g>
                  </g>
                </g>
              </g>
            </g>
            <g>
              <defs>
                <path id="g" d="M296.072,1606.661l1065.916-615.406l2.671,857.358c0.116,41.036-28.724,91.025-64.437,111.644
								l-936.622,540.758c-35.712,20.618-64.741,4.04-64.858-36.996L296.072,1606.661L296.072,1606.661z"></path>
              </defs>
              <clipPath id="h">
                <use xlink:href="#g" overflow="visible"></use>
              </clipPath>
              <g clip-path="url(#h)">
                <g>
                  <polygon fill="#d9d9d9" points="1196.804 1906.196 1198.189 2138.107 1077.751 2207.642 1076.366 1975.731"></polygon>
                </g>
                <g>
                  <polygon fill="#d9d9d9" points="948.726 1890.007 950.391 2281.174 829.937 2350.717 828.272 1959.551"></polygon>
                </g>
                <g>
                  <polygon fill="#d9d9d9" points="700.648 1879.192 702.593 2424.24 582.139 2493.783 580.194 1948.736"></polygon>
                </g>
                <g>
                  <polygon fill="#d9d9d9" points="451.269 1840.352 453.213 2563.027 332.759 2632.571 330.815 1909.896"></polygon>
                </g>
              </g>
            </g>
            <g>
              <g>
                <g>
                  <polygon points="1215.725 2333.048 1374.908 2241.144 1533.259 2333.166 1374.071 2425.071" opacity=".1"></polygon>
                  <polygon points="967.63 2476.125 1126.83 2384.21 1285.178 2476.233 1125.981 2568.146" opacity=".1"></polygon>
                  <polygon points="719.552 2619.189 878.751 2527.275 1037.099 2619.298 877.902 2711.212" opacity=".1"></polygon>
                  <polygon points="470.172 2757.978 629.371 2666.063 787.72 2758.086 628.523 2850" opacity=".1"></polygon>
                </g>
                <g>
                  <g>
                    <g>
                      <g>
                        <polygon fill="#ad3a2f" points="1375.491 2400.815 1255.825 2331.272 1254.44 2099.361 1374.106 2168.904"></polygon>
                      </g>
                      <g>
                        <polygon fill="#ff6959" points="1374.106 2168.904 1254.44 2099.361 1374.878 2029.826 1494.544 2099.369"></polygon>
                      </g>
                      <g>
                        <polygon fill="#ef4e3c" points="1494.544 2099.369 1495.929 2331.281 1375.491 2400.815 1374.106 2168.904"></polygon>
                      </g>
                    </g>
                  </g>
                  <g>
                    <g>
                      <g>
                        <polygon fill="#ad902f" points="1127.678 2543.89 1008.011 2474.347 1006.346 2083.18 1126.013 2152.724"></polygon>
                      </g>
                      <g>
                        <polygon fill="#ffd959" points="1126.013 2152.724 1006.346 2083.18 1126.799 2013.637 1246.466 2083.18"></polygon>
                      </g>
                      <g>
                        <polygon fill="#efc73c" points="1246.466 2083.18 1248.131 2474.347 1127.678 2543.89 1126.013 2152.724"></polygon>
                      </g>
                    </g>
                  </g>
                  <g>
                    <g>
                      <g>
                        <polygon fill="#a353b8" points="879.879 2686.957 760.212 2617.413 758.268 2072.366 877.934 2141.909"></polygon>
                      </g>
                      <g>
                        <polygon fill="#e986ff" points="877.934 2141.909 758.268 2072.366 878.721 2002.822 998.388 2072.366"></polygon>
                      </g>
                      <g>
                        <polygon fill="#da68f1" points="998.388 2072.366 1000.332 2617.413 879.879 2686.957 877.934 2141.909"></polygon>
                      </g>
                    </g>
                  </g>
                  <g>
                    <g>
                      <g>
                        <polygon fill="#71a82d" points="630.499 2825.744 510.833 2756.201 508.888 2033.526 628.555 2103.069"></polygon>
                      </g>
                      <g>
                        <polygon fill="#a6f054" points="628.555 2103.069 508.888 2033.526 629.342 1963.982 749.009 2033.526"></polygon>
                      </g>
                      <g>
                        <polygon fill="#86d133" points="749.009 2033.526 750.953 2756.201 630.499 2825.744 628.555 2103.069"></polygon>
                      </g>
                    </g>
                  </g>
                </g>
              </g>
            </g>
          </g>
          <g>
            <g opacity=".1">
              <path d="M1802.743,2345.224c-51.635,36.13-81.633,82.445-77.771,130.391c7.81,95.83,148.286,161.875,313.647,147.461
							c6.535-0.569,12.862-1.439,19.284-2.263c105.706-12.921,154.483,6.875,166.223,67.933
							c17.365,89.7,153.013,150.339,312.202,136.463c82.681-7.206,155.951-33.152,207.574-69.274
							c51.624-36.123,81.601-82.422,77.695-130.338c-7.818-95.935-148.199-161.935-313.647-147.462
							c-6.534,0.57-12.862,1.439-19.197,2.203c-105.706,12.922-154.483-6.875-166.31-67.872
							c-17.365-89.701-152.927-150.4-312.116-136.524C1927.647,2283.148,1854.377,2309.094,1802.743,2345.224z"></path>
            </g>
            <path fill="#2e2e2e" d="M1850.902,2436.883c-0.948-35.75,121.304-36.763,215.555-31.799
						c94.25,4.964,150.272-17.595,153.327,25.7c0.656,9.306,0.387,12.259-0.154,22.689c-1.469,28.277-17.272,51.706-81.922,52.722
						c-6.745,0.106-29.861-8.92-36.871-8.79c-42.516,0.785-119.14,17.35-170.059,9.388
						C1883.298,2499.37,1851.794,2470.544,1850.902,2436.883z"></path>
            <path fill="#875629" d="M1851.297,2430.444c1.901-25.256,116.891-38.498,219.912-27.003
						c93.763,10.462,149.548-25.07,146.798,20.427c-2.75,45.496-35.792,65.597-130.043,60.634
						c-42.489-2.238-100.795,19.133-151.714,11.171C1888.77,2488.25,1848.769,2464.018,1851.297,2430.444z"></path>
            <path fill="#3d3d3d" d="M2214.637,2438.875c-35.574,70.247-200.386,12.158-179.37-34.409
						c0,0,30.173-391.879,35.23-471.965c6.004-95.076,22.668-445.525,22.668-445.525l233.987,13.038l-43.381,503.435
						L2214.637,2438.875z"></path>
            <path fill="#2e2e2e" d="M2429.911,2585.668c-1.486,82.347-17.371,138.971,72.559,141.076
						c64.416,1.508,98.914-62.505,100.399-144.852c1.486-82.348-47.512-152.503-95.023-153.356
						C2460.334,2427.681,2431.396,2503.32,2429.911,2585.668z"></path>
            <path fill="#875629" d="M2427.645,2560.691c-1.486,82.348-17.31,143.872,72.62,145.977
						c64.416,1.508,98.852-67.405,100.338-149.753c1.486-82.348-47.512-152.503-95.023-153.357
						C2458.069,2402.705,2429.131,2478.344,2427.645,2560.691z"></path>
            <path fill="#4f4f4f" d="M2607.393,2553.379c-19.837,79.349-163.236,72.571-185.514,6.097l-213.704-1069.72
						l304.937,10.951L2607.393,2553.379z"></path>
            <polygon fill="#d9b49c" points="2305.422 499.434 2275.374 663.777 2307.847 883.04 2447.224 693.136 2493.433 524.148"></polygon>
            <path fill="#d4d4d4" d="M2532.58,1153.05c-5.697,29.465-13.415,58.96-16.598,79.3
						c-13.632,87.042-21.085,169.445-13.621,229.655c-267.459,87.849-349.637,16.631-371.01,3.064
						c14.521-70.421,5.392-153.091,3.674-249.215c-0.833-46.638,15.928-127.599,8.729-216.777
						c-5.599-69.247-11.378-140.868-14.201-194.068c-1.126-21.107,7.166-42.133,23.343-59.191
						c17.728-18.699,42.818-29.865,67.108-29.865l3.02,0.057c23.621,0.874,35.962,7.207,53.053,15.973
						c13.076,6.709,40.026-2.793,62.129,3.524c18.578,5.313,31.75,27.573,61.052,33.556c51.535,10.512,58.726,21.868,95.602,39.049
						c56.041,26.119,95.986,92.501,90.925,151.12C2579.956,1026.748,2544.529,1091.133,2532.58,1153.05z"></path>
            <polygon fill="#d64431" points="2302.581 793.062 2190.509 1025.407 2279.66 1025.407 2331.834 793.062"></polygon>
            <g>
              <path fill="#474747" d="M2393.474,831.522c-89.133,15.322-299.395,185.512-396.027,233.16
							c-109.03,53.761-374.509,116.847-374.509,116.847c-23.889-8.62-57.702-119.291-40.513-136.105
							c0,0,248.111-71.284,322.916-112.698c81.22-44.967,230.788-184.909,291.978-229.452
							C2244.726,668.765,2355.668,788.878,2393.474,831.522z"></path>
              <path fill="#dbdbdb" d="M1609.699,1048.55l-49.111,15.636c-19.787,22.539,5.679,100.007,33.896,115.332l52.16-14.294
							C1648.36,1119.768,1638.612,1084.484,1609.699,1048.55z"></path>
              <path fill="#f0c7ad" d="M1449.022,1140.241c12.456-1.062,30.339-10.858,34.666-9.09
							c0.703,0.935-10.731,15.881-30.337,28.401c-23.246,14.846-47.038,18.847-49.243,23.254
							c-17.917,20.941,16.797,52.749,23.415,55.954c24.619,11.923,80.121-3.398,98.161-14.013
							c20.217-11.896,48.575-34.293,53.74-49.077c3.403-9.74,12.595-17.267,18.646-22.483c24.099-20.773-5.982-90.171-21.426-80.346
							c-14.223,8.898-24.141,11.174-37.841,8.514c-25.561-4.962-58.958,10.031-63.715,15.114
							c-10.418,11.131-35.205,20.573-45.709,22.552c-2.765,0.521-4.712,3.162-4.147,5.918
							C1426.977,1133.44,1433.269,1141.583,1449.022,1140.241z"></path>
              <path fill="#fff" d="M1609.699,1048.55l-49.111,15.636c21.368,12.999,47.787,90.246,33.896,115.332l52.16-14.294
							C1648.36,1119.768,1638.612,1084.484,1609.699,1048.55z"></path>
              <path fill="#6e6e6e" d="M2393.474,831.522c-89.133,15.322-299.395,185.512-396.027,233.16
							c-109.03,53.761-374.509,116.847-374.509,116.847c18.194-21.558-7.922-125.323-40.513-136.105
							c0,0,270.737-85.416,322.916-112.698c50.273-26.286,230.788-184.909,291.978-229.452
							C2244.726,668.765,2355.668,788.878,2393.474,831.522z"></path>
            </g>
            <path fill="#4a4a4a" d="M2076.226,1619.604c21.06,31.217,61.412,54.879,126.744,77.092
						c172.238,58.561,333.927,59.304,346.693-13.228c-4.679-70.804-39.202-295.166-17.083-436.365
						c9.907-63.246,44.844-154.407,53.481-254.497c5.748-66.602,51.384-140.18-2.333-179.97
						c-18.171-13.46-69.091-40.792-96.354-47.63c-56.493-14.168-234.394,204.486-249.281,230.343
						c-17.499-48.319,50.528-282.222,17.142-289.082c-58.399-2.166-137.745,96.207-156.038,203.351
						C2073.745,1058.692,2068.54,1520.158,2076.226,1619.604z"></path>
            <g>
              <path fill="#404040" d="M2219.951,1696.955c-2.13,0-3.949-1.619-4.155-3.779
							c-16.675-173.968-24.719-567.317,19.376-698.894c0.732-2.185,3.112-3.348,5.292-2.636c2.19,0.737,3.368,3.102,2.636,5.292
							c-43.724,130.47-35.6,522.089-18.985,695.436c0.22,2.301-1.463,4.34-3.759,4.561
							C2220.222,1696.95,2220.087,1696.955,2219.951,1696.955z"></path>
            </g>
            <g>
              <path fill="#2e2e2e" d="M2203.147,1046.134c-8.775-5.067-15.858-1.031-15.886,9.053
							c-0.029,10.084,7.007,22.38,15.782,27.447c8.776,5.067,15.953,0.976,15.981-9.108
							C2219.054,1063.441,2211.923,1051.2,2203.147,1046.134z"></path>
            </g>
            <g>
              <path fill="#2e2e2e" d="M2187.931,1188.27c-8.776-5.067-15.858-1.031-15.886,9.053
							c-0.029,10.084,7.007,22.38,15.783,27.447c8.776,5.067,15.952,0.976,15.981-9.108
							C2203.837,1205.578,2196.707,1193.337,2187.931,1188.27z"></path>
            </g>
            <g>
              <path fill="#2e2e2e" d="M2180.163,1327.568c-8.776-5.067-15.858-1.032-15.886,9.052
							c-0.029,10.084,7.007,22.38,15.783,27.447c8.776,5.067,15.952,0.976,15.981-9.108
							C2196.07,1344.876,2188.939,1332.635,2180.163,1327.568z"></path>
            </g>
            <g>
              <path fill="#2e2e2e" d="M2184.782,1473.874c-8.776-5.067-15.858-1.031-15.886,9.053
							c-0.029,10.084,7.007,22.38,15.783,27.447c8.776,5.067,15.952,0.976,15.981-9.108
							C2200.688,1491.181,2193.558,1478.941,2184.782,1473.874z"></path>
            </g>
            <g>
              <path fill="#2e2e2e" d="M2191.315,1613.684c-8.776-5.067-15.858-1.032-15.886,9.052
							c-0.029,10.084,7.007,22.38,15.783,27.447c8.775,5.067,15.952,0.976,15.981-9.108
							C2207.221,1630.992,2200.091,1618.751,2191.315,1613.684z"></path>
            </g>
            <path fill="#ae3e2f" d="M2296.104,777.243l6.559,19.268c3.345,9.828,15.305,13.534,23.612,7.317l16.282-12.186
						c5.804-4.344,8.152-11.933,5.814-18.801l-13.338-39.184l-33.115,24.785C2296.113,762.787,2293.766,770.376,2296.104,777.243z"></path>
            <path fill="#fff" d="m2330.931 734.544-48.898 41.592c-3.777 2.259-8.422 2.516-12.426.688-3.2-1.461-25.515-70.473-25.515-70.473l31.525-45.377C2278.405 694.407 2303.738 721.478 2330.931 734.544zM2331.138 734.419l24.708 70.825c3.776 2.259 8.422 2.516 12.425.688 3.201-1.461 116.135-46.932 116.135-46.932l-36.378-67.531C2415.984 709.807 2363.301 732.145 2331.138 734.419z"></path>
            <g>
              <path fill="#f0c7ad" d="M2575.195,1703.624c4.037-11.771,18.452-46.097,18.452-46.097l11.438,12.938
							c0.993-12.434,4.932-24.808,14.477-34.633c11.698-12.04,12.726-18.461,19.031-37.634c6.72-20.968,69.714,11.933,63.415,49.684
							c-1.583,9.479,0.652,25.672,2.973,38.147c5.805,31.199-5.468,58.869-19.888,83.123c-14.21,23.901-31.025,31.627-51.165,33.612
							c-10.225,1.008-59.853,2.837-47.211-16.464c14.401-21.985,33.905-40.012,25.748-66.366c-0.762-2.462-1.684-5.541-2.62-8.992
							l-8.727,8.992c0,0-9.119,25.594-18.287,30.837c-4.007,2.292-10.85,1.308-13.282-2.615
							C2565.964,1742.373,2571.554,1714.239,2575.195,1703.624z"></path>
              <path fill="#fff" d="M2590.977,1608.336l-2.112,51.497c22.092,21.27,90.78,23.681,119.969,7.612l4.416-53.903
							C2671.296,1623.131,2634.831,1623.994,2590.977,1608.336z"></path>
              <path fill="#6e6e6e" d="M2553.15,830.001c42.58-18.245,84.447,13.569,100.713,64.626
							c27.087,85.02,82.435,283.341,85.721,339.691c2.51,43.054-18.347,391.885-18.347,391.885
							c-50.058,14.207-91.525,13.041-141.752-8.502l4.592-341.987c0,0-67.506-214.109-84.823-290.795
							C2486.339,927.723,2501.028,852.334,2553.15,830.001z"></path>
            </g>
            <path fill="#595959" d="M2227.429,716.248c-21.128,53.671,8.915,275.605,8.915,275.605
						c7.391-78.852,18.949-152.369,25.532-216.504c3.842-37.43,7.189-71.851,3.863-101.778
						C2263.693,670.487,2235.894,700.024,2227.429,716.248z"></path>
            <path fill="#f0c7ad" d="M2535.574,563.728c-24.675,50.518-55.126,74.131-104.194,86.088
						c-44.216,10.774-97.875,33.058-139.331,15.904c-47.268-19.559-55.416-108.992-17.914-197.749
						c6.987-16.537,18.707-48.671,25.534-65.849c5.457-13.73-0.014-31.168,29.219-59.47
						c38.417-37.194,101.573-38.693,159.987-10.161C2589.403,381.593,2584.926,462.691,2535.574,563.728z"></path>
            <path fill="#382e28" d="M2492.457,325.158c-64.557-31.533-147.02-18.341-184.79,41.63
						c14.861-13.936,25.737-19.943,35.368-19.771c14.795,0.262,21.251,8.539,26.205,22.074c25.41,9.349,50.853,6.518,88.017,33.381
						c32.876,23.764,57.883,88.882,20.127,128.084c1.55,11.126,4.867,16.38,9.44,31.614c10.998-14.835,24.854-22.786,32.342-17.963
						c8.204,5.282,5.648,23.865-5.709,41.505c-7.688,11.942-17.433,20.37-25.475,22.943c-0.426,15.497-15.257,24.299-17.134,29.86
						c40.498-26.623,49.631-42.765,67.698-68.16C2601.532,481.817,2592.683,374.113,2492.457,325.158z"></path>
            <path fill="#6e6e6e" d="M2456.798,706.872c24.824,21.078,36.972,35.022,45.788,62.853
						c-29.441,68.652-178.329,137.91-264,224.369L2456.798,706.872z"></path>
          </g>
        </g>
      </g>
    </g>
  </switch>
</svg>
