<svg xmlns="http://www.w3.org/2000/svg" xml:space="preserve" id="financial-savings-scheduling-concept-with-galaxy-and-stars-pattern-background" x="0" y="0" style="enable-background:new 0 0 1088.7 607.2" version="1.1" viewBox="0 0 1088.7 607.2">
  <g id="bg">
    <path d="M25.4,258.3c-12.4-57.4,13.6-121.9,68-144c42.8-17.4,108.3-23.2,196-2c232,56,212-8,302-58
		c79.2-44,176-98,344,4c127.4,77.4,52,198,138,272c55.3,47.6-38,278-306,228s-328.7,20.2-450,46c-122,26-373.9-128.7-306-200
		C51.4,362.3,33.2,294.3,25.4,258.3z" style="fill:#f8f8ff"></path>
    <path d="M94.9,272.3c-10.6-49.3,11.7-104.8,58.5-123.8c36.8-15,93.1-19.9,168.5-1.7c199.4,48.1,182.2-6.9,259.6-49.9
		c68.1-37.8,151.3-84.2,295.7,3.4c109.5,66.5,44.7,170.2,118.6,233.8c47.5,40.9-32.7,239-263,196s-282.5,17.3-386.8,39.5
		C241,592,24.4,459.1,82.8,397.8C117.2,361.7,101.5,303.3,94.9,272.3z" style="fill:#f5f5fc"></path>
    <path d="M172.7,275.4c-9.1-42.2,10-89.7,50-106c31.5-12.8,79.7-17,144.3-1.5c170.8,41.2,156-5.9,222.3-42.7
		c58.3-32.4,129.5-72.1,253.2,2.9c93.8,56.9,38.3,145.7,101.6,200.2c40.7,35-28,204.6-225.2,167.8S476.9,511,387.6,530
		c-89.8,19.1-275.2-94.7-225.2-147.2C191.9,351.9,178.4,301.9,172.7,275.4z" style="fill:#bac6f2"></path>
  </g>
  <g id="Elippses">
    <circle cx="204.4" cy="300.3" r="8" style="fill:#fff"></circle>
    <circle cx="266.9" cy="251.8" r="4.5" style="fill:#fff"></circle>
    <circle cx="282.4" cy="373.3" r="5" style="fill:#fff"></circle>
    <circle cx="239.9" cy="442.8" r="5.5" style="fill:#fff"></circle>
    <circle cx="366.9" cy="465.8" r="5.5" style="fill:#fff"></circle>
    <circle cx="604.4" cy="463.3" r="6" style="fill:#fff"></circle>
    <circle cx="702.9" cy="334.8" r="5.5" style="fill:#fff"></circle>
    <circle cx="778.4" cy="260.3" r="4" style="fill:#fff"></circle>
    <circle cx="839.9" cy="276.8" r="5.5" style="fill:#fff"></circle>
    <circle cx="885.4" cy="207.3" r="5" style="fill:#fff"></circle>
    <circle cx="876.4" cy="410.3" r="5" style="fill:#fff"></circle>
    <circle cx="793.9" cy="471.8" r="5.5" style="fill:#fff"></circle>
    <circle cx="494.4" cy="397.3" r="9" style="fill:#fff"></circle>
    <circle cx="538.4" cy="299.3" r="9" style="fill:#fff"></circle>
    <circle cx="653.4" cy="256.3" r="9" style="fill:#fff"></circle>
    <circle cx="652.9" cy="391.8" r="9.5" style="fill:#fff"></circle>
    <circle cx="750.9" cy="378.8" r="9.5" style="fill:#fff"></circle>
    <circle cx="457.4" cy="338.3" r="9" style="fill:#fff"></circle>
    <circle cx="515.4" cy="418.3" r="9" style="fill:#fff"></circle>
    <circle cx="580.4" cy="349.3" r="9" style="fill:#fff"></circle>
    <circle cx="347.9" cy="373.8" r="8.5" style="fill:#fff"></circle>
    <circle cx="433.9" cy="264.7" r="8.5" style="fill:#fff"></circle>
    <polyline points="171.8 439.7 204.4 300.3 344.4 374.3 456.4 338.3 494.4 397.3 515.4 421.3 580.4 348.3 652.4 393.3 749.4 378.3" style="fill:none;stroke:#fff;stroke-width:3;stroke-linecap:round;stroke-linejoin:round"></polyline>
    <polyline points="460.3 338.3 537.2 298.2 653.4 256.3" style="fill:none;stroke:#fff;stroke-width:3;stroke-miterlimit:10"></polyline>
    <circle cx="352.9" cy="202.8" r="4.5" style="fill:#fff"></circle>
    <circle cx="679.4" cy="124.3" r="4" style="fill:#fff"></circle>
    <circle cx="440.9" cy="222.8" r="4.5" style="fill:#fff"></circle>
    <circle cx="582.4" cy="194.3" r="4" style="fill:#fff"></circle>
    <circle cx="345.9" cy="296.8" r="3.5" style="fill:#fff"></circle>
    <circle cx="742.4" cy="156.3" r="6" style="fill:#fff"></circle>
    <circle cx="628.4" cy="211.3" r="4" style="fill:#fff"></circle>
    <circle cx="224.4" cy="193.3" r="5" style="fill:#fff"></circle>
    <circle cx="820.4" cy="338.3" r="5" style="fill:#fff"></circle>
    <polyline points="876.4 410.3 820.4 338.3 839.4 276.3 778.4 260.3" style="fill:none;stroke:#fff;stroke-width:3;stroke-miterlimit:10"></polyline>
    <line x1="433.9" x2="456.4" y1="264.7" y2="338.3" style="fill:none;stroke:#fff;stroke-width:3;stroke-linecap:round;stroke-linejoin:round"></line>
  </g>
  <g>
    <g>
      <linearGradient id="SVGID_1_" x1="1263.695" x2="1160.024" y1="1218.376" y2="1143.046" gradientTransform="rotate(-15.93 -2591.576 4136.594)" gradientUnits="userSpaceOnUse">
        <stop offset="0" style="stop-color:#f92468"></stop>
        <stop offset="1" style="stop-color:#f9b449"></stop>
      </linearGradient>
      <path d="M194.7,261.2l14.1-5.1c0,0-2.1-18.1,7.8-27.2l-5.5-19.2c0,0,15.7,3.8,18.8,4c3.2,0.1,25.6-19.8,60.6-10
			c29.5,8.2,31.6,36.8,31.5,45.6c0,1.6-0.3,3.2-0.8,4.7c-1.3,3.5-3.8,10.4-5.3,13.2c-2.1,3.7,7.2,18.4,3.8,20.7
			c-2.6,1.8-11.9-9.1-14.6-7.3c-14,9.6-30.6,15-47.6,15.3c-1.1,0-2.2,0.8-2.3,2c-0.5,3-1.7,8.6-3.4,10.5c-2.3,2.7-5.9-9.8-9.3-10.9
			c-3.4-1.1-43.1-19.9-43.1-19.9L194.7,261.2z" style="fill:url(#SVGID_1_)"></path>
      <path d="M316.3,229.7c0,0,9.4-11.7,17.5-7.3c8,4.5,8.9,11.2,4.4,14.1c-3.4,2.2-11.2-2.4-9.8-7.2
			c1.4-4.8,5.2-8.3,11.3-6.3c6.1,1.9,10.3,8.2,11.7,11.9" style="fill:none;stroke:#f93764;stroke-width:4;stroke-linecap:round;stroke-miterlimit:10"></path>
      <circle cx="225.9" cy="253.7" r="5.6" style="fill:#f7b14a"></circle>
      <linearGradient id="SVGID_2_" x1="1205.702" x2="1243.602" y1="1141.497" y2="1141.497" gradientTransform="rotate(-15.93 -2591.576 4136.594)" gradientUnits="userSpaceOnUse">
        <stop offset="0" style="stop-color:#f92468"></stop>
        <stop offset="1" style="stop-color:#f93764"></stop>
      </linearGradient>
      <path d="M238.5,214.9c0,0,19.9-11.9,35.6-9.6" style="fill:none;stroke:url(#SVGID_2_);stroke-linecap:round;stroke-linejoin:round"></path>
    </g>
    <g id="coin">
      <linearGradient id="SVGID_3_" x1="261.019" x2="303.569" y1="731.87" y2="668.49" gradientTransform="rotate(-15.93 -1596.58 591.059)" gradientUnits="userSpaceOnUse">
        <stop offset="0" style="stop-color:#f92468"></stop>
        <stop offset="1" style="stop-color:#f9b449"></stop>
      </linearGradient>
      <circle cx="244.4" cy="166.8" r="22.4" style="fill:url(#SVGID_3_)"></circle>
      <linearGradient id="SVGID_4_" x1="271.152" x2="308.752" y1="688.576" y2="688.576" gradientTransform="rotate(-15.93 -1596.58 591.059)" gradientUnits="userSpaceOnUse">
        <stop offset="0" style="stop-color:#f92468"></stop>
        <stop offset="1" style="stop-color:#f93764"></stop>
      </linearGradient>
      <circle cx="244.3" cy="167" r="18.3" style="fill:none;stroke:url(#SVGID_4_);stroke-miterlimit:10"></circle>
      <text style="fill:#f9b449;font-family:&quot;ArialMT&quot;;font-size:26.71px" transform="rotate(-15.93 752.382 -767.713)">$</text>
    </g>
    <g id="coin_copy">
      <linearGradient id="SVGID_5_" x1="296.968" x2="324.978" y1="676.256" y2="634.526" gradientTransform="rotate(-15.93 -1596.58 591.059)" gradientUnits="userSpaceOnUse">
        <stop offset="0" style="stop-color:#f92468"></stop>
        <stop offset="1" style="stop-color:#f9b449"></stop>
      </linearGradient>
      <circle cx="258.2" cy="120.4" r="14.7" style="fill:url(#SVGID_5_)"></circle>
      <linearGradient id="SVGID_6_" x1="303.512" x2="328.612" y1="647.776" y2="647.776" gradientTransform="rotate(-15.93 -1596.58 591.059)" gradientUnits="userSpaceOnUse">
        <stop offset="0" style="stop-color:#f92468"></stop>
        <stop offset="1" style="stop-color:#f93764"></stop>
      </linearGradient>
      <circle cx="258.2" cy="120.6" r="12.1" style="fill:none;stroke:url(#SVGID_6_);stroke-miterlimit:10"></circle>
      <text style="fill:#f9b449;font-family:&quot;ArialMT&quot;;font-size:17.58px" transform="rotate(-15.93 582.021 -847.945)">$</text>
    </g>
    <g id="coin_copy_2">
      <linearGradient id="SVGID_7_" x1="249.746" x2="269.796" y1="677.888" y2="648.028" gradientTransform="rotate(-15.93 -1596.58 591.059)" gradientUnits="userSpaceOnUse">
        <stop offset="0" style="stop-color:#f92468"></stop>
        <stop offset="1" style="stop-color:#f9b449"></stop>
      </linearGradient>
      <circle cx="210.3" cy="144.3" r="10.5" style="fill:url(#SVGID_7_)"></circle>
      <linearGradient id="SVGID_8_" x1="254.302" x2="272.542" y1="657.476" y2="657.476" gradientTransform="rotate(-15.93 -1596.58 591.059)" gradientUnits="userSpaceOnUse">
        <stop offset="0" style="stop-color:#f92468"></stop>
        <stop offset="1" style="stop-color:#f93764"></stop>
      </linearGradient>
      <circle cx="210.3" cy="144.3" r="8.6" style="fill:none;stroke:url(#SVGID_8_);stroke-miterlimit:10"></circle>
      <text style="fill:#f9b449;font-family:&quot;ArialMT&quot;;font-size:12.58px" transform="rotate(-15.93 636.858 -668.844)">$</text>
    </g>
  </g>
  <g id="bag">
    <linearGradient id="SVGID_9_" x1="2261.817" x2="2384.593" y1="-1238.906" y2="-1295.773" gradientTransform="matrix(1 0 0 -1 -1511.98 -955.56)" gradientUnits="userSpaceOnUse">
      <stop offset="0" style="stop-color:#7a5bf5"></stop>
      <stop offset="1" style="stop-color:#cd94ef"></stop>
    </linearGradient>
    <path d="M786.6,282.7c0,0-16,58.1-13.4,64.6s15.6,7.8,21.3,9.1s58.1,15,63.5,15.3c5.3,0.3,4.9,1,7.2,1
		s31.4-9.8,32.5-13.3c1-3.5,1.9-5.8,1-10.1s-14.1-59.7-17.7-60.9C877.3,287.3,786.6,282.7,786.6,282.7z" style="fill:url(#SVGID_9_)"></path>
    <linearGradient id="SVGID_10_" x1="2280.809" x2="2362.41" y1="-1223.839" y2="-1261.639" gradientTransform="matrix(1 0 0 -1 -1511.98 -955.56)" gradientUnits="userSpaceOnUse">
      <stop offset="0" style="stop-color:#7a5bf5"></stop>
      <stop offset="1" style="stop-color:#e5a4ed"></stop>
    </linearGradient>
    <path d="M783.9,293.1c0,0,1.2-9.1,2.7-10.4c1.6-1.3,6.1-7.2,10.4-7.5c4.3-0.3,74,8.5,76.6,9.1c2.6,0.6,6.1,1.9,7.2,4
		c1.2,2.2-10.1,4.8-12.3,11.7s-42,21.5-51.8,22.5C806.9,323.5,783.9,293.1,783.9,293.1z" style="fill:url(#SVGID_10_)"></path>
    <path d="M806.6,277.5c0,0,7.5-16.3,11.1-19.3c3.2-2.7,14.6-8.7,21.5,0.1c7.8,10,7.1,21.5,7.1,22.9s-7.6,0.1-7.6,0.1
		s2.5-11.8,0.3-15.9c-2-3.7-3.2-8.2-10.4-7.8c-7.2,0.4-9.8,4.5-12,8.2c-1.9,3.7-3.3,7.6-4.6,11.7
		C811.7,278.1,806.6,277.5,806.6,277.5z" style="fill:#7a5bf5"></path>
    <path d="M818.6 278.5c0 0 7.5-19.9 11.1-23.7 3.2-3.3 15.3-10 22.2.7 7.8 12.1 6.2 25.7 6.2 27.3s-7.6.3-7.6.3 2.3-14.4.1-19.5c-2-4.6-3.2-10.1-10.2-9.5-7.1.6-9.8 5.3-12 10.1-1.9 4.6-3.3 9.4-4.6 14.3C823.8 279.2 818.6 278.5 818.6 278.5zM865.5 304c0 0-6.6 55.8-5.8 59.6s3 9.1 4.6 9.1c1.6 0 4.2-.3 3.2-1.6-3.3-4.8-4.8-10.7-3.9-16.3 1-9.1 4.9-54.8 4.9-54.8L865.5 304z" style="fill:#7a5bf5"></path>
    <circle cx="815" cy="322.5" r="4" style="fill:#fff"></circle>
  </g>
  <g id="Calendar">
    <linearGradient id="SVGID_11_" x1="1193.53" x2="1220.431" y1="1335.128" y2="1335.128" gradientTransform="translate(-785.59 -907.73)" gradientUnits="userSpaceOnUse">
      <stop offset="0" style="stop-color:#58caea"></stop>
      <stop offset="1" style="stop-color:#4c4cbf"></stop>
    </linearGradient>
    <path d="M422.1,387.5l-14.2,79.7c0,0,18.3-3.2,26.9,0L422.1,387.5" style="fill:url(#SVGID_11_)"></path>
    <path d="M422.1,387.5l12.7,79.7c0,0,54.1-6.8,95.5-0.6l-14.7-78.9L422.1,387.5" style="fill:#fcfcfc"></path>
    <polygon points="475.9 428 462.8 428.3 460.9 417.8 473.7 417.7" style="fill:#58caea"></polygon>
    <polygon points="496.6 427.4 483.5 427.7 481.6 417.2 494.4 417.1" style="fill:#58caea"></polygon>
    <polygon points="516.2 427.5 503.1 427.8 501.2 417.3 514 417.2" style="fill:#58caea"></polygon>
    <polygon points="518.8 441.7 505.7 442 503.8 431.4 516.6 431.4" style="fill:#58caea"></polygon>
    <polygon points="478.7 441.5 465.7 441.8 463.8 431.3 476.6 431.2" style="fill:#58caea"></polygon>
    <polygon points="458.5 442.2 445.4 442.5 443.5 432 456.3 431.9" style="fill:#58caea"></polygon>
    <polygon points="461.7 456.8 448.6 457.1 446.8 446.6 459.6 446.5" style="fill:#58caea"></polygon>
    <polygon points="481.8 456.5 468.7 456.8 466.8 446.3 479.6 446.3" style="fill:#58caea"></polygon>
    <polygon points="502.5 456.5 489.4 456.8 487.5 446.3 500.3 446.2" style="fill:#58caea"></polygon>
    <linearGradient id="SVGID_12_" x1="1250.458" x2="1265.188" y1="1345.752" y2="1345.752" gradientTransform="matrix(.9997 -.02304 .02304 .9997 -796.733 -879.956)" gradientUnits="userSpaceOnUse">
      <stop offset="0" style="stop-color:#58caea"></stop>
      <stop offset="1" style="stop-color:#4c4cbf"></stop>
    </linearGradient>
    <polygon points="499.2 441.5 486.1 441.8 484.3 431.3 497 431.2" style="fill:url(#SVGID_12_)"></polygon>
    <linearGradient id="SVGID_13_" x1="422.107" x2="519.777" y1="916.863" y2="916.863" gradientTransform="translate(0 -518)" gradientUnits="userSpaceOnUse">
      <stop offset="0" style="stop-color:#4c4fc0"></stop>
      <stop offset="1" style="stop-color:#58caea"></stop>
    </linearGradient>
    <polygon points="422.1 387.5 425.7 410.2 519.8 409.9 515.6 387.8" style="fill:url(#SVGID_13_)"></polygon>
    <linearGradient id="SVGID_14_" x1="447.777" x2="455.717" y1="905.281" y2="905.281" gradientTransform="translate(0 -518)" gradientUnits="userSpaceOnUse">
      <stop offset="0" style="stop-color:#4d54c2"></stop>
      <stop offset="1" style="stop-color:#4c4cbf"></stop>
    </linearGradient>
    <polygon points="447.8 382.4 454.9 382.3 455.7 392.3 448.7 392.3" style="fill:url(#SVGID_14_)"></polygon>
    <linearGradient id="SVGID_15_" x1="492.409" x2="499.271" y1="905.39" y2="905.39" gradientTransform="translate(0 -518)" gradientUnits="userSpaceOnUse">
      <stop offset="0" style="stop-color:#4d54c2"></stop>
      <stop offset="1" style="stop-color:#4c4cbf"></stop>
    </linearGradient>
    <polygon points="492.4 382.9 498.6 382.7 499.3 392 493.2 392" style="fill:url(#SVGID_15_)"></polygon>
    <linearGradient id="SVGID_16_" x1="1193.53" x2="1193.53" y1="1374.996" y2="1374.996" gradientTransform="translate(-785.59 -907.73)" gradientUnits="userSpaceOnUse">
      <stop offset="0" style="stop-color:#58caea"></stop>
      <stop offset="1" style="stop-color:#4c4cbf"></stop>
    </linearGradient>
    <path d="M407.9,467.3" style="fill:url(#SVGID_16_)"></path>
  </g>
</svg>
