<svg xmlns="http://www.w3.org/2000/svg" enable-background="new 0 0 3000 3000" viewBox="0 0 3000 3000" id="compassionate-friend">
  <switch>
    <g>
      <path fill="#ededed" d="M1401.833,2834.075c-243.077,0-466.032-57.314-681.615-175.225
							c-147.063-80.949-242.075-259.007-231.156-433.067c6.578-104.856,79.723-276.525,359.279-388.423
							c189.299-75.778,458.776-103.279,729.389-103.279c94.727,0,322.412,18.648,432.392,86.066
							c161.168,98.792,502.518,333.583,507.49,515.017c3.461,126.102-193.46,349.933-301.334,398.58
							c-15.244,6.863-298.235,23.618-393.023,46.683C1676.925,2816.028,1535.136,2834.075,1401.833,2834.075z"></path>
      <path fill="#a2b540" d="M756.609,2578.54c335.457,191.549,669.925,259.161,1045.113,134.885
							c138.485-45.871,259.443-25.946,387.288-45.871c168.999-127.957,299.744-304.637,278.391-414.433
							c-39.796-204.627-316.199-414.994-457.691-499.081c-206.924-122.973-808.744-109.76-1151.108,33.316
							C401.825,1978.246,523.762,2444.768,756.609,2578.54z"></path>
      <path fill="#a7bf44" d="M1415.042,2661.492c88.683,0,181.029,12.431,271.706-2.605
							c88.404-14.659,172.004-55.93,258.533-83.97c86.107-27.904,178.042-43.449,258.615-83.717
							c32.134-16.06,49.236-50.357,72.797-68.588c28.711-22.216,65.862-32.574,81.725-57.874
							c18.161-28.965,9.092-65.653,10.233-98.444c2.249-64.584-9.369-141.047-56.576-210.079
							c-39.869-58.302-107.144-101.905-162.061-152.135c-59.386-54.319-110.103-117.146-164.542-149.497
							c-34.934-20.763-92.189-19.358-153.104-32.434c-45.562-9.781-94.271-37.28-150.445-42.074
							c-48.662-4.153-101.54,13.966-155.814,13.966c-71.858,0-144.825-16.533-214.637-9.421
							c-73.639,7.502-141.704,38.793-208.028,53.356c-75.9,16.666-151.417,18.362-210.476,43.046
							c-52.381,21.891-87.515,66.381-125.757,98.433c-42.376,35.518-91.317,64.43-114.926,110.615
							c-23.684,46.33-18.358,102.785-21.669,157.93c-2.839,47.259-17.277,97.543-4.979,143.401
							c12.629,47.095,50.713,83.445,75.902,121.788c27.791,42.304,48.634,91.44,87.299,113.654
							c61.95,35.375,135.865,46.245,204.922,69.459c66.721,22.429,131.894,58.84,204.795,69.804
							C1267.604,2676.491,1340.838,2661.492,1415.042,2661.492z"></path>
      <path fill="#90a632" d="M1988.39,1781.717c-6.102,6.678-10.669,13.986-14.829,21.593
							c-4.113,7.621-7.648,15.552-11.03,23.578c-3.346,8.043-6.542,16.19-9.629,24.435c-3.089,8.251-6.081,16.57-9.471,24.956
							c0.025-9.057,1.318-18.009,3.307-26.79c2-8.782,4.674-17.438,8.195-25.788c3.503-8.349,7.822-16.432,13.221-23.829
							C1973.525,1792.547,1980.176,1785.672,1988.39,1781.717z"></path>
      <path fill="#90a632" d="M1888.333,1758.792c10.199,4.648,18.961,12.523,25.746,21.652
							c6.907,9.111,11.875,19.472,15.701,29.97c3.812,10.535,6.505,21.277,8.663,32.002c2.254,10.731,4.01,21.355,6.074,32.321
							c-6.442-9.188-10.735-19.624-14.57-29.87c-3.894-10.272-7.177-20.573-10.817-30.59c-3.615-10.029-7.578-19.767-12.467-29.078
							C1901.711,1775.912,1895.695,1767.216,1888.333,1758.792z"></path>
      <path fill="#90a632" d="M1960.267,1690.993c-3.337,15.277-6.011,30.625-7.765,46.08
							c-1.864,15.431-3.092,30.911-3.79,46.39c-0.673,15.504,0.461,30.986-0.524,46.417c-0.293,3.864-0.48,7.732-0.674,11.606
							l-0.86,11.649c-0.657,7.789-1.307,15.602-2.672,23.543l-1.335,0.107c-2.464-7.655-4.197-15.439-5.405-23.277
							c-1.275-7.835-2.036-15.728-2.446-23.633c-0.979-15.835,1.384-31.621,3.238-47.283c1.834-15.686,4.427-31.271,7.869-46.655
							c3.564-15.352,7.668-30.579,13.079-45.325L1960.267,1690.993z"></path>
      <path fill="#d6cf41" d="M2183.407,2122.013c8.214,3.956,14.865,10.831,20.237,18.156
							c5.399,7.397,9.718,15.479,13.221,23.829c3.521,8.35,6.195,17.006,8.195,25.788c1.989,8.781,3.283,17.733,3.308,26.79
							c-3.391-8.386-6.382-16.705-9.471-24.956c-3.087-8.246-6.283-16.393-9.629-24.436c-3.382-8.026-6.917-15.957-11.03-23.578
							C2194.076,2135.999,2189.509,2128.691,2183.407,2122.013z"></path>
      <path fill="#d6cf41" d="M2283.464,2099.088c-7.362,8.424-13.378,17.12-18.33,26.407
							c-4.888,9.311-8.852,19.049-12.467,29.078c-3.64,10.016-6.923,20.318-10.816,30.59c-3.834,10.246-8.127,20.682-14.57,29.87
							c2.063-10.967,3.82-21.591,6.074-32.322c2.159-10.725,4.851-21.467,8.663-32.002c3.827-10.497,8.794-20.859,15.701-29.969
							C2264.503,2111.612,2273.265,2103.736,2283.464,2099.088z"></path>
      <path fill="#d6cf41" d="M2212.814,2030.91c5.411,14.746,9.515,29.972,13.079,45.325
							c3.442,15.384,6.036,30.969,7.869,46.654c1.854,15.662,4.217,31.448,3.238,47.283c-0.41,7.905-1.171,15.798-2.446,23.633
							c-1.209,7.838-2.942,15.622-5.406,23.277l-1.335-0.107c-1.364-7.941-2.015-15.754-2.671-23.543l-0.86-11.649
							c-0.194-3.874-0.382-7.742-0.674-11.606c-0.985-15.431,0.149-30.914-0.524-46.417c-0.698-15.479-1.926-30.959-3.79-46.39
							c-1.754-15.456-4.428-30.803-7.764-46.08L2212.814,2030.91z"></path>
      <g>
        <path fill="#cf953f" d="M1189.167,2499.027c8.496,4.091,15.376,11.203,20.932,18.78
							c5.585,7.651,10.052,16.011,13.675,24.647c3.643,8.637,6.408,17.59,8.477,26.674c2.057,9.083,3.395,18.342,3.421,27.71
							c-3.507-8.674-6.601-17.279-9.797-25.814c-3.193-8.529-6.499-16.956-9.96-25.275c-3.499-8.301-7.155-16.505-11.409-24.388
							C1200.202,2513.494,1195.478,2505.935,1189.167,2499.027z"></path>
        <path fill="#cf953f" d="M1292.661,2475.315c-7.602,8.722-13.869,17.689-18.93,27.334
							c-5.117,9.592-9.173,19.692-12.926,30.057c-3.75,10.365-7.194,21.007-11.154,31.651c-4.033,10.578-8.425,21.387-15.104,30.887
							c2.12-11.348,3.984-22.323,6.249-33.442c2.3-11.074,5.036-22.198,8.995-33.091c3.944-10.867,9.126-21.556,16.209-31.019
							C1273.079,2488.288,1282.098,2480.114,1292.661,2475.315z"></path>
        <path fill="#cf953f" d="M1219.584,2404.795c5.597,15.253,9.842,31.002,13.529,46.882
							c3.56,15.912,6.243,32.033,8.139,48.257c1.918,16.2,4.362,32.528,3.349,48.907c-0.337,8.177-1.263,16.339-2.53,24.444
							c-1.25,8.107-3.043,16.158-5.591,24.076l-1.381-0.111c-1.411-8.214-2.084-16.295-2.763-24.352l-0.89-12.049l-0.698-12.005
							c-1.018-15.961,0.154-31.975-0.542-48.012c-0.722-16.01-1.992-32.022-3.92-47.983c-1.814-15.987-4.58-31.862-8.031-47.663
							L1219.584,2404.795z"></path>
      </g>
      <g>
        <path fill="#7fb327" d="M823.607,1744.534c9.791,4.715,17.721,12.912,24.125,21.645
							c6.437,8.819,11.586,18.454,15.762,28.407c4.198,9.955,7.386,20.273,9.77,30.743c2.371,10.469,3.913,21.141,3.943,31.938
							c-4.042-9.998-7.608-19.915-11.291-29.752c-3.68-9.83-7.491-19.542-11.479-29.131c-4.032-9.568-8.247-19.023-13.15-28.109
							C836.325,1761.208,830.881,1752.495,823.607,1744.534z"></path>
        <path fill="#7fb327" d="M942.889,1717.204c-8.776,10.041-15.96,20.406-21.817,31.504
							c-5.898,11.055-10.572,22.696-14.898,34.642c-4.322,11.947-8.292,24.212-12.856,36.48c-4.622,12.2-9.727,24.645-17.408,35.598
							c2.459-13.074,4.566-25.736,7.202-38.543c2.651-12.763,5.805-25.585,10.366-38.14c4.546-12.525,10.519-24.845,18.682-35.751
							C920.296,1732.138,930.73,1722.747,942.889,1717.204z"></path>
        <path fill="#7fb327" d="M858.664,1635.925c6.451,17.579,11.344,35.732,15.592,54.034
							c2.029,9.173,3.808,18.404,5.429,27.673c1.503,9.282,2.822,18.6,3.952,27.947c1.079,9.349,2.311,18.706,3.216,28.104
							c0.873,9.396,1.152,18.84,0.644,28.265c-0.222,4.713-0.53,9.421-1.074,14.118c-0.587,4.695-0.946,9.39-1.841,14.056
							c-1.441,9.344-3.507,18.623-6.444,27.749l-1.592-0.128c-1.626-9.467-2.402-18.781-3.185-28.066l-1.025-13.888l-0.804-13.836
							c-0.416-9.212-0.624-18.407-0.471-27.632c0.184-9.227,0.232-18.474-0.153-27.705c-0.4-9.229-0.987-18.453-1.758-27.67
							c-0.731-9.221-1.619-18.439-2.761-27.633c-2.091-18.426-5.279-36.723-9.257-54.935L858.664,1635.925z"></path>
      </g>
      <g>
        <ellipse cx="1171.886" cy="2186.775" fill="#e6e6e6" rx="301.101" ry="174.405" transform="rotate(-10.841 1171.617 2186.349)"></ellipse>
      </g>
      <g>
        <path fill="#858585" d="M1324.002,696.358c-2.617-9.65-5.164-20.142-9.955-33.083
										c-7.56-24.634,62.219-46.415,81.836-30.245c5.855,9.504,14.261,19.458,22.714,32.123
										C1423.472,672.456,1326.246,704.634,1324.002,696.358z"></path>
        <path fill="#d4b098" d="M1324.023,665.79c16.681,21.63,40.198,62.049,40.198,62.049l62.853-28.882
										c0,0-14.72-48.82-46.355-65.589C1310.024,595.895,1320.49,661.21,1324.023,665.79z"></path>
        <path fill="#226964" d="M1321.257,685.625c-2.564-6.383,77.702-18.359,77.701-39.127
										c17.519,28.438,77.759,97.908,102.092,139.471c8.111,13.854-10.915,93.219-38.98,94.574
										C1448.542,881.196,1330.413,708.422,1321.257,685.625z"></path>
        <path fill="#fff" d="M1331.973,717.129c-8.443-11.666-10.54-25.878-13.496-46.749
										c18.991,29.295,81.838-6.567,81.836-30.245c7.211,11.706,19.651,23.358,28.567,41.391
										C1437.432,698.826,1349.437,741.26,1331.973,717.129z"></path>
        <path fill="#1f5e5a" d="M1699.55,671.51c37.81-7.767,76.241,83.868,50.73,108.947
							c-12.4,12.19-270.845,110.051-289.78,100.135c-23.207-12.153-7.183-59.761,29.045-97.78
							C1493.651,778.503,1676.793,676.185,1699.55,671.51z"></path>
        <g>
          <ellipse cx="1763.631" cy="2161.021" fill="#e6e6e6" rx="301.101" ry="174.405" transform="rotate(-10.841 1763.247 2160.614)"></ellipse>
        </g>
        <g>
          <path d="M1725.411,2122.767c-15.051,10.04-74.382,9.278-74.382,9.278l-16.026-20.69L1725.411,2122.767z"></path>
          <polygon fill="#636363" points="1695.873 2144.589 1680.341 2137.288 1686.517 2128.404 1701.21 2132.706"></polygon>
          <path fill="#fff" d="M1695.731,2144.631c0,0,52.489-28.085,60.889-44.147
														c1.975-3.776-0.839-28.609-0.839-28.609l-65.162,50.451L1695.731,2144.631z"></path>
          <path fill="#fff" d="M1513.213,2167.825c-1.108-19.41,34.408-32.278,71.81-55.8
														c22.047-13.865,37.447-38.792,60.091-50.293c61.06-31.013,86.502-61.543,104.202-26.107
														c17.699,35.435,7.953,62.449-53.107,93.462c-27.526,13.981-50.55,45.955-85.235,60.185
														C1573.818,2204.515,1514.435,2189.246,1513.213,2167.825z"></path>
          <path fill="#424242" d="M1512.33,2163.149c-8.709-16.474,30.865-34,72.676-59.153
														c21.036-12.655,53.874-41.239,62.607-60.371c28.437-62.302,83.121-48.113,100.821-12.677
														c17.699,35.435,7.209,60.594-53.851,91.607c-27.526,13.981-55.97,48.706-91.212,61.466
														C1570.509,2195.919,1522.629,2182.63,1512.33,2163.149z"></path>
          <path fill="#316ab0" d="M1638.755,2050.089c0.745,13.097,9.13-8.054,24.678,1.039
													c37.709,22.052,86.032,23.769,88.486-15.517c-18.739-144.125,0.073-243.528-22.944-313.643l123.814-434l-209.689-33.854
													c0,0-38.779,388.973-36.925,447.727C1608.693,1781.629,1629.69,1890.759,1638.755,2050.089z"></path>
          <g>
            <path fill="#636363" d="M1850.298,2158.427c2.057-4.098,0.943-57.17,0.943-57.17s87.745-45.266,95.765,40.406
														c1.456,15.554-11.809,25.915-22.973,40.586C1916.482,2180.617,1850.298,2158.427,1850.298,2158.427z"></path>
            <path fill="#fff" d="M1919.368,2100.233c12.322,7.114,29.022,16.384,31.454,42.359
														c1.456,15.555-15.626,24.987-26.79,39.658c-0.049-0.034-0.134-0.079-0.19-0.115L1919.368,2100.233z"></path>
            <path fill="#fff" d="M1794.708,2256.263c7.446,15.865,73.734,20.625,105.506-13.707
															c12.073-13.045,9.697-34.072,17.267-57.397c14.452-44.529,34.598-36.156,32.422-59.406
															c-8.02-85.672-94.986-42.754-94.986-42.754s-12.289,49.166-32.36,96.831
															C1806.048,2219.031,1784.793,2235.138,1794.708,2256.263z"></path>
            <path fill="#424242" d="M1797.239,2254.261c20.384,10.81,75.732,5.843,102.362-22.931
															c12.073-13.046,9.697-34.072,17.267-57.397c14.452-44.529,34.598-36.156,32.422-59.406
															c-8.02-85.672-94.986-42.754-94.986-42.754s-12.29,49.166-32.36,96.831
															C1805.435,2207.805,1778.038,2244.079,1797.239,2254.261z"></path>
            <path fill="#3a79c7" d="M1848.796,2089.551c-12.026-156.98-22.995-195.946-34.941-332.581
															c-14.728-168.453-70.662-431.717-62.078-450.967c16.696-37.44,199.356-32.377,208.43,5.533
															c18.937,79.12-32.034,275.01-18.992,455.213c14.196,125.875,3.523,285.658,2.561,324.818
															C1919.533,2116.222,1889.458,2076.224,1848.796,2089.551z"></path>
          </g>
          <g>
            <path fill="#ccc" d="M1896.208,695.264h-156.861v-27.701c49.673-24.914,97.875-33.857,145.895-14.658
																		c3.422,1.368,7.211,5.684,10.632,7.343C1901.053,673.523,1902.6,691.02,1896.208,695.264z"></path>
            <path fill="#f0c7ad" d="M1938.68,1190.307l15.556-434.867c-18.398-14.982-14.154-53.871-35.832-62.705
																		c-53.938-21.983-125.52-28.3-181.694-25.741c-18.317,0.834-36.993,40.086-55.052,52.614l-9.629,470.699H1938.68z"></path>
            <path fill="#226964" d="M1634.951,1243.953c9.585-33.157,29.054-65.113,30.157-104.808
																		c1.694-60.927-1.969-129.548-4.625-187.311c-3.245-70.568-22.695-133.758-16.948-171.676
																		c3.541-23.372,20.177-95.117,90.836-107.182c-3.503,4.493-6.338,10.072-8.491,16.721
																		c-16.663,51.479,13.842,157.293,30.389,175.509l4.856,5.345l4.001-6.011c8.683-13.044,48.345-53.643,83.337-89.461
																		c46.899-48.007,65.385-67.529,71.866-76.711c23.496,8.626,56.823,30.276,69.912,39.971
																		c41.814,30.972-52.68,331.615-57.148,348.228c-15.875,59.052,4.314,153.953-3.831,205.5
																		C1915.714,1377.813,1616.118,1309.103,1634.951,1243.953z"></path>
            <path fill="#226964" d="M1987.424,726.649c-15.112-11.194-47.447-27.743-69.621-35.135
																		c-1.335,10.346-152.926,229.626-171.037,256.831l-27.625,297.885c0,0-22.048,99.359-6.73,109.061
																		c56.314,35.665,264.873,0.035,253.773-58.384c-10.39-54.681-23.994-155.826-16.848-222.521
																		c5.942-55.46,29.939-103.025,52.612-192.583C2015.593,827.911,2032.096,759.738,1987.424,726.649z"></path>
            <path fill="#226964" d="M1718.673,724.627c4.432-33.137,20.101-55.385,37.335-59.01
																		c-80.955-0.236-110.761,65.649-118.041,113.699c-10.715,70.722,29.442,270.031,15.579,357.518
																		c-5.693,35.925-12.733,91.222-27.75,115.624c2.088,41.635,84.837,125.468,108.265,102.833
																		c26.418-25.523-13.042-110.938-13.042-110.938l25.748-296.008C1732.689,932.849,1708.167,803.173,1718.673,724.627
																		z"></path>
            <path fill="#e3e3e3" d="M1730.394,675.348c0,0,12.388-12.958,21.916-17.127
																		c17.39-7.608,53.385-12.227,53.385-12.227l0.608,27.685L1730.394,675.348z"></path>
            <path fill="#d9b49c" d="M1763.958,526.201l-16.214,134.177c0,0,0.746,54.453,42.024,60.609
																		c42.861,6.392,104.512-24.309,105.49-36.21c-35.043-15.019-13.077-154.671-13.077-154.671L1763.958,526.201z"></path>
            <path fill="#fff" d="M1726.741 734.842c-5.576-14.003-47.98 3.351-51.843 5.108-3.362-33.62 47.223-71.233 59.235-77.225 12.988-6.479 28.339-4.108 28.339-4.108C1740.062 667.923 1730.118 691.248 1726.741 734.842zM1921.275 760.532c-8.212-11.497-51.077-19.51-65.864-14.202 32.99-34.187 42.541-77.488 29.859-93.507 14.212 4.53 39.084 38.403 39.627 48.723C1925.932 721.208 1921.275 760.532 1921.275 760.532z"></path>
            <path fill="#fff" d="M1885.812,742.516c-45.123,39.258-88.094,90.722-125.344,128.025
																		c29.984-36.871,56.966-87.839,95.612-124.497C1861.51,743.533,1877.834,740.874,1885.812,742.516z"></path>
            <path fill="#fff" d="M1706.384,725.559c8.33,61.775,23.008,105.357,55.354,147.269
																		c-19.863-41.497-30.186-84.196-35.163-139.519C1723.175,728.387,1714.089,728.199,1706.384,725.559z"></path>
          </g>
        </g>
        <g>
          <path fill="#1f5e5a" d="M1917.119,868.83c-6.708-48.298,8.742-101.428,59.011-115.673
								c42.874-12.149,47.424,47.537,55.656,91.332c15.957,84.895,24.536,237.322,16.415,281.127
								c-3.638,19.627-63.967,25.023-89.335-20.96C1955.991,1099.444,1927.882,946.329,1917.119,868.83z"></path>
          <path fill="#f0c7ad" d="M1879.626,1391.456c7.686-27.373,24.262-67.962,24.262-67.962l71.249,16.75
								c0,0-36.899,56.951-40.486,76.374C1934.537,1417.234,1878.062,1397.025,1879.626,1391.456z"></path>
          <path fill="#bfbfbf" d="M1898.779,1283.961c-7.266,12.433-12.293,23.524-13.202,44.584
								c2.516,9.615,71.628,46.207,88.717,25.388c6.037-12.353,17.281-25.162,24.399-43.978
								C1994.323,1277.344,1922.26,1255.482,1898.779,1283.961z"></path>
          <path fill="#1f5e5a" d="M1892.601,1331.253c-1.275,6.76,76.828,3.665,80.86,24.038
								c15.55-41.732,77.242-210.293,74.74-229.168c-3.386-25.552-68.851-53.7-90.709-25.377
								C1949.218,1111.468,1897.154,1307.112,1892.601,1331.253z"></path>
          <path fill="#f7f7f7" d="M1898.779,1283.962c-7.266,12.433-12.293,23.523-13.202,44.583
								c2.516,9.615,71.628,46.207,88.717,25.388c6.037-12.353,17.281-25.161,24.399-43.978
								C1964.895,1334.765,1903.168,1303.183,1898.779,1283.962z"></path>
        </g>
        <g>
          <path fill="#f0c7ad" d="M1937.826,559.779c-13.799,38.877-39.462,67.407-74.485,89.657
								c-30.792,19.563-68.361,38.033-93.727,31.239c-56.727-15.193-31.19-32.986-36.193-59.211
								c-6.329-33.171-6.338-75.585,8.144-116.386c10.757-30.307,27.9-65.163,51.967-80.319
								c33.948-21.38,87.838-18.353,116.679-2.64C1959.911,449.195,1963.757,486.72,1937.826,559.779z"></path>
          <path fill="#5e4637" d="M1788.889,392.744c-9.079,3.926-5.157,15.358-8.87,26.609
							c-4.033,12.219-12.851,23.232-14.472,35.663c8.922-7.445,22.525-26.237,30.659-16.413c6.145,7.422,5.808,8.828,18.831,14.434
							c23.217,6.105,39.64-8.866,67.936,7.411c25.031,14.399,39.558,54.274,8.365,82.034c0.489,10.109-0.495,22.439,2.714,40.15
							c6.692-11.316,15.915-17.967,21.573-15.106c6.198,3.135,5.76,16.48-0.979,29.808c-4.562,9.023-12.481,14.718-17.985,17.134
							c0.842,11.003-12.096,16.522-13.015,20.598c28.428-16.411,44.97-39.763,51.621-60.929
							c16.195-51.537,29.613-98.14,10.032-129.914C1922.061,406.512,1814.171,381.811,1788.889,392.744z"></path>
        </g>
      </g>
      <g>
        <path d="M1179.117,2145.891c-15.308,10.212-75.654,9.436-75.654,9.436l-16.301-21.044L1179.117,2145.891z"></path>
        <polygon points="1149.074 2168.086 1133.277 2160.659 1139.558 2151.624 1154.503 2155.999"></polygon>
        <path fill="#3d2f24" d="M1148.93,2168.128c0,0,53.386-28.565,61.93-44.902c2.008-3.84-0.854-29.098-0.854-29.098
								l-66.276,51.314L1148.93,2168.128z"></path>
        <path fill="#3d2f24" d="M963.29,2191.719c-1.127-19.742,34.996-32.83,73.038-56.755
								c22.424-14.102,38.087-39.456,61.119-51.154c62.105-31.543,87.982-62.595,105.984-26.553
								c18.002,36.041,8.09,63.517-54.015,95.06c-27.997,14.22-51.414,46.74-86.693,61.215
								C1024.932,2229.036,964.534,2213.507,963.29,2191.719z"></path>
        <path fill="#78552b" d="M962.392,2186.963c-8.859-16.756,31.393-34.581,73.919-60.164
								c21.396-12.871,54.795-41.944,63.677-61.404c28.923-63.367,84.543-48.935,102.545-12.894
								c18.002,36.042,7.333,61.63-54.772,93.173c-27.997,14.22-56.928,49.539-92.772,62.517
								C1021.566,2220.294,972.867,2206.777,962.392,2186.963z"></path>
        <path fill="#404040" d="M1090.98,2071.97c0.758,13.322,9.286-8.192,25.1,1.056
							c38.354,22.43,87.503,24.176,89.999-15.782c-19.06-146.589,0.074-247.693-23.336-319.007l125.932-441.423l-213.275-34.433
							c0,0-39.442,395.625-37.557,455.384C1060.403,1798.918,1081.759,1909.915,1090.98,2071.97z"></path>
        <path d="M1295.427,2178.962c2.093-4.167,0.959-58.147,0.959-58.147s89.245-46.04,97.402,41.097
								c1.481,15.821-12.011,26.359-23.366,41.28C1362.743,2201.532,1295.427,2178.962,1295.427,2178.962z"></path>
        <path fill="#3d2f24" d="M1365.679,2119.773c12.532,7.235,29.519,16.664,31.992,43.083
								c1.481,15.821-15.893,25.414-27.248,40.336c-0.05-0.034-0.136-0.081-0.193-0.117L1365.679,2119.773z"></path>
        <path fill="#3d2f24" d="M1238.886,2278.471c7.573,16.135,74.995,20.977,107.31-13.941
									c12.279-13.269,9.863-34.655,17.562-58.378c14.699-45.291,35.19-36.774,32.976-60.422
									c-8.157-87.137-96.61-43.486-96.61-43.486s-12.5,50.007-32.914,98.487
									C1250.421,2240.603,1228.802,2256.985,1238.886,2278.471z"></path>
        <path fill="#78552b" d="M1241.46,2276.436c20.733,10.995,77.028,5.943,104.113-23.323
									c12.279-13.269,9.863-34.655,17.562-58.378c14.699-45.291,35.19-36.774,32.976-60.423
									c-8.157-87.137-96.61-43.486-96.61-43.486s-12.5,50.007-32.914,98.487
									C1249.797,2229.185,1221.931,2266.079,1241.46,2276.436z"></path>
        <path fill="#4d4d4d" d="M1293.899,2108.908c-12.232-159.665-23.388-199.297-35.538-338.269
									c-14.98-171.334-71.87-439.1-63.139-458.679c16.981-38.08,202.765-32.931,211.994,5.628
									c19.261,80.473-32.582,279.713-19.317,462.998c14.439,128.027,3.583,290.544,2.605,330.373
									C1365.847,2136.035,1335.256,2095.354,1293.899,2108.908z"></path>
        <path fill="#deb8a0" d="M923.921,576.057c-5.498,13.036,0.252,22.68-1.723,39.943
						c-1.544,13.496-3.452,19.555-3.452,34.932c0,11.252,32.546,41.482,39.203,30.407c6.178-10.106,21.385-14.874,30.326-19.013
						c9.78-4.527,28.985-69.403,19.185-99.021C999.463,539.136,935.456,548.707,923.921,576.057z"></path>
        <path fill="#575757" d="M1031.363,776.907c3.647,47.411,78.749,19.627,187.179,19.627
						c108.431,0,210.941-6.714,209.041-54.227c-1.507-37.679-100.61-117.971-209.041-117.971
						C1110.112,624.337,1026.231,710.182,1031.363,776.907z"></path>
        <path fill="#d6d6d6" d="M1008.476,829.999c14.001-53.251,56.241-177.2,127.291-147.904
						c58.48,24.112,30.152,86.206,6.845,145.011c-22.571,56.948-76.348,215.068-127.217,246.523
						c-19.846,12.272-48.04-34.617-49.075-54.738C965.751,1007.831,979.781,939.138,1008.476,829.999z"></path>
        <path fill="#d6d6d6" d="M1265.357,668.09l-162.604,26.315l-4.647-28.715c47.712-34.448,96.597-51.807,150.121-39.364
						C1251.561,627.101,1271.271,662.618,1265.357,668.09z"></path>
        <path fill="#deb79f" d="M1353.561,1174.357l-17.956-453.622c-21.585-12.444-23.71-53.469-47.663-58.99
						c-59.6-13.739-134.864-8.279-192.665,3.797c-18.847,3.938-31.622,47.76-48.241,63.776l76.052,441.145L1353.561,1174.357z"></path>
        <path fill="#ededed" d="M1117.982,1248.713c4.374-35.979,15.412-42.155,9.897-83.488
						c-8.465-63.442-42.381-134.486-54.824-193.918c-15.202-72.607-30.641-132.93-31.045-173.2
						c-0.25-24.822-19.375-101.61,51.846-125.971c-2.878,5.245-4.88,11.504-5.997,18.757c-8.637,56.16,40.736,160.73,60.945,176.837
						l5.93,4.727l3.139-6.902c6.813-14.979,41.116-63.718,71.381-106.717c40.562-57.632,56.45-80.971,61.628-91.575
						c25.803,5,72.413,19.365,87.607,27.22c48.541,25.092,49.031,94.571,53.344,152.438c4.383,58.841-4.51,116.224-14.256,166.181
						c-4.766,24.429-27.839,48.917-29.684,66.889c-6.55,63.878-6.412,148.698-6.207,203.498
						C1382.025,1374.645,1109.388,1319.407,1117.982,1248.713z"></path>
        <path fill="#e3bc3d" d="M1381.203,689.23c-17.543-9.068-69.863-24.708-94.089-28.65
						c0.352,10.949-120.003,263.687-134.214,294.928l36.573,387.894c0,0,14.287,35.807,47.383,45.415
						c107.138,31.104,189.371-35.532,168.064-94.228c-19.943-54.94-18.903-110.231-11.716-180.301
						c5.704-55.613,60.273-182.669,53.756-270.158C1442.624,785.914,1433.061,716.038,1381.203,689.23z"></path>
        <path fill="#b5882d" d="M1356.722,1299.753c-19.943-54.94-18.903-110.231-11.716-180.301
						c5.704-55.613,60.273-182.669,53.756-270.158c-4.337-58.216-7.769-125.127-49.678-165.766
						c-19.017-18.44-99.524-57.048-99.524-57.048c95.611,12.957,176.662,81.78,178.024,115.826c0.014,0.347-0.032,0.671-0.029,1.014
						c12.746,30.633,16.933,67.612,19.406,100.81c6.517,87.488-48.052,214.545-53.756,270.158
						c-7.186,70.07-8.227,125.361,11.716,180.3c18.175,50.068-38.638,104.376-122.814,102.208
						C1338.163,1382.491,1371.14,1339.472,1356.722,1299.753z"></path>
        <path fill="#e3bc3d" d="M1086.247,728.311c-0.965-35.094,11.546-60.785,28.803-67.434
						c-83.958,13.336-82.991,86.203-82.477,137.234c0.756,75.109,72.68,294.956,75.738,345.838
						c2.291,38.126-17.724,117.773-12.74,147.679c53.405-9.536,98.221,55.007,98.221,55.007L1152.9,955.508
						C1135.708,941.805,1088.534,811.495,1086.247,728.311z"></path>
        <path fill="#e3e3e3" d="M1090.131,675.262c0,0,10.667-15.511,19.845-21.431c16.751-10.804,53.288-21.63,53.288-21.63
						l5.275,28.596L1090.131,675.262z"></path>
        <path fill="#fff" d="M1096.324,737.547c-8.129-13.58-49.174,11.523-52.884,13.992
						c-9.125-34.287,37.003-81.763,48.448-89.99c12.377-8.895,28.687-9.013,28.687-9.013
						C1098.908,665.942,1092.513,691.789,1096.324,737.547z"></path>
        <path fill="#d4b098" d="M1048.302,596.538l65.416,125.949c0,0,32.9,46.775,72.339,27.663
							c40.951-19.845,76.224-82.983,70.023-93.881c-39.282,7.734-102.954-126.371-102.954-126.371L1048.302,596.538z"></path>
        <path fill="#fff" d="M1302.291,731.543c-10.442-10.541-56.22-11.656-70.658-3.673
						c28.462-40.973,31.099-87.461,15.265-101.94c15.492,2.312,46.958,33.252,49.252,43.859
						C1300.522,689.998,1302.291,731.543,1302.291,731.543z"></path>
        <path fill="#fff" d="M1262.507,718.817c-40.189,48.265-76.1,108.822-108.456,153.74
						c24.897-43.25,44.316-100.611,78.227-145.095C1237.486,723.947,1253.961,718.452,1262.507,718.817z"></path>
        <path fill="#fff" d="M1073.665,731.339c18.998,62.64,41.524,105.354,82.086,143.375
						c-27.552-39.685-45.416-82.215-59.856-138.728C1091.545,731.453,1082.096,732.783,1073.665,731.339z"></path>
        <path fill="#ab9384" d="M1152.463,960.268l25.39,91.015c8.512,30.273,16.968,60.591,23.911,91.101
							c0.922,3.81,1.603,7.638,2.352,11.461l1.157,5.728l0.866,5.722c1.426,7.617,1.413,15.27,1.639,23.083
							c0.097,15.605-0.561,31.32-1.46,47.006c-1.718,31.395-4.145,62.8-6.69,94.212c4.917-31.135,8.94-62.409,11.889-93.834
							c1.37-15.724,2.576-31.472,2.838-47.368c0.441-15.965-1.958-32.185-5.293-47.578c-6.558-31.032-15.544-61.301-24.963-91.401
							C1174.54,1019.357,1164.033,989.615,1152.463,960.268z"></path>
        <g>
          <path fill="#4a3d35" d="M1138.498,998.007c5.472,2.079,10.652,8.433,11.573,14.222
								c0.914,5.753-2.783,8.733-8.255,6.654c-5.471-2.079-10.652-8.433-11.567-14.186
								C1129.329,998.908,1133.027,995.927,1138.498,998.007z"></path>
          <path fill="#a8a8a8" d="M1134.956,999.584c2.492,1.652,4.723,3.391,6.677,5.499c2.062,2.001,3.744,4.302,5.526,6.708
								c-0.628-2.971-2.386-5.563-4.426-7.781C1140.573,1001.925,1137.97,1000.067,1134.956,999.584z"></path>
        </g>
        <g>
          <path fill="#4a3d35" d="M1172.252,1100.27c5.471,2.079,10.652,8.433,11.572,14.222
								c0.914,5.753-2.783,8.733-8.255,6.654c-5.472-2.079-10.652-8.433-11.567-14.186
								C1163.083,1101.171,1166.78,1098.19,1172.252,1100.27z"></path>
          <path fill="#a8a8a8" d="M1168.709,1101.847c2.491,1.651,4.723,3.391,6.677,5.499c2.062,2.001,3.744,4.302,5.526,6.708
								c-0.628-2.972-2.386-5.563-4.426-7.781C1174.326,1104.189,1171.723,1102.33,1168.709,1101.847z"></path>
        </g>
        <g>
          <path fill="#4a3d35" d="M1187.607,1186.697c5.471,2.079,10.652,8.433,11.572,14.222
								c0.914,5.753-2.783,8.733-8.255,6.654c-5.471-2.079-10.652-8.433-11.566-14.186
								C1178.438,1187.598,1182.135,1184.617,1187.607,1186.697z"></path>
          <path fill="#a8a8a8" d="M1184.064,1188.274c2.492,1.652,4.723,3.391,6.677,5.499c2.062,2.001,3.744,4.302,5.526,6.708
								c-0.628-2.972-2.386-5.563-4.426-7.781C1189.681,1190.616,1187.078,1188.757,1184.064,1188.274z"></path>
        </g>
        <g>
          <path fill="#4a3d35" d="M1177.099,1285.377c5.471,2.079,10.652,8.433,11.572,14.222
								c0.914,5.753-2.783,8.733-8.255,6.654c-5.472-2.079-10.652-8.433-11.566-14.186
								C1167.93,1286.278,1171.627,1283.297,1177.099,1285.377z"></path>
          <path fill="#a8a8a8" d="M1173.556,1286.954c2.492,1.651,4.723,3.391,6.677,5.499c2.062,2.001,3.744,4.302,5.526,6.708
								c-0.628-2.972-2.386-5.563-4.426-7.781C1179.173,1289.296,1176.57,1287.437,1173.556,1286.954z"></path>
        </g>
        <path fill="#f0c7ad" d="M1203.933,590.481c-1.437,29.463,12.36,61.071-12.947,104.374
						c-12.455,21.312-5.858,62.959-33.285,77.979c-34.313,18.79-48.325-4.097-83.626-10.353
						c-75.859-13.443-119.269-84.909-121.015-172c-1.032-51.48,57.122-114.611,126.399-114.611
						C1148.735,475.871,1208.177,503.486,1203.933,590.481z"></path>
        <g>
          <path fill="#dbdbdb" d="M911.006,774.903c3.749,54.242,22.626,128.166,27.371,137.399
								c13.292,25.866,21.133,40.432,50.85,37.534c34.393-3.354,42.756-38.355,36.313-72.305
								c-12.49-65.811-5.239-74.652-19.23-106.24C983.679,746.985,924.39,757.515,911.006,774.903z"></path>
          <polygon fill="#deb8a0" points="977.309 641.939 1013.363 868.796 940.174 870.846 918.669 650.904"></polygon>
          <path fill="#f5f5f5" d="M911.258,773.353c3.749,54.242,44.081,272.228,79.599,296.5
									c35.011,23.926,47.896-43.145,40.346-130.915c-3.169-36.842-17.575-120.248-22.299-153.514
									C971.026,824.319,914.38,808.634,911.258,773.353z"></path>
          <path fill="#fff" d="M913.939,823.229c23.55,24.468,86.097,19.269,104.753-7.952
							c-0.83-9.603-8.564-33.49-12.708-44.381c-37.667,39.505-94.982,22.648-94.798,3.397
							C909.657,779.645,909.504,810.23,913.939,823.229z"></path>
        </g>
        <path fill="#e3e3e3" d="M1255.647,1067.196c13.242-81.493,14.369-89.123,38.498-199.362
						c11.773-53.787,61.893-191.165,114.059-134.73c30.87,33.396,34.422,81.551,19.832,143.102
						c-28.282,119.313-76.353,291.4-135.407,313.019C1266.19,1198.904,1240.506,1160.378,1255.647,1067.196z"></path>
        <path fill="#734d35" d="M1078.496,457.637c-52.816-0.472-127.637,66.166-129.499,131.685
						c-0.611,21.498-7.226,39.434-3.818,57.788c6.696,36.056-0.287,72.504,51.644,77.308
						c103.188,9.546,163.978-51.747,175.533-103.494c7.022-31.449,35.637-15.847,35.637-31.602
						C1207.995,499.393,1129.732,458.095,1078.496,457.637z"></path>
        <g>
          <path fill="#e6bfa5" d="M1142.729,687.171l49.814,10.319c0,0-4.429-38.161-6.718-50.142
								c-2.391-12.516-11.018-14.878-14.727-34.224c-1.867-9.74-10.672-11.984-15.659-5.939c-7.062,8.559,3.37,47.269,3.37,47.269
								L1142.729,687.171z"></path>
          <path fill="#fcd2b6" d="M1074.064,653.154c-0.156-22.25,11.358-58.899,33.604-59.348
								c25.778-0.521,58.39,53.456,76.096,83.047c11.563,19.326,24.012,65.33,26.007,95.292
								c-17.546,13.701-40.099,7.875-58.445,19.528c-11.99-22.903-22.63-25.793-45.509-44.37
								c-13.802-11.206-10.423-29.368-18.979-45.77C1077.455,683.548,1074.19,671.132,1074.064,653.154z"></path>
          <g>
            <path fill="#dbdbdb" d="M1238.265,797.829c7.286,17.409,11.488,38.556,20.264,58.138
									c-12.026-17.506-97.108,33.965-109.572,46.165c-2.994-20.146-11.564-39.527-14.743-49.288
									C1126.081,807.577,1226.456,773.923,1238.265,797.829z"></path>
            <polygon fill="#fcd2b6" points="1137.231 741.456 1174.757 876.387 1247.21 849.429 1197.955 717.049"></polygon>
            <path fill="#f2f2f2" d="M1241.742,823.561c26.506,63.329,53.442,125.028,59.576,150.592
									c48.219,200.941-16.256,240.109-37.599,202.054c-28.36-50.568-107.622-264.461-109.734-308.031
									C1183.521,869.789,1237.308,848.817,1241.742,823.561z"></path>
            <path fill="#d6d6d6" d="M1094.289,599.499c-3.742,3.201-6.703,7.234-9.142,11.518
									c-4.729,8.689-7.622,18.292-9.215,28.031c-1.594,9.745-1.346,19.729,0.122,29.469c1.517,9.743,5.018,19.035,9.451,27.852
									c2.219,4.328,4.696,8.911,6.151,13.764c1.561,4.819,2.547,9.741,3.725,14.531c1.159,4.787,2.512,9.5,4.88,13.612
									c1.115,2.098,2.616,3.92,4.196,5.644c1.658,1.598,3.572,3.12,5.558,4.64c7.788,6.108,16.018,11.588,23.815,18.055
									c7.871,6.443,14.106,14.862,18.756,23.776l0.09,0.172l0.048,0.173l23.545,85.229l-2.059-1.05l72.54-26.724l-0.776,1.697
									l-44.11-119.548l-0.021-0.057l-0.013-0.055c-2.812-11.706-6.151-23.306-10.353-34.575l-0.037-0.098l-0.014-0.11
									l-4.234-32.677c-0.746-5.43-1.316-10.935-2.206-16.306c-1.052-5.336-4.259-9.839-7.185-14.514
									c-2.95-4.693-5.091-9.91-6.384-15.292c-0.63-2.714-0.949-5.448-2.255-7.78c-1.259-2.324-3.469-4.187-6.086-4.589
									c-2.614-0.413-5.301,0.779-7.044,2.773c-1.785,1.951-2.274,4.798-2.544,7.461c-0.469,5.436,0.109,10.938,0.82,16.365
									l0.148,1.127l-0.678-0.91c-6.081-8.162-12.472-16.149-19.842-23.178c-3.689-3.497-7.622-6.767-11.963-9.409
									c-4.32-2.621-9.22-4.513-14.299-4.538C1102.702,594.131,1097.999,596.296,1094.289,599.499z M1122.18,598.168
									c4.39,2.647,8.357,5.92,12.076,9.418c7.431,7.031,13.868,15.012,19.995,23.167l-0.53,0.217
									c-0.735-5.451-1.342-10.968-0.889-16.508c0.274-2.709,0.725-5.672,2.687-7.863c1.843-2.132,4.777-3.472,7.661-3.025
									c2.884,0.423,5.313,2.441,6.68,4.909c1.426,2.5,1.78,5.354,2.42,7.961c1.336,5.298,3.471,10.351,6.425,14.946
									c2.913,4.554,6.321,9.217,7.487,14.797c0.967,5.455,1.584,10.899,2.392,16.35l4.575,32.706l-0.05-0.206
									c4.3,11.342,7.717,22.98,10.61,34.737l-0.034-0.11l44.762,119.306l0.462,1.232l-1.239,0.465l-72.366,27.192l-1.598,0.6
									l-0.462-1.651l-23.839-85.147l0.137,0.343c-4.558-8.69-10.382-16.547-17.941-22.748
									c-7.516-6.236-15.896-11.775-23.612-18.128c-1.936-1.538-3.899-3.133-5.792-5.02c-1.748-1.957-3.384-4.042-4.573-6.363
									c-2.526-4.583-3.837-9.575-4.934-14.445c-1.111-4.882-2.004-9.746-3.433-14.419c-1.338-4.726-3.551-8.973-5.784-13.523
									c-4.342-9.001-7.771-18.602-9.161-28.577c-1.34-9.931-1.424-20.067,0.348-29.946c1.771-9.84,4.844-19.492,9.776-28.223
									c2.542-4.305,5.613-8.359,9.482-11.562c3.832-3.207,8.689-5.346,13.746-5.417
									C1112.84,593.636,1117.813,595.542,1122.18,598.168z"></path>
            <path fill="#fff" d="M1238.266,797.829c7.286,17.409,11.488,38.557,20.264,58.138
									c-4.973,27.406-74.981,65.146-109.571,46.166c-6.179-15.832-14.151-37.066-14.743-49.289
									C1156.36,868.167,1238.624,833.406,1238.266,797.829z"></path>
          </g>
        </g>
        <ellipse cx="958.512" cy="552.905" fill="#e8c0a7" rx="54.916" ry="22.985" transform="rotate(-59.175 958.542 552.928)"></ellipse>
      </g>
      <g>
        <path fill="#ccc" d="M1304.739,697.865c27.056,16.67,50.674,22.407,68.727,9.154
							c-3.192-7.054-2.662-13.838-2.953-20.905l-93.53-40.663C1272.167,660.862,1282.398,684.099,1304.739,697.865z"></path>
        <path fill="#d9d9d9" d="M1377.035,712.7c-8.947-7.264-15.773-28.968-12.742-32.896
							c3.388-4.391,19.704,11.874,23.932,20.242c1.601,3.169,3.116,10.245,1.986,12.638
							C1388.472,716.37,1381.137,716.03,1377.035,712.7z"></path>
        <path fill="#ffbf97" d="M1286.539,624.735c-19.003,12.323-12.202,49.796,14.644,68.267
						c24.425,16.806,46.002,22.057,63.002,7.227c15.55-13.565,30.116-34.383-5.268-67.802
						C1335.008,609.847,1295.16,619.145,1286.539,624.735z"></path>
        <path fill="#ffbf97" d="M1365.165,700.612c-10.728-8.922-17.07-29.084-12.708-31.341
						c4.876-2.523,22.547-10.14,37.116,12.644c7.864,12.299-5.656,21.375-7.388,22.983
						C1379.518,707.377,1370.082,704.702,1365.165,700.612z"></path>
      </g>
      <g>
        <path fill="#e6e6e6" d="M1566.128,127c-26.686-15.511-63.647-13.324-104.436,10.225
								c-81.088,46.818-146.584,160.283-146.321,253.44c0.131,46.283,16.466,78.847,42.822,94.163l24.825,14.658
								c-26.353-15.316-42.69-47.882-42.824-94.163c-0.263-93.158,65.234-206.624,146.323-253.44
								c40.793-23.554,77.75-25.734,104.438-10.228L1566.128,127z"></path>
        <path fill="#fff" d="M1486.516,151.884c81.072-46.807,146.997-9.219,147.265,83.939
									c0.119,42.414-13.416,89.001-35.808,131.618l13.439,95.004l-86.337-0.532c-11.994,10.579-24.606,19.838-37.605,27.34
									c-81.084,46.816-147.012,9.229-147.277-83.929C1339.931,312.166,1405.427,198.7,1486.516,151.884z"></path>
        <g>
          <path fill="#5e5e5e" d="M1418.497 299.955c26.431-15.26 38.69-5.52 38.744 13.577.05 17.484-9.532 34.535-17.113 48.589-7.174 13.593-10.363 24.417-10.124 34.65l.012 4.145-26.627 15.373-.214-5.87c-.637-11.393 2.727-25.307 11.703-42.703 6.376-12.664 11.562-23.267 11.54-30.863-.023-8.049-4.642-10.907-14.651-5.355-6.611 3.817-14.604 11.195-19.8 18.331l-6.879-21.135C1392.486 319.577 1404.278 308.164 1418.497 299.955zM1416.026 420.044c10.808-6.24 17.85-1.776 18.082 10.53.034 11.967-6.945 24.979-17.963 31.341-10.611 6.127-17.838 1.316-17.872-10.651C1398.237 438.844 1405.624 426.049 1416.026 420.044zM1482.848 304.303c10.821-6.248 17.85-1.776 18.082 10.53.034 11.967-6.945 24.979-17.963 31.341-10.612 6.127-17.838 1.316-17.872-10.651C1465.059 323.103 1472.446 310.309 1482.848 304.303zM1541.437 371.128c10.808-6.24 17.837-1.784 18.069 10.538.034 11.952-6.945 24.964-17.95 31.318-10.612 6.126-17.838 1.316-17.872-10.636C1523.648 389.913 1531.022 377.141 1541.437 371.128zM1543.895 251.047c26.431-15.26 38.69-5.52 38.744 13.577.049 17.484-9.533 34.535-17.1 48.581-7.188 13.585-10.363 24.417-10.137 34.642l.012 4.145-26.627 15.373-.214-5.87c-.637-11.378 2.74-25.314 11.717-42.711 6.376-12.664 11.562-23.252 11.54-30.848-.023-8.049-4.642-10.922-14.651-5.37-6.611 3.817-14.617 11.202-19.8 18.346l-6.879-21.15C1517.884 270.669 1529.689 259.248 1543.895 251.047zM1485.319 184.214c26.431-15.26 38.69-5.52 38.744 13.577.05 17.484-9.533 34.535-17.113 48.589-7.174 13.593-10.363 24.416-10.123 34.65l.011 4.13-26.627 15.373-.214-5.855c-.637-11.393 2.727-25.307 11.704-42.703 6.375-12.679 11.562-23.267 11.54-30.863-.023-8.049-4.643-10.907-14.651-5.355-6.611 3.817-14.604 11.194-19.8 18.331l-6.879-21.135C1459.308 203.836 1471.1 192.423 1485.319 184.214z"></path>
        </g>
      </g>
      <g>
        <path fill="#dedede" d="m801.467 747.896 27.258-15.826c-28.848-30.783-53.174-68.626-66.585-105.773l-27.258 15.831C748.297 679.27 772.619 717.113 801.467 747.896zM541.791 263.558c27.4-15.921 65.348-13.676 107.225 10.503 83.213 48.041 150.461 164.513 150.189 260.149-.122 43.333-14.086 74.937-37.066 92.086l-27.258 15.831c22.984-17.153 36.944-48.757 37.066-92.09.272-95.635-66.976-212.107-150.185-260.149-41.881-24.179-79.829-26.424-107.225-10.504L541.791 263.558z"></path>
        <path fill="#fff" d="M621.762,289.888c-83.229-48.049-150.911-9.482-151.184,86.153
										c-0.272,95.619,66.976,212.091,150.201,260.14c19.442,11.223,38.046,17.714,55.129,19.86
										c26.376,29.653,59.729,57.126,91.826,75.653c11.532,6.661,22.902,12.167,33.732,16.201
										c-28.848-30.783-53.17-68.626-66.586-105.769c22.984-17.153,36.944-48.757,37.066-92.09
										C772.219,454.401,704.971,337.929,621.762,289.888z"></path>
        <g>
          <path fill="#5e5e5e" d="M622.138,353.835c-0.244-0.141-0.489-0.281-0.734-0.419
							c-29.462-16.684-55.166-10.522-71.5,7.148c-8.58,9.284-14.846,21.738-19.505,35.475c-2.576,7.583-4.531,15.881-4.826,25.278
							c-0.262,8.272,0.916,17.517,3.235,26.834c9.688,38.941,35.621,74.86,62.014,104.682
							c14.577,16.471,30.215,32.454,46.624,42.129c8.535,4.931,16.227,7.227,23.978,9.611c4.373,1.345,8.812,2.831,13.237,5.385
							c2.647,1.528,5.288,3.439,7.907,5.93c0.431,0.409,0.87,0.738,1.306,0.99c2.154,1.244,4.231,0.608,4.81-1.452
							c0.742-2.639-0.898-6.594-3.446-9.016c-3.378-3.211-6.829-5.704-10.299-7.707c-3.792-2.189-7.605-3.793-11.359-5.106
							c-6.929-2.419-13.741-3.739-20.808-7.189c-1.508-0.735-3.013-1.539-4.515-2.406c-5.626-3.248-11.205-7.384-16.686-12.118
							c-13.822-11.939-26.991-26.847-39.331-42.014c-21.901-26.912-43.89-62.076-46.513-94.306
							c-1.416-17.429,3.563-31.016,8.989-43.05c5.043-11.193,11.831-20.925,20.567-27.402c14.657-10.869,35.288-12.293,57.398,0.472
							c2.736,1.579,5.494,3.376,8.267,5.399c24.492,17.868,47.635,49.803,60.697,81.193c7.007,16.844,9.523,32.842,7.932,46.928
							c-1.549,13.72-6.868,24.772-14.198,32.532c-6.683,7.08-15.839,11.52-26.526,10.632c-5.202-0.434-10.73-2.287-16.307-5.506
							c-7.867-4.672-14.949-11.142-21.674-18.054c-11.823-12.143-23.497-26.587-30.86-43.066
							c-6.888-15.412-10.215-31.026-8.925-44.095c1.163-11.758,6.994-20.667,15.297-24.425c7.702-3.485,17.58-1.841,27.794,4.056
							c1.262,0.729,2.531,1.523,3.8,2.38c10.383,7.01,23.543,21.022,28.442,35.539c2.67,7.908,1.596,15.643-0.008,21.29
							c-1.691,5.939-4.71,10.632-8.876,13.599c-1.79,1.276-2.004,4.627-0.023,8.063c0.93,1.608,2.28,2.967,3.617,3.739
							c1.272,0.734,2.532,0.936,3.404,0.314c4.939-3.515,8.679-8.73,10.947-15.557c2.306-6.947,3.349-16.027,1.385-25.649
							c-1.986-9.741-7.599-19.611-13.743-28.162c-8.465-11.777-18.825-21.095-29.164-27.064c-3.266-1.886-6.532-3.438-9.734-4.627
							c-27.131-10.077-46.036,10.945-43.015,43.654c1.552,16.826,7.782,35.582,17.794,52.553c5.429,9.197,11.881,17.743,18.638,25.5
							c7.084,8.135,14.586,16.005,22.324,22.456c4.049,3.375,8.098,6.226,12.106,8.54c10.344,5.972,20.407,8.363,29.444,6.932
							c11.661-1.845,21.078-8.932,27.676-19.052c6.962-10.672,11.238-25.059,10.757-42.145
							c-0.508-18.121-6.766-37.343-16.429-56.594C676.344,402.655,649.842,369.829,622.138,353.835z"></path>
        </g>
      </g>
    </g>
  </switch>
</svg>
