<svg xmlns="http://www.w3.org/2000/svg" viewBox="0 0 2000 2000" id="business-idea">
  <polygon fill="#f6f6f7" points="1152.52 1092.96 1076.94 1096.23 1050.55 1156.26 1174.11 1145.27 1152.52 1092.96"></polygon>
  <path fill="#c59ff5" d="M730.6 413.19c-1.45-1.27-3.65-1.13-4.93.32-1.27 1.45-1.13 3.65.32 4.93l109.71 96.51c.66.58 1.49.87 2.3.87.97 0 1.93-.4 2.62-1.19 1.27-1.45 1.13-3.65-.32-4.93l-109.71-96.51ZM504.97 223.99c.66.58 1.48.87 2.3.87.97 0 1.93-.4 2.62-1.19 1.27-1.45 1.13-3.65-.32-4.93l-66.23-58.27c-1.45-1.27-3.65-1.13-4.93.32-1.27 1.45-1.13 3.65.32 4.93l66.23 58.27ZM543.03 413.19l-109.71 96.51c-1.45 1.27-1.59 3.48-.32 4.93.69.78 1.65 1.19 2.62 1.19.82 0 1.64-.29 2.3-.87l109.71-96.51c1.45-1.27 1.59-3.48.32-4.93-1.27-1.45-3.48-1.59-4.93-.32ZM766.36 224.86c.82 0 1.64-.29 2.3-.87l71.65-63.03c1.45-1.27 1.59-3.48.32-4.93-1.27-1.45-3.48-1.59-4.93-.32l-71.65 63.03c-1.45 1.27-1.59 3.48-.32 4.93.69.78 1.65 1.19 2.62 1.19Z"></path>
  <path fill="#ffb197" d="m768.22,712c5.63-13.41,3.62-35.56,3.18-50.41-.32-10.99,1.45-20.67,2.92-26.63l.92-3.16c1.4-4.82-1.78-9.77-6.74-10.52-6.13-.92-12.99,1.06-15.21,7.97l-10.03,31.55-25.65-77.94c-1.74-5.28-7.26-8.33-12.65-6.99l-.31.08c-6.02,1.5-9.48,7.81-7.5,13.69l14.63,44.34h0c-1.86-5.63-7.99-8.72-13.62-6.86-5.63,1.86-8.72,7.99-6.86,13.62-1.86-5.63-7.99-8.72-13.62-6.86-5.63,1.86-8.72,7.99-6.86,13.62l2.34,7.1c-1.86-5.63-7.99-8.72-13.62-6.86-5.63,1.86-8.72,7.99-6.86,13.62l10.72,32.47c.49,1.49,1.29,2.78,2.29,3.87,1.73,4.61,3.18,8.25,4.23,10.54,6.71,14.61,18.81,23.73,28.22,28.95l17.62,48.63c27.93-17.88,56.68-22.98,72.14-24.41l-19.69-49.41Z"></path>
  <polygon fill="#ff9497" points="1158.67 1416.51 1166.08 1459.71 1224.03 1459.71 1228.83 1404.37 1158.67 1416.51"></polygon>
  <path fill="#ff9497" d="M987.22 1416.2c-.6-2.55-1.12-5.09-1.58-7.63l-73.29 5.59v3.86c0 23.02 18.66 41.68 41.68 41.68h43.39l-10.21-43.51ZM1347.98 1243.14l-29.16 216.57h37.85c62.21 0 114.85-45.78 123.65-107.36 4.4-30.77 7.92-67.49 8.9-109.21h-141.24ZM1492.24 984.54c4.05 7.28 7.05 14.73 9.18 22.25l1.2-23.31c2.22-43-24.74-80.45-63.16-93.75l52.79 94.81ZM1403.18 1136.06h91.56l3.34-64.82c-14.5 36.78-49.88 64.82-94.91 64.82Z"></path>
  <path fill="#4f667d" d="m1192.6,1189.6h-136.18c-2.04,11.89-11.57,21.08-23.53,22.68l-201.8,27.12c-84.41,11.97-140.36,93.8-120.89,176.8l79.85,340.36s100.31.92,144.29-32.98l-52.69-307.07,103.99-7.94c-14.43-80.33,40.64-157.56,122.47-169.17l85.1-12.07-.6-37.73Z"></path>
  <path fill="#4f667d" d="m1240.19,1273.49c-27.45-2.34-46.44-11.68-46.44-11.68l-.55-34.48-85.1,12.07c-84.41,11.97-140.36,93.8-120.89,176.8l79.85,340.36s85.75.78,133.45-25.9l4.05-46.68-45.9-267.47,70.16-12.14,11.36-130.88Z"></path>
  <path fill="#ffb197" d="m1199.69,586.68c-10.65-9.96-28.17,5.5-28.17,5.5,0-15.12,5.5-31.61,5.5-31.61-69.4,7.56-111.35-56.29-111.35-56.29-4.47,7.82-17.27,34.5-17.27,83.66,0,36.92,15.67,66.45,41.78,74.39l-5.24,36.53-17.38,366.84,65.05-1.27-1.29-13.3,59.8-8.31-10.2-354.02-4.25-57.28c28.28,3.36,32.92-35.57,23.02-44.83Z"></path>
  <path fill="#1c3c4f" d="M1255.67 659.17c-7.63-12.14-18.2-34.11-17.61-62.07.87-41.39 4.64-191.3-163.69-160.53-16.07 2.94-26.28 18.8-22.64 34.73.88 3.83 1.89 7.65 3.03 11.15 0 0-39.57 24.18-27.89 51.32 8.81 20.46 17.8 30.19 21.7 44.77 1.49-43.18 12.93-66.96 17.1-74.26 0 0 41.94 63.85 111.35 56.29 0 0-5.5 16.49-5.5 31.61 0 0 17.52-15.46 28.17-5.5 9.9 9.26 5.26 48.19-23.02 44.83l4.25 57.28 34.91 14.37c1.39.12 2.74.26 4.11.38 10.98-6.31 21.99-14.22 32.92-24 5.78-5.18 6.93-13.8 2.8-20.37ZM1049.65 605.17c-2.92 17.62-12.47 37.87-22.4 56.15-6.32 11.64-2.31 26.12 9.07 32.9 8.7 5.19 19.95 11.12 33.1 16.4l15.52-11.76 5.24-36.53c-21.88-6.66-36.4-28.51-40.53-57.15Z"></path>
  <polygon fill="#f6f6f7" points="1673.2 1189.6 1604.55 1189.6 1713.17 1996.31 1743.21 1996.31 1673.2 1189.6"></polygon>
  <path fill="#f4a37a" d="m1004.99,1491.95l-54.56-16.1-26.12,189.29,10.03,58.44c-4.47,3.45-9.53,6.53-15.01,9.29,0,0,0,0,0,0l18.01,83.72c2.32,10.78,6.94,20.84,13.05,30l60.94-327.59-6.35-27.05Z"></path>
  <path fill="#c46c3f" d="m1007,1500.54l-2.02-8.6-54.56-16.1-2.73,19.8c6.55,3.14,13.88,4.9,21.62,4.9h37.69Z"></path>
  <polygon fill="#f6f6f7" points="1246.57 1996.31 1355.19 1189.6 1286.54 1189.6 1216.53 1996.31 1246.57 1996.31"></polygon>
  <polygon fill="#e4e6ec" points="1216.53 1996.31 1286.54 1189.6 1247.47 1189.6 1177.46 1996.31 1216.53 1996.31"></polygon>
  <polygon fill="#e4e6ec" points="1572.69 1243.14 1674.1 1996.31 1713.17 1996.31 1611.76 1243.14 1572.69 1243.14"></polygon>
  <polygon fill="#f6f6f7" points="1611.76 1243.14 1604.55 1189.6 1355.19 1189.6 1347.98 1243.14 1611.76 1243.14"></polygon>
  <polygon fill="#f6f6f7" points="633.98 1189.6 565.32 1189.6 673.95 1996.31 703.98 1996.31 633.98 1189.6"></polygon>
  <polygon fill="#f6f6f7" points="207.34 1996.31 315.96 1189.6 247.31 1189.6 177.3 1996.31 207.34 1996.31"></polygon>
  <polygon fill="#e4e6ec" points="208.24 1189.6 138.23 1996.31 177.3 1996.31 247.31 1189.6 208.24 1189.6"></polygon>
  <polygon fill="#e4e6ec" points="533.46 1243.14 634.88 1996.31 673.95 1996.31 572.53 1243.14 533.46 1243.14"></polygon>
  <polygon fill="#f6f6f7" points="572.53 1243.14 565.32 1189.6 315.96 1189.6 308.75 1243.14 572.53 1243.14"></polygon>
  <path fill="#1c3c4f" d="M891.32 1389.01c.64-1.94-.41-4.03-2.35-4.67-1.95-.64-4.03.41-4.67 2.35-3.16 9.57-4.13 19.85-2.66 29.82l7.49-.57c-1.41-8.99-.67-18.28 2.19-26.93ZM1169.75 1384.51c.72-1.91-.25-4.04-2.15-4.76-1.91-.72-4.04.25-4.76 2.15-4.15 11.03-5.54 22.92-4.11 34.59l7.28-1.26c-1.21-10.37.05-20.93 3.74-30.73Z"></path>
  <path fill="#ffb197" d="m951.91,1848.84c-6.88-9.74-12.06-20.58-14.57-32.24l-18.01-83.72c-30.31,15.31-73.42,20.74-101.38,22.65l20.56,93.02c2.75,12.46,2.26,25.47-1.72,37.59-5.69,17.35-17.05,40.58-38.75,51.83-37.11,19.24-79.02,17.04-73.53,58.34h131.93l65.97-50.09,12.37,50.09h42.1l-9.07-103.99c-1.37-15.65-6.86-30.66-15.92-43.48Z"></path>
  <path fill="#1c3c4f" d="m955.13,1853.77c-2.37,8.05-8.46,17.4-23.09,23.73-21.51,9.31-62.15,44.28-84.54,64.36-15.96,14.32-37.87,20.66-58.77,15.85-6.54-1.51-12.99-4.12-18.72-8.28-27.14,9.41-49.62,15.94-45.5,46.87h131.93l65.97-50.09,12.37,50.09h42.1l-9.07-103.99c-1.19-13.69-5.56-26.87-12.69-38.55Z"></path>
  <path fill="#ffb197" d="m1094.98,1755.52h0s20.56,93.03,20.56,93.03c2.75,12.46,2.26,25.47-1.72,37.59-5.69,17.35-17.05,40.58-38.75,51.83-37.11,19.24-79.02,17.04-73.53,58.34h131.93l47.08-35.75,19.95-229.89c-30.41,17.01-76.27,22.85-105.53,24.86Z"></path>
  <path fill="#1c3c4f" d="m1186.6,1890.97c-20.95,14.76-46.13,36.59-62.07,50.89-15.96,14.32-37.87,20.66-58.77,15.85-6.54-1.51-12.99-4.12-18.72-8.28-27.14,9.41-49.62,15.94-45.5,46.87h131.93l47.08-35.75,6.04-69.58Z"></path>
  <path fill="#e85d62" d="m1375.35,1379.53c-1.61,0-3.09-1.06-3.55-2.69-.55-1.96.59-4,2.55-4.56,11.43-3.22,20.48-7.4,28.48-13.15,24.98-17.95,35.78-52.87,40.44-79,.36-2.01,2.28-3.34,4.28-2.99,2.01.36,3.35,2.28,2.99,4.28-4.9,27.48-16.41,64.31-43.4,83.7-8.72,6.26-18.5,10.8-30.78,14.26-.34.09-.67.14-1.01.14Z"></path>
  <path fill="#4f667d" d="m1375.68,1243.14h-27.7l-18.5,137.36c11.12-6.04,20.17-15.58,25.58-27.41,11.86-25.95,25.4-66.57,20.62-109.96Z"></path>
  <path fill="#ffc71c" d="m1492.24,984.54l-129.22-232.09c-6.16-11.06-16.08-19.58-27.99-23.88-22.9-8.27-65.22-20.94-119.19-25.42l-34.91-14.37,10.2,354.02-59.8,8.31,8.25,84.94h263.61c77.76,0,126.89-83.57,89.06-151.52Z"></path>
  <path fill="#f99132" d="m1311.24,791.95c-.48-.1-.95-.29-1.38-.59-1.68-1.16-2.09-3.47-.93-5.14l18.77-27.05c1.16-1.68,3.46-2.09,5.14-.93,1.68,1.16,2.09,3.47.93,5.14l-18.77,27.05c-.86,1.25-2.36,1.8-3.76,1.52Z"></path>
  <path fill="#ffc71c" d="m1052.99,723.08l-69.06,22.59c-18.33,5.99-32.96,19.95-39.81,37.97l-60.86,160.02-83.83-182.78s-53.37-1.6-97.98,35.37l25.36,78.01h81.86c6.41,0,11.97,4.43,13.4,10.67l50.69,221.18h39.6s52.1-54.33,74.54-124.65c10.68,35.63,12.92,70.65,12.19,98.35.03,0,.06,0,.08,0h19.5l3.61-2.59c9.92-7.12,21.78-11.06,33.99-11.3l11.3-.22,17.37-366.84-31.95,24.22Z"></path>
  <path fill="#f99132" d="m983.23,969.18c-24.3-79.85-.48-128.71-.24-129.19.92-1.82.19-4.04-1.63-4.96-1.82-.92-4.04-.2-4.96,1.62-1.05,2.08-25.47,51.78-.24,134.68,2.31,7.59,4.3,15.46,6.03,23.52,1.62-4.25,3.29-9.01,4.69-13.39-1.1-4.3-2.39-8.12-3.66-12.28Z"></path>
  <path fill="#ffc71c" d="M1032.89 1212.29c11.96-1.61 21.49-10.79 23.53-22.68h-76.96l-8.23 30.97 61.66-8.29ZM1193.75 1261.81s18.99 9.34 46.44 11.68l7.28-83.89h-54.86l1.15 72.21Z"></path>
  <path fill="#f99132" d="m883.16,943.45c1.35,5.65,2.68,13.08,3.05,21.52.09,1.98,1.72,3.53,3.69,3.53.05,0,.11,0,.16,0,2.04-.09,3.62-1.81,3.53-3.85-.67-15.23-4.2-27.28-5.97-32.47l-4.37,11.48-.09-.21Z"></path>
  <path fill="#ffb197" d="m1132.61,1064.42l-76.35,1.5c-12.21.24-24.07,4.18-33.99,11.3l-59.71,42.86c-6.96,5-3.43,15.98,5.14,15.98h104.07c19.7,0,30.69-14.97,30.69-14.97l35.48-1.8-5.33-54.86Z"></path>
  <path fill="#ef7756" d="m1102.46 1121.09 8.97-.46 5.13-8.29c1.07-1.73.54-4.01-1.2-5.08-1.74-1.07-4.01-.54-5.08 1.2l-7.82 12.65s.02-.02.02-.02ZM973.77 1145.27c-1.16 0-2.3-.54-3.02-1.56-1.18-1.67-.78-3.97.89-5.15l59.01-41.65c1.67-1.18 3.97-.78 5.15.89 1.18 1.67.78 3.97-.89 5.15l-59.01 41.65c-.65.46-1.39.68-2.13.68Z"></path>
  <path fill="#ef9e89" d="m981.98,1090.04c-2.02,4.11-2.76,9.46.04,16.07l36.64-26.3h-19.5c-7.17,0-14.02,3.79-17.18,10.23Z"></path>
  <path fill="#ef7756" d="m997.98,1153.04c-1.22,0-2.41-.6-3.12-1.7-1.1-1.72-.6-4,1.12-5.1l51.8-33.15c1.72-1.1,4-.6,5.1,1.12,1.1,1.72.6,4-1.12,5.1l-51.8,33.15c-.62.39-1.31.58-1.99.58Z"></path>
  <path fill="#f6f6f7" d="m1191.12,1042.81l-6.72-233.18c-44.14,31.47-87.08,18.16-104.96,5.21l-11.88,250.86,65.05-1.27-1.29-13.3,59.8-8.31Z"></path>
  <path fill="#ef7756" d="m743.26,660.8l-2.58-7.84c-3.86,3.25-11.85,11.1-15.39,22.66.29,2.37-.26,4.71-1.42,6.71-1.44,11.61,2.33,23.42,11.33,35.13.73.95,1.82,1.44,2.93,1.44.79,0,1.58-.25,2.25-.76,1.62-1.24,1.92-3.56.68-5.18-7.99-10.4-11.28-20.68-9.79-30.55,1.53-10.11,7.82-17.55,11.99-21.61Z"></path>
  <path fill="#f6f6f7" d="m1192.6,1189.6h-136.18c-1.01,5.89-3.87,11.11-7.94,15.08,6.56,9.41,23.07,27.19,57.62,35.05.67-.1,1.33-.24,2-.34l85.1-12.07-.6-37.73Z"></path>
  <polygon fill="#f4a37a" points="1410.45 1474.83 1344.47 1491.95 1438.29 1996.31 1482.06 1996.31 1410.45 1474.83"></polygon>
  <path fill="#c46c3f" d="m1410.45,1474.83l-65.98,17.12,1.6,8.6h36.23c11.18,0,21.63-3.18,30.5-8.67l-2.34-17.04Z"></path>
  <polygon fill="#ff8b7e" points="1166.08 1459.71 1171.61 1491.95 1221.23 1491.95 1224.03 1459.71 1166.08 1459.71"></polygon>
  <path fill="#ff8b7e" d="M1430.91 1435.21c-20.86 15.45-46.6 24.5-74.24 24.5h-37.85l-4.34 32.24h67.82c27.25 0 49.54-22.29 49.54-49.54h0c0-2.49-.35-4.89-.93-7.2ZM997.42 1459.71h-43.39c-10 0-19.17-3.53-26.35-9.39 0 22.9 18.73 41.63 41.63 41.63h35.67l-7.56-32.24Z"></path>
  <path fill="#ff9497" d="m462.35,988.55h-119.18c-3.99,0-7,3.65-6.2,7.56,8.55,41.54,15.14,91.2,19.34,139.95h92.9c4.2-48.75,10.79-98.41,19.34-139.95.8-3.91-2.2-7.56-6.2-7.56Z"></path>
  <path fill="#ff8387" d="m459.88,1045.14c1.48-9.71,3.04-19.2,4.7-28.41h-123.66c1.66,9.21,3.23,18.7,4.7,28.41h114.26Z"></path>
  <path fill="#f6f6f7" d="M373.25 903.14h-19.7c-2.04 0-3.69-1.65-3.69-3.69s1.65-3.69 3.69-3.69h19.7c8.82 0 16.01-7.18 16.01-16.01 0-2.04 1.65-3.69 3.69-3.69s3.69 1.65 3.69 3.69c0 12.9-10.49 23.39-23.39 23.39ZM398.02 966.82c-2.04 0-3.69-1.65-3.69-3.69 0-8.82-7.18-16.01-16.01-16.01h-51.77c-14.16 0-25.68-11.52-25.68-25.68s11.52-25.68 25.68-25.68c2.04 0 3.69 1.65 3.69 3.69s-1.65 3.69-3.69 3.69c-10.09 0-18.3 8.21-18.3 18.3s8.21 18.3 18.3 18.3h51.77c12.9 0 23.39 10.49 23.39 23.39 0 2.04-1.65 3.69-3.69 3.69Z"></path>
  <path fill="#ffe91d" d="m637.08,175.4c-57.26.12-105.1,46.02-107.46,103.23-1.61,39.15,17.67,73.88,47.61,94.02,6.73,4.53,10.68,12.2,10.68,20.31v19.86c0,9.18,7.44,16.62,16.62,16.62h65.58c9.18,0,16.62-7.44,16.62-16.62v-19.53c0-8.23,3.92-16.08,10.75-20.68,28.73-19.36,47.63-52.17,47.63-89.41,0-59.61-48.38-107.91-108.02-107.78Z"></path>
  <path fill="#f6f6f7" d="m670.1,429.43h-65.58c-3.75,0-7.21-1.26-9.99-3.36v29.63c0,11.9,9.65,21.55,21.55,21.55h42.47c11.9,0,21.55-9.65,21.55-21.55v-29.63c-2.78,2.1-6.24,3.36-9.99,3.36Z"></path>
  <path fill="#91dff2" d="m658.55,477.25h-42.47c-1.72,0-3.39-.22-5-.61l6.3,15.53c1.71,4.86,6.3,8.12,11.46,8.12h16.94c5.16,0,9.75-3.25,11.46-8.12l6.3-15.53c-1.61.38-3.27.61-5,.61Z"></path>
  <rect width="85.56" height="6.98" x="594.53" y="448.06" fill="#d5d8e0"></rect>
  <path fill="#fcb631" d="m680.64,291.92c-9.2.66-16.41,8.67-16.41,18.25v10.14h-53.84v-10.14c0-9.58-7.21-17.59-16.41-18.25-5.14-.37-10.18,1.51-13.82,5.14-3.63,3.63-5.51,8.67-5.14,13.81.66,9.2,8.67,16.41,18.25,16.41h10.14v10.53c0,8.35,2.99,16.44,8.43,22.78,4.35,5.07,6.75,11.55,6.75,18.23v50.61h6.98v-50.61c0-8.35-2.99-16.44-8.43-22.78-4.35-5.07-6.75-11.55-6.75-18.23v-10.53h53.84v10.53c0,6.68-2.4,13.16-6.75,18.23-5.44,6.34-8.43,14.43-8.43,22.78v50.61h6.98v-50.61c0-6.68,2.4-13.16,6.75-18.23,5.44-6.34,8.43-14.43,8.43-22.78v-10.53h10.14c9.57,0,17.59-7.21,18.25-16.41.37-5.15-1.51-10.18-5.14-13.81-3.63-3.63-8.66-5.51-13.81-5.14Zm-77.23,28.39h-10.14c-5.93,0-10.89-4.36-11.29-9.93-.22-3.12.91-6.18,3.11-8.38,2.02-2.02,4.75-3.14,7.61-3.14.26,0,.52,0,.78.03,5.57.4,9.93,5.35,9.93,11.28v10.14Zm77.94,0h-10.14v-10.14c0-5.93,4.36-10.89,9.93-11.28,3.12-.21,6.18.91,8.38,3.11,2.2,2.2,3.34,5.26,3.11,8.38-.4,5.57-5.36,9.93-11.29,9.93Z"></path>
  <circle cx="372.1" cy="102.46" r="102.46" fill="#91dff2"></circle>
  <path fill="#afe02e" d="m474.57,564.75c0,56.59-45.87,102.46-102.46,102.46-56.59,0-102.46-45.87-102.46-102.46s45.87-102.46,102.46-102.46,102.46,45.87,102.46,102.46Z"></path>
  <circle cx="901.52" cy="102.46" r="102.46" fill="#9d83e8"></circle>
  <circle cx="878.27" cy="547.74" r="68.04" fill="#ff8b7e"></circle>
  <rect width="123.14" height="127.32" x="1398.29" y="384.77" fill="#e4e6ec"></rect>
  <rect width="123.14" height="127.32" x="1398.29" y="561.63" fill="#e4e6ec"></rect>
  <rect width="123.14" height="127.32" x="1583" y="561.63" fill="#e4e6ec"></rect>
  <polygon fill="#e4e6ec" points="1706.14 814.58 1706.14 738.48 1583 738.48 1583 865.8 1654.92 865.8 1706.14 814.58"></polygon>
  <path fill="#ef7756" d="M1166.45 635.03c3.64 1.87 7.27 3.37 10.82 4.51l-.6-8.03s0 0 0 0c-2.26-.86-4.55-1.86-6.86-3.05-1.82-.93-4.04-.22-4.97 1.6-.93 1.81-.22 4.04 1.6 4.97ZM1150.73 653.35c1.71-1.11 2.21-3.39 1.1-5.11-1.11-1.71-3.4-2.21-5.11-1.1-20.39 13.18-39.8 18.3-56.54 15.18l-1.06 7.37c3.5.64 7.09.99 10.76.99 15.8 0 33.08-5.85 50.85-17.33Z"></path>
  <rect width="33.18" height="44.26" x="849.44" y="105.44" fill="#fff"></rect>
  <rect width="33.18" height="71.94" x="882.62" y="77.75" fill="#fff"></rect>
  <rect width="33.18" height="99.63" x="915.8" y="50.06" fill="#fff"></rect>
  <path fill="#4a3ca3" d="m1468.13,424.43h-38.86c-2.17,0-3.93-1.76-3.93-3.93s1.76-3.93,3.93-3.93h38.86c2.17,0,3.93,1.76,3.93,3.93s-1.76,3.93-3.93,3.93Z"></path>
  <path fill="#fff" d="M1490.47 452.36h-61.2c-2.17 0-3.93-1.76-3.93-3.93s1.76-3.93 3.93-3.93h61.2c2.17 0 3.93 1.76 3.93 3.93s-1.76 3.93-3.93 3.93ZM1490.47 480.29h-61.2c-2.17 0-3.93-1.76-3.93-3.93s1.76-3.93 3.93-3.93h61.2c2.17 0 3.93 1.76 3.93 3.93s-1.76 3.93-3.93 3.93Z"></path>
  <path fill="#4a3ca3" d="m1468.13,601.29h-38.86c-2.17,0-3.93-1.76-3.93-3.93s1.76-3.93,3.93-3.93h38.86c2.17,0,3.93,1.76,3.93,3.93s-1.76,3.93-3.93,3.93Z"></path>
  <path fill="#fff" d="M1490.47 629.22h-61.2c-2.17 0-3.93-1.76-3.93-3.93s1.76-3.93 3.93-3.93h61.2c2.17 0 3.93 1.76 3.93 3.93s-1.76 3.93-3.93 3.93ZM1490.47 657.15h-61.2c-2.17 0-3.93-1.76-3.93-3.93s1.76-3.93 3.93-3.93h61.2c2.17 0 3.93 1.76 3.93 3.93s-1.76 3.93-3.93 3.93Z"></path>
  <path fill="#4a3ca3" d="m1652.84,601.29h-38.86c-2.17,0-3.93-1.76-3.93-3.93s1.76-3.93,3.93-3.93h38.86c2.17,0,3.93,1.76,3.93,3.93s-1.76,3.93-3.93,3.93Z"></path>
  <path fill="#fff" d="M1675.18 629.22h-61.2c-2.17 0-3.93-1.76-3.93-3.93s1.76-3.93 3.93-3.93h61.2c2.17 0 3.93 1.76 3.93 3.93s-1.76 3.93-3.93 3.93ZM1675.18 657.15h-61.2c-2.17 0-3.93-1.76-3.93-3.93s1.76-3.93 3.93-3.93h61.2c2.17 0 3.93 1.76 3.93 3.93s-1.76 3.93-3.93 3.93Z"></path>
  <path fill="#4a3ca3" d="m1652.84,778.14h-38.86c-2.17,0-3.93-1.76-3.93-3.93s1.76-3.93,3.93-3.93h38.86c2.17,0,3.93,1.76,3.93,3.93s-1.76,3.93-3.93,3.93Z"></path>
  <path fill="#fff" d="M1635.64 806.07h-21.66c-2.17 0-3.93-1.76-3.93-3.93s1.76-3.93 3.93-3.93h21.66c2.17 0 3.93 1.76 3.93 3.93s-1.76 3.93-3.93 3.93ZM1635.64 834h-21.66c-2.17 0-3.93-1.76-3.93-3.93s1.76-3.93 3.93-3.93h21.66c2.17 0 3.93 1.76 3.93 3.93s-1.76 3.93-3.93 3.93Z"></path>
  <path fill="#ffe91d" d="m1191.12 1042.81-10.2-354.02 34.91 14.37s37.11 102.39 51.54 147.05l-37.56 28.86 34.36 24.05-27.85 133.41-45.2 6.28ZM1037.77 1069.23c5.92-2.05 12.16-3.19 18.49-3.31l11.3-.22 17.37-366.84-31.95 24.22s-25.14 64.08-39.57 140.35l29.78 21.76-32.53 19.84s18.1 64.89 27.1 164.19Z"></path>
  <rect width="1302.85" height="53.54" x="117.08" y="1136.06" fill="#e89360"></rect>
  <rect width="303.77" height="53.54" x="1419.93" y="1136.06" fill="#f4a37a" transform="rotate(180 1571.81 1162.83)"></rect>
  <path fill="#e4e6ec" d="m834.93,1121.09c0-8.24,6.74-14.97,14.97-14.97h-283.11c-8.24,0-14.97,6.74-14.97,14.97s6.74,14.97,14.97,14.97h283.11c-8.24,0-14.97-6.74-14.97-14.97Z"></path>
  <path fill="#f6f6f7" d="m962.56,1120.08l19.46-13.97h-132.11c-8.24,0-14.97,6.74-14.97,14.97s6.74,14.97,14.97,14.97h117.8c-8.57,0-12.1-10.98-5.14-15.98Z"></path>
  <path fill="#fff" d="m822.06,884.93c-1.43-6.25-6.99-10.67-13.4-10.67h0c-8.83,0-15.37,8.21-13.4,16.82l49.29,215.04h28.2l-50.69-221.18Z"></path>
  <path fill="#f6f6f7" d="m808.66,874.25h-300.46c-9.8,0-17.05,9.11-14.87,18.66l45.96,200.53c1.7,7.41,8.3,12.67,15.9,12.67h289.35l-49.29-215.04c-1.97-8.61,4.57-16.82,13.4-16.82Z"></path>
  <path fill="#e4e6ec" d="m688.55,992.71c-3.39-14.99-16.84-24.73-30.04-21.74-13.2,2.98-21.15,17.56-17.76,32.55,3.39,14.99,16.84,24.73,30.04,21.74,13.2-2.98,21.15-17.56,17.76-32.55Z"></path>
  <path fill="#f99132" d="m1422.37,1029.92c-4.26-3.43-9.2-6.54-14.71-9.27-14.32-7.08-30.9-10.43-47.95-9.69l-8.18.36.58,7.37,7.93-.35c15.81-.69,31.15,2.4,44.35,8.93,5.02,2.49,9.52,5.31,13.35,8.4,1.59,1.28,3.92,1.03,5.19-.56,1.28-1.59,1.03-3.91-.56-5.19Z"></path>
  <polygon fill="#f6f6f7" points="1654.92 814.58 1654.92 865.8 1706.14 814.58 1654.92 814.58"></polygon>
  <circle cx="878.27" cy="533.64" r="27.78" fill="#fccbbe"></circle>
  <path fill="#ffe91d" d="m878.27,561.42c-19.69,0-37.37,12.69-49.61,32.86,12.41,13.23,30.04,21.5,49.61,21.5s37.2-8.27,49.61-21.5c-12.24-20.17-29.92-32.86-49.61-32.86Z"></path>
  <path fill="#7566da" d="M375.24 148.64c-.9 0-1.81-.35-2.49-1.04l-33.77-34.37c-1.35-1.37-1.33-3.58.04-4.94 1.37-1.35 3.58-1.33 4.94.04l33.77 34.37c1.35 1.37 1.33 3.58-.04 4.94-.68.67-1.56 1-2.45 1ZM341.47 98.56c-1.42 0-2.76-.88-3.28-2.29-.66-1.81.27-3.82 2.08-4.48l60.2-22.05c1.81-.66 3.82.27 4.48 2.08.66 1.81-.27 3.82-2.08 4.48l-60.2 22.05c-.4.14-.8.21-1.2.21Z"></path>
  <circle cx="330.12" cy="99.22" r="23.9" fill="#9d83e8"></circle>
  <circle cx="384.22" cy="154.29" r="18.52" fill="#9d83e8"></circle>
  <circle cx="411.01" cy="69.59" r="21.86" fill="#9d83e8"></circle>
  <path fill="#9d83e8" d="m348.09,587.46c-2.85-2.85-5.25-5.98-7.28-9.27l-24.62,24.62c-4.57,4.57-4.57,11.98,0,16.55,4.57,4.57,11.98,4.57,16.55,0l24.62-24.62c-3.29-2.03-6.41-4.43-9.27-7.28Z"></path>
  <circle cx="384.11" cy="551.44" r="50.94" fill="#f6f6f7"></circle>
  <path fill="#4ac0f0" d="m379.24,571.28c-.89,0-1.79-.34-2.47-1.02l-14.98-14.98c-1.36-1.36-1.36-3.57,0-4.94,1.36-1.36,3.57-1.36,4.94,0l12.51,12.51,19.17-19.17c1.36-1.36,3.57-1.36,4.94,0,1.36,1.36,1.36,3.57,0,4.94l-21.64,21.64c-.68.68-1.57,1.02-2.47,1.02Z"></path>
  <path fill="#1c3c4f" d="m1936.85,2000H63.15c-2.04,0-3.69-1.65-3.69-3.69s1.65-3.69,3.69-3.69h1873.69c2.04,0,3.69,1.65,3.69,3.69s-1.65,3.69-3.69,3.69Z"></path>
  <path fill="#ef7756" d="m724.97,674l-13.34-40.36c-1.59-4.3-5.7-6.99-10.09-7l16.42,49.68c1.09,3.29-1.02,6.95-4.69,8.16-1.81.6-3.73.5-5.39-.26-1.58-.73-2.72-1.97-3.23-3.51l-13.34-39.96c-1.47-4.46-5.62-7.27-10.08-7.35l16.41,49.63c.51,1.54.33,3.22-.51,4.74-.88,1.61-2.36,2.82-4.18,3.42-1.81.6-3.72.5-5.39-.26-1.58-.73-2.72-1.97-3.23-3.51,0,0,0,0,0,0l-11.15-32.81c-1.45-4.4-5.52-7.21-9.91-7.35l14.05,42.48s0,0,0,0c1.08,3.29-1.02,6.95-4.69,8.16-1.81.6-4.36.41-6.02-.36-1-.46-1.8-1.15-2.4-1.96.43.77.91,1.5,1.49,2.13,1.17,3.13,2.21,5.77,3.09,7.88.5.05.99.09,1.44.09,1.58,0,3.17-.25,4.71-.76,4.05-1.34,7.13-4.23,8.75-7.73.26.14.5.33.77.45,1.92.88,3.99,1.33,6.08,1.33,1.58,0,3.17-.25,4.71-.76,3.59-1.18,6.56-3.63,8.34-6.88.15-.28.28-.56.41-.85.27.14.5.33.77.45,1.92.88,3.99,1.33,6.09,1.33,1.58,0,3.17-.25,4.71-.76,7.54-2.49,11.75-10.33,9.38-17.49Z"></path>
  <path fill="#f99132" d="m1258.25,1025.5c-1.94.29-3.38,1.95-3.38,3.91,0,2.4,2.12,4.25,4.5,3.92l69.44-9.65,3.16-9.07-73.72,10.89Z"></path>
  <path fill="#ff9497" d="m1356.4,1019.85l-27.58,3.83c-3.86-33.47.52-64.32,4.8-84.08l44.41,79.56.16.05c-7.24-.58-14.55-.37-21.79.63Z"></path>
  <path fill="#1c3c4f" d="m1038.81,1265.68c-1.25-1.61-3.57-1.91-5.18-.65-43.87,34.03-65.07,89.9-55.31,144.1l7.4-.58c-9.6-51.74,10.54-105.19,52.44-137.69,1.61-1.25,1.9-3.57.65-5.18Z"></path>
  <ellipse cx="1111.26" cy="577.94" fill="#1c3c4f" rx="9.95" ry="8.66" transform="rotate(-89.28 1111.189 577.961)"></ellipse>
  <ellipse cx="1064.79" cy="578.8" fill="#1c3c4f" rx="9.95" ry="8.66" transform="rotate(-89.28 1064.73 578.817)"></ellipse>
  <path fill="#ef7756" d="M1089.42 630.05c-6.83 0-11.23-1.53-11.58-1.65-1.99-.72-3.02-2.91-2.31-4.9.71-1.98 2.88-3 4.88-2.32.57.21 13.62 4.54 29.77-4.4 1.84-1.03 4.17-.36 5.2 1.49 1.02 1.84.35 4.17-1.49 5.2-9.39 5.2-18.01 6.57-24.46 6.57ZM1076.51 610.71c-1.03 0-2.07-.42-2.82-1.25-1.43-1.56-1.32-3.98.24-5.4 7.69-7.03 8-19.93 8-20.06.03-2.1 1.53-3.76 3.88-3.76 2.11.03 3.79 1.76 3.77 3.87 0 .67-.32 16.31-10.49 25.6-.73.67-1.66 1.01-2.58 1.01Z"></path>
</svg>
