<svg xmlns="http://www.w3.org/2000/svg" xmlns:xlink="http://www.w3.org/1999/xlink" enable-background="new 0 0 3000 3000" viewBox="0 0 3000 3000" id="rocket-launching">
  <switch>
    <g>
      <g>
        <g>
          <g>
            <g>
              <path fill="#ffae4a" d="M1487.361,1563.871c38.335-0.945,74.055,186.625,79.776,418.931
							c5.726,232.324-20.702,421.426-59.028,422.362c-38.335,0.945-74.055-186.625-79.781-418.939
							C1422.602,1753.91,1449.026,1564.807,1487.361,1563.871z"></path>
              <path fill="#f59a38" d="M1444.603,1521.154c38.335-0.945,74.055,186.625,79.781,418.949
							c5.726,232.306-20.707,421.398-59.037,422.353c-38.335,0.945-74.055-186.616-79.782-418.939
							C1379.839,1711.193,1406.276,1522.1,1444.603,1521.154z"></path>
            </g>
            <g>
              <g>
                <g>
                  <g>
                    <g>
                      <g>
                        <g opacity=".1">
                          <g>
                            <path d="M1368.556,2496.123c-2.29,66.833-48.136,119.507-102.402,117.644c-54.256-1.863-96.391-57.556-94.101-124.38
														c2.298-66.843,48.149-119.507,102.401-117.653C1328.72,2373.597,1370.845,2429.289,1368.556,2496.123z"></path>
                            <path d="M1223.639,2565.681c-9.507,47.479-49.595,79.497-89.541,71.495c-39.946-8.002-64.621-52.977-55.11-100.457
														c9.502-47.48,49.59-79.488,89.531-71.495C1208.474,2473.227,1233.146,2518.201,1223.639,2565.681z"></path>
                          </g>
                          <g>
                            <path d="M1575.993,2576.895c17.72,61.3,74.711,92.702,127.298,70.146c52.582-22.565,80.841-90.536,63.126-151.827
														c-17.729-61.299-74.72-92.702-127.307-70.146C1586.532,2447.624,1558.269,2515.605,1575.993,2576.895z"></path>
                            <path d="M1752.95,2576.822c9.503,47.479,49.59,79.487,89.531,71.485c39.941-8.002,64.626-52.977,55.11-100.447
														c-9.498-47.489-49.59-79.497-89.536-71.495C1768.11,2484.358,1743.434,2529.333,1752.95,2576.822z"></path>
                            <path d="M1698.331,2707.854c8.461,42.212,56.643,68.155,107.623,57.95c50.994-10.204,85.471-52.701,77.024-94.913
														c-8.456-42.212-56.643-68.164-107.623-57.96C1724.365,2623.154,1689.883,2665.651,1698.331,2707.854z"></path>
                            <path d="M1675.421 2773.568c51.793 12.948 95.574-6.855 97.804-44.24 2.216-37.376-37.968-78.185-89.756-91.133-51.792-12.957-95.583 6.846-97.804 44.222C1583.435 2719.812 1623.624 2760.611 1675.421 2773.568zM1310.367 2484.964c9.507 47.48 49.595 79.488 89.545 71.485 39.941-7.992 64.612-52.967 55.11-100.447-9.507-47.489-49.599-79.488-89.545-71.495C1325.536 2392.5 1300.86 2437.475 1310.367 2484.964zM1505.604 2436.576c-17.289 43.506-5.594 83.223 26.117 88.701 31.705 5.478 71.417-25.346 88.701-68.843 17.289-43.506 5.588-83.223-26.108-88.701C1562.604 2362.245 1522.888 2393.079 1505.604 2436.576z"></path>
                            <path d="M1417.678 2439.989c-13.618 46.47 7.029 93.427 46.122 104.888 39.097 11.452 81.837-16.921 95.45-63.392 13.623-46.471-7.025-93.427-46.122-104.889C1474.036 2365.136 1431.305 2393.519 1417.678 2439.989zM1843.968 2635.056c16.899 34.733 55.248 50.893 85.664 36.091 30.411-14.802 41.363-54.94 24.469-89.683-16.899-34.725-55.257-50.884-85.668-36.083C1838.021 2560.175 1827.069 2600.323 1843.968 2635.056z"></path>
                            <path d="M1831.327 2660.852c19.216 39.496 62.841 57.877 97.428 41.047 34.591-16.83 47.053-62.493 27.828-101.998-19.216-39.505-62.837-57.886-97.423-41.047C1824.559 2575.674 1812.111 2621.346 1831.327 2660.852zM1325.329 2678.572c-19.119 36.78-12.003 83.553 15.885 104.485 27.902 20.914 66.007 8.066 85.118-28.714 19.124-36.78 12.012-83.562-15.885-104.485C1382.55 2628.936 1344.44 2641.792 1325.329 2678.572zM1535.193 2694.732c-18.825 41.643-35.054 103.053-3.088 124.407 31.971 21.345 100.034-5.46 118.856-47.094 18.821-41.643 8.162-92.702-23.8-114.056C1595.186 2636.644 1554.015 2653.097 1535.193 2694.732z"></path>
                            <path d="M1401.224,2736.467l163.27-8.443c11.425,56.308,1.803,121.003-125.926,121.976
														C1361.93,2825.452,1388.189,2787.526,1401.224,2736.467z"></path>
                            <path d="M1428.943 2658.548c-3.166 41.332 21.712 81.58 55.578 89.894 33.861 8.323 63.883-18.445 67.053-59.767 3.18-41.331-21.702-81.58-55.564-89.894C1462.148 2590.458 1432.127 2617.217 1428.943 2658.548zM1892.934 2649.354c7.576 29.007 34.302 47.14 59.694 40.505 25.401-6.635 39.85-35.523 32.274-64.53-7.585-28.998-34.307-47.14-59.708-40.505C1899.798 2591.458 1885.359 2620.346 1892.934 2649.354z"></path>
                            <path d="M1884.373,2703c7.58,29.017,36.931,46.461,65.567,38.992c28.631-7.488,45.694-37.055,38.115-66.072
														c-7.571-29.007-36.922-46.452-65.553-38.973C1893.87,2644.425,1876.797,2674.002,1884.373,2703z"></path>
                            <path d="M1828.147,2701.715c7.502,18.555,28.828,30.641,47.631,26.979c18.794-3.661,27.957-21.675,20.445-40.23
														c-7.501-18.564-28.823-30.65-47.626-26.979C1829.799,2665.137,1820.646,2683.16,1828.147,2701.715z"></path>
                            <path d="M1804.265,2710.607c7.511,18.564,28.838,30.641,47.631,26.988c18.798-3.661,27.957-21.684,20.454-40.239
														c-7.506-18.574-28.828-30.65-47.626-26.989C1805.922,2674.039,1796.759,2692.043,1804.265,2710.607z"></path>
                            <path d="M1870.759,2698.898c7.502,18.564,28.824,30.65,47.622,26.988c18.798-3.662,27.957-21.675,20.455-40.239
														c-7.507-18.555-28.833-30.641-47.631-26.97C1872.406,2662.329,1863.243,2680.333,1870.759,2698.898z"></path>
                          </g>
                          <g>
                            <path d="M1346.101,2669.634c3.074,52.27-25.86,96.492-64.654,98.777c-38.785,2.285-72.724-38.23-75.803-90.5
														c-3.084-52.279,25.86-96.501,64.653-98.786C1309.078,2576.831,1343.017,2617.354,1346.101,2669.634z"></path>
                          </g>
                          <path d="M1165.11,2739.431c51.788,12.958,95.584-6.846,97.8-44.231c2.225-37.385-37.959-78.185-89.752-91.143
													c-51.797-12.948-95.583,6.855-97.808,44.241C1073.129,2685.674,1113.313,2726.473,1165.11,2739.431z"></path>
                          <path d="M1027.663 2626.688c-18.826 41.643-26.066 95.969 5.906 117.323 31.967 21.335 91.036 1.624 109.862-40.01 18.821-41.634 8.167-92.702-23.799-114.047C1087.66 2568.599 1046.485 2585.053 1027.663 2626.688zM1683.795 2575.986c0 51.013-82.718 92.372-184.748 92.372-102.03 0-184.744-41.359-184.744-92.372 0-51.021 82.713-92.381 184.744-92.381C1601.077 2483.605 1683.795 2524.965 1683.795 2575.986z"></path>
                        </g>
                        <g>
                          <g>
                            <path fill="#c5e0e0" d="M1369.964,2505.52c-2.294,66.833-48.145,119.507-102.397,117.644
														c-54.261-1.863-96.396-57.547-94.101-124.38c2.294-66.833,48.145-119.507,102.401-117.644
														C1330.124,2383.002,1372.259,2438.695,1369.964,2505.52z"></path>
                            <path fill="#c5e0e0" d="M1231.315,2551.43c-9.507,47.479-49.595,79.497-89.541,71.485
														c-39.946-8.002-64.617-52.967-55.114-100.456c9.511-47.471,49.599-79.488,89.541-71.486
														C1216.146,2458.976,1240.822,2503.941,1231.315,2551.43z"></path>
                          </g>
                          <g>
                            <path fill="#c5e0e0" d="M1583.664,2562.644c17.725,61.3,74.721,92.693,127.303,70.128
														c52.582-22.547,80.841-90.518,63.116-151.818c-17.715-61.3-74.711-92.693-127.293-70.137
														C1594.208,2433.373,1565.944,2501.344,1583.664,2562.644z"></path>
                            <path fill="#c5e0e0" d="M1750.876,2574.133c9.511,47.47,49.595,79.488,89.541,71.486
														c39.946-8.002,64.617-52.968,55.115-100.456c-9.507-47.47-49.595-79.479-89.541-71.486
														C1766.045,2481.669,1741.369,2526.644,1750.876,2574.133z"></path>
                            <path fill="#c5e0e0" d="M1695.555,2637.332c10.81,54.004,56.408,90.417,101.842,81.314
														c45.428-9.103,73.495-60.253,62.685-114.258c-10.819-54.005-56.409-90.408-101.842-81.305
														C1712.811,2532.177,1684.74,2583.319,1695.555,2637.332z"></path>
                            <path fill="#c5e0e0" d="M1675.853 2755.692c51.793 12.958 95.584-6.845 97.804-44.24 2.225-37.376-37.964-78.185-89.756-91.142-51.793-12.957-95.583 6.855-97.804 44.231C1583.871 2701.936 1624.06 2742.743 1675.853 2755.692zM1318.048 2470.713c9.502 47.47 49.586 79.478 89.536 71.485 39.95-8.002 64.622-52.967 55.11-100.465-9.503-47.461-49.59-79.479-89.536-71.485C1333.212 2378.249 1308.536 2423.224 1318.048 2470.713zM1513.275 2422.324c-17.28 43.497-5.589 83.223 26.121 88.701 31.705 5.478 71.426-25.346 88.701-68.843 17.284-43.506 5.593-83.223-26.117-88.71C1570.271 2347.994 1530.56 2378.818 1513.275 2422.324z"></path>
                            <path fill="#c5e0e0" d="M1425.363 2425.738c-13.627 46.461 7.02 93.427 46.117 104.879 39.092 11.461 81.823-16.922 95.446-63.383 13.623-46.48-7.025-93.437-46.117-104.889C1481.713 2350.885 1438.982 2379.258 1425.363 2425.738zM1851.644 2620.805c16.899 34.733 55.252 50.884 85.659 36.082 30.416-14.792 41.368-54.94 24.469-89.674-16.899-34.733-55.252-50.884-85.664-36.092C1845.702 2545.915 1834.746 2586.062 1851.644 2620.805z"></path>
                            <path fill="#c5e0e0" d="M1837.801 2648.399c19.216 39.506 62.837 57.886 97.428 41.056 34.591-16.83 47.049-62.502 27.824-101.998-19.22-39.505-62.841-57.886-97.424-41.056C1831.033 2563.231 1818.576 2608.903 1837.801 2648.399zM1339.383 2643.582c-19.115 36.77-11.998 83.553 15.885 104.476 27.902 20.922 66.007 8.075 85.127-28.714 19.115-36.771 12.003-83.553-15.89-104.476C1396.609 2593.945 1358.498 2606.801 1339.383 2643.582zM1524.544 2686.968c-17.068 37.771-7.414 84.085 21.588 103.457 29.003 19.372 66.352 4.441 83.425-33.33 17.068-37.771 7.406-84.085-21.588-103.466C1578.966 2634.285 1541.622 2649.198 1524.544 2686.968z"></path>
                            <path fill="#c5e0e0" d="M1436.628 2644.288c-3.171 41.341 21.703 81.58 55.56 89.903 33.876 8.314 63.892-18.445 67.062-59.776 3.175-41.332-21.703-81.58-55.564-89.885C1469.82 2576.207 1439.798 2602.966 1436.628 2644.288zM1877.284 2670.625c7.575 29.007 34.302 47.149 59.703 40.506 25.401-6.635 39.84-35.522 32.265-64.53-7.58-28.998-34.306-47.14-59.698-40.506C1884.152 2612.739 1869.704 2641.618 1877.284 2670.625zM1755.065 2703.339c7.502 18.564 28.828 30.641 47.622 26.988 18.808-3.661 27.961-21.684 20.455-40.239-7.502-18.564-28.829-30.641-47.631-26.988C1756.712 2666.771 1747.558 2684.775 1755.065 2703.339z"></path>
                            <path fill="#c5e0e0" d="M1806.821,2683.949c9.42,22.529,37.78,36.551,63.36,31.31
														c25.566-5.249,38.661-27.75,29.236-50.279c-9.42-22.528-37.789-36.541-63.355-31.301
														C1810.487,2638.92,1797.397,2661.42,1806.821,2683.949z"></path>
                          </g>
                          <g>
                            <path fill="#c5e0e0" d="M1358.613,2655.906c3.074,52.27-25.869,96.483-64.654,98.786
														c-38.79,2.285-72.734-38.239-75.813-90.509c-3.078-52.279,25.869-96.492,64.654-98.786
														C1321.59,2563.121,1355.53,2603.635,1358.613,2655.906z"></path>
                          </g>
                          <path fill="#c5e0e0" d="M1410.011,2704.514l135.735-7.892c9.319,53.6-31.278,132.446-111.56,111.119
													C1400.545,2776.092,1399.38,2753.132,1410.011,2704.514z"></path>
                          <ellipse cx="1506.723" cy="2561.726" fill="#c5e0e0" rx="184.744" ry="92.371"></ellipse>
                        </g>
                        <g>
                          <path fill="#fff" d="M1670.59,2538.757c0,51.022-82.709,92.381-184.743,92.381
													c-102.03,0-184.743-41.359-184.743-92.381c0-51.013,82.713-92.371,184.743-92.371
													C1587.881,2446.386,1670.59,2487.744,1670.59,2538.757z"></path>
                          <g>
                            <path fill="#fff" d="M1327.555,2457.948c-2.294,66.833-41.914,119.718-88.499,118.112
														c-46.585-1.597-82.488-57.069-80.194-123.903c2.289-66.824,41.909-119.708,88.494-118.112
														C1293.945,2335.642,1329.849,2391.115,1327.555,2457.948z"></path>
                            <path fill="#fff" d="M1210.438,2528.461c-9.507,47.489-49.595,79.488-89.545,71.504
														c-39.941-8.011-64.617-52.986-55.11-100.456c9.507-47.498,49.595-79.497,89.55-71.504
														C1195.27,2436.007,1219.945,2480.981,1210.438,2528.461z"></path>
                          </g>
                          <g>
                            <path fill="#fff" d="M1622.927,2547.603c10.346,58.667,54.646,85.535,98.938,60.015
														c44.295-25.511,71.807-93.757,61.456-152.423c-10.356-58.657-54.656-85.535-98.942-60.024
														C1640.087,2420.691,1612.571,2488.928,1622.927,2547.603z"></path>
                            <path fill="#fff" d="M1739.74,2539.592c9.511,47.489,49.594,79.497,89.54,71.495
														c39.95-8.002,64.622-52.967,55.115-100.447c-9.503-47.489-49.595-79.497-89.541-71.504
														C1754.909,2447.147,1730.238,2492.121,1739.74,2539.592z"></path>
                            <path fill="#fff" d="M1698.299,2618.575c14.866,51.554,55.624,80.167,91.027,63.915
														c35.403-16.26,52.059-71.238,37.193-122.783c-14.866-51.554-55.615-80.167-91.022-63.915
														C1700.093,2512.053,1683.437,2567.03,1698.299,2618.575z"></path>
                            <path fill="#fff" d="M1620.913 2687.198c34.724 40.551 81.891 49.774 105.352 20.583 23.46-29.181 14.334-85.728-20.386-126.279-34.724-40.552-81.892-49.765-105.352-20.574C1577.066 2590.109 1586.193 2646.656 1620.913 2687.198zM1297.167 2447.734c9.507 47.489 49.599 79.497 89.541 71.495 39.946-7.993 64.622-52.968 55.115-100.456-9.511-47.47-49.6-79.488-89.545-71.485C1312.335 2355.28 1287.664 2400.255 1297.167 2447.734zM1536.245 2395.859c-19.588 49.324-6.337 94.336 29.608 100.548 35.945 6.222 80.965-28.722 100.562-78.038 19.592-49.324 6.337-94.336-29.599-100.558C1600.861 2311.6 1555.841 2346.544 1536.245 2395.859z"></path>
                            <path fill="#fff" d="M1563.269 2472.318c-17.284 43.516-5.588 83.223 26.117 88.701 31.705 5.488 71.412-25.337 88.706-68.843 17.284-43.506 5.584-83.222-26.117-88.701C1620.266 2397.997 1580.549 2428.812 1563.269 2472.318zM1472.586 2497.233c48.388 1.771 88.82-29.815 90.298-70.522 1.487-40.717-36.546-75.147-84.934-76.909-48.393-1.762-88.82 29.824-90.307 70.531C1386.161 2461.031 1424.193 2495.471 1472.586 2497.233zM1830.772 2597.836c16.899 34.733 55.248 50.884 85.659 36.092 30.411-14.793 41.364-54.949 24.465-89.674-16.899-34.742-55.248-50.893-85.659-36.091C1824.821 2522.955 1813.869 2563.103 1830.772 2597.836z"></path>
                            <path fill="#fff" d="M1816.915,2625.439c19.225,39.497,62.846,57.877,97.442,41.047
														c34.586-16.83,47.048-62.502,27.823-101.998c-19.225-39.496-62.841-57.877-97.433-41.047
														C1810.161,2540.271,1797.704,2585.934,1816.915,2625.439z"></path>
                            <path fill="#e3e3e3" d="M1826.519,2559.708c-5.031-14.691-12.126-28.685-21.874-40.555
														c-5.028-5.794-10.523-11.145-16.728-15.585c-6.315-4.246-13.249-7.544-20.583-9.283
														c-14.678-3.927-30.686,0.317-42.62,9.666c-12.109,9.369-20.4,23.086-25.892,37.542
														c4.229-14.894,12.053-29.298,24.336-39.488c12.097-10.194,29.297-14.82,44.923-10.869
														c7.771,1.945,15.01,5.516,21.53,10.025c6.365,4.728,12.106,10.229,16.965,16.434
														C1816.167,2530.095,1822.764,2544.627,1826.519,2559.708z"></path>
                            <g>
                              <path fill="#fff" d="M1885.212,2695.622c34.596-16.82,47.048-62.493,27.823-101.998
															c-19.216-39.505-62.832-57.877-97.428-41.047L1885.212,2695.622z"></path>
                              <path fill="#e3e3e3" d="M1885.212,2695.622c17.47-9.104,29.379-26.463,33.426-45.196
															c4.219-18.795,1.415-38.86-7.057-56.092c-8.335-17.295-22.385-31.894-39.783-40.162
															c-17.238-8.374-38.243-9.711-56.192-1.595c8.641-4.624,18.52-6.903,28.398-6.972
															c9.899,0.014,19.763,2.29,28.834,6.303c18.225,8.079,32.824,23.243,41.653,41.011
															c8.522,17.915,11.454,38.757,6.559,58.083c-2.438,9.614-6.729,18.783-12.829,26.578
															C1902.074,2685.312,1894.183,2691.677,1885.212,2695.622z"></path>
                            </g>
                            <path fill="#fff" d="M1344.114 2633.331c-19.12 36.78-11.998 83.553 15.889 104.485 27.897 20.914 66.007 8.075 85.122-28.713 19.119-36.78 11.998-83.553-15.889-104.476C1401.339 2583.695 1363.233 2596.551 1344.114 2633.331zM1528.894 2637.681c-17.078 37.771-7.415 84.094 21.588 103.466 28.993 19.363 66.347 4.432 83.42-33.338 17.064-37.762 7.406-84.095-21.592-103.448C1583.307 2584.998 1545.962 2599.919 1528.894 2637.681z"></path>
                            <path fill="#c5e0e0" d="M1165.546,2692.851c51.797,12.957,95.579-6.845,97.809-44.24
														c2.216-37.367-37.973-78.194-89.766-91.142c-51.788-12.957-95.578,6.855-97.8,44.231
														C1073.565,2639.094,1113.749,2679.902,1165.546,2692.851z"></path>
                            <path fill="#c5e0e0" d="M1026.227,2601.846c-17.073,37.781-7.41,84.095,21.593,103.457
														c28.998,19.363,66.342,4.441,83.42-33.32c17.073-37.78,7.405-84.095-21.592-103.457
														C1080.649,2549.154,1043.305,2564.075,1026.227,2601.846z"></path>
                            <path fill="#fff" d="M1110.606,2624.356c34.719,40.551,81.887,49.774,105.352,20.583
														c23.46-29.181,14.334-85.719-20.39-126.279c-34.724-40.552-81.892-49.765-105.352-20.574
														C1066.751,2527.268,1075.886,2583.814,1110.606,2624.356z"></path>
                            <path fill="#fff" d="M1196.311 2653.134c43.951 30.301 91.903 27.135 107.105-7.094 15.205-34.22-8.099-86.536-52.05-116.845-43.951-30.311-91.903-27.135-107.109 7.093C1129.056 2570.517 1152.36 2622.824 1196.311 2653.134zM1018.578 2574.84c-17.068 37.78-7.405 84.094 21.593 103.457 28.998 19.372 66.347 4.442 83.416-33.329 17.077-37.771 7.41-84.085-21.584-103.457C1073.005 2522.148 1035.656 2537.078 1018.578 2574.84z"></path>
                            <g>
                              <path fill="#fff" d="M1235.798,2544.924c21.565-8.149,33.265-30.072,26.135-48.957
															c-7.14-18.876-30.411-27.585-51.981-19.436c-21.574,8.148-33.274,30.072-26.14,48.957
															C1190.947,2544.364,1214.224,2553.073,1235.798,2544.924z"></path>
                              <path fill="#e3e3e3" d="M1235.798,2544.924c9.548-3.719,17.933-10.551,22.962-19.456
															c5.034-8.849,6.229-19.889,2.419-29.218c-3.696-9.402-12.086-16.292-21.508-19.225
															c-9.437-3.11-19.906-2.529-29.151,1.021c-9.278,3.461-17.518,9.941-22.537,18.516
															c-5.114,8.437-6.857,19.146-3.407,28.64c3.308,9.518,11.507,17.002,21.133,20.314
															C1215.369,2548.868,1226.176,2548.447,1235.798,2544.924z M1235.798,2544.924c-9.565,3.669-20.415,4.279-30.241,1.039
															c-9.804-3.055-18.629-10.288-22.505-20.186c-4.005-9.818-2.721-21.408,2.526-30.599
															c5.236-9.259,13.924-16.329,23.797-20.157c9.941-3.646,21.128-4.098,31.179-0.615
															c10.007,3.434,18.639,11.261,22.132,21.274c3.64,9.985,1.806,21.243-3.52,30.022
															C1253.941,2534.631,1245.4,2541.351,1235.798,2544.924z"></path>
                            </g>
                            <g>
                              <path fill="#fff" d="M1198.11,2654.226c36.573-7.314,61.038-39.212,54.633-71.238
															c-6.396-32.036-41.231-52.087-77.808-44.773c-36.578,7.313-61.038,39.193-54.637,71.238
															C1126.693,2641.489,1161.536,2661.521,1198.11,2654.226z"></path>
                              <path fill="#e3e3e3" d="M1198.11,2654.226c16.221-3.415,31.408-12.104,41.786-24.989
															c10.371-12.794,15.192-30.099,11.568-45.995c-3.405-15.985-14.964-29.207-29.225-36.384
															c-14.235-7.463-31.1-9.303-46.793-6.078c-15.721,3.076-30.585,11.239-40.86,23.6
															c-10.391,12.115-15.996,28.747-12.999,44.812c2.758,16.066,13.857,30.185,28.344,38.018
															C1164.462,2655.118,1181.822,2657.303,1198.11,2654.226z M1198.11,2654.226c-16.236,3.325-33.714,1.429-48.539-6.342
															c-14.838-7.471-27.005-21.354-30.565-38.177c-3.797-16.726,1.308-34.886,12.11-48.17
															c10.803-13.396,26.537-22.381,43.304-25.886c16.828-3.194,34.805-0.958,49.923,7.262
															c15.062,8.131,26.759,22.916,29.677,39.818c3.178,16.896-2.72,34.383-13.538,46.987
															C1229.784,2642.591,1214.377,2651.058,1198.11,2654.226z"></path>
                            </g>
                            <g>
                              <path fill="#fff" d="M1131.956,2609.087c1.032-27.603-9.787-54.096-29.952-67.577
															c-28.998-19.362-66.347-4.432-83.425,33.33L1131.956,2609.087z"></path>
                              <path fill="#e3e3e3" d="M1131.956,2609.087c-0.243-7.508-1.064-14.959-2.915-22.151
															c-1.713-7.206-4.255-14.2-7.772-20.637c-3.607-6.37-7.881-12.356-13.193-17.302
															c-5.305-4.921-11.586-8.74-18.327-11.128c-6.724-2.473-14.039-3.225-21.168-2.334
															c-7.162,0.852-14.019,3.504-20.364,7.045c-12.773,7.215-22.53,19.096-29.639,32.259
															c2.738-7.002,6.465-13.635,10.984-19.77c4.705-5.987,10.391-11.257,16.861-15.451
															c12.859-8.448,29.886-11.254,44.814-5.993c7.351,2.747,14.062,7.026,19.65,12.401
															c5.534,5.428,10.158,11.759,13.45,18.7C1130.961,2578.596,1133.398,2594.131,1131.956,2609.087z"></path>
                            </g>
                            <g>
                              <path fill="#fff" d="M1608.845,2696.273c41.556-20.308,60.827-66.274,43.038-102.686
															c-17.78-36.395-65.902-49.453-107.458-29.135c-41.557,20.308-60.822,66.273-43.039,102.677
															C1519.18,2703.523,1567.289,2716.581,1608.845,2696.273z"></path>
                              <path fill="#e3e3e3" d="M1608.845,2696.273c18.421-9.116,33.994-24.337,42.248-43.147
															c8.364-18.635,8.703-40.898-0.662-58.825c-9.13-18.089-27.164-30.319-46.54-34.395
															c-19.442-4.313-40.183-1.261-58.035,7.461c-17.851,8.731-32.992,23.221-41.537,41.205
															c-4.242,8.965-6.906,18.745-7.252,28.709c-0.383,9.945,1.549,20.017,5.786,29.13
															c8.385,18.401,26.154,31.808,45.991,36.67C1568.755,2708.132,1590.333,2705.207,1608.845,2696.273z
															 M1608.845,2696.273c-18.47,9.023-39.966,12.196-60.211,7.696c-10.085-2.247-19.857-6.346-28.322-12.489
															c-8.472-6.101-15.582-14.23-20.393-23.635c-9.841-18.867-9.422-42.245-0.699-61.605
															c8.601-19.561,24.744-35.3,43.785-44.708c19.127-9.241,41.461-12.288,62.174-7.055
															c20.623,5.031,39.326,19.045,48.158,38.404c4.464,9.572,6.51,20.173,6.12,30.604
															c-0.352,10.452-3.125,20.677-7.544,30.016C1643.024,2672.237,1627.314,2687.247,1608.845,2696.273z"></path>
                            </g>
                            <path fill="#fff" d="M1415.751,2621.337c-3.179,41.322,21.708,81.562,55.569,89.885
														c33.857,8.323,63.883-18.445,67.062-59.776c3.17-41.322-21.712-81.571-55.578-89.885
														C1448.948,2553.238,1418.922,2580.006,1415.751,2621.337z"></path>
                            <g>
                              <path fill="#fff" d="M1648.401,2589.412c40.749,8.708,79.956-13.169,87.572-48.847
															c7.626-35.679-19.23-71.66-59.973-80.359c-40.744-8.7-79.951,13.159-87.572,48.847
															C1580.802,2544.731,1607.657,2580.703,1648.401,2589.412z"></path>
                              <path fill="#e3e3e3" d="M1648.401,2589.412c18.137,3.718,37.574,1.576,53.959-7.022
															c16.345-8.48,29.088-24.057,32.517-42.056c3.693-17.982-2.247-36.851-13.741-50.677
															c-11.361-14.089-27.951-23.547-45.603-27.253c-17.628-3.811-36.63-1.971-52.756,6.248
															c-16.129,7.936-29.264,22.714-33.242,40.635c-4.229,17.826,1.039,37.246,12.488,51.667
															C1613.464,2575.493,1630.328,2585.39,1648.401,2589.412z M1648.401,2589.412
															c-18.115-3.809-35.172-13.516-46.892-28.05c-5.854-7.219-10.461-15.551-12.997-24.59
															c-2.566-9.012-3.04-18.681-1.189-27.959c3.573-18.715,16.834-34.868,33.686-43.586
															c16.895-8.855,36.863-11.047,55.463-7.218c18.537,4.117,35.868,14.266,47.669,29.253
															c11.801,14.851,17.318,35,12.928,53.54c-2.102,9.222-6.483,17.852-12.505,25.029
															c-6.005,7.215-13.615,12.935-21.903,17.138C1686.025,2591.448,1666.491,2593.341,1648.401,2589.412z"></path>
                            </g>
                            <g>
                              <path fill="#fff" d="M1822.353,2619.961c7.63-35.678-19.23-71.66-59.969-80.359
															c-40.748-8.699-79.96,13.168-87.581,48.847L1822.353,2619.961z"></path>
                              <path fill="#e3e3e3" d="M1822.353,2619.961c3.097-18.424-3.056-37.242-14.684-51.034
															c-11.58-13.941-28.06-23.481-45.759-27.127c-17.644-3.887-36.585-1.926-52.846,6.078
															c-16.248,7.835-29.55,22.494-34.262,40.571c1.432-9.195,5.444-17.981,11.101-25.514
															c5.77-7.475,13.243-13.609,21.571-18.135c16.76-9.071,36.789-11.149,55.375-7.398
															c18.492,4.176,35.932,14.241,47.516,29.376c5.751,7.532,10.071,16.181,12.278,25.362
															C1824.73,2601.325,1824.802,2610.983,1822.353,2619.961z"></path>
                            </g>
                            <path fill="#fff" d="M1866.12,2659.806c7.575,29.007,34.311,47.131,59.703,40.506
														c25.396-6.644,39.84-35.532,32.265-64.54c-7.579-28.989-34.306-47.131-59.708-40.487
														C1872.994,2601.91,1858.54,2630.799,1866.12,2659.806z"></path>
                            <g>
                              <path fill="#fff" d="M1508.113,2719.509c18.275,14.059,43.07,12.489,55.377-3.524
															c12.315-15.995,7.484-40.368-10.792-54.436c-18.28-14.049-43.084-12.471-55.39,3.524
															C1484.997,2681.077,1489.838,2705.45,1508.113,2719.509z"></path>
                              <path fill="#e3e3e3" d="M1508.113,2719.509c8.184,6.165,18.404,9.707,28.623,9.302
															c10.174-0.371,20.192-5.165,26.116-13.319c6.06-8.084,7.512-18.843,5.053-28.401
															c-2.315-9.662-8.316-18.262-16.195-24.261c-7.825-6.066-17.672-9.663-27.605-9.421
															c-9.865,0.088-19.892,4.234-26.153,12.162c-6.356,7.819-8.414,18.728-6.168,28.657
															C1494.013,2704.208,1500.056,2713.178,1508.113,2719.509z M1508.113,2719.509
															c-8.152-6.205-14.378-15.112-16.79-25.174c-2.557-9.946-1.043-21.256,5.339-29.756
															c6.245-8.57,16.78-13.569,27.356-13.941c10.629-0.416,21.211,3.25,29.664,9.63c8.327,6.541,14.594,15.818,16.916,26.2
															c2.341,10.318,0.217,21.778-6.468,30.008c-6.57,8.353-17.111,12.719-27.379,12.805
															C1526.407,2729.53,1516.202,2725.796,1508.113,2719.509z"></path>
                            </g>
                            <g>
                              <path fill="#fff" d="M1515.528,2658.677c33.802-16.536,49.485-53.931,35.022-83.543
															c-14.462-29.613-53.587-40.23-87.384-23.703c-33.802,16.518-49.485,53.921-35.027,83.525
															C1442.602,2664.577,1481.726,2675.186,1515.528,2658.677z"></path>
                              <path fill="#e3e3e3" d="M1515.528,2658.677c14.946-7.5,27.53-19.875,34.349-35.107
															c6.836-15.143,7.103-33.261-0.502-47.843c-7.415-14.725-22.085-24.662-37.838-28.007
															c-15.802-3.629-32.728-1.097-47.208,6.08c-14.548,7.034-26.951,18.815-33.803,33.511
															c-7.028,14.485-8.238,32.148-1.195,47.054c6.808,14.968,21.254,25.902,37.396,29.83
															C1482.931,2668.185,1500.429,2665.862,1515.528,2658.677z M1515.528,2658.677
															c-14.985,7.414-32.523,10.051-48.98,6.269c-16.392-3.485-31.819-13.916-39.605-29.415
															c-7.993-15.347-7.662-34.373-0.534-50.103c7.101-15.84,20.143-28.648,35.602-36.37
															c15.596-7.438,33.709-9.87,50.568-5.727c16.78,4.07,31.985,15.497,39.16,31.242
															c7.426,15.672,6.155,34.242-1.166,49.315C1543.438,2639.191,1530.583,2651.406,1515.528,2658.677z"></path>
                            </g>
                            <path fill="#fff" d="M1753.578,2692.502c6.46,22.143,27.411,35.504,46.787,29.842
														c19.386-5.653,29.856-28.181,23.396-50.324c-6.46-22.143-27.411-35.495-46.792-29.833
														C1757.584,2647.839,1747.113,2670.368,1753.578,2692.502z"></path>
                            <path fill="#fff" d="M1817.291,2677.452c6.46,22.134,29.177,34.972,50.751,28.677
														c21.561-6.296,33.807-29.338,27.346-51.472c-6.465-22.143-29.181-34.99-50.747-28.686
														C1823.068,2632.257,1810.827,2655.309,1817.291,2677.452z"></path>
                            <g>
                              <path fill="#fff" d="M1044.59,2671.937c0.17-12.81,2.854-25.924,8.378-38.147
															c17.073-37.761,54.422-52.692,83.42-33.32c12.15,8.112,20.881,20.95,25.681,35.908L1044.59,2671.937z"></path>
                              <path fill="#e3e3e3" d="M1044.59,2671.937c-0.477-7.814,0.283-15.711,1.855-23.462
															c1.656-7.752,4.555-15.199,8.118-22.344c7.435-14.039,19.142-26.521,34.397-32.757
															c7.584-3.026,15.903-4.443,24.095-3.698c8.169,0.787,16.139,3.584,22.833,8.145
															c6.821,4.372,12.458,10.328,16.884,16.918c4.272,6.711,7.483,14.022,9.297,21.638
															c-2.948-7.232-6.581-14.153-11.405-20.129c-4.676-6.039-10.338-11.329-16.918-14.97
															c-12.904-7.769-29.068-8.817-42.802-3.008c-13.925,5.556-24.934,16.919-32.844,29.829
															c-3.821,6.595-7.042,13.608-9.161,21.021C1046.574,2656.471,1045.304,2664.154,1044.59,2671.937z"></path>
                            </g>
                          </g>
                          <g>
                            <path fill="#fff" d="M1379.439,2640.489c-12.085,50.948-52.531,84.975-90.339,76
														c-37.803-8.956-58.652-57.537-46.562-108.486c12.086-50.939,52.532-84.966,90.335-76
														C1370.68,2540.969,1391.53,2589.54,1379.439,2640.489z"></path>
                          </g>
                          <path fill="#fff" d="M1411.254,2690.052l136.644-12.544c9.314,53.619-54.568,135.74-110.348,110.642
													C1403.904,2756.5,1400.619,2738.66,1411.254,2690.052z"></path>
                        </g>
                        <g>
                          <path fill="#d5f5f5" d="M1610.456 2353.729c33.224 7.579 50.802 43.212 44.718 84.617.486.285.963.578 1.431.881 5.708-5.414 11.829-10.085 18.317-13.838 41.294-23.776 82.58-2.019 96.373 48.59 4.446-2.065 9.163-3.625 14.109-4.616 32.953-6.598 65.984 14.049 81.887 48.131 5.672-1.165 11.494-1.385 17.284-.807-3.799-.963-7.657-1.597-11.521-1.808-12.104-43.139-49.939-71.256-87.651-63.704-4.946.991-9.663 2.551-14.109 4.616-13.792-50.609-55.078-72.376-96.373-48.581-4.62 2.652-9.048 5.809-13.279 9.351 12.196-43.653-1.748-81.094-34.288-86.71-26.08-4.515-56.9 12.682-79.364 41.258C1567.353 2356.088 1589.863 2349.04 1610.456 2353.729zM1065.2 2509.759c1.078-.156 2.156-.321 3.244-.44 10.062-43.644 46.521-73.532 84.553-67.76 2.001.303 3.955.725 5.882 1.202 6.694-56.087 40.423-98.878 81.612-99.41 25.295-.312 48.172 15.371 63.961 40.45 9.337-15.912 23.671-27.722 41.469-32.164 22.836-5.698 46.328 1.946 64.374 18.455 15.683-13.279 37.307-21.611 61.282-21.868 25.015-.266 47.672 8.323 63.8 22.299-2.845 3.625-5.538 7.424-8.03 11.443-15.109-9.948-34.201-15.802-54.922-15.573-23.964.257-45.585 8.589-61.267 21.868-18.05-16.518-41.547-24.162-64.378-18.463-17.798 4.45-32.137 16.261-41.46 32.173-15.793-25.08-38.675-40.771-63.97-40.441-41.184.523-74.923 43.314-81.612 99.401-1.936-.477-3.882-.909-5.882-1.202-35.793-5.433-70.187 20.721-82.498 60.208-2.023-.587-4.083-1-6.157-1.349V2509.759z"></path>
                        </g>
                      </g>
                      <g>
                        <path fill="#fff" d="M1565.265,2444.77c-29.929,40.102-128.445,45.094-149.652,0l66.507-498.528
												L1565.265,2444.77z"></path>
                      </g>
                      <g>
                        <path fill="#fff" d="M1515.579,2517.843c0.44-8.938-1.239-17.885-5.313-26.227
												c-14.458-29.613-53.587-40.23-87.38-23.703c-33.807,16.518-49.489,53.921-35.032,83.534L1515.579,2517.843z"></path>
                        <path fill="#e3e3e3" d="M1515.579,2517.843c0.125-19.139-10.463-37.086-26.23-46.442
												c-15.895-9.257-35.575-10.991-53.139-5.799c-17.636,5.061-33.441,16.621-43.156,32.305
												c-9.906,15.516-12.575,35.868-5.2,53.541c-4.672-8.318-6.726-18.085-6.455-27.779c0.358-9.736,3.432-19.274,8.145-27.816
												c9.493-17.21,26.38-29.829,45.2-35.328c18.814-5.455,40.182-3.392,56.762,7.45c8.156,5.495,14.909,13.038,19.193,21.782
												C1514.944,2498.503,1516.637,2508.388,1515.579,2517.843z"></path>
                      </g>
                      <path fill="#d3f0f0" d="M1482.8,1948.986l75.45,458.059c1.17,17.601-4.891,31.806-13.595,42.699
											c-1.712-10.627-41.455-271.214-59.111-415.223C1477.808,1971.459,1482.8,1948.986,1482.8,1948.986z"></path>
                    </g>
                  </g>
                </g>
              </g>
              <g>
                <g>
                  <path fill="#fff" d="M1260.309,2589.834c-23.823-46.635-15.073-98.759,19.528-116.432
									c34.605-17.675,81.961,5.799,105.779,52.426L1260.309,2589.834z"></path>
                  <path fill="#e3e3e3" d="M1260.309,2589.834c-10.545-18.973-16.381-41.064-14.598-63.194
									c0.822-11.028,3.921-21.993,9.396-31.77c5.457-9.76,13.634-18.206,23.705-23.47c10.165-5.083,21.805-6.751,32.911-5.453
									c11.129,1.301,21.834,5.205,31.251,11.007c18.975,11.529,33.455,29.206,42.641,48.873
									c-5.469-9.401-11.776-18.27-19.268-26.018c-7.368-7.831-15.792-14.671-25.115-19.862
									c-9.323-5.118-19.449-8.905-29.945-9.926c-10.447-1.086-21.144,0.627-30.429,5.383
									c-9.301,4.726-16.956,12.397-22.201,21.496c-5.32,9.105-8.2,19.526-9.516,30.081c-1.259,10.597-0.65,21.432,1.373,31.992
									C1252.404,2569.585,1255.894,2579.894,1260.309,2589.834z"></path>
                </g>
              </g>
              <g>
                <path fill="#fff" d="M1425.877,2653.097c19.12-36.78,12.003-83.553-15.889-104.476
								c-27.897-20.923-66.003-8.066-85.127,28.704c-9.539,18.363-12.549,39.221-9.69,58.115L1425.877,2653.097z"></path>
                <path fill="#e3e3e3" d="M1425.877,2653.097c4.827-10.49,7.931-21.691,8.906-33.07
								c1.101-11.337,0.35-22.893-2.829-33.757c-3.183-10.791-8.122-21.242-15.899-29.299c-3.693-4.195-8.276-7.451-13.003-10.277
								c-4.868-2.632-10.132-4.401-15.556-5.314c-5.445-0.711-11.005-0.719-16.445,0.354c-5.371,1.234-10.735,2.914-15.56,5.75
								c-9.907,5.241-17.88,13.608-24.399,22.768c-6.469,9.285-11.03,19.92-13.657,31.015c-2.813,11.078-3.432,22.692-2.264,34.172
								c-4.294-22.708,0.27-47.292,13.035-67.101c6.341-9.874,14.843-18.654,25.297-24.437c5.122-3.081,10.878-4.992,16.698-6.386
								c5.895-1.232,11.99-1.33,17.983-0.582c5.956,1.063,11.707,3.081,16.968,6.013c5.112,3.118,9.998,6.715,13.905,11.243
								c8.156,8.756,13.443,19.791,16.233,31.198C1440.975,2608.279,1437.19,2632.974,1425.877,2653.097z"></path>
              </g>
              <g>
                <path fill="#fff" d="M1261.731,2670.404c23.249,17.885,54.785,15.875,70.444-4.478
								c15.664-20.363,9.516-51.361-13.733-69.237c-23.249-17.885-54.789-15.885-70.444,4.469
								C1232.338,2621.53,1238.487,2652.529,1261.731,2670.404z"></path>
                <path fill="#e3e3e3" d="M1261.731,2670.404c10.41,7.843,23.41,12.347,36.408,11.83
								c12.942-0.474,25.684-6.569,33.225-16.935c7.704-10.285,9.555-23.97,6.428-36.127c-2.944-12.29-10.578-23.229-20.606-30.854
								c-9.952-7.721-22.474-12.303-35.109-11.998c-12.548,0.109-25.301,5.387-33.263,15.474
								c-8.081,9.948-10.704,23.821-7.852,36.453C1243.794,2650.942,1251.48,2662.354,1261.731,2670.404z M1261.731,2670.404
								c-10.371-7.891-18.289-19.222-21.353-32.022c-3.248-12.653-1.317-27.036,6.796-37.85c7.94-10.904,21.34-17.268,34.793-17.738
								c13.52-0.527,26.979,4.145,37.726,12.263c10.596,8.313,18.571,20.115,21.524,33.321c2.976,13.125,0.271,27.699-8.228,38.171
								c-8.365,10.619-21.771,16.171-34.831,16.281C1285.001,2683.151,1272.019,2678.402,1261.731,2670.404z"></path>
              </g>
            </g>
            <path fill="#ffc417" d="M1547.018,1385.451c28.617-0.707,56.454,187.056,62.185,419.371
						c5.726,232.315-12.824,421.215-41.446,421.922c-28.617,0.716-56.464-187.056-62.185-419.362
						C1499.841,1575.058,1518.4,1386.158,1547.018,1385.451z"></path>
            <path fill="#ffab4a" d="M1409.41,1409.723c28.622-0.697,56.459,187.056,62.19,419.38
						c5.731,232.315-12.829,421.215-41.446,421.922c-28.622,0.707-56.464-187.056-62.194-419.362
						C1362.233,1599.34,1380.788,1410.439,1409.41,1409.723z"></path>
            <path fill="#ffa23b" d="M1467.815,1465.435c28.617-0.707,56.459,187.046,62.19,419.371
						c5.726,232.315-12.833,421.215-41.446,421.921c-28.622,0.707-56.463-187.056-62.19-419.371
						C1420.638,1655.032,1439.197,1466.132,1467.815,1465.435z"></path>
            <path fill="#ffa14a" d="M1481.708,1372.402c28.622-0.707,56.459,187.056,62.181,419.371
						c5.731,232.324-12.82,421.224-41.437,421.931c-28.622,0.698-56.468-187.056-62.19-419.371
						C1434.531,1562.009,1453.091,1373.118,1481.708,1372.402z"></path>
            <path fill="#ffd957" d="M1426.456,1323.289c28.622-0.706,56.463,187.056,62.185,419.371
						c5.731,232.324-12.829,421.224-41.441,421.931c-28.622,0.697-56.459-187.047-62.185-419.37
						C1379.283,1512.896,1397.838,1323.995,1426.456,1323.289z"></path>
            <path fill="#ffce3b" d="M1528.931,1219.823c28.617-0.707,56.454,187.056,62.181,419.38
						c5.726,232.306-12.824,421.215-41.451,421.913c-28.608,0.716-56.45-187.047-62.176-419.362
						C1481.754,1409.429,1500.314,1220.529,1528.931,1219.823z"></path>
            <path fill="#ffd64f" d="M1494.381,1340.623c22.561-0.551,44.516,147.477,49.026,330.651
						c4.519,183.174-10.113,332.11-32.678,332.661c-22.561,0.56-44.516-147.477-49.031-330.651
						C1457.183,1490.12,1471.82,1341.174,1494.381,1340.623z"></path>
            <path fill="#ffe07d" d="M1455.146,1298.989c22.561-0.551,44.511,147.486,49.026,330.66
						c4.519,183.165-10.113,332.111-32.678,332.661c-22.565,0.56-44.511-147.487-49.031-330.642
						C1417.944,1448.494,1432.581,1299.549,1455.146,1298.989z"></path>
            <path fill="#473a17" d="M1472.123,1127.62c22.565-0.555,44.515,147.482,49.026,330.656
						c4.52,183.156-10.113,332.111-32.669,332.67c-22.565,0.541-44.52-147.486-49.035-330.661
						C1434.93,1277.121,1449.558,1128.18,1472.123,1127.62z"></path>
            <path fill="#ccc" d="M1448.044,1607.332c8.548,4.836,29.59,6.864,47.007,4.524
						c13.939-1.854,21.326-5.956,19.353-9.984c3.964,8.103,9.254,18.913,13.224,27.016c1.982,4.056,4.634,9.452,6.616,13.508
						c3.959,8.094,9.259,18.904,13.223,27.007c3.964,8.112,9.259,18.913,13.224,27.016c1.982,4.056,4.629,9.461,6.612,13.508
						c3.965,8.103,9.264,18.913,13.228,27.016c3.969,8.103,9.259,18.904,13.224,27.006c1.982,4.065,4.634,9.461,6.612,13.517
						c2.001,4.074,4.331,8.837,6.658,13.6c0.729,16.609,1.303,33.596,1.808,50.792c-5.428,5.093-11.847,9.92-19.331,14.398
						c-55.468,33.164-146.701,34.091-203.776,2.064c-6.451-3.615-12.159-7.506-17.183-11.599c-0.119-4.028-0.28-7.938-0.381-11.985
						c-0.642-25.915-0.963-51.242-1.019-75.881c25.878-52.371,51.756-104.733,77.634-157.112
						C1443.859,1603.597,1444.859,1605.533,1448.044,1607.332z"></path>
            <path fill="#48565e" d="M1629.382,1750.799c-29.457-153.029-58.896-306.039-88.348-459.078
						c1.808,9.387-3.386,19.17-15.651,26.502c-21.758,13.003-57.551,13.37-79.933,0.808c-12.989-7.295-18.615-17.317-16.807-26.988
						l0,0c-28.585,153.185-57.161,306.379-85.741,459.564c-4.607,24.676,9.732,50.242,42.822,68.806
						c57.074,32.017,148.308,31.09,203.776-2.065C1620.752,1799.665,1633.989,1774.741,1629.382,1750.799z"></path>
          </g>
          <g>
            <g>
              <g>
                <polygon fill="#c5c5c5" points="1747.893 1026.674 1720.52 1010.766 1722.098 1569.02 1749.467 1584.923"></polygon>
              </g>
              <g>
                <path fill="#3a7aff" d="M1747.893,1026.674l1.574,558.249l123.21-71.128l-1.005-353.152
								c-0.037-13.237-3.868-23.891-10.898-30.347L1747.893,1026.674z"></path>
              </g>
            </g>
          </g>
          <g>
            <g>
              <g>
                <polygon fill="#c5c5c5" points="1248.618 1026.674 1275.992 1010.766 1274.404 1569.02 1247.035 1584.923"></polygon>
              </g>
              <g>
                <path fill="#3a7aff" d="M1248.618,1026.674l-1.583,558.249l-123.201-71.128l1-353.152
								c0.041-13.237,3.868-23.891,10.902-30.347L1248.618,1026.674z"></path>
              </g>
            </g>
          </g>
          <g>
            <g>
              <path fill="#828282" d="M1783.352,1580.747c3.84-14.251,5.841-28.732,5.882-43.598v-0.101c0,0.028,0,0.064,0,0.101
							c0-0.67,0.018-1.321,0.014-1.982c0.005,2.093-0.115,4.185-0.248,6.268c-0.023,0.431-0.046,0.854-0.064,1.276
							c-7.809,76.157-87.715,119.47-154.484,139.787c-118.846,36.826-316.904,21.849-395.268-86.499
							c-11.397-17.949-17.899-37.596-19.344-59.171c-0.28,17.096,2.473,34.789,8.14,52.288c0.009,0.027,0.014,0.055,0.023,0.082
							l0.091,0.248c1.17,3.579,2.464,7.121,3.813,10.645l0.776,2.166c0.294,0.679,0.615,1.395,0.931,2.102
							c2.538,6.14,5.497,12.324,8.938,18.537c0.096,0.184,0.197,0.386,0.294,0.569l0.174,0.303
							c2.124,3.762,4.414,7.543,6.905,11.315l0.326,0.541c0.262,0.358,0.542,0.743,0.808,1.12
							c4.111,6.084,8.723,12.168,13.884,18.179c0.876,1.083,1.73,2.138,2.537,3.12c3.322,3.506,7.034,7.47,10.374,10.92
							c13.361,13.022,28.09,24.694,45.374,34.835h0.009c74.455,46.14,176.659,57.005,264.988,37.468
							c0.67-0.129,1.381-0.285,2.005-0.413c5.666-1.367,11.755-2.927,17.427-4.35c5.584-1.56,12.953-3.973,18.495-5.68
							c4.015-1.487,12.655-4.671,16.738-6.194c5.772-2.34,13.311-5.809,18.996-8.342l15.697-8.14
							c6.222-3.643,13.058-7.699,19.152-11.737c0.046-0.018,0.101-0.055,0.151-0.083l0.018-0.018
							c27.902-18.537,51.967-42.919,68.512-71.908c1.84-3.093,3.198-5.653,4.836-9.112c2.138-4.34,4.125-8.764,5.928-13.297
							c0.285-0.642,0.56-1.285,0.863-1.973l0.785-2.266c1.358-3.634,2.629-7.296,3.818-10.994l-0.275,0.78
							c0.014-0.046,0.032-0.11,0.046-0.165c0.096-0.266,0.188-0.532,0.28-0.789l0,0
							C1782.292,1584.601,1782.82,1582.702,1783.352,1580.747z"></path>
              <path fill="#f1f1f1" d="M1788.807,1544.243c0.188-3.019,0.441-6.038,0.441-9.076l-1.817-995.432
							c-6.245,119.098-172.878,163.667-271.577,165.493c-105.191,4.485-290.173-37.7-297.827-163.835l0,0l0,0l1.813,995.434
							c-0.734,80.075,99.736,136.061,178.586,152.387c91.05,20.161,189.57,15.214,275.927-21.226
							C1726.609,1645.296,1782.347,1605.111,1788.807,1544.243z"></path>
              <path fill="#dfdfe0" d="M1785.986,556.643c0.895-5.345,1.431-10.757,1.431-16.18c0,0.39,0,0.805,0,1.149
							c0.041-2.395-0.014-4.838-0.041-7.233c0,0.144,0,0.312,0,0.465c-0.583-18.58-0.637-16.408-1.711-27.957
							c-0.023-0.25-0.051-0.527-0.069-0.769c-0.853-7.27-2.06-16.726-3.45-23.841l0.082,0.498
							c-1.225-6.873-2.73-13.595-4.345-20.308c-3.785-15.057-8.213-28.835-13.907-42.93c0.005,0.023,0.018,0.048,0.027,0.071
							c-10.14-24.701-20.569-44.217-37.982-68.528l0,0c-4.327-6.121-9.301-12.06-14.518-18.408
							c45.456,53.362,20.859,113.053-33.049,148.03c-51.169,33.495-113.56,46.151-174.112,46.876
							c-54.729,0.19-110.504-9.693-159.365-35.073c-62.818-31.813-104.067-96.414-52.165-158.693
							c-0.357,0.438-0.766,0.933-1.161,1.411c0.082-0.101,0.156-0.202,0.238-0.303c-2.344,2.859-4.652,5.735-6.878,8.548
							c-2.23,2.959-4.474,5.953-6.612,8.844c-2.257,3.166-4.735,6.793-6.887,9.963c-33.448,50.671-51.228,107.752-53.307,167.604
							c-0.009,0.245-0.018,0.516-0.032,0.752c-0.046,3.228-0.106,7.534-0.147,10.762l0,0
							c-1.133,59.962,60.304,112.129,125.843,136.36c-0.005,0-0.005-0.002-0.005-0.002c3.052,1.172,6.126,2.29,9.195,3.423
							c8.231,2.907,16.559,5.559,24.969,7.924v-0.002c9.892,2.75,19.89,5.143,29.957,7.194c0,0,0-0.002-0.005-0.007
							c2.717,0.521,5.437,1.062,8.158,1.572c0.004,0,0.004,0,0.004,0c6.63,1.184,13.288,2.26,19.964,3.185
							c-0.009-0.002-0.019-0.014-0.023-0.021c9.149,1.285,18.348,2.214,27.552,2.971c-0.009,0-0.009-0.005-0.014-0.009
							c9.259,0.723,18.537,1.152,27.823,1.384c0,0,0,0-0.005,0c9.654,0.181,19.312,0.101,28.961-0.241c-0.005,0-0.005,0-0.009,0
							c10.457-0.431,20.904-1.115,31.306-2.182c0,0-0.009-0.004-0.014-0.007c12.003-1.255,23.96-2.934,35.834-5.068
							c-0.023-0.002-0.05-0.009-0.078-0.012c17.137-3.101,34.086-7.233,50.687-12.434c-0.083,0.009-0.166,0.016-0.252,0.023
							c27.406-8.695,52.279-19.519,75.5-34.401c-0.064,0.067-0.147,0.142-0.216,0.207c11.705-7.585,23.019-15.988,33.054-25.612
							c-0.005,0.007-0.014,0.014-0.014,0.021c6.102-5.882,11.782-12.099,16.894-18.819c-0.009,0.033-0.028,0.071-0.046,0.106
							c4.079-5.4,7.841-11.042,11.071-16.983c-0.004,0.016-0.009,0.037-0.018,0.053c2.808-5.215,5.282-10.606,7.305-16.169
							c-0.005,0.002-0.005,0.007-0.005,0.011c1.863-5.258,3.359-10.638,4.373-16.123c-0.005,0.046-0.009,0.094-0.009,0.135
							C1785.829,557.46,1785.922,557.052,1785.986,556.643z"></path>
              <g>
                <polygon fill="#c9c9c9" points="1561.7 263.024 1561.7 263.024 1561.7 263.024"></polygon>
                <path fill="#e6e6e6" d="M1601.426,216.79c-0.032-0.805-0.037-1.608-0.096-2.413l0.005,0.002
								c-0.115-1.225-0.225-2.457-0.486-3.664c0.009,0.016,0.014,0.034,0.032,0.05c-0.243-1.214-0.514-2.42-0.867-3.611
								c0.005,0.007,0.01,0.016,0.014,0.023c-0.371-1.225-0.78-2.441-1.271-3.622c0.009,0.009,0.018,0.023,0.023,0.03
								c-0.518-1.23-1.069-2.448-1.698-3.627c0.005,0.014,0.014,0.03,0.028,0.041c-0.665-1.237-1.372-2.443-2.138-3.618h0.005l0,0
								c-0.941-1.418-1.927-2.785-3.024-4.095c0.106,0.131,0.243,0.285,0.353,0.408c-0.964-1.225-1.932-2.269-3.033-3.485
								c-6.694-7.992-18.84-17.669-26.901-22.384c0.477,0.287,0.987,0.603,1.413,0.86c-3.125-1.95-7.231-4.183-9.534-5.343
								c-0.064-0.035-0.147-0.076-0.216-0.113c-5.593-2.677-5.065-2.485-12.333-5.281l0.262,0.087l-0.482-0.174l-0.445-0.149
								c-1.666-0.601-3.409-1.188-5.093-1.684l-0.05-0.018c-1.95-0.583-3.978-1.099-6.029-1.65l-0.739-0.165
								c-1.294-0.314-2.707-0.624-4.212-0.927l-0.472-0.105c-3.18-0.606-6.424-1.138-10.393-1.537l-0.417-0.05
								c-1.579-0.161-3.685-0.287-5.268-0.408l-4.052-0.129c0.087,0,0.165-0.007,0.248-0.007c-1.624-0.053-3.322-0.041-6.644,0.03
								c-3.382,0.156-6.993,0.374-10.475,0.831l0.05-0.005c-3.693,0.408-7.713,1.211-11.301,1.966
								c-4.634,1.189-5.107,1.152-11.154,3.12c0.028-0.014,0.06-0.025,0.092-0.039l-0.945,0.312l-0.399,0.147
								c-3.955,1.298-9.172,3.553-12.457,5.141c-0.165,0.071-0.344,0.154-0.495,0.227l-0.395,0.204
								c-9.893,4.854-17.844,10.372-25.763,17.217c-0.179,0.163-0.326,0.296-0.496,0.454c-1.266,1.101-2.29,2.042-3.4,3.177
								c-1.381,1.328-2.547,2.496-3.57,3.563c-0.083,0.087-0.183,0.184-0.266,0.266c-0.115,0.124-0.243,0.271-0.363,0.402
								c-12.664,12.464-18.954,29.446-10.498,46.145c0-0.012,0-0.021,0.004-0.028c1.487,3.01,3.377,5.8,5.446,8.447
								c0,0,0-0.009,0-0.014c1.753,2.115,3.643,4.118,5.634,6.022c-0.004-0.021-0.004-0.044-0.004-0.069
								c1.729,1.721,3.689,3.18,5.593,4.729c-0.005-0.009-0.005-0.023-0.01-0.032c1.808,1.356,3.703,2.588,5.584,3.871
								c0-0.023-0.005-0.044-0.013-0.064c1.798,1.221,3.693,2.29,5.625,3.334v-0.005c1.831,0.987,3.694,1.907,5.575,2.787v-0.002
								c1.83,0.842,3.684,1.647,5.556,2.399l0,0c1.807,0.714,3.629,1.39,5.46,2.04c0-0.005,0-0.007,0-0.007
								c1.808,0.631,3.634,1.205,5.465,1.762v-0.005c0.844,0.251,1.684,0.496,2.528,0.727l0.004,0.002
								c0.977,0.271,1.959,0.525,2.937,0.785v-0.002c1.711,0.436,3.437,0.828,5.166,1.214v-0.002c1.661,0.36,3.331,0.686,5.011,1
								v-0.002c1.528,0.285,3.06,0.521,4.602,0.771v-0.002c1.427,0.211,2.859,0.402,4.29,0.592v-0.002
								c0.725,0.085,1.445,0.165,2.17,0.257c0.537,0.05,1.069,0.103,1.606,0.17v-0.002c1.262,0.122,2.528,0.23,3.785,0.342l0,0
								c1.014,0.062,2.019,0.142,3.024,0.209l0,0c0.995,0.051,2,0.101,3,0.154l0,0c1,0.037,2.01,0.064,3.006,0.106v-0.007
								c0.858,0.025,1.716,0.028,2.569,0.048c0,0,0,0-0.005,0c0.84,0.002,1.675,0.002,2.514,0.011c0,0,0-0.004,0-0.009
								c0.831-0.009,1.67-0.009,2.515-0.021l-0.005-0.002c0.831-0.028,1.661-0.041,2.496-0.06c-0.005-0.005-0.005-0.007-0.005-0.007
								c0.798-0.032,1.611-0.062,2.414-0.091c-0.005-0.005-0.005-0.005-0.005-0.009c0.803-0.041,1.611-0.076,2.413-0.119
								c-0.005-0.007-0.009-0.009-0.014-0.014c0.808-0.055,1.615-0.096,2.418-0.154c-0.005-0.002-0.009-0.005-0.014-0.009
								c0.863-0.08,1.725-0.135,2.584-0.202c0,0-0.005-0.007-0.009-0.007c0.954-0.094,1.913-0.186,2.868-0.28l-0.004-0.005
								c0.954-0.126,1.904-0.227,2.854-0.326c-0.014-0.009-0.032-0.016-0.05-0.025c1.105-0.133,2.211-0.273,3.308-0.42
								c0,0-0.032-0.007-0.051-0.009c1.822-0.291,3.634-0.576,5.451-0.872c-0.06-0.007-0.142-0.018-0.202-0.027
								c4.322-0.78,8.576-1.728,12.733-2.857c-0.037,0.028-0.074,0.062-0.115,0.092c1.524-0.452,3.037-0.904,4.547-1.367
								c-0.027,0.025-0.064,0.055-0.092,0.078c1.358-0.449,2.712-0.89,4.052-1.349c-0.014,0.014-0.023,0.03-0.032,0.045
								c1.055-0.395,2.129-0.746,3.175-1.156c-0.009,0.007-0.009,0.018-0.018,0.028c1.033-0.429,2.092-0.787,3.12-1.232
								c-0.005,0.007-0.014,0.023-0.023,0.03c1.06-0.463,2.125-0.902,3.189-1.344v0.002c1.056-0.484,2.11-0.968,3.171-1.455v0.005
								c1.138-0.562,2.29-1.115,3.396-1.728c-0.005,0.014-0.005,0.028-0.009,0.041c1.363-0.707,2.712-1.443,4.001-2.258
								c-0.005,0.018-0.014,0.046-0.018,0.064c1.491-0.927,2.968-1.849,4.446-2.762c0,0.005,0,0.007,0,0.007
								c1.679-1.189,3.368-2.367,5.01-3.583l-0.005,0.005c1.775-1.485,3.579-2.93,5.244-4.515c0,0.005,0,0.009,0,0.009
								c1.523-1.558,3.102-3.065,4.451-4.779c0.005,0.018,0.005,0.034,0.005,0.053c1.188-1.468,2.335-2.964,3.382-4.538
								c0,0.007,0,0.016,0,0.023c0.886-1.37,1.721-2.769,2.473-4.212c0,0,0.004,0.007,0.004,0.011
								c0.633-1.326,1.285-2.647,1.79-4.033c0,0.009,0,0.017,0.005,0.023c0.458-1.285,0.899-2.576,1.248-3.888l0,0l0,0
								c0.289-1.269,0.601-2.531,0.771-3.815c0,0.004,0,0.011,0.004,0.018c0.17-1.228,0.252-2.46,0.33-3.696l0.005,0.007
								C1601.412,217.616,1601.416,217.203,1601.426,216.79z"></path>
                <path fill="#c9c9c9" d="M1504.704 150.026c-.051 0-.092.005-.147.007.468.009.932.02 1.331.027C1505.53 150.051 1505.062 150.037 1504.704 150.026zM1465.218 155.901c-.037.011-.06.023-.092.034l1.413-.465L1465.218 155.901z"></path>
              </g>
              <path fill="#f2f2f2" d="M1735.335,392.77c0.73-28.518-15.802-52.33-34.385-72.502
							c-36.243-42.577-73.541-86.375-109.734-128.892c17.619,20.032,10.65,45.027-9.575,60.024
							c-41.932,30.418-111.262,31.031-154.855,3.652c-22.946-14.166-33.853-40.955-14.508-63.188
							c-42.162,51.084-86.361,100.629-127.403,152.568c-52.224,81.185,35.972,147.705,108.261,167.695
							c75.087,22.196,157.764,20.966,231.773-4.889C1675.316,488.934,1733.633,452.154,1735.335,392.77z"></path>
              <path fill="#bababa" d="M1579.861,249.112c0,23.992-19.445,43.442-43.433,43.442c-57.624-2.289-57.606-84.599,0-86.882
							C1560.416,205.673,1579.861,225.123,1579.861,249.112z"></path>
            </g>
          </g>
          <g>
            <g>
              <path fill="#7ea6ff" d="M1213.462,1455.441c0.087-1.046,0.165-2.083,0.303-3.129c0.285-2.175,0.684-4.378,1.133-6.608
							c0.156-0.734,0.321-1.477,0.496-2.22c0.262-1.12,0.528-2.239,0.826-3.359c0.234-0.89,0.473-1.752,0.734-2.625
							c0.252-0.872,0.519-1.744,0.789-2.615c0.321-0.982,0.652-1.964,0.987-2.937c0.261-0.743,0.523-1.478,0.798-2.212
							c0.404-1.092,0.83-2.175,1.276-3.249c0.252-0.624,0.5-1.257,0.762-1.872c0.702-1.643,1.427-3.286,2.207-4.91l111.946-233.425
							l-27.369-15.912l-111.941,233.434c-0.675,1.404-1.317,2.808-1.927,4.221c-0.101,0.229-0.183,0.468-0.284,0.697
							c-0.266,0.615-0.505,1.23-0.757,1.854c-0.298,0.715-0.601,1.432-0.876,2.138c-0.142,0.367-0.261,0.734-0.404,1.111
							c-0.271,0.743-0.532,1.477-0.794,2.212c-0.188,0.541-0.399,1.082-0.583,1.624c-0.146,0.44-0.262,0.881-0.399,1.321
							c-0.284,0.872-0.546,1.735-0.802,2.615c-0.138,0.468-0.303,0.936-0.431,1.413c-0.11,0.394-0.188,0.798-0.298,1.193
							c-0.294,1.137-0.569,2.257-0.826,3.368c-0.11,0.495-0.257,0.991-0.358,1.468c-0.055,0.257-0.083,0.505-0.128,0.771
							c-0.459,2.212-0.858,4.423-1.143,6.589c0,0.009,0,0.009,0,0.018c-0.133,1.037-0.211,2.046-0.303,3.065
							c-0.064,0.698-0.161,1.413-0.207,2.083c-0.11,1.707-0.165,3.386-0.156,5.047l1,353.143l27.365,15.903l-1.005-353.152
							c0-1.643,0.055-3.322,0.165-5.02C1213.297,1456.808,1213.393,1456.111,1213.462,1455.441z"></path>
              <g>
                <path fill="#598cff" d="M1335.718,1186.282l1.583,558.249l-123.205,71.128l-1.005-353.152
								c-0.033-13.223,3.721-28.273,10.681-42.8L1335.718,1186.282z"></path>
              </g>
            </g>
          </g>
          <g>
            <g>
              <path fill="#7ea6ff" d="M1783.049,1455.441c-0.092-1.046-0.17-2.083-0.308-3.129c-0.28-2.175-0.684-4.378-1.138-6.608
							c-0.151-0.734-0.321-1.477-0.486-2.22c-0.261-1.12-0.532-2.239-0.83-3.359c-0.234-0.89-0.473-1.752-0.73-2.625
							c-0.257-0.872-0.519-1.744-0.798-2.615c-0.317-0.982-0.643-1.964-0.996-2.937c-0.248-0.743-0.514-1.478-0.78-2.212
							c-0.408-1.092-0.835-2.175-1.28-3.249c-0.252-0.624-0.496-1.257-0.766-1.872c-0.697-1.643-1.422-3.286-2.207-4.91
							l-111.937-233.425l27.365-15.912l111.941,233.434c0.669,1.404,1.321,2.808,1.927,4.221c0.101,0.229,0.184,0.468,0.285,0.697
							c0.266,0.615,0.509,1.23,0.762,1.854c0.289,0.715,0.601,1.432,0.872,2.138c0.142,0.367,0.266,0.734,0.399,1.111
							c0.275,0.743,0.536,1.477,0.793,2.212c0.193,0.541,0.404,1.082,0.583,1.624c0.152,0.44,0.266,0.881,0.404,1.321
							c0.28,0.872,0.546,1.735,0.798,2.615c0.138,0.468,0.303,0.936,0.436,1.413c0.11,0.394,0.183,0.798,0.294,1.193
							c0.303,1.137,0.569,2.257,0.826,3.368c0.119,0.495,0.261,0.991,0.367,1.468c0.05,0.257,0.073,0.505,0.128,0.771
							c0.454,2.212,0.858,4.423,1.133,6.589c0,0.009,0.005,0.009,0.005,0.018c0.133,1.037,0.211,2.046,0.303,3.065
							c0.064,0.698,0.16,1.413,0.202,2.083c0.115,1.707,0.174,3.386,0.165,5.047l-1,353.143l-27.369,15.903l1-353.152
							c0.005-1.643-0.05-3.322-0.161-5.02C1783.214,1456.808,1783.108,1456.111,1783.049,1455.441z"></path>
              <g>
                <path fill="#598cff" d="M1660.794,1186.282l-1.587,558.249l123.205,71.128l1-353.152
								c0.041-13.223-3.716-28.273-10.681-42.8L1660.794,1186.282z"></path>
              </g>
            </g>
          </g>
          <g>
            <path fill="#8f8f8f" d="M1733.413,912.374c-31.086,0-50.724-21.507-53.413-48.455
						c-4.469-44.605,25.438-131.427,54.234-163.245c9.897-10.936,20.914-16.484,32.728-16.484c7.46,0,10.874,1.769,17.036,6.151
						c18.904,13.437,22.157,34.268,21.239,72.128c-2.138,88.485-20.486,109.883-28.323,122.069l-0.849,1.326l-0.991,1.225
						C1758.46,907.536,1744.98,912.374,1733.413,912.374z"></path>
            <path fill="#636363" d="M1742.911,909.995c-24.098,0-39.414-23.125-41.589-44.885
						c-4.143-41.375,24.575-131.774,51.224-161.217c7.548-8.339,15.6-12.574,23.923-12.574c4.983,0,9.796,1.558,13.943,4.503
						c12.508,8.897,17.22,28.97,16.243,69.281c-2.056,85.148-19.138,111.714-26.433,123.058l-0.509,0.776l-0.578,0.715
						C1765.476,906.469,1751.899,909.995,1742.911,909.995z"></path>
            <path fill="#919191" d="M1794.781,764.702c-1.95,80.474-17.266,104.294-23.799,114.464
						c-12.889,15.873-31.719,18.979-42.075,13.017c-8.153-4.694-5.221-18.08-6.291-28.727
						c-3.771-37.713,16.743-129.519,39.859-152.891c5.332-5.403,18.812-4.2,23.052-1.186
						C1795.942,716.777,1795.07,752.851,1794.781,764.702L1794.781,764.702z"></path>
            <path fill="#74a1ff" d="M1782.902,764.702c-1.946,80.474-17.261,104.294-23.804,114.464
						c-24.061,29.631-46.067,7.224-48.361-15.711c-4.643-46.431,40.336-170.125,62.91-154.077
						C1784.063,716.777,1783.196,752.851,1782.902,764.702L1782.902,764.702z"></path>
            <g>
              <g>
                <defs>
                  <path id="a" d="M1782.902,764.702c-1.946,80.474-17.261,104.294-23.804,114.464
									c-24.061,29.631-46.067,7.224-48.361-15.711c-4.643-46.431,40.336-170.125,62.91-154.077
									C1784.063,716.777,1783.196,752.851,1782.902,764.702L1782.902,764.702z"></path>
                </defs>
                <clipPath id="b">
                  <use xlink:href="#a" overflow="visible"></use>
                </clipPath>
                <rect width="185.199" height="47.009" x="1662.742" y="786.004" fill="#6e6e6e" clip-path="url(#b)" transform="rotate(-43.553 1755.446 809.545)"></rect>
              </g>
            </g>
          </g>
          <g>
            <path fill="#8f8f8f" d="M1271.417,910.092c31.09,0,50.719-21.512,53.417-48.455
						c4.464-44.612-25.447-131.429-54.239-163.247c-9.893-10.938-20.909-16.481-32.733-16.481c-7.456,0-10.87,1.764-17.032,6.151
						c-18.899,13.432-22.161,34.27-21.244,72.123c2.143,88.49,20.492,109.89,28.328,122.074l0.854,1.326l0.991,1.221
						C1246.37,905.251,1259.854,910.092,1271.417,910.092z"></path>
            <path fill="#636363" d="M1261.924,907.715c24.089,0,39.414-23.127,41.589-44.887
						c4.138-41.372-24.58-131.778-51.228-161.219c-7.543-8.339-15.596-12.574-23.919-12.574c-4.983,0-9.805,1.558-13.948,4.504
						c-12.517,8.896-17.22,28.968-16.247,69.281c2.064,85.147,19.147,111.716,26.442,123.06l0.496,0.78l0.587,0.709
						C1239.349,904.184,1252.926,907.715,1261.924,907.715z"></path>
            <path fill="#919191" d="M1210.044,762.415c1.954,80.477,17.275,104.297,23.809,114.467
						c12.884,15.873,31.719,18.98,42.07,13.017c8.158-4.691,5.217-18.08,6.291-28.725c3.771-37.719-16.743-129.521-39.849-152.891
						c-5.341-5.405-18.826-4.201-23.061-1.191C1208.887,714.49,1209.764,750.563,1210.044,762.415L1210.044,762.415z"></path>
            <path fill="#74a1ff" d="M1221.923,762.415c1.95,80.477,17.266,104.297,23.809,114.467
						c24.061,29.634,46.058,7.224,48.351-15.708c4.653-46.431-40.322-170.125-62.91-154.082
						C1220.766,714.49,1221.634,750.563,1221.923,762.415L1221.923,762.415z"></path>
            <g>
              <g>
                <defs>
                  <path id="c" d="M1221.923,762.415c1.95,80.477,17.266,104.297,23.809,114.467
									c24.061,29.634,46.058,7.224,48.351-15.708c4.653-46.431-40.322-170.125-62.91-154.082
									C1220.766,714.49,1221.634,750.563,1221.923,762.415L1221.923,762.415z"></path>
                </defs>
                <clipPath id="d">
                  <use xlink:href="#c" overflow="visible"></use>
                </clipPath>
                <rect width="185.207" height="47.005" x="1156.887" y="783.719" fill="#6e6e6e" clip-path="url(#d)" transform="rotate(-136.447 1249.543 807.242)"></rect>
              </g>
            </g>
          </g>
          <g>
            <path fill="#6e6e6e" d="M1582.568,834.128c-22.859-23.056-55.133-36.284-88.54-36.284
						c-28.782,0-55.137,9.752-76.202,28.215c-30.664,26.86-41.887,66.928-29.287,104.56c14.205,42.462,55.124,71.211,106.792,75.028
						l1.171,0.085l1.175-0.021c74.482-1.875,109.862-55.028,114.666-88.121c0.436-2.999,0.721-6.708,0.748-9.677
						C1613.319,880.415,1602.481,854.206,1582.568,834.128z M1588.827,914.193c-2.478,17.046-24.64,66.081-91.748,67.763
						c-88.031-6.504-115.662-92.409-63.598-138.03c57.432-50.315,156.475-9.776,155.851,63.789
						C1589.317,909.665,1589.111,912.264,1588.827,914.193z"></path>
            <path fill="#8f8f8f" d="M1495.33,991.394c-51.668-3.818-92.587-32.566-106.792-75.021
						c-12.6-37.642-1.377-77.709,29.287-104.569c21.065-18.459,47.42-28.216,76.202-28.216c33.408,0,65.681,13.228,88.54,36.28
						c19.913,20.083,30.751,46.294,30.521,73.796c-0.027,2.967-0.312,6.674-0.748,9.677c-4.804,33.086-40.184,86.251-114.666,88.111
						l-1.175,0.032L1495.33,991.394z"></path>
            <g>
              <path fill="#636363" d="M1495.33,1005.648c-51.668-3.817-92.587-32.566-106.792-75.028
							c-12.6-37.633-1.377-77.701,29.287-104.56c21.065-18.463,47.42-28.215,76.202-28.215c33.408,0,65.681,13.228,88.54,36.284
							c19.913,20.079,30.751,46.287,30.521,73.787c-0.027,2.969-0.312,6.678-0.748,9.677
							c-4.804,33.093-40.184,86.246-114.666,88.121l-1.175,0.021L1495.33,1005.648z"></path>
            </g>
            <path fill="#919191" d="M1588.827,914.193c-2.478,17.046-24.64,66.081-91.748,67.763
						c-88.04-6.504-115.662-92.409-63.598-138.03c57.432-50.315,156.475-9.776,155.851,63.789
						C1589.317,909.665,1589.111,912.264,1588.827,914.193L1588.827,914.193z"></path>
            <path fill="#74a1ff" d="M1497.079,970.079c67.108-1.686,89.27-50.715,91.748-67.762c0.087-0.578,0.16-1.216,0.225-1.879
						c-5.694-68.902-100.062-105.141-155.571-56.512c-16.046,14.056-24.492,31.944-25.965,50.145
						C1410.644,930.941,1442.065,966.014,1497.079,970.079z"></path>
            <g>
              <defs>
                <path id="e" d="M1582.568,834.128c-22.859-23.056-55.133-36.284-88.54-36.284c-28.782,0-55.137,9.752-76.202,28.215
								c-30.664,26.86-41.887,66.928-29.287,104.56c14.205,42.462,55.124,71.211,106.792,75.028l1.171,0.085l1.175-0.021
								c74.482-1.875,109.862-55.028,114.666-88.121c0.436-2.999,0.721-6.708,0.748-9.677
								C1613.319,880.415,1602.481,854.206,1582.568,834.128z M1588.827,914.193c-2.478,17.046-24.64,66.081-91.748,67.763
								c-88.031-6.504-115.662-92.409-63.598-138.03c57.432-50.315,156.475-9.776,155.851,63.789
								C1589.317,909.665,1589.111,912.264,1588.827,914.193z"></path>
              </defs>
              <clipPath id="f">
                <use xlink:href="#e" overflow="visible"></use>
              </clipPath>
              <rect width="277.417" height="60.976" x="1324.185" y="920.78" fill="#1f1f1f" clip-path="url(#f)" transform="rotate(30.542 1462.765 951.16)"></rect>
              <rect width="277.422" height="23.401" x="1367.838" y="882.076" fill="#6e6e6e" clip-path="url(#f)" transform="rotate(30.537 1506.671 893.91)"></rect>
            </g>
            <g>
              <defs>
                <path id="g" d="M1497.079,970.079c67.108-1.686,89.27-50.715,91.748-67.762c0.087-0.578,0.16-1.216,0.225-1.879
								c-5.694-68.902-100.062-105.141-155.571-56.512c-16.046,14.056-24.492,31.944-25.965,50.145
								C1410.644,930.941,1442.065,966.014,1497.079,970.079z"></path>
              </defs>
              <clipPath id="h">
                <use xlink:href="#g" overflow="visible"></use>
              </clipPath>
              <polygon fill="#545454" points="1569.821 1038.243 1330.909 897.279 1359.99 847.966 1598.911 988.926" clip-path="url(#h)"></polygon>
              <rect width="23.401" height="277.423" x="1494.849" y="747.938" fill="#6e6e6e" clip-path="url(#h)" transform="rotate(-59.463 1506.466 886.645)"></rect>
            </g>
          </g>
        </g>
      </g>
    </g>
  </switch>
</svg>
